G04*
G04 #@! TF.GenerationSoftware,Altium Limited,Altium Designer,20.2.4 (192)*
G04*
G04 Layer_Color=8388736*
%FSLAX25Y25*%
%MOIN*%
G70*
G04*
G04 #@! TF.SameCoordinates,C82156A4-65EB-44BA-A6C3-424022D268A2*
G04*
G04*
G04 #@! TF.FilePolarity,Negative*
G04*
G01*
G75*
%ADD38R,0.03150X0.03150*%
%ADD50R,0.03543X0.03150*%
%ADD56C,0.02400*%
%ADD57R,0.22638X0.22638*%
%ADD58R,0.03622X0.01654*%
%ADD59R,0.01654X0.04114*%
%ADD60R,0.01772X0.02756*%
%ADD61R,0.02756X0.01772*%
%ADD62R,0.03591X0.03591*%
%ADD63R,0.03091X0.02591*%
%ADD64R,0.03591X0.03591*%
%ADD65R,0.05591X0.04191*%
%ADD66R,0.04191X0.04191*%
%ADD67R,0.04528X0.05315*%
%ADD68R,0.02520X0.02638*%
%ADD69R,0.04528X0.07677*%
%ADD70C,0.01417*%
%ADD71R,0.03740X0.03740*%
%ADD72R,0.02303X0.02591*%
%ADD73R,0.05315X0.07677*%
%ADD74R,0.02953X0.06693*%
%ADD75R,0.02165X0.05906*%
%ADD76R,0.08071X0.06693*%
%ADD77R,0.06890X0.06102*%
%ADD78R,0.03543X0.03740*%
%ADD79R,0.02559X0.02874*%
%ADD80R,0.04331X0.03937*%
%ADD81C,0.01378*%
%ADD82R,0.06063X0.11417*%
%ADD83R,0.06102X0.11417*%
%ADD84R,0.07480X0.18307*%
%ADD85R,0.02362X0.02362*%
%ADD86R,0.08583X0.03583*%
%ADD87R,0.01575X0.02165*%
%ADD88R,0.03347X0.02165*%
%ADD89C,0.01378*%
%ADD90C,0.04528*%
%ADD91C,0.08465*%
%ADD92C,0.03937*%
%ADD93O,0.04134X0.06890*%
%ADD94C,0.04606*%
%ADD95C,0.02362*%
%ADD96C,0.02087*%
%ADD97C,0.05591*%
D38*
X6299Y137205D02*
D03*
Y143110D02*
D03*
D50*
X71544Y149665D02*
D03*
X77056D02*
D03*
X71544Y145335D02*
D03*
D56*
X41000Y95410D02*
G03*
X41000Y95410I-1100J0D01*
G01*
D57*
X96063Y139764D02*
D03*
D58*
X186820Y91069D02*
D03*
Y89100D02*
D03*
Y87132D02*
D03*
X176780D02*
D03*
Y89100D02*
D03*
Y91069D02*
D03*
X186420Y110968D02*
D03*
Y109000D02*
D03*
Y107032D02*
D03*
X176380D02*
D03*
Y109000D02*
D03*
Y110968D02*
D03*
D59*
X185737Y84031D02*
D03*
X183768D02*
D03*
X181800D02*
D03*
X179832D02*
D03*
X177863D02*
D03*
Y94169D02*
D03*
X179832D02*
D03*
X181800D02*
D03*
X183768D02*
D03*
X185737D02*
D03*
X185337Y103931D02*
D03*
X183369D02*
D03*
X181400D02*
D03*
X179431D02*
D03*
X177463D02*
D03*
Y114069D02*
D03*
X179431D02*
D03*
X181400D02*
D03*
X183369D02*
D03*
X185337D02*
D03*
D60*
X106890Y126476D02*
D03*
X97047D02*
D03*
X95079D02*
D03*
X93110D02*
D03*
X91142D02*
D03*
X89173D02*
D03*
X87205D02*
D03*
X99016D02*
D03*
X100984D02*
D03*
X102953D02*
D03*
X104921D02*
D03*
X85236D02*
D03*
X104921Y153051D02*
D03*
X97047D02*
D03*
X89173D02*
D03*
X102953D02*
D03*
X100984D02*
D03*
X99016D02*
D03*
X91142D02*
D03*
X93110D02*
D03*
X95079D02*
D03*
X87205D02*
D03*
X85236D02*
D03*
X106890D02*
D03*
D61*
X109350Y130905D02*
D03*
Y138779D02*
D03*
Y146653D02*
D03*
Y132874D02*
D03*
Y134843D02*
D03*
Y136811D02*
D03*
Y144685D02*
D03*
Y142717D02*
D03*
Y140748D02*
D03*
Y148622D02*
D03*
Y150591D02*
D03*
Y128937D02*
D03*
X82776Y130905D02*
D03*
Y138779D02*
D03*
Y146653D02*
D03*
Y132874D02*
D03*
Y134843D02*
D03*
Y136811D02*
D03*
Y144685D02*
D03*
Y142717D02*
D03*
Y140748D02*
D03*
Y148622D02*
D03*
Y150591D02*
D03*
Y128937D02*
D03*
D62*
X118500Y52300D02*
D03*
Y46800D02*
D03*
X131400Y47000D02*
D03*
Y52500D02*
D03*
X117300Y33800D02*
D03*
Y28300D02*
D03*
X124400Y57800D02*
D03*
Y63300D02*
D03*
X118200Y57700D02*
D03*
Y63200D02*
D03*
X124500Y52400D02*
D03*
Y46900D02*
D03*
X97200Y63001D02*
D03*
Y57501D02*
D03*
X12400Y117600D02*
D03*
Y123100D02*
D03*
X41500Y140500D02*
D03*
Y135000D02*
D03*
X39700Y121500D02*
D03*
Y116000D02*
D03*
X12800Y142800D02*
D03*
Y137300D02*
D03*
X85300Y164600D02*
D03*
Y159100D02*
D03*
X122000Y33600D02*
D03*
Y28100D02*
D03*
X40000Y105400D02*
D03*
Y110900D02*
D03*
X139700Y75100D02*
D03*
Y80600D02*
D03*
X133700Y75200D02*
D03*
Y80700D02*
D03*
X127559Y75209D02*
D03*
Y80709D02*
D03*
X121260Y75209D02*
D03*
Y80709D02*
D03*
X114961Y75209D02*
D03*
Y80709D02*
D03*
X108661Y75209D02*
D03*
Y80709D02*
D03*
X102362Y75209D02*
D03*
Y80709D02*
D03*
X102701Y57501D02*
D03*
Y63001D02*
D03*
X108268Y46900D02*
D03*
Y52400D02*
D03*
X108202Y63401D02*
D03*
X102400Y46500D02*
D03*
Y52000D02*
D03*
X82700Y34600D02*
D03*
Y29100D02*
D03*
X96899Y52000D02*
D03*
Y46500D02*
D03*
X133600Y28100D02*
D03*
Y33600D02*
D03*
X127400Y28200D02*
D03*
Y33700D02*
D03*
D63*
X66391Y58600D02*
D03*
X61209D02*
D03*
X79500Y164500D02*
D03*
X75500D02*
D03*
X48000Y50900D02*
D03*
X52000D02*
D03*
X66535Y34646D02*
D03*
X76835D02*
D03*
D64*
X159251Y104263D02*
D03*
X153751D02*
D03*
X39600Y46100D02*
D03*
X34100D02*
D03*
X154369Y146137D02*
D03*
X159869D02*
D03*
X154400Y139100D02*
D03*
X159900D02*
D03*
X159437Y116142D02*
D03*
X153937D02*
D03*
X153543Y122441D02*
D03*
X159043D02*
D03*
X159200Y110000D02*
D03*
X153700D02*
D03*
X160224Y153543D02*
D03*
X154724D02*
D03*
X108202Y57901D02*
D03*
D65*
X20600Y139500D02*
D03*
X20300Y119500D02*
D03*
D66*
X28600Y143200D02*
D03*
Y135700D02*
D03*
X28300Y115700D02*
D03*
Y123200D02*
D03*
D67*
X107874Y16535D02*
D03*
X117717D02*
D03*
X127559D02*
D03*
X87537Y16536D02*
D03*
X77694D02*
D03*
X67852D02*
D03*
D68*
X96995Y210100D02*
D03*
X93805D02*
D03*
D69*
X49413Y41823D02*
D03*
X56500D02*
D03*
X44163Y58100D02*
D03*
X51250D02*
D03*
D70*
X70457Y44079D02*
D03*
X68882D02*
D03*
X67307D02*
D03*
X65732D02*
D03*
X64157D02*
D03*
X62583D02*
D03*
X70457Y45654D02*
D03*
X68882D02*
D03*
X67307D02*
D03*
X65732D02*
D03*
X64157D02*
D03*
X62583D02*
D03*
X70457Y47228D02*
D03*
X68882D02*
D03*
X64157D02*
D03*
X62583D02*
D03*
X70457Y48803D02*
D03*
X68882D02*
D03*
X64157D02*
D03*
X62583D02*
D03*
X70457Y50378D02*
D03*
X68882D02*
D03*
X67307D02*
D03*
X65732D02*
D03*
X64157D02*
D03*
X62583D02*
D03*
X70457Y51953D02*
D03*
X68882D02*
D03*
X67307D02*
D03*
X65732D02*
D03*
X64157D02*
D03*
X62583D02*
D03*
D71*
X5400Y123153D02*
D03*
Y117247D02*
D03*
D72*
X83528Y57087D02*
D03*
X80315D02*
D03*
X83465Y50787D02*
D03*
X80252D02*
D03*
X83364Y43600D02*
D03*
X80151D02*
D03*
X55905Y34646D02*
D03*
X52693D02*
D03*
X62929D02*
D03*
X73228D02*
D03*
D73*
X49606Y3642D02*
D03*
X29134D02*
D03*
D74*
X39370Y18898D02*
D03*
X35433D02*
D03*
X43307D02*
D03*
D75*
X159125Y16931D02*
D03*
X156565D02*
D03*
X154006D02*
D03*
X161683D02*
D03*
X164243D02*
D03*
D76*
X154400Y6400D02*
D03*
X163849D02*
D03*
D77*
X171723Y16046D02*
D03*
X146526D02*
D03*
D78*
X81365Y198307D02*
D03*
X89435D02*
D03*
Y190827D02*
D03*
X81365D02*
D03*
D79*
X85400Y199134D02*
D03*
Y190000D02*
D03*
D80*
X85500Y204743D02*
D03*
Y210057D02*
D03*
D81*
X39900Y96630D02*
D03*
Y94170D02*
D03*
X62583Y44079D02*
D03*
X84400Y63000D02*
D03*
X85100Y69900D02*
D03*
X84800Y67900D02*
D03*
X84700Y66200D02*
D03*
X71900Y39600D02*
D03*
X57200Y46400D02*
D03*
X68882Y50378D02*
D03*
Y48803D02*
D03*
Y47228D02*
D03*
X67307Y50378D02*
D03*
X64157D02*
D03*
X65732D02*
D03*
D82*
X174409Y152953D02*
D03*
D83*
X190157D02*
D03*
X174409Y179528D02*
D03*
X190157D02*
D03*
D84*
X50302Y91900D02*
D03*
X63098D02*
D03*
D85*
X176876Y124776D02*
D03*
Y127925D02*
D03*
Y131075D02*
D03*
Y134224D02*
D03*
X186324D02*
D03*
Y131075D02*
D03*
Y127925D02*
D03*
Y124776D02*
D03*
D86*
X16516Y64705D02*
D03*
X28524Y79705D02*
D03*
Y74705D02*
D03*
Y69705D02*
D03*
Y64705D02*
D03*
Y59705D02*
D03*
X16516Y79705D02*
D03*
Y74705D02*
D03*
Y69705D02*
D03*
Y59705D02*
D03*
D87*
X109186Y32122D02*
D03*
X107414D02*
D03*
D88*
X108300Y34878D02*
D03*
D89*
X33200Y25900D02*
X35433Y23667D01*
D90*
X192000Y5000D02*
D03*
Y270700D02*
D03*
X5100Y270000D02*
D03*
D91*
X13500Y190400D02*
D03*
X10300Y15800D02*
D03*
X186100Y15600D02*
D03*
D92*
X123622Y6299D02*
D03*
X111811Y6299D02*
D03*
X71789Y6300D02*
D03*
X83600Y6300D02*
D03*
D93*
X172117Y6400D02*
D03*
X146132D02*
D03*
D94*
X5512Y77205D02*
D03*
Y62205D02*
D03*
D95*
X179832Y89969D02*
D03*
X88300Y99700D02*
D03*
X88098Y96400D02*
D03*
X75461Y196987D02*
D03*
X93700Y203800D02*
D03*
X69900Y164600D02*
D03*
X108400Y42900D02*
D03*
X102700Y35800D02*
D03*
X172400Y130600D02*
D03*
Y127300D02*
D03*
X191100Y111100D02*
D03*
X191700Y101500D02*
D03*
X191400Y92500D02*
D03*
X78900Y141500D02*
D03*
X72800Y134600D02*
D03*
X91800Y122000D02*
D03*
X98900Y121600D02*
D03*
X102200Y117700D02*
D03*
X96700Y102400D02*
D03*
X115500Y148500D02*
D03*
X111100Y155500D02*
D03*
X107800Y159700D02*
D03*
X79400Y126000D02*
D03*
X109600Y124400D02*
D03*
X85900Y120000D02*
D03*
X118700Y139800D02*
D03*
Y148100D02*
D03*
X113600Y49700D02*
D03*
X182600Y137700D02*
D03*
X190200Y141700D02*
D03*
X184700Y78600D02*
D03*
X97400Y80300D02*
D03*
X66700Y64300D02*
D03*
X16500Y89800D02*
D03*
X167000Y26700D02*
D03*
X146400Y80500D02*
D03*
X153700Y99800D02*
D03*
X67400Y141600D02*
D03*
X66600Y149600D02*
D03*
X34500Y111200D02*
D03*
X97000Y42500D02*
D03*
X79300Y24200D02*
D03*
X90300Y50900D02*
D03*
X92000Y40600D02*
D03*
X28900Y47400D02*
D03*
X28800Y42500D02*
D03*
X43300Y51000D02*
D03*
X81400Y46900D02*
D03*
X133600Y40000D02*
D03*
X112400Y32000D02*
D03*
X117300Y22900D02*
D03*
X148000Y153600D02*
D03*
X190400Y192200D02*
D03*
X12700Y129100D02*
D03*
X28400D02*
D03*
X151900Y31000D02*
D03*
X61000Y39700D02*
D03*
X60900Y14200D02*
D03*
X72100Y21200D02*
D03*
X95000Y121400D02*
D03*
X144800Y27900D02*
D03*
X61700Y137600D02*
D03*
X79800Y119800D02*
D03*
X84800Y78400D02*
D03*
X57400Y83900D02*
D03*
X103300Y94700D02*
D03*
X34200Y96100D02*
D03*
X85700Y74900D02*
D03*
X82600Y117300D02*
D03*
X61400Y111500D02*
D03*
X122100Y24300D02*
D03*
X50400Y27400D02*
D03*
X99900Y21300D02*
D03*
X86700Y34600D02*
D03*
X84136Y86436D02*
D03*
X75200Y84400D02*
D03*
X90200Y102000D02*
D03*
X46700Y140700D02*
D03*
X113700Y134900D02*
D03*
X141850Y139950D02*
D03*
X173068Y107032D02*
D03*
X113200Y162400D02*
D03*
X179776Y134224D02*
D03*
X163900Y126800D02*
D03*
X168400Y131300D02*
D03*
X136500Y96900D02*
D03*
X179431Y118569D02*
D03*
X118700Y142700D02*
D03*
X163000Y103200D02*
D03*
X169200Y101100D02*
D03*
X90200Y104600D02*
D03*
X136500Y99400D02*
D03*
X168500Y87100D02*
D03*
X118700Y136900D02*
D03*
X170900Y91200D02*
D03*
Y108600D02*
D03*
X39200Y25300D02*
D03*
X75700Y63000D02*
D03*
X75300Y72800D02*
D03*
X104800Y157200D02*
D03*
X73000Y75500D02*
D03*
X71911Y71711D02*
D03*
X102200Y157500D02*
D03*
X43400Y46400D02*
D03*
X68900Y38100D02*
D03*
X72755Y45654D02*
D03*
X58900Y50700D02*
D03*
X66500Y39700D02*
D03*
D96*
X156366Y264445D02*
D03*
Y240823D02*
D03*
X148492Y264445D02*
D03*
Y240823D02*
D03*
X140618Y264445D02*
D03*
Y240823D02*
D03*
X132744Y264445D02*
D03*
Y240823D02*
D03*
X124870Y264445D02*
D03*
Y240823D02*
D03*
X116996Y264445D02*
D03*
Y240823D02*
D03*
X109122Y264445D02*
D03*
Y240823D02*
D03*
X101248Y264445D02*
D03*
Y240823D02*
D03*
X93374Y264445D02*
D03*
Y240823D02*
D03*
X85500Y264444D02*
D03*
D97*
X80976Y181019D02*
D03*
Y175019D02*
D03*
X80611Y169030D02*
D03*
X90330Y165174D02*
D03*
X89824Y171153D02*
D03*
Y177153D02*
D03*
Y183153D02*
D03*
M02*
