M48
;Layer_Color=9474304
;FILE_FORMAT=2:5
INCH,LZ
;TYPE=PLATED
T1F00S00C0.00394
T2F00S00C0.00787
T4F00S00C0.02800
T5F00S00C0.08268
;TYPE=NON_PLATED
T6F00S00C0.03346
T7F00S00C0.04016
%
T01
X00724Y00391
X0068882Y0047228
Y0048803
Y0050378
X0067307
X0065732
T02
X0005736Y0006504
X001461
X0023484
X0027921Y0015378
X0036795
X00392Y00253
X0032358Y0024252
X0023484
X001461
X0005736
X0010173Y0033126
X0019047
X0027921
X0032358Y0042
X0023484
X001461
X0005736
X0010173Y0050874
X0019047
X0022146Y0052067
X0027921Y0050874
X0036614Y0053347
X00433Y0051
X00434Y00464
X0047146Y0028445
X0019047Y0015378
X00609Y00142
X0067854Y0006504
X0076728
X0085602
X0094476
X010335
X0112224
X0121098
X0129972
X0138847
X0143283Y0015378
X0134409
X0125535
X0116661
X0114469Y0027953
X0107972
X01027Y00358
X0097Y00425
X0092Y00406
X00867Y00346
X0086614Y0031594
X0089764Y0027657
X00768Y00289
X0065903Y0025591
X00665Y00397
X00689Y00381
X0061Y00397
X0057Y00466
X00589Y00507
X007392Y0045669
X008061Y0046821
X00903Y00509
X0112426Y0048425
X0121098Y0042
X0129972
X0133311Y0042268
X0147721Y0042
X0145768Y0031409
X0152157Y0033126
X0161031
X0163091Y0031102
X0169905Y0033126
X0178779
X0187654
X0183217Y0042
X0174343
X0178779Y0050874
X0187654
X0169905
X0161031
X0163091Y0046654
X0152157Y0050874
X0143283
X0147721Y0024252
X0138847
X0174343
X0183217
X0178779Y0015378
X0169905
X0183217Y0006504
X0099824Y0021436
X0113287Y0057677
X0112224Y0059748
X0116661Y0068622
X0125535
X0134409
X0143283
X0147721Y0059748
X0156595
X0165469
X0174343
X0183217
X0187654Y0068622
X01847Y00786
X0179832Y0089969
X01709Y00912
X01685Y00871
X0165469Y0095244
X0163357Y0102021
X01692Y01011
X01701Y01087
X0173068Y0107032
X0165469Y0112992
X01639Y01268
X0172822Y0126878
X01724Y01306
X01684Y01313
X0169905Y0139614
X0165469Y0148488
X0183217
X01826Y01377
X0179776Y0134224
X0179431Y0118569
X0191034Y0111034
X01917Y01015
X01914Y00925
X0181595Y0099508
X0153012Y0099671
X01365Y01002
Y00969
X0134409Y0104118
X0125535
X0116661
X0107787
X0112224Y0112992
X0121098
X0125535Y0121866
X0129972Y013074
X0138847
X0147721
X0143283Y0121866
X0147721Y0112992
X0138847
X014185Y013995
X0138847Y0148488
X0147721
X0148Y01536
X0143283Y0157362
X0134409
Y017511
X0143283
X0152157
X0161031
X0165469Y0183984
X0156595
X0147721
X0138847
X0129972
X0121098
X0112224
X010335
X0094476
X0098913Y0192858
X0107787
X0116661
X0125535
X0134409
X0143283
X0152157
X0161031
X0169905
X0178779
X0187654
X01904Y01922
X0183217Y0183984
Y0201732
X0174343
X0165469
X0156595
X0147721
X0138847
X0129972
X0121098
X0112224
X010335
X0094476
X0076728
X0075461Y0196987
X0072291Y0192858
X0063417
X0067854Y0201732
X005898
X0063417Y0210606
X0072291
X0081165
X0107787
X0116661
X0125535
X0134409
X0143283
X0152157
X0161031
X0169905
X0178779
X0187654
X0183217Y0166236
X0165469
X0156595
X0125535Y017511
X0116661
X0107787
X0098913
X01022Y01575
X0105315Y0157874
X0111516Y0152953
X01155Y01485
X01187Y01427
Y01369
X01137Y01349
X0121098Y013074
X0127067Y0138779
X0107787Y0121866
X00989Y01216
X0095Y01214
X00918Y0122
X0089272Y0123228
X00826Y01173
X00798Y01198
X00794Y0126
X00728Y01346
X00789Y01415
X00666Y01496
X005898Y0148488
X0063417Y0157362
X0072291
X00699Y01646
X005898Y0166236
X0063417Y017511
X0072291
X0076728Y0183984
X0067854
X005898
X00617Y01376
X0063417Y0121866
X00614Y01115
X00574Y00839
X00752Y00844
X0084136Y0086436
X00848Y00784
X00857Y00749
X0087402Y0071063
X0086319Y0068209
X0088583Y0065453
X0085138Y0063287
X00757Y0063
X00753Y00728
X00727Y00752
X00711Y00716
X00667Y00643
X0107787Y0068622
Y008637
X0116661
X0125535
X0134409
X0138847Y0059748
X0129972
X01031Y00931
X0088098Y00964
X00883Y00997
X00902Y0102
Y01054
X01022Y01177
X01132Y01624
X01902Y01417
X0054543Y0139614
X00467Y01407
X0041232Y0148488
X0032358
X0028445Y0147047
X0023484Y0148488
X001461
X0005736
X0010173Y0157362
X0019047
X0027921
X0036795
X0045669
X0054543
X0050106Y0166236
X0041232
X0032358
X0023484
X001461
X0005736
X0010173Y017511
X0019047
X0027921
X0036795
X0045669
X0054543
X0050106Y0183984
X0041232
X0032358
X0023484
X001461
X0005736
Y0201732
X001461
X0023484
X0032358
X0041232
X0050106
X0054543Y0210606
X0045669
X0036795
X0027921
X0019047
X0010173
X0019047Y0192858
X0027921
X0036795
X0045669
X0054543
X0050106Y013074
X0041232
X0045669Y0121866
X0054543
X0050106Y0112992
X00345Y01112
X0027921Y0104118
X0019047
X0010173
X0005736Y0095244
X00147Y00939
X0023484Y0095244
X00342Y00961
X0027921Y008637
X0023484Y0077496
X0010173Y008637
Y0068622
X00127Y01291
X0005736Y013074
X0023484
X0028346Y0127854
X0093374Y0240823
X0101248
X0109122
X0116996
X012487
X0132744
X0140618
X0148492
X0156366
Y0264445
X0148492
X0140618
X0132744
X012487
X0116996
X0109122
X0101248
X0093374
X00855Y0264444
T04
X0080611Y016903
X0080976Y0175019
Y0181019
X0089824Y0183153
Y0177153
Y0171153
X009033Y0165174
T05
X00103Y00158
X01861Y00156
X00135Y01904
T06
X0073994Y00112
X0085805Y00112
X01132Y00112
X0125011Y00112
T07
X0006496Y00622
Y00772
M30
