G04*
G04 #@! TF.GenerationSoftware,Altium Limited,Altium Designer,20.2.4 (192)*
G04*
G04 Layer_Color=32768*
%FSLAX25Y25*%
%MOIN*%
G70*
G04*
G04 #@! TF.SameCoordinates,C82156A4-65EB-44BA-A6C3-424022D268A2*
G04*
G04*
G04 #@! TF.FilePolarity,Positive*
G04*
G01*
G75*
%ADD11C,0.00787*%
%ADD14C,0.00394*%
%ADD126C,0.00118*%
%ADD127C,0.00300*%
D11*
X63370Y51362D02*
G03*
X63370Y51362I-197J0D01*
G01*
X178844Y126350D02*
G03*
X178844Y126350I-394J0D01*
G01*
D14*
X186328Y93037D02*
G03*
X186328Y93037I-984J0D01*
G01*
X185927Y112937D02*
G03*
X185927Y112937I-984J0D01*
G01*
X162469Y30500D02*
G03*
X162469Y30500I-1969J0D01*
G01*
X163500D02*
G03*
X163500Y30500I-3000J0D01*
G01*
X63968Y23100D02*
G03*
X63968Y23100I-1969J0D01*
G01*
X65000D02*
G03*
X65000Y23100I-3000J0D01*
G01*
X70200Y128800D02*
G03*
X70200Y128800I-3000J0D01*
G01*
X69169D02*
G03*
X69169Y128800I-1969J0D01*
G01*
X144668Y35000D02*
G03*
X144668Y35000I-1969J0D01*
G01*
X145700D02*
G03*
X145700Y35000I-3000J0D01*
G01*
X162169Y39800D02*
G03*
X162169Y39800I-1969J0D01*
G01*
X163200D02*
G03*
X163200Y39800I-3000J0D01*
G01*
X93669Y114800D02*
G03*
X93669Y114800I-1969J0D01*
G01*
X94700D02*
G03*
X94700Y114800I-3000J0D01*
G01*
X136800Y21900D02*
G03*
X136800Y21900I-3000J0D01*
G01*
X135768D02*
G03*
X135768Y21900I-1969J0D01*
G01*
X42400Y39900D02*
G03*
X42400Y39900I-3000J0D01*
G01*
X41368D02*
G03*
X41368Y39900I-1969J0D01*
G01*
X110900Y23300D02*
G03*
X110900Y23300I-3000J0D01*
G01*
X109869D02*
G03*
X109869Y23300I-1969J0D01*
G01*
X60800Y7300D02*
G03*
X60800Y7300I-3000J0D01*
G01*
X59768D02*
G03*
X59768Y7300I-1969J0D01*
G01*
X93900Y59500D02*
G03*
X93900Y59500I-3000J0D01*
G01*
X92869D02*
G03*
X92869Y59500I-1969J0D01*
G01*
X113300Y119500D02*
G03*
X113300Y119500I-3000J0D01*
G01*
X112268D02*
G03*
X112268Y119500I-1969J0D01*
G01*
X94000Y45300D02*
G03*
X94000Y45300I-3000J0D01*
G01*
X92968D02*
G03*
X92968Y45300I-1969J0D01*
G01*
X96400Y75000D02*
G03*
X96400Y75000I-3000J0D01*
G01*
X95368D02*
G03*
X95368Y75000I-1969J0D01*
G01*
X36017Y19544D02*
G03*
X34836Y19544I-591J0D01*
G01*
X39950Y19544D02*
G03*
X38769Y19544I-591J0D01*
G01*
X43887D02*
G03*
X42706Y19544I-591J0D01*
G01*
X146755Y-2187D02*
G03*
X146361Y-1793I-394J0D01*
G01*
X146755Y-3843D02*
G03*
X147149Y-4236I394J0D01*
G01*
X146755Y-3142D02*
G03*
X147149Y-3536I394J0D01*
G01*
X148821Y15472D02*
G03*
X150672Y15472I925J0D01*
G01*
X167577D02*
G03*
X169428Y15472I925J0D01*
G01*
X171905Y-1793D02*
G03*
X171512Y-2187I0J-394D01*
G01*
X171118Y-4236D02*
G03*
X171512Y-3843I0J394D01*
G01*
X171118Y-3536D02*
G03*
X171512Y-3142I0J394D01*
G01*
X174099Y-1857D02*
G03*
X174184Y-2102I394J0D01*
G01*
X144063Y-2126D02*
G03*
X144150Y-1879I-307J247D01*
G01*
X38093Y94914D02*
G03*
X41707Y94914I1807J319D01*
G01*
Y95886D02*
G03*
X38093Y95886I-1807J-319D01*
G01*
X178701Y178445D02*
G03*
X185866Y178445I3582J5753D01*
G01*
X184021Y154035D02*
G03*
X180546Y154035I-1738J-925D01*
G01*
X188189Y166240D02*
G03*
X188189Y166240I-5906J0D01*
G01*
X189060D02*
G03*
X189060Y166240I-6777J0D01*
G01*
X185340Y131862D02*
G03*
X185340Y131862I-1378J0D01*
G01*
X47069Y28000D02*
G03*
X47069Y28000I-1969J0D01*
G01*
X48100D02*
G03*
X48100Y28000I-3000J0D01*
G01*
X23668Y48600D02*
G03*
X23668Y48600I-1969J0D01*
G01*
X24700D02*
G03*
X24700Y48600I-3000J0D01*
G01*
X175698Y82604D02*
Y95596D01*
X187902Y82604D02*
Y95596D01*
X175698Y82604D02*
X187902D01*
X175698Y95596D02*
X187902D01*
X175298Y102504D02*
Y115496D01*
X187502Y102504D02*
Y115496D01*
X175298Y102504D02*
X187502D01*
X175298Y115496D02*
X187502D01*
X103549Y11990D02*
X131892D01*
X103549Y315D02*
X131892D01*
X111811Y-3543D02*
X117721D01*
Y315D01*
X116719Y17036D02*
X118722D01*
X116719Y13969D02*
X118722D01*
X114315Y1799D02*
X121126D01*
X128737Y11990D02*
Y17036D01*
X126734Y11990D02*
Y17036D01*
X131492Y4208D02*
Y8099D01*
X118722Y11990D02*
Y17036D01*
X116719Y11990D02*
Y17036D01*
X111811Y-3543D02*
Y315D01*
X108707Y11990D02*
Y17036D01*
X106704Y11990D02*
Y17036D01*
X103950Y4208D02*
Y8099D01*
X126734Y17036D02*
X128737D01*
X126734Y13969D02*
X128737D01*
X131090Y8099D02*
Y11990D01*
X130289Y8099D02*
Y11990D01*
Y8099D02*
X131492D01*
X131892D01*
Y11990D01*
X131090Y315D02*
Y4208D01*
X130289Y315D02*
Y4208D01*
X131492D01*
X131892Y315D02*
Y4208D01*
X131492D02*
X131892D01*
X121126Y1799D02*
X122627Y315D01*
X112813D02*
X114315Y1799D01*
X106704Y17036D02*
X108707D01*
X106704Y13969D02*
X108707D01*
X104350Y8099D02*
Y11990D01*
X105152Y8099D02*
Y11990D01*
X103950Y8099D02*
X105152D01*
X103549D02*
Y11990D01*
Y8099D02*
X103950D01*
X104350Y315D02*
Y4208D01*
X105152Y315D02*
Y4208D01*
X103950D02*
X105152D01*
X103549D02*
X103950D01*
X103549Y315D02*
Y4208D01*
X49020Y38673D02*
X56894D01*
X49020Y44972D02*
X56894D01*
X49020Y38673D02*
Y44972D01*
X56894Y38673D02*
Y44972D01*
X61835Y43331D02*
X71205D01*
X61835Y52701D02*
X71205D01*
Y43331D02*
Y52701D01*
X61835Y43331D02*
Y52701D01*
X29528Y886D02*
X49213Y886D01*
Y17618D01*
X29528D02*
X29528Y886D01*
X31390Y14628D02*
Y17618D01*
X29528Y14628D02*
X31390D01*
X32612D01*
Y2919D02*
Y14628D01*
X31541Y2919D02*
X32612D01*
X31541Y886D02*
Y2919D01*
X47350Y14628D02*
X49213D01*
X46128D02*
X47350D01*
X46128Y2919D02*
Y14628D01*
Y2919D02*
X47199D01*
Y886D02*
Y2919D01*
X36017Y17618D02*
Y19544D01*
X34836Y17618D02*
Y19544D01*
X39950Y19544D02*
X39950Y17618D01*
X38769D02*
Y19544D01*
X42706Y17618D02*
Y19544D01*
X43887D02*
X43887Y17618D01*
X29528D02*
X47350D01*
Y14628D02*
Y17618D01*
X49213D01*
X145372Y-1793D02*
X146361D01*
X171905D02*
X172877D01*
X174099Y-1857D02*
Y-1789D01*
X144150Y-1879D02*
Y-1789D01*
X144128Y-2009D02*
X145354D01*
X144107Y-2057D02*
X145030Y-2763D01*
X143183Y-3219D02*
X144126Y-3940D01*
X145030Y-2763D02*
X145032Y-2762D01*
X145033Y-2761D01*
X145033Y-2760D01*
X145034Y-2759D01*
X145035Y-2758D01*
X145036Y-2758D01*
X145036Y-2757D01*
X145037Y-2756D01*
X145038Y-2755D01*
X145038Y-2754D01*
X145039Y-2754D01*
X145040Y-2753D01*
X145041Y-2752D01*
X145041Y-2751D01*
X145042Y-2751D01*
X145043Y-2750D01*
X145044Y-2749D01*
X145044Y-2748D01*
X145045Y-2747D01*
X145046Y-2747D01*
X145046Y-2746D01*
X145047Y-2745D01*
X145048Y-2744D01*
X145049Y-2743D01*
X145049Y-2743D01*
X145050Y-2742D01*
X145051Y-2741D01*
X145052Y-2740D01*
X145052Y-2740D01*
X145053Y-2739D01*
X145054Y-2738D01*
X145054Y-2737D01*
X145055Y-2736D01*
X145056Y-2736D01*
X145057Y-2735D01*
X145057Y-2734D01*
X145058Y-2733D01*
X145059Y-2732D01*
X145060Y-2732D01*
X145060Y-2731D01*
X145061Y-2730D01*
X145062Y-2729D01*
X145062Y-2729D01*
X145063Y-2728D01*
X145064Y-2727D01*
X145065Y-2726D01*
X145065Y-2725D01*
X145066Y-2725D01*
X145067Y-2724D01*
X145067Y-2723D01*
X145068Y-2722D01*
X145069Y-2721D01*
X145070Y-2720D01*
X145070Y-2720D01*
X145071Y-2719D01*
X145072Y-2718D01*
X145072Y-2717D01*
X145073Y-2717D01*
X145074Y-2716D01*
X145075Y-2715D01*
X145075Y-2714D01*
X145076Y-2713D01*
X145077Y-2713D01*
X145078Y-2712D01*
X145078Y-2711D01*
X145079Y-2710D01*
X145080Y-2709D01*
X145080Y-2709D01*
X145081Y-2708D01*
X145082Y-2707D01*
X145082Y-2706D01*
X145083Y-2706D01*
X145084Y-2705D01*
X145085Y-2704D01*
X145085Y-2703D01*
X145086Y-2702D01*
X145087Y-2702D01*
X145088Y-2701D01*
X145088Y-2700D01*
X145089Y-2699D01*
X145090Y-2698D01*
X145090Y-2698D01*
X145091Y-2697D01*
X145092Y-2696D01*
X145092Y-2695D01*
X145093Y-2694D01*
X145094Y-2693D01*
X145095Y-2693D01*
X145095Y-2692D01*
X145096Y-2691D01*
X145097Y-2690D01*
X145097Y-2689D01*
X145098Y-2689D01*
X145099Y-2688D01*
X145099Y-2687D01*
X145100Y-2686D01*
X145101Y-2685D01*
X145102Y-2685D01*
X145102Y-2684D01*
X145103Y-2683D01*
X145104Y-2682D01*
X145104Y-2682D01*
X145105Y-2681D01*
X145106Y-2679D01*
X145108Y-2678D01*
X145109Y-2676D01*
X145111Y-2674D01*
X145112Y-2673D01*
X145114Y-2671D01*
X145115Y-2669D01*
X145116Y-2668D01*
X145118Y-2666D01*
X145119Y-2665D01*
X145120Y-2663D01*
X145122Y-2661D01*
X145123Y-2660D01*
X145125Y-2658D01*
X145126Y-2657D01*
X145127Y-2655D01*
X145129Y-2653D01*
X145130Y-2652D01*
X145131Y-2650D01*
X145133Y-2648D01*
X145134Y-2647D01*
X145135Y-2645D01*
X145137Y-2643D01*
X145138Y-2642D01*
X145140Y-2640D01*
X145141Y-2638D01*
X145142Y-2637D01*
X145143Y-2635D01*
X145145Y-2634D01*
X145146Y-2632D01*
X145147Y-2630D01*
X145149Y-2629D01*
X145150Y-2627D01*
X145151Y-2625D01*
X145153Y-2624D01*
X145154Y-2622D01*
X145155Y-2620D01*
X145157Y-2619D01*
X145158Y-2617D01*
X145159Y-2615D01*
X145160Y-2614D01*
X145162Y-2612D01*
X145163Y-2610D01*
X145164Y-2609D01*
X145166Y-2607D01*
X145167Y-2605D01*
X145168Y-2604D01*
X145169Y-2602D01*
X145171Y-2600D01*
X145172Y-2599D01*
X145173Y-2597D01*
X145174Y-2595D01*
X145176Y-2593D01*
X145177Y-2592D01*
X145178Y-2590D01*
X145179Y-2588D01*
X145181Y-2586D01*
X145183Y-2583D01*
X145185Y-2581D01*
X145187Y-2578D01*
X145188Y-2575D01*
X145190Y-2573D01*
X145192Y-2570D01*
X145194Y-2568D01*
X145195Y-2565D01*
X145197Y-2562D01*
X145199Y-2560D01*
X145201Y-2557D01*
X145202Y-2555D01*
X145204Y-2552D01*
X145206Y-2549D01*
X145208Y-2547D01*
X145209Y-2544D01*
X145211Y-2541D01*
X145212Y-2539D01*
X145214Y-2536D01*
X145216Y-2533D01*
X145217Y-2531D01*
X145219Y-2528D01*
X145220Y-2525D01*
X145222Y-2523D01*
X145224Y-2520D01*
X145225Y-2517D01*
X145227Y-2513D01*
X145232Y-2505D01*
X145234Y-2501D01*
X145237Y-2496D01*
X145239Y-2491D01*
X145241Y-2487D01*
X145244Y-2482D01*
X145246Y-2478D01*
X145247Y-2474D01*
X145249Y-2471D01*
X145251Y-2467D01*
X145253Y-2463D01*
X145254Y-2459D01*
X145256Y-2455D01*
X145258Y-2451D01*
X145259Y-2448D01*
X145261Y-2444D01*
X145263Y-2440D01*
X145264Y-2436D01*
X145266Y-2432D01*
X145267Y-2428D01*
X145269Y-2424D01*
X145270Y-2420D01*
X145272Y-2416D01*
X145273Y-2412D01*
X145275Y-2408D01*
X145276Y-2404D01*
X145278Y-2400D01*
X145279Y-2396D01*
X145281Y-2393D01*
X145282Y-2389D01*
X145283Y-2384D01*
X145285Y-2380D01*
X145286Y-2376D01*
X145287Y-2372D01*
X145289Y-2368D01*
X145290Y-2364D01*
X145291Y-2361D01*
X145292Y-2358D01*
X145292Y-2355D01*
X145293Y-2352D01*
X145294Y-2349D01*
X145295Y-2346D01*
X145296Y-2343D01*
X145297Y-2340D01*
X145298Y-2337D01*
X145299Y-2334D01*
X145300Y-2331D01*
X145300Y-2327D01*
X145301Y-2324D01*
X145302Y-2321D01*
X145303Y-2318D01*
X145304Y-2315D01*
X145305Y-2312D01*
X145305Y-2309D01*
X145306Y-2306D01*
X145307Y-2303D01*
X145308Y-2300D01*
X145308Y-2296D01*
X145309Y-2293D01*
X145310Y-2290D01*
X145311Y-2287D01*
X145311Y-2284D01*
X145312Y-2281D01*
X145313Y-2278D01*
X145313Y-2275D01*
X145314Y-2272D01*
X145315Y-2268D01*
X145316Y-2265D01*
X145316Y-2262D01*
X145317Y-2259D01*
X145317Y-2256D01*
X145318Y-2253D01*
X145319Y-2249D01*
X145319Y-2246D01*
X145320Y-2243D01*
X145321Y-2240D01*
X145321Y-2237D01*
X145322Y-2234D01*
X145323Y-2231D01*
X145323Y-2227D01*
X145324Y-2224D01*
X145324Y-2221D01*
X145325Y-2218D01*
X145326Y-2215D01*
X145326Y-2212D01*
X145327Y-2208D01*
X145327Y-2205D01*
X145328Y-2202D01*
X145328Y-2200D01*
X145329Y-2198D01*
X145329Y-2196D01*
X145329Y-2194D01*
X145330Y-2191D01*
X145330Y-2189D01*
X145330Y-2187D01*
X145331Y-2185D01*
X145331Y-2183D01*
X145331Y-2181D01*
X145332Y-2179D01*
X145332Y-2177D01*
X145333Y-2175D01*
X145333Y-2173D01*
X145333Y-2170D01*
X145334Y-2168D01*
X145334Y-2166D01*
X145334Y-2164D01*
X145334Y-2162D01*
X145335Y-2160D01*
X145335Y-2158D01*
X145335Y-2156D01*
X145336Y-2153D01*
X145336Y-2150D01*
X145337Y-2146D01*
X145337Y-2142D01*
X145338Y-2138D01*
X145339Y-2133D01*
X145339Y-2129D01*
X145340Y-2125D01*
X145341Y-2121D01*
X145341Y-2117D01*
X145342Y-2112D01*
X145342Y-2108D01*
X145343Y-2104D01*
X145343Y-2100D01*
X145344Y-2096D01*
X145344Y-2091D01*
X145345Y-2087D01*
X145345Y-2084D01*
X145346Y-2081D01*
X145346Y-2078D01*
X145347Y-2074D01*
X145347Y-2071D01*
X145347Y-2068D01*
X145348Y-2065D01*
X145348Y-2062D01*
X145349Y-2059D01*
X145349Y-2056D01*
X145349Y-2052D01*
X145350Y-2049D01*
X145350Y-2046D01*
X145350Y-2043D01*
X145351Y-2040D01*
X145351Y-2036D01*
X145351Y-2033D01*
X145352Y-2030D01*
X145352Y-2027D01*
X145352Y-2024D01*
X145353Y-2021D01*
X145353Y-2018D01*
X145353Y-2014D01*
X145354Y-2011D01*
X145354Y-2008D01*
X145354Y-2005D01*
X145355Y-2002D01*
X145355Y-1999D01*
X145355Y-1995D01*
X145355Y-1993D01*
X145356Y-1991D01*
X145356Y-1989D01*
X145356Y-1987D01*
X145356Y-1985D01*
X145357Y-1983D01*
X145357Y-1981D01*
X145357Y-1979D01*
X145357Y-1977D01*
X145357Y-1974D01*
X145358Y-1972D01*
X145358Y-1970D01*
X145358Y-1968D01*
X145358Y-1966D01*
X145358Y-1964D01*
X145358Y-1962D01*
X145359Y-1960D01*
X145359Y-1958D01*
X145359Y-1956D01*
X145359Y-1953D01*
X145359Y-1951D01*
X145360Y-1949D01*
X145360Y-1947D01*
X145360Y-1945D01*
X145360Y-1943D01*
X145360Y-1941D01*
X145361Y-1939D01*
X145361Y-1937D01*
X145361Y-1935D01*
X145361Y-1932D01*
X145361Y-1930D01*
X145361Y-1928D01*
X145362Y-1926D01*
X145362Y-1924D01*
X145362Y-1922D01*
X145362Y-1920D01*
X145362Y-1918D01*
X145362Y-1916D01*
X145363Y-1914D01*
X145363Y-1911D01*
X145363Y-1909D01*
X145363Y-1907D01*
X145363Y-1905D01*
X145363Y-1903D01*
X145364Y-1901D01*
X145364Y-1899D01*
X145364Y-1897D01*
X145364Y-1896D01*
X145364Y-1895D01*
X145364Y-1894D01*
X145364Y-1893D01*
X145364Y-1892D01*
X145364Y-1891D01*
X145365Y-1890D01*
X145365Y-1888D01*
X145365Y-1887D01*
X145365Y-1886D01*
X145365Y-1885D01*
X145365Y-1884D01*
X145365Y-1883D01*
X145365Y-1882D01*
X145365Y-1881D01*
X145365Y-1880D01*
X145365Y-1879D01*
X145366Y-1878D01*
X145366Y-1877D01*
X145366Y-1876D01*
X145366Y-1875D01*
X145366Y-1874D01*
X145366Y-1873D01*
X145366Y-1872D01*
X145366Y-1871D01*
X145366Y-1870D01*
X145366Y-1869D01*
X145366Y-1867D01*
X145366Y-1866D01*
X145367Y-1865D01*
X145367Y-1864D01*
X145367Y-1863D01*
X145367Y-1862D01*
X145367Y-1861D01*
X145367Y-1860D01*
X145367Y-1859D01*
X145367Y-1858D01*
X145367Y-1857D01*
X145367Y-1856D01*
X145367Y-1855D01*
X145367Y-1854D01*
X145368Y-1853D01*
X145368Y-1852D01*
X145368Y-1851D01*
X145368Y-1850D01*
X145368Y-1849D01*
X145368Y-1847D01*
X145368Y-1846D01*
X145368Y-1845D01*
X145368Y-1844D01*
X145368Y-1843D01*
X145368Y-1842D01*
X145368Y-1841D01*
X145368Y-1840D01*
X145369Y-1839D01*
X145369Y-1838D01*
X145369Y-1837D01*
X145369Y-1836D01*
X145369Y-1835D01*
X145369Y-1834D01*
X145369Y-1833D01*
X145369Y-1832D01*
X145369Y-1831D01*
X145369Y-1830D01*
X145369Y-1829D01*
X145369Y-1828D01*
X145370Y-1827D01*
X145370Y-1825D01*
X145370Y-1825D01*
X145370Y-1823D01*
X145370Y-1822D01*
X145370Y-1821D01*
X145370Y-1820D01*
X145370Y-1819D01*
X145370Y-1818D01*
X145370Y-1817D01*
X145370Y-1816D01*
X145370Y-1815D01*
X145370Y-1814D01*
X145370Y-1813D01*
X145371Y-1812D01*
X145371Y-1811D01*
X145371Y-1810D01*
X145371Y-1809D01*
X145371Y-1808D01*
X145371Y-1807D01*
X145371Y-1806D01*
X145371Y-1805D01*
X145371Y-1804D01*
X145371Y-1802D01*
X145371Y-1801D01*
X145371Y-1800D01*
X145371Y-1799D01*
X145372Y-1798D01*
X145372Y-1797D01*
X145372Y-1796D01*
X145372Y-1795D01*
X145372Y-1794D01*
X145372Y-1793D01*
X173038Y-2510D02*
X173039Y-2512D01*
X173038Y-2510D02*
X173038Y-2510D01*
X173038Y-2509D02*
X173038Y-2510D01*
X173037Y-2508D02*
X173038Y-2509D01*
X173037Y-2508D02*
X173037Y-2508D01*
X173037Y-2507D02*
X173037Y-2508D01*
X173037Y-2506D02*
X173037Y-2507D01*
X173037Y-2506D02*
X173037Y-2506D01*
X173036Y-2505D02*
X173037Y-2506D01*
X173036Y-2504D02*
X173036Y-2505D01*
X173036Y-2503D02*
X173036Y-2504D01*
X173036Y-2503D02*
X173036Y-2503D01*
X173035Y-2502D02*
X173036Y-2503D01*
X173035Y-2501D02*
X173035Y-2502D01*
X173035Y-2501D02*
X173035Y-2501D01*
X173035Y-2500D02*
X173035Y-2501D01*
X173034Y-2499D02*
X173035Y-2500D01*
X173034Y-2499D02*
X173034Y-2499D01*
X173034Y-2498D02*
X173034Y-2499D01*
X173034Y-2497D02*
X173034Y-2498D01*
X173033Y-2496D02*
X173034Y-2497D01*
X173033Y-2496D02*
X173033Y-2496D01*
X173033Y-2495D02*
X173033Y-2496D01*
X173033Y-2494D02*
X173033Y-2495D01*
X173032Y-2493D02*
X173033Y-2494D01*
X173032Y-2493D02*
X173032Y-2493D01*
X173032Y-2492D02*
X173032Y-2493D01*
X173032Y-2491D02*
X173032Y-2492D01*
X173031Y-2491D02*
X173032Y-2491D01*
X173031Y-2490D02*
X173031Y-2491D01*
X173031Y-2489D02*
X173031Y-2490D01*
X173031Y-2489D02*
X173031Y-2489D01*
X173030Y-2488D02*
X173031Y-2489D01*
X173030Y-2487D02*
X173030Y-2488D01*
X173030Y-2486D02*
X173030Y-2487D01*
X173030Y-2486D02*
X173030Y-2486D01*
X173030Y-2485D02*
X173030Y-2486D01*
X173029Y-2484D02*
X173030Y-2485D01*
X173029Y-2484D02*
X173029Y-2484D01*
X173029Y-2483D02*
X173029Y-2484D01*
X173029Y-2482D02*
X173029Y-2483D01*
X173028Y-2482D02*
X173029Y-2482D01*
X173028Y-2481D02*
X173028Y-2482D01*
X173028Y-2480D02*
X173028Y-2481D01*
X173028Y-2479D02*
X173028Y-2480D01*
X173027Y-2479D02*
X173028Y-2479D01*
X173027Y-2478D02*
X173027Y-2479D01*
X173027Y-2477D02*
X173027Y-2478D01*
X173027Y-2477D02*
X173027Y-2477D01*
X173027Y-2476D02*
X173027Y-2477D01*
X173026Y-2475D02*
X173027Y-2476D01*
X173026Y-2475D02*
X173026Y-2475D01*
X173026Y-2474D02*
X173026Y-2475D01*
X173026Y-2473D02*
X173026Y-2474D01*
X173025Y-2472D02*
X173026Y-2473D01*
X173025Y-2472D02*
X173025Y-2472D01*
X173025Y-2471D02*
X173025Y-2472D01*
X173025Y-2470D02*
X173025Y-2471D01*
X173024Y-2470D02*
X173025Y-2470D01*
X173024Y-2469D02*
X173024Y-2470D01*
X173024Y-2468D02*
X173024Y-2469D01*
X173024Y-2468D02*
X173024Y-2468D01*
X173023Y-2467D02*
X173024Y-2468D01*
X173023Y-2466D02*
X173023Y-2467D01*
X173023Y-2465D02*
X173023Y-2466D01*
X173023Y-2465D02*
X173023Y-2465D01*
X173022Y-2464D02*
X173023Y-2465D01*
X173022Y-2463D02*
X173022Y-2464D01*
X173022Y-2463D02*
X173022Y-2463D01*
X173022Y-2462D02*
X173022Y-2463D01*
X173021Y-2461D02*
X173022Y-2462D01*
X173021Y-2461D02*
X173021Y-2461D01*
X173021Y-2460D02*
X173021Y-2461D01*
X173021Y-2459D02*
X173021Y-2460D01*
X173021Y-2458D02*
X173021Y-2459D01*
X173020Y-2458D02*
X173021Y-2458D01*
X173020Y-2457D02*
X173020Y-2458D01*
X173020Y-2456D02*
X173020Y-2457D01*
X173020Y-2456D02*
X173020Y-2456D01*
X173019Y-2455D02*
X173020Y-2456D01*
X173019Y-2454D02*
X173019Y-2455D01*
X173019Y-2454D02*
X173019Y-2454D01*
X173019Y-2453D02*
X173019Y-2454D01*
X173019Y-2452D02*
X173019Y-2453D01*
X173018Y-2451D02*
X173019Y-2452D01*
X173018Y-2451D02*
X173018Y-2451D01*
X173018Y-2450D02*
X173018Y-2451D01*
X173018Y-2449D02*
X173018Y-2450D01*
X173017Y-2449D02*
X173018Y-2449D01*
X173017Y-2448D02*
X173017Y-2449D01*
X173017Y-2447D02*
X173017Y-2448D01*
X173017Y-2447D02*
X173017Y-2447D01*
X173016Y-2446D02*
X173017Y-2447D01*
X173016Y-2445D02*
X173016Y-2446D01*
X173016Y-2444D02*
X173016Y-2445D01*
X173016Y-2444D02*
X173016Y-2444D01*
X173015Y-2443D02*
X173016Y-2444D01*
X173015Y-2442D02*
X173015Y-2443D01*
X173015Y-2442D02*
X173015Y-2442D01*
X173015Y-2441D02*
X173015Y-2442D01*
X173014Y-2440D02*
X173015Y-2441D01*
X173014Y-2438D02*
X173014Y-2440D01*
X173013Y-2437D02*
X173014Y-2438D01*
X173013Y-2435D02*
X173013Y-2437D01*
X173012Y-2434D02*
X173013Y-2435D01*
X173012Y-2433D02*
X173012Y-2434D01*
X173011Y-2431D02*
X173012Y-2433D01*
X173011Y-2430D02*
X173011Y-2431D01*
X173011Y-2428D02*
X173011Y-2430D01*
X173010Y-2427D02*
X173011Y-2428D01*
X173010Y-2425D02*
X173010Y-2427D01*
X173009Y-2424D02*
X173010Y-2425D01*
X173009Y-2423D02*
X173009Y-2424D01*
X173008Y-2421D02*
X173009Y-2423D01*
X173008Y-2420D02*
X173008Y-2421D01*
X173007Y-2418D02*
X173008Y-2420D01*
X173007Y-2417D02*
X173007Y-2418D01*
X173006Y-2416D02*
X173007Y-2417D01*
X173006Y-2414D02*
X173006Y-2416D01*
X173005Y-2413D02*
X173006Y-2414D01*
X173005Y-2411D02*
X173005Y-2413D01*
X173004Y-2410D02*
X173005Y-2411D01*
X173004Y-2409D02*
X173004Y-2410D01*
X173003Y-2407D02*
X173004Y-2409D01*
X173003Y-2406D02*
X173003Y-2407D01*
X173003Y-2404D02*
X173003Y-2406D01*
X173002Y-2403D02*
X173003Y-2404D01*
X173002Y-2402D02*
X173002Y-2403D01*
X173001Y-2400D02*
X173002Y-2402D01*
X173001Y-2399D02*
X173001Y-2400D01*
X173000Y-2397D02*
X173001Y-2399D01*
X173000Y-2396D02*
X173000Y-2397D01*
X172999Y-2395D02*
X173000Y-2396D01*
X172999Y-2393D02*
X172999Y-2395D01*
X172998Y-2392D02*
X172999Y-2393D01*
X172998Y-2390D02*
X172998Y-2392D01*
X172997Y-2389D02*
X172998Y-2390D01*
X172997Y-2387D02*
X172997Y-2389D01*
X172997Y-2386D02*
X172997Y-2387D01*
X172996Y-2385D02*
X172997Y-2386D01*
X172996Y-2383D02*
X172996Y-2385D01*
X172995Y-2382D02*
X172996Y-2383D01*
X172995Y-2380D02*
X172995Y-2382D01*
X172994Y-2379D02*
X172995Y-2380D01*
X172994Y-2378D02*
X172994Y-2379D01*
X172993Y-2376D02*
X172994Y-2378D01*
X172993Y-2375D02*
X172993Y-2376D01*
X172993Y-2373D02*
X172993Y-2375D01*
X172992Y-2372D02*
X172993Y-2373D01*
X172992Y-2371D02*
X172992Y-2372D01*
X172991Y-2369D02*
X172992Y-2371D01*
X172990Y-2367D02*
X172991Y-2369D01*
X172990Y-2365D02*
X172990Y-2367D01*
X172989Y-2363D02*
X172990Y-2365D01*
X172988Y-2361D02*
X172989Y-2363D01*
X172988Y-2359D02*
X172988Y-2361D01*
X172987Y-2356D02*
X172988Y-2359D01*
X172986Y-2354D02*
X172987Y-2356D01*
X172986Y-2352D02*
X172986Y-2354D01*
X172985Y-2350D02*
X172986Y-2352D01*
X172984Y-2348D02*
X172985Y-2350D01*
X172984Y-2346D02*
X172984Y-2348D01*
X172983Y-2344D02*
X172984Y-2346D01*
X172982Y-2342D02*
X172983Y-2344D01*
X172982Y-2340D02*
X172982Y-2342D01*
X172981Y-2337D02*
X172982Y-2340D01*
X172980Y-2335D02*
X172981Y-2337D01*
X172980Y-2333D02*
X172980Y-2335D01*
X172979Y-2331D02*
X172980Y-2333D01*
X172978Y-2329D02*
X172979Y-2331D01*
X172978Y-2327D02*
X172978Y-2329D01*
X172977Y-2325D02*
X172978Y-2327D01*
X172977Y-2323D02*
X172977Y-2325D01*
X172976Y-2321D02*
X172977Y-2323D01*
X172975Y-2318D02*
X172976Y-2321D01*
X172975Y-2316D02*
X172975Y-2318D01*
X172974Y-2314D02*
X172975Y-2316D01*
X172973Y-2312D02*
X172974Y-2314D01*
X172973Y-2310D02*
X172973Y-2312D01*
X172972Y-2308D02*
X172973Y-2310D01*
X172971Y-2306D02*
X172972Y-2308D01*
X172971Y-2303D02*
X172971Y-2306D01*
X172970Y-2301D02*
X172971Y-2303D01*
X172969Y-2299D02*
X172970Y-2301D01*
X172969Y-2297D02*
X172969Y-2299D01*
X172968Y-2294D02*
X172969Y-2297D01*
X172967Y-2292D02*
X172968Y-2294D01*
X172966Y-2289D02*
X172967Y-2292D01*
X172966Y-2286D02*
X172966Y-2289D01*
X172965Y-2283D02*
X172966Y-2286D01*
X172964Y-2280D02*
X172965Y-2283D01*
X172963Y-2277D02*
X172964Y-2280D01*
X172962Y-2275D02*
X172963Y-2277D01*
X172961Y-2272D02*
X172962Y-2275D01*
X172961Y-2269D02*
X172961Y-2272D01*
X172960Y-2266D02*
X172961Y-2269D01*
X172959Y-2263D02*
X172960Y-2266D01*
X172958Y-2260D02*
X172959Y-2263D01*
X172957Y-2257D02*
X172958Y-2260D01*
X172957Y-2255D02*
X172957Y-2257D01*
X172956Y-2252D02*
X172957Y-2255D01*
X172955Y-2249D02*
X172956Y-2252D01*
X172954Y-2246D02*
X172955Y-2249D01*
X172953Y-2243D02*
X172954Y-2246D01*
X172953Y-2240D02*
X172953Y-2243D01*
X172952Y-2238D02*
X172953Y-2240D01*
X172951Y-2235D02*
X172952Y-2238D01*
X172950Y-2232D02*
X172951Y-2235D01*
X172950Y-2229D02*
X172950Y-2232D01*
X172949Y-2226D02*
X172950Y-2229D01*
X172948Y-2223D02*
X172949Y-2226D01*
X172947Y-2220D02*
X172948Y-2223D01*
X172946Y-2216D02*
X172947Y-2220D01*
X172945Y-2213D02*
X172946Y-2216D01*
X172944Y-2209D02*
X172945Y-2213D01*
X172943Y-2205D02*
X172944Y-2209D01*
X172943Y-2202D02*
X172943Y-2205D01*
X172942Y-2198D02*
X172943Y-2202D01*
X172941Y-2195D02*
X172942Y-2198D01*
X172940Y-2191D02*
X172941Y-2195D01*
X172939Y-2187D02*
X172940Y-2191D01*
X172938Y-2184D02*
X172939Y-2187D01*
X172937Y-2180D02*
X172938Y-2184D01*
X172936Y-2177D02*
X172937Y-2180D01*
X172936Y-2173D02*
X172936Y-2177D01*
X172935Y-2170D02*
X172936Y-2173D01*
X172934Y-2166D02*
X172935Y-2170D01*
X172933Y-2162D02*
X172934Y-2166D01*
X172932Y-2159D02*
X172933Y-2162D01*
X172932Y-2155D02*
X172932Y-2159D01*
X172929Y-2146D02*
X172932Y-2155D01*
X172929Y-2142D02*
X172929Y-2146D01*
X172928Y-2139D02*
X172929Y-2142D01*
X172927Y-2135D02*
X172928Y-2139D01*
X172926Y-2131D02*
X172927Y-2135D01*
X172926Y-2128D02*
X172926Y-2131D01*
X172925Y-2124D02*
X172926Y-2128D01*
X172924Y-2121D02*
X172925Y-2124D01*
X172923Y-2117D02*
X172924Y-2121D01*
X172923Y-2114D02*
X172923Y-2117D01*
X172922Y-2110D02*
X172923Y-2114D01*
X172921Y-2106D02*
X172922Y-2110D01*
X172921Y-2103D02*
X172921Y-2106D01*
X172920Y-2099D02*
X172921Y-2103D01*
X172919Y-2095D02*
X172920Y-2099D01*
X172918Y-2092D02*
X172919Y-2095D01*
X172918Y-2088D02*
X172918Y-2092D01*
X172917Y-2085D02*
X172918Y-2088D01*
X172917Y-2082D02*
X172917Y-2085D01*
X172916Y-2079D02*
X172917Y-2082D01*
X172916Y-2076D02*
X172916Y-2079D01*
X172915Y-2074D02*
X172916Y-2076D01*
X172915Y-2071D02*
X172915Y-2074D01*
X172914Y-2068D02*
X172915Y-2071D01*
X172914Y-2065D02*
X172914Y-2068D01*
X172913Y-2062D02*
X172914Y-2065D01*
X172913Y-2059D02*
X172913Y-2062D01*
X172912Y-2056D02*
X172913Y-2059D01*
X172912Y-2053D02*
X172912Y-2056D01*
X172911Y-2050D02*
X172912Y-2053D01*
X172911Y-2048D02*
X172911Y-2050D01*
X172910Y-2045D02*
X172911Y-2048D01*
X172910Y-2042D02*
X172910Y-2045D01*
X172909Y-2039D02*
X172910Y-2042D01*
X172909Y-2036D02*
X172909Y-2039D01*
X172908Y-2033D02*
X172909Y-2036D01*
X172908Y-2030D02*
X172908Y-2033D01*
X172907Y-2027D02*
X172908Y-2030D01*
X172907Y-2024D02*
X172907Y-2027D01*
X172906Y-2021D02*
X172907Y-2024D01*
X172906Y-2018D02*
X172906Y-2021D01*
X172905Y-2015D02*
X172906Y-2018D01*
X172905Y-2013D02*
X172905Y-2015D01*
X172905Y-2011D02*
X172905Y-2013D01*
X172904Y-2009D02*
X172905Y-2011D01*
X172904Y-2007D02*
X172904Y-2009D01*
X172904Y-2004D02*
X172904Y-2007D01*
X172903Y-2002D02*
X172904Y-2004D01*
X172903Y-2000D02*
X172903Y-2002D01*
X172903Y-1998D02*
X172903Y-2000D01*
X172902Y-1996D02*
X172903Y-1998D01*
X172902Y-1994D02*
X172902Y-1996D01*
X172902Y-1991D02*
X172902Y-1994D01*
X172901Y-1989D02*
X172902Y-1991D01*
X172901Y-1987D02*
X172901Y-1989D01*
X172901Y-1985D02*
X172901Y-1987D01*
X172900Y-1983D02*
X172901Y-1985D01*
X172900Y-1980D02*
X172900Y-1983D01*
X172900Y-1978D02*
X172900Y-1980D01*
X172899Y-1976D02*
X172900Y-1978D01*
X172899Y-1974D02*
X172899Y-1976D01*
X172899Y-1972D02*
X172899Y-1974D01*
X172899Y-1969D02*
X172899Y-1972D01*
X172898Y-1967D02*
X172899Y-1969D01*
X172898Y-1965D02*
X172898Y-1967D01*
X172898Y-1963D02*
X172898Y-1965D01*
X172897Y-1961D02*
X172898Y-1963D01*
X172897Y-1958D02*
X172897Y-1961D01*
X172897Y-1956D02*
X172897Y-1958D01*
X172897Y-1954D02*
X172897Y-1956D01*
X172896Y-1952D02*
X172897Y-1954D01*
X172896Y-1950D02*
X172896Y-1952D01*
X172896Y-1947D02*
X172896Y-1950D01*
X172895Y-1945D02*
X172896Y-1947D01*
X172895Y-1943D02*
X172895Y-1945D01*
X172895Y-1941D02*
X172895Y-1943D01*
X172895Y-1939D02*
X172895Y-1941D01*
X172894Y-1938D02*
X172895Y-1939D01*
X172894Y-1936D02*
X172894Y-1938D01*
X172894Y-1935D02*
X172894Y-1936D01*
X172894Y-1933D02*
X172894Y-1935D01*
X172894Y-1932D02*
X172894Y-1933D01*
X172893Y-1931D02*
X172894Y-1932D01*
X172893Y-1929D02*
X172893Y-1931D01*
X172893Y-1928D02*
X172893Y-1929D01*
X172893Y-1926D02*
X172893Y-1928D01*
X172893Y-1925D02*
X172893Y-1926D01*
X172892Y-1923D02*
X172893Y-1925D01*
X172892Y-1922D02*
X172892Y-1923D01*
X172892Y-1920D02*
X172892Y-1922D01*
X172892Y-1919D02*
X172892Y-1920D01*
X172892Y-1917D02*
X172892Y-1919D01*
X172891Y-1916D02*
X172892Y-1917D01*
X172891Y-1914D02*
X172891Y-1916D01*
X172891Y-1913D02*
X172891Y-1914D01*
X172891Y-1911D02*
X172891Y-1913D01*
X172891Y-1910D02*
X172891Y-1911D01*
X172891Y-1908D02*
X172891Y-1910D01*
X172890Y-1907D02*
X172891Y-1908D01*
X172890Y-1906D02*
X172890Y-1907D01*
X172890Y-1904D02*
X172890Y-1906D01*
X172890Y-1903D02*
X172890Y-1904D01*
X172890Y-1901D02*
X172890Y-1903D01*
X172889Y-1900D02*
X172890Y-1901D01*
X172889Y-1898D02*
X172889Y-1900D01*
X172889Y-1897D02*
X172889Y-1898D01*
X172889Y-1895D02*
X172889Y-1897D01*
X172889Y-1894D02*
X172889Y-1895D01*
X172889Y-1892D02*
X172889Y-1894D01*
X172888Y-1891D02*
X172889Y-1892D01*
X172888Y-1889D02*
X172888Y-1891D01*
X172888Y-1888D02*
X172888Y-1889D01*
X172888Y-1887D02*
X172888Y-1888D01*
X172888Y-1885D02*
X172888Y-1887D01*
X172888Y-1884D02*
X172888Y-1885D01*
X172887Y-1882D02*
X172888Y-1884D01*
X172887Y-1881D02*
X172887Y-1882D01*
X172887Y-1879D02*
X172887Y-1881D01*
X172887Y-1878D02*
X172887Y-1879D01*
X172887Y-1876D02*
X172887Y-1878D01*
X172886Y-1875D02*
X172887Y-1876D01*
X172886Y-1873D02*
X172886Y-1875D01*
X172886Y-1872D02*
X172886Y-1873D01*
X172886Y-1870D02*
X172886Y-1872D01*
X172886Y-1869D02*
X172886Y-1870D01*
X172886Y-1867D02*
X172886Y-1869D01*
X172885Y-1866D02*
X172886Y-1867D01*
X172885Y-1865D02*
X172885Y-1866D01*
X172885Y-1864D02*
X172885Y-1865D01*
X172885Y-1864D02*
X172885Y-1864D01*
X172885Y-1863D02*
X172885Y-1864D01*
X172885Y-1862D02*
X172885Y-1863D01*
X172885Y-1861D02*
X172885Y-1862D01*
X172885Y-1861D02*
X172885Y-1861D01*
X172885Y-1860D02*
X172885Y-1861D01*
X172885Y-1859D02*
X172885Y-1860D01*
X172885Y-1859D02*
X172885Y-1859D01*
X172884Y-1858D02*
X172885Y-1859D01*
X172884Y-1857D02*
X172884Y-1858D01*
X172884Y-1856D02*
X172884Y-1857D01*
X172884Y-1856D02*
X172884Y-1856D01*
X172884Y-1855D02*
X172884Y-1856D01*
X172884Y-1854D02*
X172884Y-1855D01*
X172884Y-1853D02*
X172884Y-1854D01*
X172884Y-1853D02*
X172884Y-1853D01*
X172884Y-1852D02*
X172884Y-1853D01*
X172884Y-1851D02*
X172884Y-1852D01*
X172884Y-1850D02*
X172884Y-1851D01*
X172883Y-1850D02*
X172884Y-1850D01*
X172883Y-1849D02*
X172883Y-1850D01*
X172883Y-1848D02*
X172883Y-1849D01*
X172883Y-1847D02*
X172883Y-1848D01*
X172883Y-1847D02*
X172883Y-1847D01*
X172883Y-1846D02*
X172883Y-1847D01*
X172883Y-1845D02*
X172883Y-1846D01*
X172883Y-1845D02*
X172883Y-1845D01*
X172883Y-1844D02*
X172883Y-1845D01*
X172883Y-1843D02*
X172883Y-1844D01*
X172883Y-1842D02*
X172883Y-1843D01*
X172882Y-1842D02*
X172883Y-1842D01*
X172882Y-1841D02*
X172882Y-1842D01*
X172882Y-1840D02*
X172882Y-1841D01*
X172882Y-1839D02*
X172882Y-1840D01*
X172882Y-1839D02*
X172882Y-1839D01*
X172882Y-1838D02*
X172882Y-1839D01*
X172882Y-1837D02*
X172882Y-1838D01*
X172882Y-1836D02*
X172882Y-1837D01*
X172882Y-1836D02*
X172882Y-1836D01*
X172882Y-1835D02*
X172882Y-1836D01*
X172882Y-1834D02*
X172882Y-1835D01*
X172882Y-1833D02*
X172882Y-1834D01*
X172881Y-1833D02*
X172882Y-1833D01*
X172881Y-1832D02*
X172881Y-1833D01*
X172881Y-1831D02*
X172881Y-1832D01*
X172881Y-1831D02*
X172881Y-1831D01*
X172881Y-1830D02*
X172881Y-1831D01*
X172881Y-1829D02*
X172881Y-1830D01*
X172881Y-1828D02*
X172881Y-1829D01*
X172881Y-1828D02*
X172881Y-1828D01*
X172881Y-1827D02*
X172881Y-1828D01*
X172881Y-1826D02*
X172881Y-1827D01*
X172881Y-1825D02*
X172881Y-1826D01*
X172881Y-1825D02*
X172881Y-1825D01*
X172880Y-1824D02*
X172881Y-1825D01*
X172880Y-1823D02*
X172880Y-1824D01*
X172880Y-1822D02*
X172880Y-1823D01*
X172880Y-1822D02*
X172880Y-1822D01*
X172880Y-1821D02*
X172880Y-1822D01*
X172880Y-1820D02*
X172880Y-1821D01*
X172880Y-1819D02*
X172880Y-1820D01*
X172880Y-1819D02*
X172880Y-1819D01*
X172880Y-1818D02*
X172880Y-1819D01*
X172880Y-1817D02*
X172880Y-1818D01*
X172880Y-1817D02*
X172880Y-1817D01*
X172880Y-1816D02*
X172880Y-1817D01*
X172880Y-1815D02*
X172880Y-1816D01*
X172879Y-1814D02*
X172880Y-1815D01*
X172879Y-1814D02*
X172879Y-1814D01*
X172879Y-1813D02*
X172879Y-1814D01*
X172879Y-1812D02*
X172879Y-1813D01*
X172879Y-1811D02*
X172879Y-1812D01*
X172879Y-1811D02*
X172879Y-1811D01*
X172879Y-1810D02*
X172879Y-1811D01*
X172879Y-1809D02*
X172879Y-1810D01*
X172879Y-1808D02*
X172879Y-1809D01*
X172879Y-1808D02*
X172879Y-1808D01*
X172879Y-1807D02*
X172879Y-1808D01*
X172879Y-1806D02*
X172879Y-1807D01*
X172878Y-1805D02*
X172879Y-1806D01*
X172878Y-1805D02*
X172878Y-1805D01*
X172878Y-1804D02*
X172878Y-1805D01*
X172878Y-1803D02*
X172878Y-1804D01*
X172878Y-1803D02*
X172878Y-1803D01*
X172878Y-1802D02*
X172878Y-1803D01*
X172878Y-1801D02*
X172878Y-1802D01*
X172878Y-1800D02*
X172878Y-1801D01*
X172878Y-1800D02*
X172878Y-1800D01*
X172878Y-1799D02*
X172878Y-1800D01*
X172878Y-1798D02*
X172878Y-1799D01*
X172878Y-1797D02*
X172878Y-1798D01*
X172877Y-1797D02*
X172878Y-1797D01*
X172877Y-1796D02*
X172877Y-1797D01*
X172877Y-1795D02*
X172877Y-1796D01*
X172877Y-1795D02*
X172877Y-1795D01*
X172877Y-1794D02*
X172877Y-1795D01*
X172877Y-1793D02*
X172877Y-1794D01*
X171118Y-4236D02*
Y-3536D01*
X171512Y-3843D02*
Y-3142D01*
X144150Y-1793D02*
X174099D01*
X147168Y-4236D02*
Y-3536D01*
X146755Y-3843D02*
Y-3142D01*
X145372Y-1793D02*
X146361D01*
X146755Y-3142D02*
Y-2187D01*
X150672Y17915D02*
X150869Y18113D01*
X150672Y15472D02*
Y17915D01*
X148821Y15472D02*
Y18113D01*
X147043Y15723D02*
X148821D01*
X147043Y15364D02*
Y18113D01*
X146953Y15202D02*
X147043Y15364D01*
X146648Y14951D02*
X146953Y15202D01*
X144150Y14951D02*
X146648D01*
X167379Y18113D02*
X167577Y17915D01*
Y15472D02*
Y17915D01*
X169428Y15472D02*
Y18113D01*
Y15723D02*
X171206D01*
Y15364D02*
Y18113D01*
Y15364D02*
X171296Y15202D01*
X171601Y14951D01*
X174099D01*
X150564Y7980D02*
X150565Y7980D01*
X150566Y7980D01*
X150566Y7980D01*
X150567Y7980D01*
X150568Y7980D01*
X150568Y7980D01*
X150569Y7979D01*
X150569Y7979D01*
X150570Y7979D01*
X150570Y7979D01*
X150571Y7979D01*
X150572Y7979D01*
X150572Y7979D01*
X150573Y7979D01*
X150574Y7979D01*
X150574Y7979D01*
X150575Y7978D01*
X150575Y7978D01*
X150576Y7978D01*
X150576Y7978D01*
X150577Y7978D01*
X150578Y7978D01*
X150578Y7978D01*
X150579Y7978D01*
X150579Y7978D01*
X150580Y7978D01*
X150581Y7978D01*
X150581Y7977D01*
X150582Y7977D01*
X150582Y7977D01*
X150583Y7977D01*
X150583Y7977D01*
X150584Y7977D01*
X150585Y7977D01*
X150585Y7977D01*
X150586Y7977D01*
X150586Y7977D01*
X150587Y7977D01*
X150587Y7976D01*
X150588Y7976D01*
X150589Y7976D01*
X150589Y7976D01*
X150590Y7976D01*
X150590Y7976D01*
X150591Y7976D01*
X150592Y7976D01*
X150592Y7976D01*
X150593Y7976D01*
X150593Y7976D01*
X150594Y7976D01*
X150594Y7975D01*
X150595Y7975D01*
X150596Y7975D01*
X150596Y7975D01*
X150597Y7975D01*
X150597Y7975D01*
X150598Y7975D01*
X150599Y7975D01*
X150599Y7975D01*
X150600Y7975D01*
X150600Y7975D01*
X150601Y7974D01*
X150601Y7974D01*
X150602Y7974D01*
X150603Y7974D01*
X150603Y7974D01*
X150604Y7974D01*
X150604Y7974D01*
X150605Y7974D01*
X150606Y7974D01*
X150606Y7974D01*
X150607Y7974D01*
X150607Y7973D01*
X150608Y7973D01*
X150609Y7973D01*
X150609Y7973D01*
X150610Y7973D01*
X150610Y7973D01*
X150611Y7973D01*
X150611Y7973D01*
X150612Y7973D01*
X150613Y7972D01*
X150613Y7972D01*
X150614Y7972D01*
X150614Y7972D01*
X150615Y7972D01*
X150616Y7972D01*
X150616Y7972D01*
X150617Y7972D01*
X150617Y7972D01*
X150618Y7972D01*
X150618Y7972D01*
X150619Y7971D01*
X150619Y7971D01*
X150620Y7971D01*
X150621Y7971D01*
X150621Y7971D01*
X150622Y7971D01*
X150622Y7971D01*
X150623Y7971D01*
X150624Y7971D01*
X150624Y7971D01*
X150625Y7970D01*
X150627Y7970D01*
X150628Y7970D01*
X150629Y7970D01*
X150630Y7970D01*
X150631Y7969D01*
X150632Y7969D01*
X150633Y7969D01*
X150635Y7969D01*
X150636Y7969D01*
X150637Y7968D01*
X150638Y7968D01*
X150639Y7968D01*
X150640Y7968D01*
X150642Y7967D01*
X150643Y7967D01*
X150644Y7967D01*
X150645Y7967D01*
X150646Y7967D01*
X150647Y7966D01*
X150648Y7966D01*
X150650Y7966D01*
X150651Y7966D01*
X150652Y7965D01*
X150653Y7965D01*
X150654Y7965D01*
X150655Y7965D01*
X150656Y7965D01*
X150658Y7964D01*
X150659Y7964D01*
X150660Y7964D01*
X150661Y7964D01*
X150662Y7963D01*
X150663Y7963D01*
X150664Y7963D01*
X150666Y7963D01*
X150667Y7962D01*
X150668Y7962D01*
X150669Y7962D01*
X150670Y7962D01*
X150671Y7961D01*
X150672Y7961D01*
X150674Y7961D01*
X150675Y7961D01*
X150676Y7960D01*
X150677Y7960D01*
X150678Y7960D01*
X150679Y7960D01*
X150680Y7959D01*
X150682Y7959D01*
X150683Y7959D01*
X150684Y7959D01*
X150685Y7958D01*
X150686Y7958D01*
X150687Y7958D01*
X150688Y7958D01*
X150690Y7957D01*
X150692Y7957D01*
X150694Y7956D01*
X150695Y7956D01*
X150697Y7955D01*
X150699Y7955D01*
X150700Y7954D01*
X150702Y7954D01*
X150704Y7954D01*
X150705Y7953D01*
X150707Y7953D01*
X150709Y7952D01*
X150710Y7952D01*
X150712Y7951D01*
X150714Y7951D01*
X150715Y7950D01*
X150717Y7950D01*
X150719Y7949D01*
X150720Y7949D01*
X150722Y7948D01*
X150724Y7948D01*
X150725Y7947D01*
X150727Y7947D01*
X150729Y7946D01*
X150730Y7946D01*
X150732Y7945D01*
X150733Y7945D01*
X150735Y7944D01*
X150737Y7943D01*
X150738Y7943D01*
X150740Y7942D01*
X150742Y7942D01*
X150744Y7941D01*
X150746Y7940D01*
X150748Y7939D01*
X150750Y7939D01*
X150752Y7938D01*
X150755Y7937D01*
X150757Y7936D01*
X150759Y7935D01*
X150761Y7934D01*
X150763Y7933D01*
X150765Y7933D01*
X150768Y7932D01*
X150770Y7931D01*
X150772Y7930D01*
X150774Y7929D01*
X150777Y7928D01*
X150779Y7926D01*
X150784Y7924D01*
X150788Y7922D01*
X150792Y7920D01*
X150795Y7919D01*
X150799Y7917D01*
X150802Y7915D01*
X150806Y7913D01*
X150809Y7911D01*
X150813Y7909D01*
X150816Y7907D01*
X150820Y7904D01*
X150823Y7902D01*
X150827Y7900D01*
X150830Y7898D01*
X150834Y7896D01*
X150837Y7893D01*
X150840Y7891D01*
X150844Y7889D01*
X150847Y7886D01*
X150850Y7884D01*
X150854Y7881D01*
X150857Y7879D01*
X150861Y7876D01*
X150865Y7873D01*
X150868Y7870D01*
X150872Y7867D01*
X150876Y7864D01*
X150879Y7861D01*
X150883Y7857D01*
X150887Y7854D01*
X150891Y7850D01*
X150896Y7846D01*
X150900Y7842D01*
X150904Y7838D01*
X150909Y7834D01*
X150914Y7829D01*
X150919Y7823D01*
X150924Y7818D01*
X150925Y7816D01*
X150927Y7814D01*
X150928Y7813D01*
X150930Y7811D01*
X150932Y7809D01*
X150933Y7808D01*
X150935Y7806D01*
X150936Y7805D01*
X150937Y7803D01*
X150938Y7802D01*
X150939Y7801D01*
X150940Y7799D01*
X150942Y7798D01*
X150943Y7796D01*
X150944Y7795D01*
X150945Y7794D01*
X150946Y7792D01*
X150947Y7791D01*
X150948Y7790D01*
X150949Y7789D01*
X150951Y7787D01*
X150952Y7786D01*
X150953Y7784D01*
X150954Y7783D01*
X150955Y7782D01*
X150956Y7780D01*
X150957Y7779D01*
X150958Y7778D01*
X150959Y7776D01*
X150960Y7775D01*
X150961Y7773D01*
X150962Y7772D01*
X150963Y7771D01*
X150965Y7769D01*
X150966Y7768D01*
X150966Y7767D01*
X150967Y7766D01*
X150968Y7765D01*
X150969Y7764D01*
X150969Y7763D01*
X150970Y7762D01*
X150971Y7762D01*
X150971Y7761D01*
X150972Y7760D01*
X150973Y7759D01*
X150973Y7758D01*
X150974Y7757D01*
X150975Y7756D01*
X150975Y7755D01*
X150976Y7754D01*
X150977Y7753D01*
X150978Y7752D01*
X150978Y7751D01*
X150979Y7750D01*
X150980Y7749D01*
X150980Y7748D01*
X150981Y7747D01*
X150982Y7746D01*
X150982Y7746D01*
X150983Y7745D01*
X150984Y7744D01*
X150984Y7743D01*
X150985Y7742D01*
X150986Y7741D01*
X150986Y7740D01*
X150987Y7739D01*
X150988Y7738D01*
X150988Y7737D01*
X150989Y7736D01*
X150990Y7735D01*
X150990Y7734D01*
X150991Y7733D01*
X150992Y7732D01*
X150992Y7731D01*
X150993Y7730D01*
X150994Y7729D01*
X150994Y7728D01*
X150995Y7728D01*
X150996Y7727D01*
X150996Y7726D01*
X150997Y7725D01*
X150998Y7724D01*
X150998Y7723D01*
X150999Y7722D01*
X150999Y7722D01*
X150999Y7721D01*
X151000Y7721D01*
X151000Y7720D01*
X151000Y7720D01*
X151001Y7719D01*
X151001Y7719D01*
X151001Y7718D01*
X151002Y7718D01*
X151002Y7717D01*
X151002Y7717D01*
X151003Y7717D01*
X151003Y7716D01*
X151003Y7716D01*
X151004Y7715D01*
X151004Y7715D01*
X151004Y7714D01*
X151005Y7714D01*
X151005Y7713D01*
X151005Y7713D01*
X151006Y7712D01*
X151006Y7712D01*
X151006Y7711D01*
X151007Y7711D01*
X151007Y7710D01*
X151007Y7710D01*
X151008Y7709D01*
X151008Y7709D01*
X151008Y7708D01*
X151009Y7708D01*
X151009Y7707D01*
X151009Y7707D01*
X151010Y7706D01*
X151010Y7706D01*
X151010Y7705D01*
X151011Y7705D01*
X151011Y7705D01*
X151011Y7704D01*
X151012Y7704D01*
X151012Y7703D01*
X151012Y7703D01*
X151013Y7702D01*
X151013Y7702D01*
X151013Y7701D01*
X151014Y7701D01*
X151014Y7700D01*
X151014Y7700D01*
X151014Y7699D01*
X151015Y7699D01*
X151015Y7698D01*
X151015Y7698D01*
X151016Y7697D01*
X151016Y7697D01*
X151016Y7696D01*
X151017Y7696D01*
X151017Y7695D01*
X151017Y7695D01*
X151018Y7694D01*
X151018Y7694D01*
X151018Y7694D01*
X151019Y7693D01*
X151019Y7693D01*
X151019Y7692D01*
X151020Y7692D01*
X151020Y7691D01*
X151020Y7691D01*
X151021Y7690D01*
X151021Y7690D01*
X151021Y7689D01*
X151022Y7689D01*
X151022Y7688D01*
X151022Y7688D01*
X151023Y7687D01*
X151023Y7687D01*
X151023Y7686D01*
X151024Y7686D01*
X151024Y7685D01*
X151024Y7685D01*
X151025Y7684D01*
X151025Y7684D01*
X151025Y7683D01*
X151026Y7683D01*
X151026Y7682D01*
X151026Y7682D01*
X151026Y7681D01*
X151027Y7681D01*
X151027Y7680D01*
X151028Y7680D01*
X151028Y7679D01*
X151028Y7679D01*
X151029Y7678D01*
X151029Y7678D01*
X151029Y7677D01*
X151029Y7677D01*
X151030Y7677D01*
X151030Y7676D01*
X151030Y7676D01*
X151031Y7675D01*
X151031Y7675D01*
X148282D02*
X148283Y7676D01*
X148283Y7676D01*
X148283Y7677D01*
X148284Y7677D01*
X148284Y7678D01*
X148284Y7678D01*
X148284Y7679D01*
X148285Y7679D01*
X148285Y7680D01*
X148285Y7680D01*
X148285Y7681D01*
X148286Y7681D01*
X148286Y7682D01*
X148286Y7682D01*
X148287Y7683D01*
X148287Y7683D01*
X148287Y7684D01*
X148287Y7684D01*
X148288Y7685D01*
X148288Y7685D01*
X148288Y7686D01*
X148288Y7686D01*
X148289Y7687D01*
X148289Y7687D01*
X148289Y7688D01*
X148290Y7688D01*
X148290Y7689D01*
X148290Y7689D01*
X148290Y7690D01*
X148291Y7690D01*
X148291Y7691D01*
X148291Y7692D01*
X148291Y7692D01*
X148292Y7693D01*
X148292Y7693D01*
X148292Y7694D01*
X148292Y7694D01*
X148293Y7695D01*
X148293Y7695D01*
X148293Y7696D01*
X148293Y7696D01*
X148294Y7697D01*
X148294Y7697D01*
X148294Y7698D01*
X148294Y7698D01*
X148295Y7699D01*
X148295Y7699D01*
X148295Y7700D01*
X148296Y7700D01*
X148296Y7701D01*
X148296Y7701D01*
X148296Y7702D01*
X148297Y7702D01*
X148297Y7703D01*
X148297Y7703D01*
X148298Y7704D01*
X148298Y7704D01*
X148298Y7705D01*
X148298Y7705D01*
X148299Y7706D01*
X148299Y7706D01*
X148299Y7707D01*
X148299Y7707D01*
X148300Y7708D01*
X148300Y7708D01*
X148300Y7709D01*
X148300Y7709D01*
X148301Y7710D01*
X148301Y7711D01*
X148301Y7711D01*
X148301Y7711D01*
X148302Y7712D01*
X148302Y7712D01*
X148302Y7713D01*
X148303Y7713D01*
X148303Y7714D01*
X148303Y7715D01*
X148303Y7715D01*
X148304Y7716D01*
X148304Y7716D01*
X148304Y7717D01*
X148304Y7717D01*
X148305Y7718D01*
X148305Y7718D01*
X148305Y7719D01*
X148305Y7719D01*
X148306Y7720D01*
X148306Y7720D01*
X148306Y7721D01*
X148307Y7721D01*
X148307Y7722D01*
X148307Y7722D01*
X148308Y7723D01*
X148308Y7723D01*
X148308Y7724D01*
X148308Y7724D01*
X148309Y7725D01*
X148309Y7725D01*
X148309Y7726D01*
X148309Y7726D01*
X148310Y7727D01*
X148310Y7727D01*
X148310Y7728D01*
X148311Y7729D01*
X148311Y7730D01*
X148312Y7731D01*
X148312Y7732D01*
X148313Y7733D01*
X148314Y7734D01*
X148314Y7735D01*
X148315Y7736D01*
X148315Y7737D01*
X148316Y7738D01*
X148316Y7739D01*
X148317Y7740D01*
X148318Y7741D01*
X148318Y7742D01*
X148319Y7743D01*
X148319Y7744D01*
X148320Y7745D01*
X148320Y7746D01*
X148321Y7747D01*
X148322Y7747D01*
X148322Y7749D01*
X148323Y7750D01*
X148323Y7750D01*
X148324Y7751D01*
X148325Y7752D01*
X148325Y7753D01*
X148326Y7754D01*
X148326Y7755D01*
X148327Y7756D01*
X148327Y7757D01*
X148328Y7758D01*
X148329Y7759D01*
X148329Y7760D01*
X148330Y7761D01*
X148330Y7762D01*
X148331Y7763D01*
X148332Y7764D01*
X148332Y7765D01*
X148333Y7766D01*
X148334Y7767D01*
X148334Y7768D01*
X148335Y7769D01*
X148335Y7770D01*
X148336Y7771D01*
X148337Y7772D01*
X148337Y7773D01*
X148338Y7774D01*
X148338Y7774D01*
X148339Y7775D01*
X148340Y7776D01*
X148340Y7777D01*
X148341Y7778D01*
X148342Y7779D01*
X148342Y7780D01*
X148343Y7781D01*
X148344Y7783D01*
X148345Y7784D01*
X148346Y7785D01*
X148347Y7787D01*
X148348Y7788D01*
X148349Y7789D01*
X148350Y7791D01*
X148351Y7792D01*
X148352Y7794D01*
X148353Y7795D01*
X148354Y7796D01*
X148355Y7797D01*
X148356Y7799D01*
X148357Y7800D01*
X148358Y7801D01*
X148359Y7803D01*
X148360Y7804D01*
X148361Y7806D01*
X148362Y7807D01*
X148363Y7808D01*
X148364Y7809D01*
X148365Y7811D01*
X148367Y7812D01*
X148368Y7813D01*
X148369Y7814D01*
X148370Y7816D01*
X148372Y7818D01*
X148375Y7822D01*
X148378Y7824D01*
X148380Y7827D01*
X148382Y7829D01*
X148385Y7831D01*
X148387Y7834D01*
X148390Y7836D01*
X148392Y7839D01*
X148395Y7841D01*
X148397Y7843D01*
X148400Y7845D01*
X148402Y7848D01*
X148405Y7850D01*
X148407Y7852D01*
X148410Y7854D01*
X148413Y7856D01*
X148415Y7859D01*
X148418Y7861D01*
X148421Y7863D01*
X148424Y7865D01*
X148426Y7867D01*
X148429Y7869D01*
X148432Y7871D01*
X148435Y7873D01*
X148437Y7875D01*
X148440Y7877D01*
X148443Y7879D01*
X148446Y7881D01*
X148449Y7883D01*
X148452Y7884D01*
X148455Y7886D01*
X148458Y7888D01*
X148461Y7890D01*
X148464Y7892D01*
X148467Y7893D01*
X148470Y7895D01*
X148473Y7897D01*
X148476Y7898D01*
X148479Y7900D01*
X148482Y7902D01*
X148485Y7904D01*
X148489Y7906D01*
X148493Y7907D01*
X148496Y7909D01*
X148500Y7911D01*
X148503Y7913D01*
X148507Y7914D01*
X148511Y7916D01*
X148515Y7918D01*
X148519Y7920D01*
X148523Y7922D01*
X148528Y7924D01*
X148532Y7926D01*
X148536Y7927D01*
X148538Y7928D01*
X148541Y7929D01*
X148543Y7930D01*
X148545Y7931D01*
X148547Y7931D01*
X148550Y7932D01*
X148552Y7933D01*
X148554Y7934D01*
X148556Y7935D01*
X148558Y7935D01*
X148560Y7936D01*
X148563Y7937D01*
X148565Y7938D01*
X148567Y7938D01*
X148569Y7939D01*
X148571Y7940D01*
X148573Y7941D01*
X148575Y7941D01*
X148577Y7942D01*
X148579Y7942D01*
X148580Y7943D01*
X148582Y7943D01*
X148584Y7944D01*
X148585Y7944D01*
X148587Y7945D01*
X148589Y7946D01*
X148590Y7946D01*
X148592Y7947D01*
X148593Y7947D01*
X148595Y7948D01*
X148597Y7948D01*
X148598Y7948D01*
X148600Y7949D01*
X148602Y7949D01*
X148603Y7950D01*
X148605Y7950D01*
X148607Y7951D01*
X148608Y7951D01*
X148610Y7952D01*
X148611Y7952D01*
X148613Y7953D01*
X148615Y7953D01*
X148616Y7954D01*
X148618Y7954D01*
X148620Y7954D01*
X148621Y7955D01*
X148623Y7955D01*
X148624Y7956D01*
X148625Y7956D01*
X148626Y7956D01*
X148627Y7957D01*
X148628Y7957D01*
X148630Y7957D01*
X148631Y7957D01*
X148632Y7958D01*
X148633Y7958D01*
X148634Y7958D01*
X148635Y7959D01*
X148636Y7959D01*
X148637Y7959D01*
X148638Y7959D01*
X148640Y7960D01*
X148641Y7960D01*
X148642Y7960D01*
X148643Y7960D01*
X148644Y7961D01*
X148645Y7961D01*
X148646Y7961D01*
X148647Y7961D01*
X148648Y7962D01*
X148649Y7962D01*
X148651Y7962D01*
X148652Y7963D01*
X148653Y7963D01*
X148654Y7963D01*
X148655Y7963D01*
X148656Y7964D01*
X148657Y7964D01*
X148658Y7964D01*
X148659Y7964D01*
X148661Y7965D01*
X148662Y7965D01*
X148663Y7965D01*
X148664Y7965D01*
X148665Y7966D01*
X148666Y7966D01*
X148667Y7966D01*
X148668Y7966D01*
X148669Y7967D01*
X148670Y7967D01*
X148672Y7967D01*
X148673Y7967D01*
X148674Y7968D01*
X148675Y7968D01*
X148676Y7968D01*
X148677Y7968D01*
X148677Y7968D01*
X148678Y7969D01*
X148678Y7969D01*
X148679Y7969D01*
X148679Y7969D01*
X148680Y7969D01*
X148680Y7969D01*
X148681Y7969D01*
X148682Y7969D01*
X148682Y7970D01*
X148683Y7970D01*
X148683Y7970D01*
X148684Y7970D01*
X148684Y7970D01*
X148685Y7970D01*
X148685Y7970D01*
X148686Y7970D01*
X148687Y7970D01*
X148687Y7971D01*
X148688Y7971D01*
X148688Y7971D01*
X148689Y7971D01*
X148689Y7971D01*
X148690Y7971D01*
X148690Y7971D01*
X148691Y7971D01*
X148692Y7972D01*
X148692Y7972D01*
X148693Y7972D01*
X148693Y7972D01*
X148694Y7972D01*
X148694Y7972D01*
X148695Y7972D01*
X148696Y7972D01*
X148696Y7973D01*
X148697Y7973D01*
X148697Y7973D01*
X148698Y7973D01*
X148698Y7973D01*
X148699Y7973D01*
X148699Y7973D01*
X148700Y7973D01*
X148700Y7974D01*
X148701Y7974D01*
X148702Y7974D01*
X148702Y7974D01*
X148703Y7974D01*
X148703Y7974D01*
X148704Y7974D01*
X148704Y7974D01*
X148705Y7975D01*
X148705Y7975D01*
X148706Y7975D01*
X148707Y7975D01*
X148707Y7975D01*
X148708Y7975D01*
X148708Y7975D01*
X148709Y7975D01*
X148709Y7975D01*
X148710Y7976D01*
X148711Y7976D01*
X148711Y7976D01*
X148712Y7976D01*
X148712Y7976D01*
X148713Y7976D01*
X148713Y7976D01*
X148714Y7976D01*
X148714Y7976D01*
X148715Y7977D01*
X148715Y7977D01*
X148716Y7977D01*
X148717Y7977D01*
X148717Y7977D01*
X148718Y7977D01*
X148718Y7977D01*
X148719Y7977D01*
X148719Y7977D01*
X148720Y7978D01*
X148721Y7978D01*
X148721Y7978D01*
X148722Y7978D01*
X148722Y7978D01*
X148723Y7978D01*
X148723Y7978D01*
X148724Y7978D01*
X148724Y7979D01*
X148725Y7979D01*
X148725Y7979D01*
X148726Y7979D01*
X148727Y7979D01*
X148727Y7979D01*
X148728Y7979D01*
X148728Y7979D01*
X148729Y7980D01*
X148729Y7980D01*
X148730Y7980D01*
X148731Y7980D01*
X148731Y7980D01*
X148732Y7980D01*
X150564D01*
X148282Y1962D02*
X151031D01*
X148282Y956D02*
X151031D01*
X148282Y435D02*
Y7675D01*
X151031Y435D02*
Y7675D01*
X148282Y435D02*
X151031D01*
X169518Y7980D02*
X169519Y7980D01*
X169519Y7980D01*
X169520Y7980D01*
X169520Y7980D01*
X169521Y7980D01*
X169522Y7980D01*
X169522Y7979D01*
X169523Y7979D01*
X169523Y7979D01*
X169524Y7979D01*
X169525Y7979D01*
X169525Y7979D01*
X169526Y7979D01*
X169526Y7979D01*
X169527Y7979D01*
X169527Y7979D01*
X169528Y7978D01*
X169529Y7978D01*
X169529Y7978D01*
X169530Y7978D01*
X169530Y7978D01*
X169531Y7978D01*
X169532Y7978D01*
X169532Y7978D01*
X169533Y7978D01*
X169533Y7978D01*
X169534Y7978D01*
X169534Y7977D01*
X169535Y7977D01*
X169536Y7977D01*
X169536Y7977D01*
X169537Y7977D01*
X169537Y7977D01*
X169538Y7977D01*
X169538Y7977D01*
X169539Y7977D01*
X169540Y7977D01*
X169540Y7977D01*
X169541Y7976D01*
X169542Y7976D01*
X169542Y7976D01*
X169543Y7976D01*
X169543Y7976D01*
X169544Y7976D01*
X169544Y7976D01*
X169545Y7976D01*
X169545Y7976D01*
X169546Y7976D01*
X169547Y7976D01*
X169547Y7976D01*
X169548Y7975D01*
X169548Y7975D01*
X169549Y7975D01*
X169550Y7975D01*
X169550Y7975D01*
X169551Y7975D01*
X169551Y7975D01*
X169552Y7975D01*
X169553Y7975D01*
X169553Y7975D01*
X169554Y7975D01*
X169554Y7974D01*
X169555Y7974D01*
X169555Y7974D01*
X169556Y7974D01*
X169557Y7974D01*
X169557Y7974D01*
X169558Y7974D01*
X169558Y7974D01*
X169559Y7974D01*
X169560Y7974D01*
X169560Y7974D01*
X169561Y7973D01*
X169561Y7973D01*
X169562Y7973D01*
X169562Y7973D01*
X169563Y7973D01*
X169564Y7973D01*
X169564Y7973D01*
X169565Y7973D01*
X169565Y7973D01*
X169566Y7972D01*
X169567Y7972D01*
X169567Y7972D01*
X169568Y7972D01*
X169568Y7972D01*
X169569Y7972D01*
X169569Y7972D01*
X169570Y7972D01*
X169571Y7972D01*
X169571Y7972D01*
X169572Y7972D01*
X169572Y7971D01*
X169573Y7971D01*
X169573Y7971D01*
X169574Y7971D01*
X169575Y7971D01*
X169575Y7971D01*
X169576Y7971D01*
X169576Y7971D01*
X169577Y7971D01*
X169578Y7971D01*
X169579Y7970D01*
X169580Y7970D01*
X169581Y7970D01*
X169582Y7970D01*
X169583Y7970D01*
X169585Y7969D01*
X169586Y7969D01*
X169587Y7969D01*
X169588Y7969D01*
X169589Y7969D01*
X169590Y7968D01*
X169591Y7968D01*
X169593Y7968D01*
X169594Y7968D01*
X169595Y7967D01*
X169596Y7967D01*
X169597Y7967D01*
X169598Y7967D01*
X169599Y7967D01*
X169601Y7966D01*
X169602Y7966D01*
X169603Y7966D01*
X169604Y7966D01*
X169605Y7965D01*
X169606Y7965D01*
X169608Y7965D01*
X169609Y7965D01*
X169610Y7965D01*
X169611Y7964D01*
X169612Y7964D01*
X169613Y7964D01*
X169615Y7964D01*
X169616Y7963D01*
X169617Y7963D01*
X169618Y7963D01*
X169619Y7963D01*
X169620Y7962D01*
X169621Y7962D01*
X169623Y7962D01*
X169624Y7962D01*
X169625Y7961D01*
X169626Y7961D01*
X169627Y7961D01*
X169628Y7961D01*
X169629Y7960D01*
X169630Y7960D01*
X169632Y7960D01*
X169633Y7960D01*
X169634Y7959D01*
X169635Y7959D01*
X169636Y7959D01*
X169637Y7959D01*
X169638Y7958D01*
X169640Y7958D01*
X169641Y7958D01*
X169642Y7958D01*
X169643Y7957D01*
X169645Y7957D01*
X169647Y7956D01*
X169649Y7956D01*
X169650Y7955D01*
X169652Y7955D01*
X169654Y7954D01*
X169655Y7954D01*
X169657Y7954D01*
X169659Y7953D01*
X169660Y7953D01*
X169662Y7952D01*
X169664Y7952D01*
X169665Y7951D01*
X169667Y7951D01*
X169669Y7950D01*
X169670Y7950D01*
X169672Y7949D01*
X169674Y7949D01*
X169675Y7948D01*
X169677Y7948D01*
X169679Y7947D01*
X169680Y7947D01*
X169682Y7946D01*
X169684Y7946D01*
X169685Y7945D01*
X169687Y7945D01*
X169688Y7944D01*
X169690Y7943D01*
X169692Y7943D01*
X169694Y7942D01*
X169695Y7942D01*
X169697Y7941D01*
X169699Y7940D01*
X169702Y7939D01*
X169704Y7939D01*
X169706Y7938D01*
X169708Y7937D01*
X169710Y7936D01*
X169712Y7935D01*
X169714Y7934D01*
X169717Y7933D01*
X169719Y7933D01*
X169721Y7932D01*
X169723Y7931D01*
X169725Y7930D01*
X169727Y7929D01*
X169730Y7928D01*
X169732Y7926D01*
X169738Y7924D01*
X169741Y7922D01*
X169745Y7920D01*
X169748Y7919D01*
X169752Y7917D01*
X169756Y7915D01*
X169759Y7913D01*
X169763Y7911D01*
X169766Y7909D01*
X169770Y7907D01*
X169773Y7904D01*
X169777Y7902D01*
X169780Y7900D01*
X169784Y7898D01*
X169787Y7896D01*
X169790Y7893D01*
X169794Y7891D01*
X169797Y7889D01*
X169800Y7886D01*
X169804Y7884D01*
X169807Y7881D01*
X169811Y7879D01*
X169815Y7876D01*
X169818Y7873D01*
X169822Y7870D01*
X169825Y7867D01*
X169829Y7864D01*
X169833Y7861D01*
X169837Y7857D01*
X169841Y7854D01*
X169845Y7850D01*
X169849Y7846D01*
X169853Y7842D01*
X169857Y7838D01*
X169862Y7834D01*
X169867Y7829D01*
X169872Y7823D01*
X169877Y7818D01*
X169879Y7816D01*
X169880Y7814D01*
X169882Y7813D01*
X169883Y7811D01*
X169885Y7809D01*
X169887Y7808D01*
X169888Y7806D01*
X169889Y7805D01*
X169890Y7803D01*
X169892Y7802D01*
X169893Y7801D01*
X169894Y7799D01*
X169895Y7798D01*
X169896Y7796D01*
X169897Y7795D01*
X169898Y7794D01*
X169899Y7792D01*
X169901Y7791D01*
X169902Y7790D01*
X169903Y7789D01*
X169904Y7787D01*
X169905Y7786D01*
X169906Y7784D01*
X169907Y7783D01*
X169908Y7782D01*
X169909Y7780D01*
X169910Y7779D01*
X169912Y7778D01*
X169913Y7776D01*
X169914Y7775D01*
X169915Y7773D01*
X169916Y7772D01*
X169917Y7771D01*
X169918Y7769D01*
X169919Y7768D01*
X169920Y7767D01*
X169920Y7766D01*
X169921Y7765D01*
X169922Y7764D01*
X169922Y7763D01*
X169923Y7762D01*
X169924Y7762D01*
X169925Y7761D01*
X169925Y7760D01*
X169926Y7759D01*
X169927Y7758D01*
X169927Y7757D01*
X169928Y7756D01*
X169929Y7755D01*
X169930Y7754D01*
X169930Y7753D01*
X169931Y7752D01*
X169932Y7751D01*
X169932Y7750D01*
X169933Y7749D01*
X169934Y7748D01*
X169934Y7747D01*
X169935Y7746D01*
X169936Y7746D01*
X169936Y7745D01*
X169937Y7744D01*
X169938Y7743D01*
X169938Y7742D01*
X169939Y7741D01*
X169940Y7740D01*
X169940Y7739D01*
X169941Y7738D01*
X169942Y7737D01*
X169942Y7736D01*
X169943Y7735D01*
X169944Y7734D01*
X169945Y7733D01*
X169945Y7732D01*
X169946Y7731D01*
X169947Y7730D01*
X169947Y7729D01*
X169948Y7728D01*
X169948Y7728D01*
X169949Y7727D01*
X169950Y7726D01*
X169950Y7725D01*
X169951Y7724D01*
X169952Y7723D01*
X169952Y7722D01*
X169952Y7722D01*
X169953Y7721D01*
X169953Y7721D01*
X169954Y7720D01*
X169954Y7720D01*
X169954Y7719D01*
X169954Y7719D01*
X169955Y7718D01*
X169955Y7718D01*
X169955Y7717D01*
X169956Y7717D01*
X169956Y7717D01*
X169956Y7716D01*
X169957Y7716D01*
X169957Y7715D01*
X169957Y7715D01*
X169958Y7714D01*
X169958Y7714D01*
X169958Y7713D01*
X169959Y7713D01*
X169959Y7712D01*
X169959Y7712D01*
X169960Y7711D01*
X169960Y7711D01*
X169960Y7710D01*
X169961Y7710D01*
X169961Y7709D01*
X169961Y7709D01*
X169962Y7708D01*
X169962Y7708D01*
X169962Y7707D01*
X169963Y7707D01*
X169963Y7706D01*
X169963Y7706D01*
X169964Y7705D01*
X169964Y7705D01*
X169964Y7705D01*
X169965Y7704D01*
X169965Y7704D01*
X169965Y7703D01*
X169966Y7703D01*
X169966Y7702D01*
X169966Y7702D01*
X169967Y7701D01*
X169967Y7701D01*
X169967Y7700D01*
X169968Y7700D01*
X169968Y7699D01*
X169968Y7699D01*
X169969Y7698D01*
X169969Y7698D01*
X169969Y7697D01*
X169969Y7697D01*
X169970Y7696D01*
X169970Y7696D01*
X169971Y7695D01*
X169971Y7695D01*
X169971Y7694D01*
X169972Y7694D01*
X169972Y7694D01*
X169972Y7693D01*
X169973Y7693D01*
X169973Y7692D01*
X169973Y7692D01*
X169973Y7691D01*
X169974Y7691D01*
X169974Y7690D01*
X169974Y7690D01*
X169975Y7689D01*
X169975Y7689D01*
X169975Y7688D01*
X169976Y7688D01*
X169976Y7687D01*
X169976Y7687D01*
X169977Y7686D01*
X169977Y7686D01*
X169977Y7685D01*
X169978Y7685D01*
X169978Y7684D01*
X169978Y7684D01*
X169979Y7683D01*
X169979Y7683D01*
X169979Y7682D01*
X169980Y7682D01*
X169980Y7681D01*
X169980Y7681D01*
X169981Y7680D01*
X169981Y7680D01*
X169981Y7679D01*
X169982Y7679D01*
X169982Y7678D01*
X169982Y7678D01*
X169983Y7677D01*
X169983Y7677D01*
X169983Y7677D01*
X169983Y7676D01*
X169984Y7676D01*
X169984Y7675D01*
X169984Y7675D01*
X167236D02*
X167236Y7676D01*
X167236Y7676D01*
X167237Y7677D01*
X167237Y7677D01*
X167237Y7678D01*
X167238Y7678D01*
X167238Y7679D01*
X167238Y7679D01*
X167238Y7680D01*
X167239Y7680D01*
X167239Y7681D01*
X167239Y7681D01*
X167239Y7682D01*
X167240Y7682D01*
X167240Y7683D01*
X167240Y7683D01*
X167241Y7684D01*
X167241Y7684D01*
X167241Y7685D01*
X167241Y7685D01*
X167242Y7686D01*
X167242Y7686D01*
X167242Y7687D01*
X167242Y7687D01*
X167243Y7688D01*
X167243Y7688D01*
X167243Y7689D01*
X167243Y7689D01*
X167244Y7690D01*
X167244Y7690D01*
X167244Y7691D01*
X167244Y7692D01*
X167245Y7692D01*
X167245Y7693D01*
X167245Y7693D01*
X167245Y7694D01*
X167246Y7694D01*
X167246Y7695D01*
X167246Y7695D01*
X167247Y7696D01*
X167247Y7696D01*
X167247Y7697D01*
X167247Y7697D01*
X167248Y7698D01*
X167248Y7698D01*
X167248Y7699D01*
X167248Y7699D01*
X167249Y7700D01*
X167249Y7700D01*
X167249Y7701D01*
X167250Y7701D01*
X167250Y7702D01*
X167250Y7702D01*
X167250Y7703D01*
X167251Y7703D01*
X167251Y7704D01*
X167251Y7704D01*
X167251Y7705D01*
X167252Y7705D01*
X167252Y7706D01*
X167252Y7706D01*
X167252Y7707D01*
X167253Y7707D01*
X167253Y7708D01*
X167253Y7708D01*
X167253Y7709D01*
X167254Y7709D01*
X167254Y7710D01*
X167254Y7711D01*
X167255Y7711D01*
X167255Y7711D01*
X167255Y7712D01*
X167255Y7712D01*
X167256Y7713D01*
X167256Y7713D01*
X167256Y7714D01*
X167256Y7715D01*
X167257Y7715D01*
X167257Y7716D01*
X167257Y7716D01*
X167258Y7717D01*
X167258Y7717D01*
X167258Y7718D01*
X167258Y7718D01*
X167259Y7719D01*
X167259Y7719D01*
X167259Y7720D01*
X167260Y7720D01*
X167260Y7721D01*
X167260Y7721D01*
X167260Y7722D01*
X167261Y7722D01*
X167261Y7723D01*
X167261Y7723D01*
X167261Y7724D01*
X167262Y7724D01*
X167262Y7725D01*
X167262Y7725D01*
X167262Y7726D01*
X167263Y7726D01*
X167263Y7727D01*
X167263Y7727D01*
X167264Y7728D01*
X167264Y7729D01*
X167265Y7730D01*
X167265Y7731D01*
X167266Y7732D01*
X167266Y7733D01*
X167267Y7734D01*
X167268Y7735D01*
X167268Y7736D01*
X167269Y7737D01*
X167269Y7738D01*
X167270Y7739D01*
X167270Y7740D01*
X167271Y7741D01*
X167271Y7742D01*
X167272Y7743D01*
X167273Y7744D01*
X167273Y7745D01*
X167274Y7746D01*
X167274Y7747D01*
X167275Y7747D01*
X167276Y7749D01*
X167276Y7750D01*
X167277Y7750D01*
X167277Y7751D01*
X167278Y7752D01*
X167278Y7753D01*
X167279Y7754D01*
X167280Y7755D01*
X167280Y7756D01*
X167281Y7757D01*
X167281Y7758D01*
X167282Y7759D01*
X167283Y7760D01*
X167283Y7761D01*
X167284Y7762D01*
X167284Y7763D01*
X167285Y7764D01*
X167286Y7765D01*
X167286Y7766D01*
X167287Y7767D01*
X167288Y7768D01*
X167288Y7769D01*
X167289Y7770D01*
X167289Y7771D01*
X167290Y7772D01*
X167291Y7773D01*
X167291Y7774D01*
X167292Y7774D01*
X167292Y7775D01*
X167293Y7776D01*
X167294Y7777D01*
X167294Y7778D01*
X167295Y7779D01*
X167296Y7780D01*
X167296Y7781D01*
X167297Y7783D01*
X167298Y7784D01*
X167299Y7785D01*
X167300Y7787D01*
X167301Y7788D01*
X167302Y7789D01*
X167303Y7791D01*
X167304Y7792D01*
X167305Y7794D01*
X167306Y7795D01*
X167307Y7796D01*
X167308Y7797D01*
X167309Y7799D01*
X167310Y7800D01*
X167311Y7801D01*
X167313Y7803D01*
X167314Y7804D01*
X167315Y7806D01*
X167316Y7807D01*
X167317Y7808D01*
X167318Y7809D01*
X167319Y7811D01*
X167320Y7812D01*
X167321Y7813D01*
X167322Y7814D01*
X167324Y7816D01*
X167325Y7818D01*
X167329Y7822D01*
X167331Y7824D01*
X167333Y7827D01*
X167336Y7829D01*
X167338Y7831D01*
X167341Y7834D01*
X167343Y7836D01*
X167345Y7839D01*
X167348Y7841D01*
X167350Y7843D01*
X167353Y7845D01*
X167356Y7848D01*
X167358Y7850D01*
X167361Y7852D01*
X167363Y7854D01*
X167366Y7856D01*
X167369Y7859D01*
X167371Y7861D01*
X167374Y7863D01*
X167377Y7865D01*
X167380Y7867D01*
X167382Y7869D01*
X167385Y7871D01*
X167388Y7873D01*
X167391Y7875D01*
X167394Y7877D01*
X167396Y7879D01*
X167399Y7881D01*
X167402Y7883D01*
X167405Y7884D01*
X167408Y7886D01*
X167411Y7888D01*
X167414Y7890D01*
X167417Y7892D01*
X167420Y7893D01*
X167423Y7895D01*
X167426Y7897D01*
X167429Y7898D01*
X167432Y7900D01*
X167435Y7902D01*
X167439Y7904D01*
X167442Y7906D01*
X167446Y7907D01*
X167450Y7909D01*
X167453Y7911D01*
X167457Y7913D01*
X167461Y7914D01*
X167464Y7916D01*
X167468Y7918D01*
X167473Y7920D01*
X167477Y7922D01*
X167481Y7924D01*
X167486Y7926D01*
X167489Y7927D01*
X167492Y7928D01*
X167494Y7929D01*
X167497Y7930D01*
X167499Y7931D01*
X167501Y7931D01*
X167503Y7932D01*
X167505Y7933D01*
X167507Y7934D01*
X167509Y7935D01*
X167512Y7935D01*
X167514Y7936D01*
X167516Y7937D01*
X167518Y7938D01*
X167520Y7938D01*
X167522Y7939D01*
X167525Y7940D01*
X167527Y7941D01*
X167529Y7941D01*
X167530Y7942D01*
X167532Y7942D01*
X167534Y7943D01*
X167535Y7943D01*
X167537Y7944D01*
X167539Y7944D01*
X167540Y7945D01*
X167542Y7946D01*
X167543Y7946D01*
X167545Y7947D01*
X167547Y7947D01*
X167548Y7948D01*
X167550Y7948D01*
X167552Y7948D01*
X167553Y7949D01*
X167555Y7949D01*
X167557Y7950D01*
X167558Y7950D01*
X167560Y7951D01*
X167561Y7951D01*
X167563Y7952D01*
X167565Y7952D01*
X167567Y7953D01*
X167568Y7953D01*
X167570Y7954D01*
X167571Y7954D01*
X167573Y7954D01*
X167575Y7955D01*
X167576Y7955D01*
X167577Y7956D01*
X167578Y7956D01*
X167580Y7956D01*
X167581Y7957D01*
X167582Y7957D01*
X167583Y7957D01*
X167584Y7957D01*
X167585Y7958D01*
X167586Y7958D01*
X167587Y7958D01*
X167588Y7959D01*
X167589Y7959D01*
X167591Y7959D01*
X167592Y7959D01*
X167593Y7960D01*
X167594Y7960D01*
X167595Y7960D01*
X167596Y7960D01*
X167597Y7961D01*
X167598Y7961D01*
X167599Y7961D01*
X167601Y7961D01*
X167602Y7962D01*
X167603Y7962D01*
X167604Y7962D01*
X167605Y7963D01*
X167606Y7963D01*
X167607Y7963D01*
X167608Y7963D01*
X167609Y7964D01*
X167611Y7964D01*
X167612Y7964D01*
X167613Y7964D01*
X167614Y7965D01*
X167615Y7965D01*
X167616Y7965D01*
X167617Y7965D01*
X167618Y7966D01*
X167619Y7966D01*
X167621Y7966D01*
X167622Y7966D01*
X167623Y7967D01*
X167624Y7967D01*
X167625Y7967D01*
X167626Y7967D01*
X167627Y7968D01*
X167628Y7968D01*
X167629Y7968D01*
X167630Y7968D01*
X167631Y7968D01*
X167631Y7969D01*
X167632Y7969D01*
X167632Y7969D01*
X167633Y7969D01*
X167633Y7969D01*
X167634Y7969D01*
X167634Y7969D01*
X167635Y7969D01*
X167636Y7970D01*
X167636Y7970D01*
X167637Y7970D01*
X167637Y7970D01*
X167638Y7970D01*
X167638Y7970D01*
X167639Y7970D01*
X167639Y7970D01*
X167640Y7970D01*
X167640Y7971D01*
X167641Y7971D01*
X167642Y7971D01*
X167642Y7971D01*
X167643Y7971D01*
X167643Y7971D01*
X167644Y7971D01*
X167644Y7971D01*
X167645Y7972D01*
X167646Y7972D01*
X167646Y7972D01*
X167647Y7972D01*
X167647Y7972D01*
X167648Y7972D01*
X167648Y7972D01*
X167649Y7972D01*
X167649Y7973D01*
X167650Y7973D01*
X167650Y7973D01*
X167651Y7973D01*
X167652Y7973D01*
X167652Y7973D01*
X167653Y7973D01*
X167653Y7973D01*
X167654Y7974D01*
X167654Y7974D01*
X167655Y7974D01*
X167656Y7974D01*
X167656Y7974D01*
X167657Y7974D01*
X167657Y7974D01*
X167658Y7974D01*
X167658Y7975D01*
X167659Y7975D01*
X167659Y7975D01*
X167660Y7975D01*
X167660Y7975D01*
X167661Y7975D01*
X167662Y7975D01*
X167662Y7975D01*
X167663Y7975D01*
X167663Y7976D01*
X167664Y7976D01*
X167664Y7976D01*
X167665Y7976D01*
X167666Y7976D01*
X167666Y7976D01*
X167667Y7976D01*
X167667Y7976D01*
X167668Y7976D01*
X167668Y7977D01*
X167669Y7977D01*
X167669Y7977D01*
X167670Y7977D01*
X167671Y7977D01*
X167671Y7977D01*
X167672Y7977D01*
X167672Y7977D01*
X167673Y7977D01*
X167673Y7978D01*
X167674Y7978D01*
X167674Y7978D01*
X167675Y7978D01*
X167675Y7978D01*
X167676Y7978D01*
X167677Y7978D01*
X167677Y7978D01*
X167678Y7979D01*
X167678Y7979D01*
X167679Y7979D01*
X167679Y7979D01*
X167680Y7979D01*
X167681Y7979D01*
X167681Y7979D01*
X167682Y7979D01*
X167682Y7980D01*
X167683Y7980D01*
X167683Y7980D01*
X167684Y7980D01*
X167684Y7980D01*
X167685Y7980D01*
X169518D01*
X167236Y1962D02*
X169984D01*
X167236Y956D02*
X169984D01*
X167236Y435D02*
Y7675D01*
X169984Y435D02*
Y7675D01*
X167236Y435D02*
X169984D01*
X172904Y-2009D02*
X174129D01*
X146755Y-2063D02*
X171532D01*
X171905Y-1793D02*
X174099D01*
X173236Y-2763D02*
X174153Y-2063D01*
Y-3931D02*
X175069Y-3230D01*
X173039Y-2512D02*
X174404Y-4236D01*
X175320Y-3536D01*
X174184Y-2102D02*
X175320Y-3536D01*
X171512Y-3142D02*
Y-2187D01*
X147149Y-3536D02*
X171118D01*
X147149Y-4236D02*
X171118D01*
X174099Y-1789D02*
Y18113D01*
X144150D02*
X174099D01*
X144150Y-1789D02*
Y18113D01*
X142929Y-3536D02*
X144063Y-2126D01*
X142929Y-3536D02*
X143899Y-4236D01*
X145030Y-2763D01*
X38093Y94914D02*
X41707D01*
X38093Y95886D02*
X41707D01*
X188608Y153247D02*
X191706D01*
X188608Y152066D02*
X191706D01*
X188608D02*
Y154035D01*
X191706Y152066D02*
Y154035D01*
X172861Y153247D02*
X175959D01*
X172861Y152066D02*
X175959D01*
Y154035D01*
X172861Y152066D02*
Y154035D01*
X188608Y179233D02*
X191706D01*
X188608Y180414D02*
X191706D01*
X188608Y178445D02*
Y180414D01*
X191706Y178445D02*
Y180414D01*
X172861Y179233D02*
X175959D01*
X172861Y180414D02*
X175959D01*
Y178445D02*
Y180414D01*
X172861Y178445D02*
Y180414D01*
X169882Y178445D02*
X194685D01*
Y154035D02*
Y178445D01*
X169882Y154035D02*
X194685D01*
X169882D02*
Y178445D01*
X43769Y54950D02*
X51643D01*
X43769Y61250D02*
X51643D01*
X43769Y54950D02*
Y61250D01*
X51643Y54950D02*
Y61250D01*
X186718Y124382D02*
Y134618D01*
X176482Y124382D02*
Y134618D01*
Y124382D02*
X186718D01*
X176482Y134618D02*
X186718D01*
X175695Y135406D02*
X187505D01*
X175695Y123594D02*
X187505D01*
X175695D02*
Y135406D01*
X187505Y123594D02*
Y135406D01*
X19535Y58917D02*
Y60492D01*
X31504Y58917D02*
Y60492D01*
X28315Y58917D02*
Y60492D01*
X10520Y58917D02*
X31504D01*
X10520Y60492D02*
X31504D01*
X-10945Y58917D02*
Y60492D01*
X-11417Y59390D02*
X-10945Y58917D01*
X-11417Y60020D02*
X-10945Y60492D01*
X-11417Y59390D02*
Y60020D01*
X-10945Y60492D02*
X591D01*
X-10945Y58917D02*
X591D01*
X19535Y63917D02*
Y65492D01*
X31504Y63917D02*
Y65492D01*
X28315Y63917D02*
Y65492D01*
X10520Y63917D02*
X31504D01*
X10520Y65492D02*
X31504D01*
X-10945Y63917D02*
Y65492D01*
X-11417Y64390D02*
X-10945Y63917D01*
X-11417Y65020D02*
X-10945Y65492D01*
X-11417Y64390D02*
Y65020D01*
X-10945Y65492D02*
X591D01*
X-10945Y63917D02*
X591D01*
X19535Y68917D02*
Y70492D01*
X31504Y68917D02*
Y70492D01*
X28315Y68917D02*
Y70492D01*
X10520Y68917D02*
X31504D01*
X10520Y70492D02*
X31504D01*
X-10945Y68917D02*
Y70492D01*
X-11417Y69390D02*
X-10945Y68917D01*
X-11417Y70020D02*
X-10945Y70492D01*
X-11417Y69390D02*
Y70020D01*
X-10945Y70492D02*
X591D01*
X-10945Y68917D02*
X591D01*
X19535Y73917D02*
Y75492D01*
X31504Y73917D02*
Y75492D01*
X28315Y73917D02*
Y75492D01*
X10520Y73917D02*
X31504D01*
X10520Y75492D02*
X31504D01*
X-10945Y73917D02*
Y75492D01*
X-11417Y74390D02*
X-10945Y73917D01*
X-11417Y75020D02*
X-10945Y75492D01*
X-11417Y74390D02*
Y75020D01*
X-10945Y75492D02*
X591D01*
X-10945Y73917D02*
X591D01*
X-10945Y78917D02*
X591D01*
Y57224D02*
X10520D01*
X591Y82185D02*
X10520D01*
Y57224D02*
Y82185D01*
X591Y57224D02*
Y82185D01*
Y72705D02*
X3937D01*
X7087Y72705D02*
X10520D01*
X591Y71705D02*
X3937D01*
X7087Y71705D02*
X10520D01*
X591Y77705D02*
X3937D01*
X7087Y77705D02*
X10520D01*
X591Y76705D02*
X3937D01*
X7087Y76705D02*
X10520D01*
X591Y61705D02*
X3937D01*
X7087Y61705D02*
X10520D01*
X591Y67705D02*
X3937D01*
X7087Y67705D02*
X10520D01*
X7087Y62705D02*
X10520D01*
X591Y62705D02*
X3937D01*
X7087Y77705D02*
Y82185D01*
X3937Y77705D02*
Y82185D01*
Y72705D02*
Y76705D01*
X7087Y72705D02*
Y76705D01*
Y66705D02*
X10520D01*
X591Y66705D02*
X3937D01*
X7087Y67705D02*
Y71705D01*
X3937Y67705D02*
Y71705D01*
X7087Y62705D02*
Y66705D01*
Y57224D02*
Y61705D01*
X3937Y62705D02*
Y66705D01*
Y57224D02*
Y61705D01*
X-10945Y80492D02*
X591D01*
X-11417Y79390D02*
Y80020D01*
X-10945Y80492D01*
X-11417Y79390D02*
X-10945Y78917D01*
Y80492D01*
X10520D02*
X31504D01*
X10520Y78917D02*
X31504D01*
X28315D02*
Y80492D01*
X31504Y78917D02*
Y80492D01*
X19535Y78917D02*
Y80492D01*
X63526Y316D02*
Y4208D01*
X63928D01*
X65130D01*
Y316D02*
Y4208D01*
X64328Y316D02*
Y4208D01*
X63526Y8099D02*
X63928D01*
X63526D02*
Y11991D01*
X63928Y8099D02*
X65130D01*
Y11991D01*
X64328Y8099D02*
Y11991D01*
X66682Y13969D02*
X68685D01*
X66682Y17037D02*
X68685D01*
X72791Y316D02*
X74293Y1800D01*
X81104D02*
X82605Y316D01*
X91470Y4208D02*
X91870D01*
Y316D02*
Y4208D01*
X90267Y4208D02*
X91470D01*
X90267Y316D02*
Y4208D01*
X91068Y316D02*
Y4208D01*
X91870Y8099D02*
Y11991D01*
X91470Y8099D02*
X91870D01*
X90267D02*
X91470D01*
X90267D02*
Y11991D01*
X91069Y8099D02*
Y11991D01*
X86712Y13969D02*
X88715D01*
X86712Y17037D02*
X88715D01*
X63928Y4208D02*
Y8099D01*
X66682Y11991D02*
Y17037D01*
X68685Y11991D02*
Y17037D01*
X71789Y-3542D02*
Y316D01*
X76697Y11991D02*
Y17037D01*
X78700Y11991D02*
Y17037D01*
X91470Y4208D02*
Y8099D01*
X86712Y11991D02*
Y17037D01*
X88715Y11991D02*
Y17037D01*
X74293Y1800D02*
X81104D01*
X76697Y13969D02*
X78700D01*
X76697Y17037D02*
X78700D01*
X77699Y-3542D02*
Y316D01*
X71789Y-3542D02*
X77699D01*
X63526Y316D02*
X91870D01*
X63526Y11991D02*
X91870D01*
X107020Y31433D02*
X109580D01*
X107020Y35567D02*
X109580D01*
X107020Y31433D02*
Y35567D01*
X109580Y31433D02*
Y35567D01*
D126*
X87989Y199088D02*
G03*
X88381Y199486I-7J398D01*
G01*
X82419D02*
G03*
X82810Y199088I398J0D01*
G01*
X83704Y190045D02*
G03*
X83313Y189648I7J-398D01*
G01*
X87486Y189648D02*
G03*
X87095Y190045I-398J0D01*
G01*
X87989Y199088D02*
G03*
X88381Y199486I-7J398D01*
G01*
X82419D02*
G03*
X82810Y199088I398J0D01*
G01*
X83704Y190045D02*
G03*
X83313Y189648I7J-398D01*
G01*
X87486Y189648D02*
G03*
X87095Y190045I-398J0D01*
G01*
X90170Y192795D02*
G03*
X90124Y192791I-2J-286D01*
G01*
D02*
G03*
X90102Y192787I32J-197D01*
G01*
Y192787D02*
G03*
X90081Y192780I46J-167D01*
G01*
X90081Y192780D02*
G03*
X90023Y192739I69J-160D01*
G01*
X90023Y192739D02*
G03*
X90005Y192718I173J-167D01*
G01*
X90005Y192718D02*
G03*
X89988Y192693I247J-189D01*
G01*
D02*
G03*
X89971Y192662I353J-218D01*
G01*
X89805Y192298D02*
G03*
X89810Y192105I259J-90D01*
G01*
X89810D02*
G03*
X89829Y192071I181J78D01*
G01*
X89829D02*
G03*
X89854Y192042I139J96D01*
G01*
D02*
G03*
X89971Y192000I112J126D01*
G01*
X90170Y192795D02*
G03*
X90124Y192791I-2J-286D01*
G01*
D02*
G03*
X90102Y192787I32J-197D01*
G01*
Y192787D02*
G03*
X90081Y192780I46J-167D01*
G01*
X90081Y192780D02*
G03*
X90023Y192739I69J-160D01*
G01*
X90023Y192739D02*
G03*
X90005Y192718I173J-167D01*
G01*
X90005Y192718D02*
G03*
X89988Y192693I247J-189D01*
G01*
D02*
G03*
X89971Y192662I353J-218D01*
G01*
X89805Y192298D02*
G03*
X89810Y192105I259J-90D01*
G01*
X89810D02*
G03*
X89829Y192071I181J78D01*
G01*
X89829D02*
G03*
X89854Y192042I139J96D01*
G01*
D02*
G03*
X89971Y192000I112J126D01*
G01*
X90124Y196342D02*
G03*
X90170Y196339I43J282D01*
G01*
X90102Y196347D02*
G03*
X90124Y196342I53J192D01*
G01*
X90081Y196354D02*
G03*
X90102Y196347I67J159D01*
G01*
X90023Y196395D02*
G03*
X90081Y196354I127J120D01*
G01*
X90005Y196416D02*
G03*
X90023Y196395I191J146D01*
G01*
X89988Y196441D02*
G03*
X90005Y196416I265J163D01*
G01*
X89971Y196471D02*
G03*
X89988Y196441I370J188D01*
G01*
X89810Y197029D02*
G03*
X89805Y196836I255J-103D01*
G01*
X89829Y197063D02*
G03*
X89810Y197029I163J-112D01*
G01*
X89854Y197092D02*
G03*
X89829Y197063I114J-125D01*
G01*
X89971Y197134D02*
G03*
X89854Y197092I-6J-168D01*
G01*
X90124Y196342D02*
G03*
X90170Y196339I43J282D01*
G01*
X90102Y196347D02*
G03*
X90124Y196342I53J192D01*
G01*
X90081Y196354D02*
G03*
X90102Y196347I67J159D01*
G01*
X90023Y196395D02*
G03*
X90081Y196354I127J120D01*
G01*
X90005Y196416D02*
G03*
X90023Y196395I191J146D01*
G01*
X89988Y196441D02*
G03*
X90005Y196416I265J163D01*
G01*
X89971Y196471D02*
G03*
X89988Y196441I370J188D01*
G01*
X89810Y197029D02*
G03*
X89805Y196836I255J-103D01*
G01*
X89829Y197063D02*
G03*
X89810Y197029I163J-112D01*
G01*
X89854Y197092D02*
G03*
X89829Y197063I114J-125D01*
G01*
X89971Y197134D02*
G03*
X89854Y197092I-6J-168D01*
G01*
X80675Y192791D02*
G03*
X80630Y192795I-43J-282D01*
G01*
X80697Y192787D02*
G03*
X80675Y192791I-53J-192D01*
G01*
X80718Y192780D02*
G03*
X80697Y192787I-67J-159D01*
G01*
X80776Y192739D02*
G03*
X80718Y192780I-127J-120D01*
G01*
X80794Y192718D02*
G03*
X80776Y192739I-191J-146D01*
G01*
X80812Y192693D02*
G03*
X80794Y192718I-265J-163D01*
G01*
X80828Y192662D02*
G03*
X80812Y192693I-370J-188D01*
G01*
X80989Y192105D02*
G03*
X80994Y192298I-253J103D01*
G01*
X80971Y192071D02*
G03*
X80989Y192105I-162J112D01*
G01*
X80946Y192042D02*
G03*
X80971Y192071I-114J125D01*
G01*
X80828Y192000D02*
G03*
X80946Y192042I6J168D01*
G01*
X80675Y192791D02*
G03*
X80630Y192795I-43J-282D01*
G01*
X80697Y192787D02*
G03*
X80675Y192791I-53J-192D01*
G01*
X80718Y192780D02*
G03*
X80697Y192787I-67J-159D01*
G01*
X80776Y192739D02*
G03*
X80718Y192780I-127J-120D01*
G01*
X80794Y192718D02*
G03*
X80776Y192739I-191J-146D01*
G01*
X80812Y192693D02*
G03*
X80794Y192718I-265J-163D01*
G01*
X80828Y192662D02*
G03*
X80812Y192693I-370J-188D01*
G01*
X80989Y192105D02*
G03*
X80994Y192298I-253J103D01*
G01*
X80971Y192071D02*
G03*
X80989Y192105I-162J112D01*
G01*
X80946Y192042D02*
G03*
X80971Y192071I-114J125D01*
G01*
X80828Y192000D02*
G03*
X80946Y192042I6J168D01*
G01*
X80630Y196339D02*
G03*
X80675Y196342I2J286D01*
G01*
Y196342D02*
G03*
X80697Y196347I-32J197D01*
G01*
X80697D02*
G03*
X80718Y196354I-46J167D01*
G01*
X80718D02*
G03*
X80776Y196395I-69J160D01*
G01*
X80776D02*
G03*
X80794Y196416I-173J167D01*
G01*
D02*
G03*
X80812Y196441I-247J189D01*
G01*
D02*
G03*
X80828Y196471I-353J218D01*
G01*
X80994Y196836D02*
G03*
X80989Y197029I-258J90D01*
G01*
Y197029D02*
G03*
X80971Y197063I-181J-78D01*
G01*
X80971Y197063D02*
G03*
X80946Y197092I-139J-96D01*
G01*
X80946Y197092D02*
G03*
X80828Y197134I-112J-126D01*
G01*
X80630Y196339D02*
G03*
X80675Y196342I2J286D01*
G01*
Y196342D02*
G03*
X80697Y196347I-32J197D01*
G01*
X80697D02*
G03*
X80718Y196354I-46J167D01*
G01*
X80718D02*
G03*
X80776Y196395I-69J160D01*
G01*
X80776D02*
G03*
X80794Y196416I-173J167D01*
G01*
D02*
G03*
X80812Y196441I-247J189D01*
G01*
D02*
G03*
X80828Y196471I-353J218D01*
G01*
X80994Y196836D02*
G03*
X80989Y197029I-258J90D01*
G01*
Y197029D02*
G03*
X80971Y197063I-181J-78D01*
G01*
X80971Y197063D02*
G03*
X80946Y197092I-139J-96D01*
G01*
X80946Y197092D02*
G03*
X80828Y197134I-112J-126D01*
G01*
X81260Y194567D02*
G03*
X85400Y190426I4140J-0D01*
G01*
X85400Y198707D02*
G03*
X81260Y194567I0J-4140D01*
G01*
X89540D02*
G03*
X85400Y198707I-4140J0D01*
G01*
X85400Y190426D02*
G03*
X89540Y194567I0J4140D01*
G01*
X81591D02*
G03*
X85400Y190758I3809J0D01*
G01*
X85400Y198376D02*
G03*
X81591Y194567I-0J-3809D01*
G01*
X89209D02*
G03*
X85400Y198376I-3809J0D01*
G01*
Y190758D02*
G03*
X89209Y194567I-0J3809D01*
G01*
X81872D02*
G03*
X85400Y191039I3528J0D01*
G01*
X85400Y198094D02*
G03*
X81872Y194567I0J-3528D01*
G01*
X88928D02*
G03*
X85400Y198094I-3528J-0D01*
G01*
X85400Y191039D02*
G03*
X88928Y194567I0J3528D01*
G01*
X81872Y194567D02*
G03*
X85400Y191039I3528J0D01*
G01*
X85400Y198094D02*
G03*
X81872Y194567I0J-3528D01*
G01*
X88928D02*
G03*
X85400Y198094I-3528J-0D01*
G01*
X85400Y191039D02*
G03*
X88928Y194567I0J3528D01*
G01*
X86092Y190045D02*
G03*
X85897Y189850I0J-196D01*
G01*
X84903D02*
G03*
X84708Y190045I-196J-0D01*
G01*
X86092D02*
G03*
X85897Y189850I0J-196D01*
G01*
X84903D02*
G03*
X84708Y190045I-196J-0D01*
G01*
X85400Y199188D02*
G03*
X85896Y199684I0J497D01*
G01*
X84903D02*
G03*
X85400Y199188I497J0D01*
G01*
X85400Y199188D02*
G03*
X85896Y199684I0J497D01*
G01*
X84903D02*
G03*
X85400Y199188I497J0D01*
G01*
X86592Y194567D02*
G03*
X86289Y195361I-1187J2D01*
G01*
X85400Y193375D02*
G03*
X86592Y194567I0J1192D01*
G01*
X84207Y194567D02*
G03*
X85400Y193375I1193J0D01*
G01*
X84511Y195361D02*
G03*
X84207Y194567I881J-793D01*
G01*
X86592Y194567D02*
G03*
X86289Y195361I-1187J2D01*
G01*
X85400Y193375D02*
G03*
X86592Y194567I0J1192D01*
G01*
X84207Y194567D02*
G03*
X85400Y193375I1193J0D01*
G01*
X84511Y195361D02*
G03*
X84207Y194567I881J-793D01*
G01*
X84207Y194567D02*
G03*
X85400Y193375I1192J-0D01*
G01*
X85400Y195759D02*
G03*
X84207Y194567I0J-1193D01*
G01*
X86592D02*
G03*
X85400Y195759I-1193J-0D01*
G01*
X85400Y193375D02*
G03*
X86592Y194567I0J1192D01*
G01*
X88381Y199486D02*
X90368D01*
X82810Y199088D02*
X87989D01*
X80431Y199486D02*
X82419D01*
X80431Y189648D02*
Y199486D01*
Y189648D02*
X83313D01*
X83704Y190045D02*
X87095D01*
X87486Y189648D02*
X90368D01*
X88381Y199486D02*
X90368D01*
X88381D02*
X90368D01*
X82810Y199088D02*
X87989D01*
X82810D02*
X87989D01*
X80431Y199486D02*
X82419D01*
X80431Y189648D02*
Y199486D01*
Y189648D02*
X83313D01*
X83704Y190045D02*
X87095D01*
X83704D02*
X87095D01*
X87486Y189648D02*
X90368D01*
Y199486D01*
X90170Y192795D02*
X90368D01*
X89805Y192298D02*
X89971Y192662D01*
Y192000D02*
X90368Y192000D01*
X90170Y192795D02*
X90368D01*
X90170D02*
X90368D01*
X89805Y192298D02*
X89971Y192662D01*
X89805Y192298D02*
X89971Y192662D01*
Y192000D02*
X90368Y192000D01*
X90368Y192795D01*
X90170Y196339D02*
X90368D01*
X89805Y196836D02*
X89971Y196471D01*
X89971Y197134D02*
X90368Y197134D01*
X90170Y196339D02*
X90368D01*
X90170D02*
X90368D01*
X89805Y196836D02*
X89971Y196471D01*
X89805Y196836D02*
X89971Y196471D01*
X89971Y197134D02*
X90368Y197134D01*
X90368Y196339D02*
X90368Y197134D01*
X80431Y192795D02*
X80630Y192795D01*
X80828Y192662D02*
X80994Y192298D01*
X80431Y192000D02*
X80828D01*
X80431Y192795D02*
X80630Y192795D01*
X80431Y192795D02*
X80630Y192795D01*
X80828Y192662D02*
X80994Y192298D01*
X80828Y192662D02*
X80994Y192298D01*
X80431Y192000D02*
X80828D01*
X80431D02*
Y192795D01*
Y196339D02*
X80630D01*
X80828Y196471D02*
X80994Y196836D01*
X80431Y197134D02*
X80828Y197134D01*
X80431Y196339D02*
X80630D01*
X80431D02*
X80630D01*
X80828Y196471D02*
X80994Y196836D01*
X80828Y196471D02*
X80994Y196836D01*
X80431Y197134D02*
X80828Y197134D01*
X80431Y196339D02*
Y197134D01*
X84903Y189450D02*
X85897D01*
Y189850D01*
X84708Y190045D02*
X86092D01*
X84903Y189450D02*
Y189850D01*
Y189450D02*
X85897D01*
Y189850D01*
X84708Y190045D02*
X86092D01*
X84903Y189450D02*
Y189850D01*
X85896Y199684D02*
X86294D01*
X84505D02*
X84903D01*
X84505Y199088D02*
Y199684D01*
Y199088D02*
X86294Y199088D01*
X85896Y199684D02*
X86294D01*
X85896D02*
X86294D01*
X84505D02*
X84903D01*
X84505Y199088D02*
Y199684D01*
Y199088D02*
X86294Y199088D01*
Y199684D01*
X84511Y195361D02*
X86289Y195361D01*
X84511Y195361D02*
X86289Y195361D01*
D127*
X165613Y28007D02*
Y29007D01*
Y28507D01*
X164114D01*
Y29507D02*
X165613D01*
Y30256D01*
X165364Y30506D01*
X164864D01*
X164614Y30256D01*
Y29507D01*
X164114Y31006D02*
Y31506D01*
Y31256D01*
X165613D01*
X165364Y31006D01*
X165613Y33255D02*
X165364Y32756D01*
X164864Y32256D01*
X164364D01*
X164114Y32506D01*
Y33005D01*
X164364Y33255D01*
X164614D01*
X164864Y33005D01*
Y32256D01*
X67114Y20607D02*
Y21607D01*
Y21107D01*
X65614D01*
Y22107D02*
X67114D01*
Y22856D01*
X66864Y23106D01*
X66364D01*
X66114Y22856D01*
Y22107D01*
X65614Y23606D02*
Y24106D01*
Y23856D01*
X67114D01*
X66864Y23606D01*
Y24856D02*
X67114Y25106D01*
Y25605D01*
X66864Y25855D01*
X66614D01*
X66364Y25605D01*
Y25356D01*
Y25605D01*
X66114Y25855D01*
X65864D01*
X65614Y25605D01*
Y25106D01*
X65864Y24856D01*
X69693Y133914D02*
X68693D01*
X69193D01*
Y132414D01*
X68193D02*
Y133914D01*
X67444D01*
X67194Y133664D01*
Y133164D01*
X67444Y132914D01*
X68193D01*
X66694Y132414D02*
X66194D01*
X66444D01*
Y133914D01*
X66694Y133664D01*
X147813Y32507D02*
Y33507D01*
Y33007D01*
X146314D01*
Y34007D02*
X147813D01*
Y34756D01*
X147564Y35006D01*
X147064D01*
X146814Y34756D01*
Y34007D01*
X146314Y35506D02*
Y36006D01*
Y35756D01*
X147813D01*
X147564Y35506D01*
X146314Y37756D02*
Y36756D01*
X147314Y37756D01*
X147564D01*
X147813Y37505D01*
Y37006D01*
X147564Y36756D01*
X165313Y37307D02*
Y38307D01*
Y37807D01*
X163814D01*
Y38807D02*
X165313D01*
Y39556D01*
X165064Y39806D01*
X164564D01*
X164314Y39556D01*
Y38807D01*
X163814Y40306D02*
Y40806D01*
Y40556D01*
X165313D01*
X165064Y40306D01*
X163814Y42305D02*
X165313D01*
X164564Y41556D01*
Y42555D01*
X114287Y6958D02*
X114037Y7208D01*
X113537D01*
X113287Y6958D01*
Y6708D01*
X113537Y6458D01*
X114037D01*
X114287Y6208D01*
Y5959D01*
X114037Y5709D01*
X113537D01*
X113287Y5959D01*
X114787Y7208D02*
Y5709D01*
X115287Y6208D01*
X115787Y5709D01*
Y7208D01*
X116286Y5709D02*
X116786D01*
X116536D01*
Y7208D01*
X116286Y6958D01*
X96813Y112307D02*
Y113307D01*
Y112807D01*
X95314D01*
Y113807D02*
X96813D01*
Y114556D01*
X96564Y114806D01*
X96064D01*
X95814Y114556D01*
Y113807D01*
X95314Y116306D02*
Y115306D01*
X96314Y116306D01*
X96564D01*
X96813Y116056D01*
Y115556D01*
X96564Y115306D01*
X138914Y19407D02*
Y20407D01*
Y19907D01*
X137414D01*
Y20907D02*
X138914D01*
Y21656D01*
X138664Y21906D01*
X138164D01*
X137914Y21656D01*
Y20907D01*
X137414Y23156D02*
X138914D01*
X138164Y22406D01*
Y23406D01*
X44513Y37407D02*
Y38407D01*
Y37907D01*
X43014D01*
Y38907D02*
X44513D01*
Y39656D01*
X44264Y39906D01*
X43764D01*
X43514Y39656D01*
Y38907D01*
X43264Y40406D02*
X43014Y40656D01*
Y41156D01*
X43264Y41406D01*
X44264D01*
X44513Y41156D01*
Y40656D01*
X44264Y40406D01*
X44014D01*
X43764Y40656D01*
Y41406D01*
X113014Y20807D02*
Y21807D01*
Y21307D01*
X111514D01*
Y22307D02*
X113014D01*
Y23056D01*
X112764Y23306D01*
X112264D01*
X112014Y23056D01*
Y22307D01*
X111514Y23806D02*
Y24306D01*
Y24056D01*
X113014D01*
X112764Y23806D01*
X111514Y25056D02*
Y25556D01*
Y25306D01*
X113014D01*
X112764Y25056D01*
X62914Y4807D02*
Y5807D01*
Y5307D01*
X61414D01*
Y6307D02*
X62914D01*
Y7056D01*
X62664Y7306D01*
X62164D01*
X61914Y7056D01*
Y6307D01*
X61414Y7806D02*
Y8306D01*
Y8056D01*
X62914D01*
X62664Y7806D01*
X62914Y10056D02*
Y9056D01*
X62164D01*
X62414Y9556D01*
Y9805D01*
X62164Y10056D01*
X61664D01*
X61414Y9805D01*
Y9306D01*
X61664Y9056D01*
X96013Y57007D02*
Y58007D01*
Y57507D01*
X94514D01*
Y58507D02*
X96013D01*
Y59256D01*
X95764Y59506D01*
X95264D01*
X95014Y59256D01*
Y58507D01*
X96013Y61006D02*
X95764Y60506D01*
X95264Y60006D01*
X94764D01*
X94514Y60256D01*
Y60756D01*
X94764Y61006D01*
X95014D01*
X95264Y60756D01*
Y60006D01*
X115413Y117007D02*
Y118007D01*
Y117507D01*
X113914D01*
Y118507D02*
X115413D01*
Y119256D01*
X115164Y119506D01*
X114664D01*
X114414Y119256D01*
Y118507D01*
X115413Y120006D02*
Y121006D01*
X115164D01*
X114164Y120006D01*
X113914D01*
X96114Y42807D02*
Y43807D01*
Y43307D01*
X94614D01*
Y44307D02*
X96114D01*
Y45056D01*
X95864Y45306D01*
X95364D01*
X95114Y45056D01*
Y44307D01*
X94614Y45806D02*
Y46306D01*
Y46056D01*
X96114D01*
X95864Y45806D01*
Y47056D02*
X96114Y47306D01*
Y47806D01*
X95864Y48055D01*
X94864D01*
X94614Y47806D01*
Y47306D01*
X94864Y47056D01*
X95864D01*
X98514Y72507D02*
Y73507D01*
Y73007D01*
X97014D01*
Y74007D02*
X98514D01*
Y74756D01*
X98264Y75006D01*
X97764D01*
X97514Y74756D01*
Y74007D01*
X98514Y76506D02*
Y75506D01*
X97764D01*
X98014Y76006D01*
Y76256D01*
X97764Y76506D01*
X97264D01*
X97014Y76256D01*
Y75756D01*
X97264Y75506D01*
X55024Y41012D02*
Y42512D01*
X54024D01*
X53524D02*
X53024D01*
X53274D01*
Y41012D01*
X53524Y41262D01*
X62406Y49256D02*
Y48006D01*
X62656Y47756D01*
X63155D01*
X63405Y48006D01*
Y49256D01*
X64655Y47756D02*
Y49256D01*
X63905Y48506D01*
X64905D01*
X36433Y10555D02*
X35933D01*
X36183D01*
Y9305D01*
X35933Y9055D01*
X35683D01*
X35433Y9305D01*
X36933Y9055D02*
X37432D01*
X37183D01*
Y10555D01*
X36933Y10305D01*
X158125Y1691D02*
Y1191D01*
Y1441D01*
X159374D01*
X159625Y1191D01*
Y941D01*
X159374Y691D01*
X158375Y2191D02*
X158125Y2441D01*
Y2941D01*
X158375Y3190D01*
X158625D01*
X158875Y2941D01*
Y2691D01*
Y2941D01*
X159125Y3190D01*
X159374D01*
X159625Y2941D01*
Y2441D01*
X159374Y2191D01*
X83309Y193310D02*
X82809D01*
X83059D01*
Y192061D01*
X82809Y191811D01*
X82559D01*
X82310Y192061D01*
X84809Y191811D02*
X83809D01*
X84809Y192811D01*
Y193061D01*
X84559Y193310D01*
X84059D01*
X83809Y193061D01*
X43650Y96900D02*
X43900Y97150D01*
Y97650D01*
X43650Y97900D01*
X43400D01*
X43150Y97650D01*
Y97150D01*
X42900Y96900D01*
X42650D01*
X42400Y97150D01*
Y97650D01*
X42650Y97900D01*
X43900Y96400D02*
X42400D01*
Y95651D01*
X42650Y95401D01*
X42900D01*
X43150Y95651D01*
Y96400D01*
Y95651D01*
X43400Y95401D01*
X43650D01*
X43900Y95651D01*
Y96400D01*
X42400Y94901D02*
Y94401D01*
Y94651D01*
X43900D01*
X43650Y94901D01*
X181624Y165370D02*
X181375Y165120D01*
Y164620D01*
X181624Y164370D01*
X181874D01*
X182124Y164620D01*
Y165120D01*
X182374Y165370D01*
X182624D01*
X182874Y165120D01*
Y164620D01*
X182624Y164370D01*
X181375Y165870D02*
X182874D01*
X182374Y166369D01*
X182874Y166869D01*
X181375D01*
X181624Y167369D02*
X181375Y167619D01*
Y168119D01*
X181624Y168369D01*
X181874D01*
X182124Y168119D01*
Y167869D01*
Y168119D01*
X182374Y168369D01*
X182624D01*
X182874Y168119D01*
Y167619D01*
X182624Y167369D01*
X49773Y57289D02*
Y58789D01*
X48774D01*
X47274D02*
X48274D01*
X47274Y57789D01*
Y57539D01*
X47524Y57289D01*
X48024D01*
X48274Y57539D01*
X184356Y127804D02*
Y129053D01*
X184106Y129303D01*
X183606D01*
X183356Y129053D01*
Y127804D01*
X182856Y128054D02*
X182606Y127804D01*
X182107D01*
X181857Y128054D01*
Y128304D01*
X182107Y128553D01*
X182357D01*
X182107D01*
X181857Y128803D01*
Y129053D01*
X182107Y129303D01*
X182606D01*
X182856Y129053D01*
X4803Y72854D02*
X6303D01*
Y72105D01*
X6053Y71855D01*
X5553D01*
X5303Y72105D01*
Y72854D01*
X4803Y71355D02*
Y70855D01*
Y71105D01*
X6303D01*
X6053Y71355D01*
X39987Y25507D02*
Y26507D01*
Y26007D01*
X41486D01*
Y27007D02*
X39987D01*
Y27756D01*
X40236Y28006D01*
X40736D01*
X40986Y27756D01*
Y27007D01*
X40236Y28506D02*
X39987Y28756D01*
Y29256D01*
X40236Y29506D01*
X40486D01*
X40736Y29256D01*
Y29006D01*
Y29256D01*
X40986Y29506D01*
X41236D01*
X41486Y29256D01*
Y28756D01*
X41236Y28506D01*
X16587Y46107D02*
Y47107D01*
Y46607D01*
X18086D01*
Y47607D02*
X16587D01*
Y48356D01*
X16836Y48606D01*
X17336D01*
X17586Y48356D01*
Y47607D01*
X16836Y49106D02*
X16587Y49356D01*
Y49856D01*
X16836Y50106D01*
X17086D01*
X17336Y49856D01*
X17586Y50106D01*
X17836D01*
X18086Y49856D01*
Y49356D01*
X17836Y49106D01*
X17586D01*
X17336Y49356D01*
X17086Y49106D01*
X16836D01*
X17336Y49356D02*
Y49856D01*
X74265Y6959D02*
X74015Y7209D01*
X73515D01*
X73265Y6959D01*
Y6709D01*
X73515Y6459D01*
X74015D01*
X74265Y6209D01*
Y5959D01*
X74015Y5709D01*
X73515D01*
X73265Y5959D01*
X74765Y7209D02*
Y5709D01*
X75265Y6209D01*
X75765Y5709D01*
Y7209D01*
X77264Y5709D02*
X76264D01*
X77264Y6709D01*
Y6959D01*
X77014Y7209D01*
X76514D01*
X76264Y6959D01*
X108739Y32826D02*
X107739D01*
X107490Y32577D01*
Y32077D01*
X107739Y31827D01*
X108739D01*
X108989Y32077D01*
Y32577D01*
X108489Y32327D02*
X108989Y32826D01*
Y32577D02*
X108739Y32826D01*
X108989Y33326D02*
Y33826D01*
Y33576D01*
X107490D01*
X107739Y33326D01*
M02*
