G04*
G04 #@! TF.GenerationSoftware,Altium Limited,Altium Designer,20.2.4 (192)*
G04*
G04 Layer_Color=65535*
%FSLAX25Y25*%
%MOIN*%
G70*
G04*
G04 #@! TF.SameCoordinates,C82156A4-65EB-44BA-A6C3-424022D268A2*
G04*
G04*
G04 #@! TF.FilePolarity,Positive*
G04*
G01*
G75*
%ADD10C,0.00984*%
%ADD11C,0.00787*%
%ADD12C,0.00600*%
%ADD13C,0.00591*%
%ADD14C,0.00394*%
%ADD15C,0.00500*%
%ADD16C,0.00400*%
%ADD17C,0.01575*%
%ADD18C,0.00492*%
%ADD19C,0.00598*%
%ADD20C,0.01000*%
%ADD21C,0.00197*%
%ADD22R,0.15748X0.01968*%
D10*
X188394Y98450D02*
G03*
X188394Y98450I-492J0D01*
G01*
X187995Y118350D02*
G03*
X187995Y118350I-492J0D01*
G01*
X6791Y133366D02*
G03*
X6791Y133366I-492J0D01*
G01*
X68099Y145335D02*
G03*
X68099Y145335I-492J0D01*
G01*
X174809Y122512D02*
G03*
X174809Y122512I-197J0D01*
G01*
D11*
X61047Y53685D02*
G03*
X61047Y53685I-197J0D01*
G01*
X3150Y136811D02*
Y143504D01*
X9449Y136811D02*
Y143504D01*
X70166Y152618D02*
X78434D01*
X70166Y142382D02*
X78434D01*
D12*
X188586Y166240D02*
G03*
X188586Y166240I-6302J0D01*
G01*
X144361Y17916D02*
X146231D01*
X172018D02*
X173888D01*
X144361Y-1474D02*
X173888D01*
X170472Y154429D02*
Y178051D01*
X194095D01*
Y154429D02*
Y178051D01*
X170472Y154429D02*
X194095D01*
X14803Y84193D02*
Y82860D01*
Y83526D01*
X18802D01*
X18135Y84193D01*
D13*
X185340Y131862D02*
G03*
X185340Y131862I-1378J0D01*
G01*
X179139Y124776D02*
G03*
X179139Y124776I-295J0D01*
G01*
X48100Y28000D02*
G03*
X48100Y28000I-3000J0D01*
G01*
X24700Y48600D02*
G03*
X24700Y48600I-3000J0D01*
G01*
X175402Y92742D02*
Y95891D01*
X176190D01*
X175402Y82309D02*
Y85458D01*
Y82309D02*
X176190D01*
X187410D02*
X188198D01*
Y85458D01*
Y92742D02*
Y95891D01*
X187410D02*
X188198D01*
X175002Y112642D02*
Y115791D01*
X175790D01*
X175002Y102209D02*
Y105358D01*
Y102209D02*
X175790D01*
X187010D02*
X187798D01*
Y105358D01*
Y112642D02*
Y115791D01*
X187010D02*
X187798D01*
X117717Y-3543D02*
Y394D01*
X111811Y-3543D02*
X117717D01*
X111811D02*
Y394D01*
X103543Y12205D02*
X131890Y12205D01*
Y394D02*
Y12205D01*
X103543Y394D02*
X131890Y394D01*
X103543Y394D02*
Y12205D01*
X49508Y7874D02*
Y17717D01*
X32087Y468D02*
X46654D01*
X29233Y7874D02*
Y17717D01*
X45276D02*
X49508D01*
X29233D02*
X33465D01*
X86876Y198799D02*
X87565Y199488D01*
X83235D02*
X83924Y198799D01*
X80479Y192874D02*
Y196260D01*
X86817Y189646D02*
X87565D01*
X83235D02*
X83983D01*
X90321Y192874D02*
Y196260D01*
X87565Y192323D02*
X87565Y189646D01*
X83235D02*
X83235Y192323D01*
X87565D01*
X175399Y123299D02*
X187801D01*
X175399D02*
Y135701D01*
X187801D01*
Y123299D02*
Y135701D01*
X63521Y395D02*
Y12206D01*
Y395D02*
X91868Y395D01*
Y12206D01*
X63521Y12206D02*
X91868Y12206D01*
X71789Y-3542D02*
Y395D01*
Y-3542D02*
X77694D01*
Y395D01*
D14*
X106036Y31433D02*
G03*
X106036Y31433I-197J0D01*
G01*
D15*
X116200Y44500D02*
X120800D01*
X116200Y54600D02*
X120800D01*
Y44500D02*
Y54600D01*
X116200Y44500D02*
Y54600D01*
X67900Y56700D02*
Y60500D01*
X59700Y56700D02*
X67900D01*
X59700D02*
Y60500D01*
X67900D01*
X81600Y162600D02*
Y166400D01*
X73400Y162600D02*
X81600D01*
X73400D02*
Y166400D01*
X81600D01*
X129100Y44700D02*
Y54800D01*
X133700Y44700D02*
Y54800D01*
X129100D02*
X133700D01*
X129100Y44700D02*
X133700D01*
X151451Y101963D02*
X161551D01*
X151451Y106563D02*
X161551D01*
X151451Y101963D02*
Y106563D01*
X161551Y101963D02*
Y106563D01*
X119600Y26000D02*
Y36100D01*
X115000Y26000D02*
Y36100D01*
Y26000D02*
X119600D01*
X115000Y36100D02*
X119600D01*
X122100Y55500D02*
Y65600D01*
X126700Y55500D02*
Y65600D01*
X122100D02*
X126700D01*
X122100Y55500D02*
X126700D01*
X115900Y65500D02*
X120500D01*
X115900Y55400D02*
X120500D01*
X115900D02*
Y65500D01*
X120500Y55400D02*
Y65500D01*
X122200Y44600D02*
X126800D01*
X122200Y54700D02*
X126800D01*
Y44600D02*
Y54700D01*
X122200Y44600D02*
Y54700D01*
X94900Y55201D02*
X99500D01*
X94900Y65301D02*
X99500D01*
Y55201D02*
Y65301D01*
X94900Y55201D02*
Y65301D01*
X31800Y43800D02*
X41900D01*
X31800Y48400D02*
X41900D01*
X31800Y43800D02*
Y48400D01*
X41900Y43800D02*
Y48400D01*
X10100Y125400D02*
X14700D01*
X10100Y115300D02*
X14700D01*
X10100D02*
Y125400D01*
X14700Y115300D02*
Y125400D01*
X39200Y132700D02*
X43800D01*
X39200Y142800D02*
X43800D01*
Y132700D02*
Y142800D01*
X39200Y132700D02*
Y142800D01*
X37400Y113700D02*
X42000D01*
X37400Y123800D02*
X42000D01*
Y113700D02*
Y123800D01*
X37400Y113700D02*
Y123800D01*
X10500Y135000D02*
X15100D01*
X10500Y145100D02*
X15100D01*
Y135000D02*
Y145100D01*
X10500Y135000D02*
Y145100D01*
X45900Y52800D02*
X54100D01*
X45900Y49000D02*
Y52800D01*
Y49000D02*
X54100D01*
Y52800D01*
X77821Y55187D02*
X86021D01*
Y58987D01*
X77821D02*
X86021D01*
X77821Y55187D02*
Y58987D01*
X77758Y48887D02*
X85958D01*
Y52687D01*
X77758D02*
X85958D01*
X77758Y48887D02*
Y52687D01*
X77658Y41700D02*
X85857D01*
Y45500D01*
X77658D02*
X85857D01*
X77658Y41700D02*
Y45500D01*
X50199Y32746D02*
X58399D01*
Y36546D01*
X50199D02*
X58399D01*
X50199Y32746D02*
Y36546D01*
X60435D02*
X68635D01*
X60435Y32746D02*
Y36546D01*
Y32746D02*
X68635D01*
Y36546D01*
X70735D02*
X78935D01*
X70735Y32746D02*
Y36546D01*
Y32746D02*
X78935D01*
Y36546D01*
X83000Y156800D02*
X87600D01*
X83000Y166900D02*
X87600D01*
Y156800D02*
Y166900D01*
X83000Y156800D02*
Y166900D01*
X162169Y143837D02*
Y148437D01*
X152069Y143837D02*
Y148437D01*
X162169D01*
X152069Y143837D02*
X162169D01*
X162200Y136800D02*
Y141400D01*
X152100Y136800D02*
Y141400D01*
X162200D01*
X152100Y136800D02*
X162200D01*
X119700Y25800D02*
X124300D01*
X119700Y35900D02*
X124300D01*
Y25800D02*
Y35900D01*
X119700Y25800D02*
Y35900D01*
X151637Y113842D02*
Y118442D01*
X161737Y113842D02*
Y118442D01*
X151637Y113842D02*
X161737D01*
X151637Y118442D02*
X161737D01*
X37700Y103100D02*
Y113200D01*
X42300Y103100D02*
Y113200D01*
X37700D02*
X42300D01*
X37700Y103100D02*
X42300D01*
X137400Y72800D02*
Y82900D01*
X142000Y72800D02*
Y82900D01*
X137400D02*
X142000D01*
X137400Y72800D02*
X142000D01*
X131400Y72900D02*
Y83000D01*
X136000Y72900D02*
Y83000D01*
X131400D02*
X136000D01*
X131400Y72900D02*
X136000D01*
X125259Y72909D02*
Y83009D01*
X129859Y72909D02*
Y83009D01*
X125259D02*
X129859D01*
X125259Y72909D02*
X129859D01*
X118960D02*
Y83009D01*
X123560Y72909D02*
Y83009D01*
X118960D02*
X123560D01*
X118960Y72909D02*
X123560D01*
X112661D02*
Y83009D01*
X117261Y72909D02*
Y83009D01*
X112661D02*
X117261D01*
X112661Y72909D02*
X117261D01*
X106361D02*
Y83009D01*
X110961Y72909D02*
Y83009D01*
X106361D02*
X110961D01*
X106361Y72909D02*
X110961D01*
X100062D02*
Y83009D01*
X104662Y72909D02*
Y83009D01*
X100062D02*
X104662D01*
X100062Y72909D02*
X104662D01*
X151243Y124741D02*
X161343D01*
X151243Y120141D02*
X161343D01*
Y124741D01*
X151243Y120141D02*
Y124741D01*
X151400Y107700D02*
X161500D01*
X151400Y112300D02*
X161500D01*
X151400Y107700D02*
Y112300D01*
X161500Y107700D02*
Y112300D01*
X152424Y151243D02*
X162524D01*
X152424Y155843D02*
X162524D01*
X152424Y151243D02*
Y155843D01*
X162524Y151243D02*
Y155843D01*
X100401Y55201D02*
Y65301D01*
X105001Y55201D02*
Y65301D01*
X100401D02*
X105001D01*
X100401Y55201D02*
X105001D01*
X105968Y44600D02*
Y54700D01*
X110568Y44600D02*
Y54700D01*
X105968D02*
X110568D01*
X105968Y44600D02*
X110568D01*
X105902Y55601D02*
Y65701D01*
X110502Y55601D02*
Y65701D01*
X105902D02*
X110502D01*
X105902Y55601D02*
X110502D01*
X100100Y44200D02*
Y54300D01*
X104700Y44200D02*
Y54300D01*
X100100D02*
X104700D01*
X100100Y44200D02*
X104700D01*
X85000Y26800D02*
Y36900D01*
X80400Y26800D02*
Y36900D01*
Y26800D02*
X85000D01*
X80400Y36900D02*
X85000D01*
X99199Y44200D02*
Y54300D01*
X94599Y44200D02*
Y54300D01*
Y44200D02*
X99199D01*
X94599Y54300D02*
X99199D01*
X131300Y25800D02*
Y35900D01*
X135900Y25800D02*
Y35900D01*
X131300D02*
X135900D01*
X131300Y25800D02*
X135900D01*
X125100Y25900D02*
Y36000D01*
X129700Y25900D02*
Y36000D01*
X125100D02*
X129700D01*
X125100Y25900D02*
X129700D01*
D16*
X30688Y134098D02*
X31088Y134498D01*
Y134598D01*
X30488Y133198D02*
X31088Y133798D01*
X29588Y133198D02*
X31088D01*
Y134198D01*
X30088Y133198D02*
X31088Y134198D01*
X17588Y133198D02*
Y145698D01*
Y133198D02*
X31088D01*
Y145698D01*
X17588D02*
X31088D01*
X17288Y125698D02*
X30788D01*
Y113198D02*
Y125698D01*
X17288Y113198D02*
X30788D01*
X17288D02*
Y125698D01*
X29788Y113198D02*
X30788Y114198D01*
Y113198D02*
Y114198D01*
X29288Y113198D02*
X30788D01*
X30188D02*
X30788Y113798D01*
Y114498D02*
Y114598D01*
X30388Y114098D02*
X30788Y114498D01*
D17*
X90872Y209017D02*
Y211183D01*
X3825Y113704D02*
X6975D01*
D18*
X51972Y44854D02*
X53941D01*
X51972Y38791D02*
X53941D01*
X61598Y43095D02*
X71441D01*
Y52937D01*
X61598Y43095D02*
Y52937D01*
X71441D01*
X46722Y61132D02*
X48691D01*
X46722Y55068D02*
X48691D01*
D19*
X173888Y9943D02*
Y17916D01*
X144361Y9943D02*
Y17916D01*
Y-1474D02*
Y2758D01*
X173888Y-1474D02*
Y2758D01*
D20*
X591Y57224D02*
Y82185D01*
X10433D01*
Y57224D02*
Y82185D01*
X591Y57224D02*
X10433D01*
X171302Y107099D02*
Y102101D01*
X172301Y101101D01*
X174301D01*
X175300Y102101D01*
Y107099D01*
X181298Y101101D02*
X177300D01*
X181298Y105100D01*
Y106099D01*
X180299Y107099D01*
X178299D01*
X177300Y106099D01*
X174000Y128298D02*
Y123300D01*
X175000Y122300D01*
X176999D01*
X177999Y123300D01*
Y128298D01*
X179998Y122300D02*
X181997D01*
X180998D01*
Y128298D01*
X179998Y127298D01*
X100203Y162399D02*
X99204Y163399D01*
X97204D01*
X96205Y162399D01*
Y161400D01*
X97204Y160400D01*
X99204D01*
X100203Y159400D01*
Y158401D01*
X99204Y157401D01*
X97204D01*
X96205Y158401D01*
X102203Y163399D02*
X106201D01*
X104202D01*
Y157401D01*
X108201D02*
Y163399D01*
X110200Y161400D01*
X112199Y163399D01*
Y157401D01*
X114199Y162399D02*
X115198Y163399D01*
X117198D01*
X118197Y162399D01*
Y161400D01*
X117198Y160400D01*
X116198D01*
X117198D01*
X118197Y159400D01*
Y158401D01*
X117198Y157401D01*
X115198D01*
X114199Y158401D01*
X124196Y157401D02*
X120197D01*
X124196Y161400D01*
Y162399D01*
X123196Y163399D01*
X121196D01*
X120197Y162399D01*
X116601Y59001D02*
Y64999D01*
X119600D01*
X120600Y63999D01*
Y62000D01*
X119600Y61000D01*
X116601D01*
X118601D02*
X120600Y59001D01*
X122599D02*
X124599D01*
X123599D01*
Y64999D01*
X122599Y63999D01*
X64900Y69299D02*
X63901Y70299D01*
X61901D01*
X60902Y69299D01*
Y65301D01*
X61901Y64301D01*
X63901D01*
X64900Y65301D01*
X66900D02*
X67899Y64301D01*
X69899D01*
X70898Y65301D01*
Y69299D01*
X69899Y70299D01*
X67899D01*
X66900Y69299D01*
Y68300D01*
X67899Y67300D01*
X70898D01*
X129800Y58000D02*
Y63998D01*
X132799D01*
X133799Y62998D01*
Y60999D01*
X132799Y59999D01*
X129800D01*
X131799D02*
X133799Y58000D01*
X139797Y63998D02*
X137797Y62998D01*
X135798Y60999D01*
Y59000D01*
X136798Y58000D01*
X138797D01*
X139797Y59000D01*
Y59999D01*
X138797Y60999D01*
X135798D01*
X74100Y175698D02*
Y169700D01*
X78099D01*
X84097Y175698D02*
X80098D01*
Y172699D01*
X82097Y173699D01*
X83097D01*
X84097Y172699D01*
Y170700D01*
X83097Y169700D01*
X81098D01*
X80098Y170700D01*
X117302Y77002D02*
Y83000D01*
X120301D01*
X121300Y82000D01*
Y80001D01*
X120301Y79001D01*
X117302D01*
X119301D02*
X121300Y77002D01*
X126299D02*
Y83000D01*
X123300Y80001D01*
X127298D01*
X32500Y51600D02*
Y57598D01*
X35499D01*
X36499Y56598D01*
Y54599D01*
X35499Y53599D01*
X32500D01*
X34499D02*
X36499Y51600D01*
X42497D02*
X38498D01*
X42497Y55599D01*
Y56598D01*
X41497Y57598D01*
X39498D01*
X38498Y56598D01*
X64986Y76883D02*
Y71885D01*
X65986Y70885D01*
X67985D01*
X68985Y71885D01*
Y76883D01*
X73983Y70885D02*
Y76883D01*
X70984Y73884D01*
X74983D01*
X41913Y71719D02*
Y65720D01*
X45911D01*
X51909D02*
X47911D01*
X51909Y69719D01*
Y70719D01*
X50910Y71719D01*
X48910D01*
X47911Y70719D01*
X39926Y53721D02*
Y47723D01*
X43925D01*
X45924D02*
X47924D01*
X46924D01*
Y53721D01*
X45924Y52721D01*
X85201Y65599D02*
X84202Y66599D01*
X82202D01*
X81202Y65599D01*
Y61601D01*
X82202Y60601D01*
X84202D01*
X85201Y61601D01*
X87200Y60601D02*
X89200D01*
X88200D01*
Y66599D01*
X87200Y65599D01*
X95198Y60601D02*
Y66599D01*
X92199Y63600D01*
X96198D01*
X90900Y43499D02*
X89901Y44498D01*
X87901D01*
X86902Y43499D01*
Y39500D01*
X87901Y38500D01*
X89901D01*
X90900Y39500D01*
X92900Y38500D02*
X94899D01*
X93899D01*
Y44498D01*
X92900Y43499D01*
X97898D02*
X98898Y44498D01*
X100897D01*
X101897Y43499D01*
Y42499D01*
X100897Y41499D01*
X99897D01*
X100897D01*
X101897Y40499D01*
Y39500D01*
X100897Y38500D01*
X98898D01*
X97898Y39500D01*
X78701Y29999D02*
X77701Y30999D01*
X75702D01*
X74702Y29999D01*
Y26001D01*
X75702Y25001D01*
X77701D01*
X78701Y26001D01*
X80700Y25001D02*
X82700D01*
X81700D01*
Y30999D01*
X80700Y29999D01*
X89698Y25001D02*
X85699D01*
X89698Y29000D01*
Y29999D01*
X88698Y30999D01*
X86699D01*
X85699Y29999D01*
X90401Y52299D02*
X89401Y53299D01*
X87402D01*
X86402Y52299D01*
Y48301D01*
X87402Y47301D01*
X89401D01*
X90401Y48301D01*
X92400Y47301D02*
X94399D01*
X93400D01*
Y53299D01*
X92400Y52299D01*
X97399Y47301D02*
X99398D01*
X98398D01*
Y53299D01*
X97399Y52299D01*
X48101Y61299D02*
X47102Y62299D01*
X45102D01*
X44102Y61299D01*
Y57301D01*
X45102Y56301D01*
X47102D01*
X48101Y57301D01*
X50100Y56301D02*
X52100D01*
X51100D01*
Y62299D01*
X50100Y61299D01*
X55099D02*
X56099Y62299D01*
X58098D01*
X59098Y61299D01*
Y57301D01*
X58098Y56301D01*
X56099D01*
X55099Y57301D01*
Y61299D01*
X66300Y29999D02*
X65301Y30999D01*
X63301D01*
X62302Y29999D01*
Y26001D01*
X63301Y25001D01*
X65301D01*
X66300Y26001D01*
X68300Y29999D02*
X69299Y30999D01*
X71299D01*
X72298Y29999D01*
Y29000D01*
X71299Y28000D01*
X72298Y27000D01*
Y26001D01*
X71299Y25001D01*
X69299D01*
X68300Y26001D01*
Y27000D01*
X69299Y28000D01*
X68300Y29000D01*
Y29999D01*
X69299Y28000D02*
X71299D01*
X41800Y36099D02*
X40801Y37099D01*
X38801D01*
X37802Y36099D01*
Y32101D01*
X38801Y31101D01*
X40801D01*
X41800Y32101D01*
X43800Y37099D02*
X47798D01*
Y36099D01*
X43800Y32101D01*
Y31101D01*
X67650Y162048D02*
Y161048D01*
X69649Y159049D01*
X71649Y161048D01*
Y162048D01*
X69649Y159049D02*
Y156050D01*
X73648D02*
X75647D01*
X74648D01*
Y162048D01*
X73648Y161048D01*
X174900Y144998D02*
Y140000D01*
X175900Y139000D01*
X177899D01*
X178899Y140000D01*
Y144998D01*
X180898Y143998D02*
X181898Y144998D01*
X183897D01*
X184897Y143998D01*
Y142999D01*
X183897Y141999D01*
X182897D01*
X183897D01*
X184897Y140999D01*
Y140000D01*
X183897Y139000D01*
X181898D01*
X180898Y140000D01*
X19450Y60848D02*
X23449D01*
X21449D01*
Y54850D01*
X25448D02*
Y60848D01*
X28447D01*
X29447Y59848D01*
Y57849D01*
X28447Y56849D01*
X25448D01*
X31446Y59848D02*
X32446Y60848D01*
X34445D01*
X35445Y59848D01*
Y58849D01*
X34445Y57849D01*
X35445Y56849D01*
Y55850D01*
X34445Y54850D01*
X32446D01*
X31446Y55850D01*
Y56849D01*
X32446Y57849D01*
X31446Y58849D01*
Y59848D01*
X32446Y57849D02*
X34445D01*
X42850Y40248D02*
X46849D01*
X44849D01*
Y34250D01*
X48848D02*
Y40248D01*
X51847D01*
X52847Y39248D01*
Y37249D01*
X51847Y36249D01*
X48848D01*
X54846Y39248D02*
X55846Y40248D01*
X57845D01*
X58845Y39248D01*
Y38249D01*
X57845Y37249D01*
X56845D01*
X57845D01*
X58845Y36249D01*
Y35250D01*
X57845Y34250D01*
X55846D01*
X54846Y35250D01*
X174332Y193388D02*
X173333Y194388D01*
X171333D01*
X170334Y193388D01*
Y192389D01*
X171333Y191389D01*
X173333D01*
X174332Y190390D01*
Y189390D01*
X173333Y188390D01*
X171333D01*
X170334Y189390D01*
X176331Y194388D02*
Y188390D01*
X178331Y190390D01*
X180330Y188390D01*
Y194388D01*
X182330Y193388D02*
X183329Y194388D01*
X185329D01*
X186328Y193388D01*
Y192389D01*
X185329Y191389D01*
X184329D01*
X185329D01*
X186328Y190390D01*
Y189390D01*
X185329Y188390D01*
X183329D01*
X182330Y189390D01*
X68243Y27248D02*
X67243Y28248D01*
X65244D01*
X64245Y27248D01*
Y26249D01*
X65244Y25249D01*
X67243D01*
X68243Y24249D01*
Y23250D01*
X67243Y22250D01*
X65244D01*
X64245Y23250D01*
X70243Y28248D02*
Y22250D01*
X72242Y24249D01*
X74241Y22250D01*
Y28248D01*
X80239Y22250D02*
X76241D01*
X80239Y26249D01*
Y27248D01*
X79240Y28248D01*
X77240D01*
X76241Y27248D01*
X109901Y25799D02*
X108901Y26799D01*
X106902D01*
X105902Y25799D01*
Y24800D01*
X106902Y23800D01*
X108901D01*
X109901Y22800D01*
Y21801D01*
X108901Y20801D01*
X106902D01*
X105902Y21801D01*
X111900Y26799D02*
Y20801D01*
X113900Y22800D01*
X115899Y20801D01*
Y26799D01*
X117898Y20801D02*
X119898D01*
X118898D01*
Y26799D01*
X117898Y25799D01*
X42599Y105738D02*
X41599Y106738D01*
X39600D01*
X38600Y105738D01*
Y104739D01*
X39600Y103739D01*
X41599D01*
X42599Y102739D01*
Y101740D01*
X41599Y100740D01*
X39600D01*
X38600Y101740D01*
X44598Y106738D02*
Y100740D01*
X47597D01*
X48597Y101740D01*
Y102739D01*
X47597Y103739D01*
X44598D01*
X47597D01*
X48597Y104739D01*
Y105738D01*
X47597Y106738D01*
X44598D01*
X50596Y100740D02*
X52596D01*
X51596D01*
Y106738D01*
X50596Y105738D01*
X46002Y152701D02*
Y158699D01*
X49002D01*
X50001Y157699D01*
Y155700D01*
X49002Y154700D01*
X46002D01*
X48002D02*
X50001Y152701D01*
X52000D02*
X54000D01*
X53000D01*
Y158699D01*
X52000Y157699D01*
X56999Y153701D02*
X57999Y152701D01*
X59998D01*
X60998Y153701D01*
Y157699D01*
X59998Y158699D01*
X57999D01*
X56999Y157699D01*
Y156700D01*
X57999Y155700D01*
X60998D01*
X44402Y108101D02*
Y114099D01*
X47401D01*
X48401Y113099D01*
Y111100D01*
X47401Y110100D01*
X44402D01*
X46402D02*
X48401Y108101D01*
X50401D02*
X52400D01*
X51400D01*
Y114099D01*
X50401Y113099D01*
X55399D02*
X56399Y114099D01*
X58398D01*
X59398Y113099D01*
Y112100D01*
X58398Y111100D01*
X59398Y110100D01*
Y109101D01*
X58398Y108101D01*
X56399D01*
X55399Y109101D01*
Y110100D01*
X56399Y111100D01*
X55399Y112100D01*
Y113099D01*
X56399Y111100D02*
X58398D01*
X4298Y117799D02*
Y111801D01*
X1299D01*
X299Y112801D01*
Y114800D01*
X1299Y115800D01*
X4298D01*
X2298D02*
X299Y117799D01*
X-1701D02*
X-3700D01*
X-2700D01*
Y111801D01*
X-1701Y112801D01*
X-6699Y111801D02*
X-10698D01*
Y112801D01*
X-6699Y116799D01*
Y117799D01*
X4102Y150301D02*
Y156299D01*
X7102D01*
X8101Y155299D01*
Y153300D01*
X7102Y152300D01*
X4102D01*
X6102D02*
X8101Y150301D01*
X10101D02*
X12100D01*
X11100D01*
Y156299D01*
X10101Y155299D01*
X19098Y156299D02*
X17098Y155299D01*
X15099Y153300D01*
Y151301D01*
X16099Y150301D01*
X18098D01*
X19098Y151301D01*
Y152300D01*
X18098Y153300D01*
X15099D01*
X115762Y39355D02*
Y45353D01*
X118761D01*
X119761Y44354D01*
Y42354D01*
X118761Y41355D01*
X115762D01*
X117762D02*
X119761Y39355D01*
X121760D02*
X123760D01*
X122760D01*
Y45353D01*
X121760Y44354D01*
X130757Y45353D02*
X126759D01*
Y42354D01*
X128758Y43354D01*
X129758D01*
X130757Y42354D01*
Y40355D01*
X129758Y39355D01*
X127758D01*
X126759Y40355D01*
X120450Y39150D02*
Y45148D01*
X123449D01*
X124449Y44148D01*
Y42149D01*
X123449Y41149D01*
X120450D01*
X122449D02*
X124449Y39150D01*
X126448D02*
X128447D01*
X127448D01*
Y45148D01*
X126448Y44148D01*
X134446Y39150D02*
Y45148D01*
X131446Y42149D01*
X135445D01*
X81100Y40200D02*
Y46198D01*
X84099D01*
X85099Y45198D01*
Y43199D01*
X84099Y42199D01*
X81100D01*
X83099D02*
X85099Y40200D01*
X87098D02*
X89097D01*
X88098D01*
Y46198D01*
X87098Y45198D01*
X92096D02*
X93096Y46198D01*
X95095D01*
X96095Y45198D01*
Y44199D01*
X95095Y43199D01*
X94096D01*
X95095D01*
X96095Y42199D01*
Y41200D01*
X95095Y40200D01*
X93096D01*
X92096Y41200D01*
X95360Y57555D02*
Y63553D01*
X98360D01*
X99359Y62554D01*
Y60554D01*
X98360Y59554D01*
X95360D01*
X97360D02*
X99359Y57555D01*
X101358D02*
X103358D01*
X102358D01*
Y63553D01*
X101358Y62554D01*
X110356Y57555D02*
X106357D01*
X110356Y61554D01*
Y62554D01*
X109356Y63553D01*
X107357D01*
X106357Y62554D01*
X116602Y68700D02*
Y74698D01*
X119601D01*
X120601Y73698D01*
Y71699D01*
X119601Y70699D01*
X116602D01*
X118601D02*
X120601Y68700D01*
X122600D02*
X124599D01*
X123600D01*
Y74698D01*
X122600Y73698D01*
X127598Y68700D02*
X129598D01*
X128598D01*
Y74698D01*
X127598Y73698D01*
X106602Y69001D02*
Y74999D01*
X109601D01*
X110601Y73999D01*
Y72000D01*
X109601Y71000D01*
X106602D01*
X108601D02*
X110601Y69001D01*
X112600D02*
X114599D01*
X113600D01*
Y74999D01*
X112600Y73999D01*
X117598D02*
X118598Y74999D01*
X120598D01*
X121597Y73999D01*
Y70001D01*
X120598Y69001D01*
X118598D01*
X117598Y70001D01*
Y73999D01*
X100893Y57595D02*
Y63593D01*
X103892D01*
X104892Y62594D01*
Y60594D01*
X103892Y59595D01*
X100893D01*
X102892D02*
X104892Y57595D01*
X106891Y58595D02*
X107891Y57595D01*
X109890D01*
X110890Y58595D01*
Y62594D01*
X109890Y63593D01*
X107891D01*
X106891Y62594D01*
Y61594D01*
X107891Y60594D01*
X110890D01*
X122849Y68832D02*
Y74830D01*
X125848D01*
X126848Y73831D01*
Y71831D01*
X125848Y70832D01*
X122849D01*
X124848D02*
X126848Y68832D01*
X128847Y73831D02*
X129847Y74830D01*
X131846D01*
X132846Y73831D01*
Y72831D01*
X131846Y71831D01*
X132846Y70832D01*
Y69832D01*
X131846Y68832D01*
X129847D01*
X128847Y69832D01*
Y70832D01*
X129847Y71831D01*
X128847Y72831D01*
Y73831D01*
X129847Y71831D02*
X131846D01*
X119402Y60301D02*
Y66299D01*
X122401D01*
X123400Y65299D01*
Y63300D01*
X122401Y62300D01*
X119402D01*
X121401D02*
X123400Y60301D01*
X125400Y66299D02*
X129398D01*
Y65299D01*
X125400Y61301D01*
Y60301D01*
X106733Y57976D02*
Y63974D01*
X109732D01*
X110732Y62975D01*
Y60975D01*
X109732Y59976D01*
X106733D01*
X108732D02*
X110732Y57976D01*
X116730Y63974D02*
X112731D01*
Y60975D01*
X114731Y61975D01*
X115730D01*
X116730Y60975D01*
Y58976D01*
X115730Y57976D01*
X113731D01*
X112731Y58976D01*
X101136Y68501D02*
Y74499D01*
X104136D01*
X105135Y73499D01*
Y71500D01*
X104136Y70500D01*
X101136D01*
X103136D02*
X105135Y68501D01*
X107134Y73499D02*
X108134Y74499D01*
X110134D01*
X111133Y73499D01*
Y72500D01*
X110134Y71500D01*
X109134D01*
X110134D01*
X111133Y70500D01*
Y69501D01*
X110134Y68501D01*
X108134D01*
X107134Y69501D01*
X11000Y135299D02*
Y131301D01*
X11999Y130301D01*
X13999D01*
X14998Y131301D01*
Y135299D01*
X13999Y136299D01*
X11999D01*
X12999Y134300D02*
X11000Y136299D01*
X11999D02*
X11000Y135299D01*
X9000Y131301D02*
X8001Y130301D01*
X6001D01*
X5002Y131301D01*
Y132300D01*
X6001Y133300D01*
X7001D01*
X6001D01*
X5002Y134300D01*
Y135299D01*
X6001Y136299D01*
X8001D01*
X9000Y135299D01*
X38512Y119995D02*
X38489Y123994D01*
X37483Y124987D01*
X35484Y124976D01*
X34490Y123970D01*
X34513Y119972D01*
X35519Y118978D01*
X37518Y118989D01*
X36507Y120983D02*
X38518Y118995D01*
X37518Y118989D02*
X38512Y119995D01*
X44516Y119030D02*
X40517Y119007D01*
X44493Y123029D01*
X44487Y124028D01*
X43481Y125022D01*
X41482Y125011D01*
X40488Y124005D01*
X110399Y40078D02*
Y44076D01*
X109399Y45076D01*
X107400D01*
X106400Y44076D01*
Y40078D01*
X107400Y39078D01*
X109399D01*
X108399Y41077D02*
X110399Y39078D01*
X109399D02*
X110399Y40078D01*
X112398Y39078D02*
X114397D01*
X113398D01*
Y45076D01*
X112398Y44076D01*
X-10656Y87796D02*
Y93794D01*
X-7657D01*
X-6657Y92794D01*
Y90795D01*
X-7657Y89795D01*
X-10656D01*
X-4658Y87796D02*
X-2658D01*
X-3658D01*
Y93794D01*
X-4658Y92794D01*
X98102Y206299D02*
Y200301D01*
X102100D01*
X107099D02*
Y206299D01*
X104100Y203300D01*
X108098D01*
X45350Y110148D02*
Y104150D01*
X49349D01*
X51348Y109148D02*
X52348Y110148D01*
X54347D01*
X55347Y109148D01*
Y108149D01*
X54347Y107149D01*
X53347D01*
X54347D01*
X55347Y106149D01*
Y105150D01*
X54347Y104150D01*
X52348D01*
X51348Y105150D01*
X143000Y26499D02*
X141001D01*
X142001D01*
Y21501D01*
X141001Y20501D01*
X140001D01*
X139002Y21501D01*
X145000Y25499D02*
X145999Y26499D01*
X147999D01*
X148998Y25499D01*
Y24500D01*
X147999Y23500D01*
X146999D01*
X147999D01*
X148998Y22500D01*
Y21501D01*
X147999Y20501D01*
X145999D01*
X145000Y21501D01*
X70700Y198499D02*
X68701D01*
X69701D01*
Y193501D01*
X68701Y192501D01*
X67701D01*
X66702Y193501D01*
X76698Y192501D02*
X72700D01*
X76698Y196500D01*
Y197499D01*
X75699Y198499D01*
X73699D01*
X72700Y197499D01*
X27300Y27499D02*
X25301D01*
X26300D01*
Y22501D01*
X25301Y21501D01*
X24301D01*
X23301Y22501D01*
X29299Y21501D02*
X31299D01*
X30299D01*
Y27499D01*
X29299Y26499D01*
X1202Y104799D02*
Y98801D01*
X4201D01*
X5201Y99801D01*
Y103799D01*
X4201Y104799D01*
X1202D01*
X11199Y103799D02*
X10199Y104799D01*
X8200D01*
X7200Y103799D01*
Y102800D01*
X8200Y101800D01*
X10199D01*
X11199Y100800D01*
Y99801D01*
X10199Y98801D01*
X8200D01*
X7200Y99801D01*
X13198Y98801D02*
X15198D01*
X14198D01*
Y104799D01*
X13198Y103799D01*
X3744Y154438D02*
Y148440D01*
X6743D01*
X7743Y149440D01*
Y153439D01*
X6743Y154438D01*
X3744D01*
X9742Y148440D02*
X11742D01*
X10742D01*
Y154438D01*
X9742Y153439D01*
X157181Y164083D02*
X156182Y165082D01*
X154182D01*
X153183Y164083D01*
Y160084D01*
X154182Y159084D01*
X156182D01*
X157181Y160084D01*
X163179Y159084D02*
X159181D01*
X163179Y163083D01*
Y164083D01*
X162180Y165082D01*
X160180D01*
X159181Y164083D01*
X165179Y165082D02*
X169177D01*
Y164083D01*
X165179Y160084D01*
Y159084D01*
X66401Y165599D02*
X65402Y166599D01*
X63402D01*
X62403Y165599D01*
Y161601D01*
X63402Y160601D01*
X65402D01*
X66401Y161601D01*
X72399Y160601D02*
X68401D01*
X72399Y164600D01*
Y165599D01*
X71400Y166599D01*
X69400D01*
X68401Y165599D01*
X78397Y166599D02*
X76398Y165599D01*
X74399Y163600D01*
Y161601D01*
X75398Y160601D01*
X77398D01*
X78397Y161601D01*
Y162600D01*
X77398Y163600D01*
X74399D01*
X68301Y209499D02*
X67302Y210499D01*
X65302D01*
X64303Y209499D01*
Y205501D01*
X65302Y204501D01*
X67302D01*
X68301Y205501D01*
X74299Y204501D02*
X70301D01*
X74299Y208500D01*
Y209499D01*
X73300Y210499D01*
X71300D01*
X70301Y209499D01*
X80297Y210499D02*
X76299D01*
Y207500D01*
X78298Y208500D01*
X79298D01*
X80297Y207500D01*
Y205501D01*
X79298Y204501D01*
X77298D01*
X76299Y205501D01*
X42449Y121448D02*
X41449Y122448D01*
X39450D01*
X38450Y121448D01*
Y117450D01*
X39450Y116450D01*
X41449D01*
X42449Y117450D01*
X48447Y116450D02*
X44448D01*
X48447Y120449D01*
Y121448D01*
X47447Y122448D01*
X45448D01*
X44448Y121448D01*
X53445Y116450D02*
Y122448D01*
X50446Y119449D01*
X54445D01*
X142199Y91198D02*
X141199Y92198D01*
X139200D01*
X138200Y91198D01*
Y87200D01*
X139200Y86200D01*
X141199D01*
X142199Y87200D01*
X148197Y86200D02*
X144198D01*
X148197Y90199D01*
Y91198D01*
X147197Y92198D01*
X145198D01*
X144198Y91198D01*
X150196D02*
X151196Y92198D01*
X153195D01*
X154195Y91198D01*
Y90199D01*
X153195Y89199D01*
X152196D01*
X153195D01*
X154195Y88199D01*
Y87200D01*
X153195Y86200D01*
X151196D01*
X150196Y87200D01*
X136149Y91248D02*
X135149Y92248D01*
X133150D01*
X132150Y91248D01*
Y87250D01*
X133150Y86250D01*
X135149D01*
X136149Y87250D01*
X142147Y86250D02*
X138148D01*
X142147Y90249D01*
Y91248D01*
X141147Y92248D01*
X139148D01*
X138148Y91248D01*
X148145Y86250D02*
X144146D01*
X148145Y90249D01*
Y91248D01*
X147145Y92248D01*
X145146D01*
X144146Y91248D01*
X130008Y91257D02*
X129008Y92257D01*
X127009D01*
X126009Y91257D01*
Y87258D01*
X127009Y86259D01*
X129008D01*
X130008Y87258D01*
X136006Y86259D02*
X132007D01*
X136006Y90257D01*
Y91257D01*
X135006Y92257D01*
X133007D01*
X132007Y91257D01*
X138005Y86259D02*
X140005D01*
X139005D01*
Y92257D01*
X138005Y91257D01*
X123708D02*
X122709Y92257D01*
X120710D01*
X119710Y91257D01*
Y87258D01*
X120710Y86259D01*
X122709D01*
X123708Y87258D01*
X129707Y86259D02*
X125708D01*
X129707Y90257D01*
Y91257D01*
X128707Y92257D01*
X126708D01*
X125708Y91257D01*
X131706D02*
X132706Y92257D01*
X134705D01*
X135705Y91257D01*
Y87258D01*
X134705Y86259D01*
X132706D01*
X131706Y87258D01*
Y91257D01*
X117409D02*
X116410Y92257D01*
X114410D01*
X113411Y91257D01*
Y87258D01*
X114410Y86259D01*
X116410D01*
X117409Y87258D01*
X119409Y86259D02*
X121408D01*
X120408D01*
Y92257D01*
X119409Y91257D01*
X124407Y87258D02*
X125407Y86259D01*
X127406D01*
X128406Y87258D01*
Y91257D01*
X127406Y92257D01*
X125407D01*
X124407Y91257D01*
Y90257D01*
X125407Y89258D01*
X128406D01*
X111110Y91257D02*
X110110Y92257D01*
X108111D01*
X107111Y91257D01*
Y87258D01*
X108111Y86259D01*
X110110D01*
X111110Y87258D01*
X113110Y86259D02*
X115109D01*
X114109D01*
Y92257D01*
X113110Y91257D01*
X118108D02*
X119107Y92257D01*
X121107D01*
X122107Y91257D01*
Y90257D01*
X121107Y89258D01*
X122107Y88258D01*
Y87258D01*
X121107Y86259D01*
X119107D01*
X118108Y87258D01*
Y88258D01*
X119107Y89258D01*
X118108Y90257D01*
Y91257D01*
X119107Y89258D02*
X121107D01*
X104811Y91257D02*
X103811Y92257D01*
X101812D01*
X100812Y91257D01*
Y87258D01*
X101812Y86259D01*
X103811D01*
X104811Y87258D01*
X106810Y86259D02*
X108810D01*
X107810D01*
Y92257D01*
X106810Y91257D01*
X111809Y92257D02*
X115807D01*
Y91257D01*
X111809Y87258D01*
Y86259D01*
X136049Y44148D02*
X135049Y45148D01*
X133050D01*
X132050Y44148D01*
Y40150D01*
X133050Y39150D01*
X135049D01*
X136049Y40150D01*
X138048Y39150D02*
X140047D01*
X139048D01*
Y45148D01*
X138048Y44148D01*
X147045Y45148D02*
X145046Y44148D01*
X143046Y42149D01*
Y40150D01*
X144046Y39150D01*
X146045D01*
X147045Y40150D01*
Y41149D01*
X146045Y42149D01*
X143046D01*
X129849Y44248D02*
X128849Y45248D01*
X126850D01*
X125850Y44248D01*
Y40250D01*
X126850Y39250D01*
X128849D01*
X129849Y40250D01*
X131848Y39250D02*
X133847D01*
X132848D01*
Y45248D01*
X131848Y44248D01*
X140845Y45248D02*
X136846D01*
Y42249D01*
X138846Y43249D01*
X139846D01*
X140845Y42249D01*
Y40250D01*
X139846Y39250D01*
X137846D01*
X136846Y40250D01*
X155992Y132989D02*
X154992Y133989D01*
X152993D01*
X151993Y132989D01*
Y128991D01*
X152993Y127991D01*
X154992D01*
X155992Y128991D01*
X161990Y133989D02*
X159991Y132989D01*
X157991Y130990D01*
Y128991D01*
X158991Y127991D01*
X160990D01*
X161990Y128991D01*
Y129990D01*
X160990Y130990D01*
X157991D01*
X156386Y126690D02*
X155386Y127690D01*
X153387D01*
X152387Y126690D01*
Y122691D01*
X153387Y121692D01*
X155386D01*
X156386Y122691D01*
X162384Y127690D02*
X158385D01*
Y124691D01*
X160384Y125690D01*
X161384D01*
X162384Y124691D01*
Y122691D01*
X161384Y121692D01*
X159385D01*
X158385Y122691D01*
X156136Y120535D02*
X155136Y121534D01*
X153137D01*
X152137Y120535D01*
Y116536D01*
X153137Y115536D01*
X155136D01*
X156136Y116536D01*
X161134Y115536D02*
Y121534D01*
X158135Y118535D01*
X162134D01*
X157200Y116099D02*
X156201Y117099D01*
X154201D01*
X153202Y116099D01*
Y112101D01*
X154201Y111101D01*
X156201D01*
X157200Y112101D01*
X159200Y116099D02*
X160199Y117099D01*
X162199D01*
X163198Y116099D01*
Y115100D01*
X162199Y114100D01*
X161199D01*
X162199D01*
X163198Y113100D01*
Y112101D01*
X162199Y111101D01*
X160199D01*
X159200Y112101D01*
X156848Y149669D02*
X155848Y150668D01*
X153849D01*
X152849Y149669D01*
Y145670D01*
X153849Y144670D01*
X155848D01*
X156848Y145670D01*
X162846Y144670D02*
X158847D01*
X162846Y148669D01*
Y149669D01*
X161846Y150668D01*
X159847D01*
X158847Y149669D01*
X156799Y156698D02*
X155799Y157698D01*
X153800D01*
X152800Y156698D01*
Y152700D01*
X153800Y151700D01*
X155799D01*
X156799Y152700D01*
X158798Y151700D02*
X160797D01*
X159798D01*
Y157698D01*
X158798Y156698D01*
D21*
X110610Y123355D02*
X111266D01*
Y123847D01*
X110938D01*
X111266D01*
Y124339D01*
X110282Y123683D02*
Y124339D01*
Y124011D01*
X110118Y123847D01*
X109954Y123683D01*
X109790D01*
X109134D02*
X108806D01*
X108642Y123847D01*
Y124339D01*
X109134D01*
X109298Y124175D01*
X109134Y124011D01*
X108642D01*
X108314Y124339D02*
Y123683D01*
X107822D01*
X107658Y123847D01*
Y124339D01*
X106346D02*
Y123683D01*
X106018Y123355D01*
X105691Y123683D01*
Y124339D01*
Y123847D01*
X106346D01*
X104707Y123683D02*
X105199D01*
X105363Y123847D01*
Y124175D01*
X105199Y124339D01*
X104707D01*
X104379D02*
X104051D01*
X104215D01*
Y123683D01*
X104379D01*
X103067Y124339D02*
X103395D01*
X103559Y124175D01*
Y123847D01*
X103395Y123683D01*
X103067D01*
X102903Y123847D01*
Y124011D01*
X103559D01*
X102575Y124339D02*
Y123683D01*
X102083D01*
X101919Y123847D01*
Y124339D01*
X100607Y123683D02*
Y124175D01*
X100443Y124339D01*
X99951D01*
Y124503D01*
X100115Y124667D01*
X100279D01*
X99951Y124339D02*
Y123683D01*
X98639Y123355D02*
Y124339D01*
X98147D01*
X97983Y124175D01*
Y124011D01*
X98147Y123847D01*
X98639D01*
X98147D01*
X97983Y123683D01*
Y123519D01*
X98147Y123355D01*
X98639D01*
X97163Y124339D02*
X97491D01*
X97655Y124175D01*
Y123847D01*
X97491Y123683D01*
X97163D01*
X96999Y123847D01*
Y124011D01*
X97655D01*
X96507Y123683D02*
X96179D01*
X96015Y123847D01*
Y124339D01*
X96507D01*
X96671Y124175D01*
X96507Y124011D01*
X96015D01*
X95523Y123519D02*
Y123683D01*
X95687D01*
X95359D01*
X95523D01*
Y124175D01*
X95359Y124339D01*
X94867Y123683D02*
Y124339D01*
Y124011D01*
X94703Y123847D01*
X94539Y123683D01*
X94375D01*
X93883Y124339D02*
X93555D01*
X93719D01*
Y123683D01*
X93883D01*
X93063D02*
X92408D01*
X93063Y124339D01*
X92408D01*
X91096Y123847D02*
X90440D01*
X88472Y123355D02*
X89128D01*
Y123847D01*
X88800D01*
X89128D01*
Y124339D01*
X87488Y123355D02*
X88144D01*
Y124339D01*
X87488D01*
X88144Y123847D02*
X87816D01*
X86504Y123355D02*
X87160D01*
Y124339D01*
X86504D01*
X87160Y123847D02*
X86832D01*
X86176Y123355D02*
Y124339D01*
X85520D01*
X83552D02*
X84208D01*
X83552Y123683D01*
Y123519D01*
X83716Y123355D01*
X84044D01*
X84208Y123519D01*
X83224D02*
X83060Y123355D01*
X82732D01*
X82568Y123519D01*
Y124175D01*
X82732Y124339D01*
X83060D01*
X83224Y124175D01*
Y123519D01*
X81584Y124339D02*
X82240D01*
X81584Y123683D01*
Y123519D01*
X81748Y123355D01*
X82076D01*
X82240Y123519D01*
X81256D02*
X81092Y123355D01*
X80764D01*
X80600Y123519D01*
Y124175D01*
X80764Y124339D01*
X81092D01*
X81256Y124175D01*
Y123519D01*
D22*
X159124Y-784D02*
D03*
M02*
