%TF.GenerationSoftware,Altium Limited,Altium Designer,20.2.4 (192)*%
G04 Layer_Color=8388736*
%FSLAX26Y26*%
%MOIN*%
%TF.SameCoordinates,397090C4-8786-4783-B811-474920FB5975*%
%TF.FilePolarity,Negative*%
%TF.FileFunction,Soldermask,Top*%
%TF.Part,Single*%
G01*
G75*
%TA.AperFunction,SMDPad,CuDef*%
%ADD25R,0.031496X0.031496*%
%ADD38R,0.035433X0.031496*%
%ADD84C,0.045276*%
%TA.AperFunction,ViaPad*%
%ADD85C,0.045276*%
%ADD86C,0.084646*%
%TA.AperFunction,ComponentPad*%
%ADD87C,0.039370*%
%ADD88O,0.041339X0.068898*%
%ADD89C,0.046063*%
%TA.AperFunction,ViaPad*%
%ADD90C,0.023622*%
%ADD91C,0.020866*%
%ADD92C,0.055906*%
%ADD93C,0.013780*%
%TA.AperFunction,NonConductor*%
%ADD105C,0.024000*%
%TA.AperFunction,SMDPad,CuDef*%
%ADD106R,0.226378X0.226378*%
%ADD107R,0.036221X0.016535*%
%ADD108R,0.016535X0.041142*%
%ADD109R,0.017717X0.027559*%
%ADD110R,0.027559X0.017717*%
%ADD111R,0.035906X0.035906*%
%ADD112R,0.030906X0.025906*%
%ADD113R,0.035906X0.035906*%
%ADD114R,0.055906X0.041906*%
%ADD115R,0.041906X0.041906*%
%ADD116R,0.045276X0.053150*%
%ADD117R,0.025197X0.026378*%
%ADD118R,0.045276X0.076772*%
%TA.AperFunction,BGAPad,CuDef*%
%ADD119C,0.014173*%
%TA.AperFunction,SMDPad,CuDef*%
%ADD120R,0.037402X0.037402*%
%ADD121R,0.023032X0.025906*%
%ADD122R,0.053150X0.076772*%
%ADD123R,0.029528X0.066929*%
%ADD124R,0.021654X0.059055*%
%ADD125R,0.080709X0.066929*%
%ADD126R,0.068898X0.061024*%
%ADD127R,0.035433X0.037402*%
%ADD128R,0.025591X0.028740*%
%ADD129R,0.043307X0.039370*%
%ADD130C,0.013780*%
%ADD131R,0.060630X0.114173*%
%ADD132R,0.061024X0.114173*%
%ADD133R,0.074803X0.183071*%
%TA.AperFunction,BGAPad,CuDef*%
%ADD134R,0.023622X0.023622*%
%TA.AperFunction,SMDPad,CuDef*%
%ADD135R,0.085827X0.035827*%
%ADD136R,0.015748X0.021654*%
%ADD137R,0.033465X0.021654*%
%TA.AperFunction,Conductor*%
%ADD138C,0.013780*%
D25*
X62992Y1372047D02*
D03*
Y1431102D02*
D03*
D38*
X715441Y1496653D02*
D03*
X770559D02*
D03*
X715441Y1453347D02*
D03*
D84*
X1920000Y50000D02*
D03*
D85*
Y2707000D02*
D03*
X51000Y2700000D02*
D03*
D86*
X135000Y1904000D02*
D03*
X103000Y158000D02*
D03*
X1861000Y156000D02*
D03*
D87*
X1236220Y62992D02*
D03*
X1118110Y62992D02*
D03*
X717890Y63000D02*
D03*
X836000Y63000D02*
D03*
D88*
X1721166Y64000D02*
D03*
X1461323D02*
D03*
D89*
X55118Y772047D02*
D03*
Y622047D02*
D03*
D90*
X1798315Y899685D02*
D03*
X883000Y997000D02*
D03*
X880976Y964000D02*
D03*
X754608Y1969867D02*
D03*
X937000Y2038000D02*
D03*
X699000Y1646000D02*
D03*
X1084000Y429000D02*
D03*
X1027000Y358000D02*
D03*
X1724000Y1306000D02*
D03*
Y1273000D02*
D03*
X1911000Y1111000D02*
D03*
X1917000Y1015000D02*
D03*
X1914000Y925000D02*
D03*
X789000Y1415000D02*
D03*
X728000Y1346000D02*
D03*
X918000Y1220000D02*
D03*
X989000Y1216000D02*
D03*
X1022000Y1177000D02*
D03*
X967000Y1024000D02*
D03*
X1155000Y1485000D02*
D03*
X1111000Y1555000D02*
D03*
X1078000Y1597000D02*
D03*
X794000Y1260000D02*
D03*
X1096000Y1244000D02*
D03*
X859000Y1200000D02*
D03*
X1187000Y1398000D02*
D03*
Y1481000D02*
D03*
X1136000Y497000D02*
D03*
X1826000Y1377000D02*
D03*
X1902000Y1417000D02*
D03*
X1847000Y786000D02*
D03*
X974000Y803000D02*
D03*
X667000Y643000D02*
D03*
X165000Y898000D02*
D03*
X1670000Y267000D02*
D03*
X1464000Y805000D02*
D03*
X1537000Y998000D02*
D03*
X674000Y1416000D02*
D03*
X666000Y1496000D02*
D03*
X345000Y1112000D02*
D03*
X970000Y425000D02*
D03*
X793000Y242000D02*
D03*
X903000Y509000D02*
D03*
X920000Y406000D02*
D03*
X289000Y474000D02*
D03*
X288000Y425000D02*
D03*
X433000Y510000D02*
D03*
X814000Y469000D02*
D03*
X1336000Y400000D02*
D03*
X1124000Y320000D02*
D03*
X1173000Y229000D02*
D03*
X1480000Y1536000D02*
D03*
X1904000Y1922000D02*
D03*
X127000Y1291000D02*
D03*
X284000D02*
D03*
X1519000Y310000D02*
D03*
X610000Y397000D02*
D03*
X609000Y142000D02*
D03*
X721000Y212000D02*
D03*
X950000Y1214000D02*
D03*
X1448000Y279000D02*
D03*
X617000Y1376000D02*
D03*
X798000Y1198000D02*
D03*
X848000Y784000D02*
D03*
X574000Y839000D02*
D03*
X1033000Y947000D02*
D03*
X342000Y961000D02*
D03*
X857000Y749000D02*
D03*
X826000Y1173000D02*
D03*
X614000Y1115000D02*
D03*
X1221000Y243000D02*
D03*
X504000Y274000D02*
D03*
X999000Y213000D02*
D03*
X867000Y346000D02*
D03*
X841362Y864362D02*
D03*
X752000Y844000D02*
D03*
X902000Y1020000D02*
D03*
X467000Y1407000D02*
D03*
X1137000Y1349000D02*
D03*
X1418500Y1399500D02*
D03*
X1730685Y1070315D02*
D03*
X1132000Y1624000D02*
D03*
X1797756Y1342244D02*
D03*
X1639000Y1268000D02*
D03*
X1684000Y1313000D02*
D03*
X1365000Y969000D02*
D03*
X1794315Y1185685D02*
D03*
X1187000Y1427000D02*
D03*
X1630000Y1032000D02*
D03*
X1692000Y1011000D02*
D03*
X902000Y1046000D02*
D03*
X1365000Y994000D02*
D03*
X1685000Y871000D02*
D03*
X1187000Y1369000D02*
D03*
X1709000Y912000D02*
D03*
Y1086000D02*
D03*
X392000Y253000D02*
D03*
X757000Y630000D02*
D03*
X753000Y728000D02*
D03*
X1048000Y1572000D02*
D03*
X730000Y755000D02*
D03*
X719114Y717114D02*
D03*
X1022000Y1575000D02*
D03*
X434000Y464000D02*
D03*
X689000Y381000D02*
D03*
X727551Y456536D02*
D03*
X589000Y507000D02*
D03*
X665000Y397000D02*
D03*
D91*
X1563661Y2644449D02*
D03*
Y2408228D02*
D03*
X1484921Y2644449D02*
D03*
Y2408228D02*
D03*
X1406181Y2644449D02*
D03*
Y2408228D02*
D03*
X1327441Y2644449D02*
D03*
Y2408228D02*
D03*
X1248701Y2644449D02*
D03*
Y2408228D02*
D03*
X1169961Y2644449D02*
D03*
Y2408228D02*
D03*
X1091220Y2644449D02*
D03*
Y2408228D02*
D03*
X1012480Y2644449D02*
D03*
Y2408228D02*
D03*
X933740Y2644449D02*
D03*
Y2408228D02*
D03*
X855000Y2644441D02*
D03*
D92*
X809762Y1810191D02*
D03*
Y1750191D02*
D03*
X806112Y1690302D02*
D03*
X903302Y1651743D02*
D03*
X898238Y1711529D02*
D03*
Y1771529D02*
D03*
Y1831529D02*
D03*
D93*
X625827Y440788D02*
D03*
X844000Y630000D02*
D03*
X851000Y699000D02*
D03*
X848000Y679000D02*
D03*
X847000Y662000D02*
D03*
X719000Y396000D02*
D03*
X572000Y464000D02*
D03*
X688819Y503780D02*
D03*
Y488031D02*
D03*
Y472284D02*
D03*
X673071Y503780D02*
D03*
X641575D02*
D03*
X657323D02*
D03*
D105*
X410000Y954100D02*
G03*
X410000Y954100I-11000J0D01*
G01*
D106*
X960630Y1397638D02*
D03*
D107*
X1868197Y910685D02*
D03*
Y891000D02*
D03*
Y871315D02*
D03*
X1767803D02*
D03*
Y891000D02*
D03*
Y910685D02*
D03*
X1864197Y1109685D02*
D03*
Y1090000D02*
D03*
Y1070315D02*
D03*
X1763803D02*
D03*
Y1090000D02*
D03*
Y1109685D02*
D03*
D108*
X1857370Y840311D02*
D03*
X1837685D02*
D03*
X1818000D02*
D03*
X1798315D02*
D03*
X1778630D02*
D03*
Y941689D02*
D03*
X1798315D02*
D03*
X1818000D02*
D03*
X1837685D02*
D03*
X1857370D02*
D03*
X1853370Y1039311D02*
D03*
X1833685D02*
D03*
X1814000D02*
D03*
X1794315D02*
D03*
X1774630D02*
D03*
Y1140689D02*
D03*
X1794315D02*
D03*
X1814000D02*
D03*
X1833685D02*
D03*
X1853370D02*
D03*
D109*
X1068898Y1264764D02*
D03*
X970472D02*
D03*
X950787D02*
D03*
X931102D02*
D03*
X911417D02*
D03*
X891732D02*
D03*
X872047D02*
D03*
X990158D02*
D03*
X1009842D02*
D03*
X1029527D02*
D03*
X1049213D02*
D03*
X852362D02*
D03*
X1049213Y1530512D02*
D03*
X970472D02*
D03*
X891732D02*
D03*
X1029527D02*
D03*
X1009842D02*
D03*
X990158D02*
D03*
X911417D02*
D03*
X931102D02*
D03*
X950787D02*
D03*
X872047D02*
D03*
X852362D02*
D03*
X1068898D02*
D03*
D110*
X1093504Y1309055D02*
D03*
Y1387795D02*
D03*
Y1466535D02*
D03*
Y1328740D02*
D03*
Y1348425D02*
D03*
Y1368110D02*
D03*
Y1446850D02*
D03*
Y1427165D02*
D03*
Y1407480D02*
D03*
Y1486220D02*
D03*
Y1505906D02*
D03*
Y1289370D02*
D03*
X827756Y1309055D02*
D03*
Y1387795D02*
D03*
Y1466535D02*
D03*
Y1328740D02*
D03*
Y1348425D02*
D03*
Y1368110D02*
D03*
Y1446850D02*
D03*
Y1427165D02*
D03*
Y1407480D02*
D03*
Y1486220D02*
D03*
Y1505906D02*
D03*
Y1289370D02*
D03*
D111*
X1185000Y523000D02*
D03*
Y468000D02*
D03*
X1314000Y470000D02*
D03*
Y525000D02*
D03*
X1173000Y338000D02*
D03*
Y283000D02*
D03*
X1244000Y578000D02*
D03*
Y633000D02*
D03*
X1182000Y577000D02*
D03*
Y632000D02*
D03*
X1245000Y524000D02*
D03*
Y469000D02*
D03*
X972000Y630010D02*
D03*
Y575010D02*
D03*
X124000Y1176000D02*
D03*
Y1231000D02*
D03*
X415000Y1405000D02*
D03*
Y1350000D02*
D03*
X397000Y1215000D02*
D03*
Y1160000D02*
D03*
X128000Y1428000D02*
D03*
Y1373000D02*
D03*
X853000Y1646000D02*
D03*
Y1591000D02*
D03*
X1220000Y336000D02*
D03*
Y281000D02*
D03*
X400000Y1054000D02*
D03*
Y1109000D02*
D03*
X1397000Y751000D02*
D03*
Y806000D02*
D03*
X1337000Y752000D02*
D03*
Y807000D02*
D03*
X1275591Y752087D02*
D03*
Y807087D02*
D03*
X1212598Y752087D02*
D03*
Y807087D02*
D03*
X1149606Y752087D02*
D03*
Y807087D02*
D03*
X1086614Y752087D02*
D03*
Y807087D02*
D03*
X1023622Y752087D02*
D03*
Y807087D02*
D03*
X1027010Y575010D02*
D03*
Y630010D02*
D03*
X1082677Y469000D02*
D03*
Y524000D02*
D03*
X1082020Y634010D02*
D03*
X1024000Y465000D02*
D03*
Y520000D02*
D03*
X827000Y346000D02*
D03*
Y291000D02*
D03*
X968990Y520000D02*
D03*
Y465000D02*
D03*
X1336000Y281000D02*
D03*
Y336000D02*
D03*
X1274000Y282000D02*
D03*
Y337000D02*
D03*
D112*
X663905Y586000D02*
D03*
X612095D02*
D03*
X795000Y1645000D02*
D03*
X755000D02*
D03*
X480000Y509000D02*
D03*
X520000D02*
D03*
X665354Y346457D02*
D03*
X768346D02*
D03*
D113*
X1592512Y1042630D02*
D03*
X1537512D02*
D03*
X396000Y461000D02*
D03*
X341000D02*
D03*
X1543693Y1461370D02*
D03*
X1598693D02*
D03*
X1544000Y1391000D02*
D03*
X1599000D02*
D03*
X1594370Y1161417D02*
D03*
X1539370D02*
D03*
X1535433Y1224409D02*
D03*
X1590433D02*
D03*
X1592000Y1100000D02*
D03*
X1537000D02*
D03*
X1602244Y1535433D02*
D03*
X1547244D02*
D03*
X1082020Y579010D02*
D03*
D114*
X206000Y1395000D02*
D03*
X203000Y1195000D02*
D03*
D115*
X286000Y1432000D02*
D03*
Y1357000D02*
D03*
X283000Y1157000D02*
D03*
Y1232000D02*
D03*
D116*
X1078740Y165354D02*
D03*
X1177165D02*
D03*
X1275591D02*
D03*
X875370Y165362D02*
D03*
X776945D02*
D03*
X678520D02*
D03*
D117*
X969945Y2101000D02*
D03*
X938055D02*
D03*
D118*
X494134Y418226D02*
D03*
X565000D02*
D03*
X441630Y581000D02*
D03*
X512496D02*
D03*
D119*
X704567Y440787D02*
D03*
X688819D02*
D03*
X673071D02*
D03*
X657323D02*
D03*
X641575D02*
D03*
X625827D02*
D03*
X704567Y456536D02*
D03*
X688819D02*
D03*
X673071D02*
D03*
X657323D02*
D03*
X641575D02*
D03*
X625827D02*
D03*
X704567Y472284D02*
D03*
X688819D02*
D03*
X641575D02*
D03*
X625827D02*
D03*
X704567Y488031D02*
D03*
X688819D02*
D03*
X641575D02*
D03*
X625827D02*
D03*
X704567Y503780D02*
D03*
X688819D02*
D03*
X673071D02*
D03*
X657323D02*
D03*
X641575D02*
D03*
X625827D02*
D03*
X704567Y519528D02*
D03*
X688819D02*
D03*
X673071D02*
D03*
X657323D02*
D03*
X641575D02*
D03*
X625827D02*
D03*
D120*
X54000Y1231528D02*
D03*
Y1172472D02*
D03*
D121*
X835276Y570866D02*
D03*
X803150D02*
D03*
X834646Y507874D02*
D03*
X802520D02*
D03*
X833638Y436000D02*
D03*
X801512D02*
D03*
X559055Y346457D02*
D03*
X526929D02*
D03*
X629291D02*
D03*
X732284D02*
D03*
D122*
X496063Y36417D02*
D03*
X291339D02*
D03*
D123*
X393701Y188976D02*
D03*
X354331D02*
D03*
X433071D02*
D03*
D124*
X1591245Y169315D02*
D03*
X1565654D02*
D03*
X1540063D02*
D03*
X1616835D02*
D03*
X1642426D02*
D03*
D125*
X1544000Y64000D02*
D03*
X1638489D02*
D03*
D126*
X1717229Y160456D02*
D03*
X1465260D02*
D03*
D127*
X813646Y1983071D02*
D03*
X894354D02*
D03*
Y1908268D02*
D03*
X813646D02*
D03*
D128*
X854000Y1991339D02*
D03*
Y1900000D02*
D03*
D129*
X855000Y2047425D02*
D03*
Y2100575D02*
D03*
D130*
X399000Y966300D02*
D03*
Y941700D02*
D03*
D131*
X1744094Y1529528D02*
D03*
D132*
X1901575D02*
D03*
X1744094Y1795276D02*
D03*
X1901575D02*
D03*
D133*
X503024Y919000D02*
D03*
X630976D02*
D03*
D134*
X1768756Y1247756D02*
D03*
Y1279252D02*
D03*
Y1310748D02*
D03*
Y1342244D02*
D03*
X1863244D02*
D03*
Y1310748D02*
D03*
Y1279252D02*
D03*
Y1247756D02*
D03*
D135*
X165157Y647047D02*
D03*
X285236Y797047D02*
D03*
Y747047D02*
D03*
Y697047D02*
D03*
Y647047D02*
D03*
Y597047D02*
D03*
X165157Y797047D02*
D03*
Y747047D02*
D03*
Y697047D02*
D03*
Y597047D02*
D03*
D136*
X1091858Y321220D02*
D03*
X1074142D02*
D03*
D137*
X1083000Y348779D02*
D03*
D138*
X332000Y259000D02*
X354331Y236669D01*
%TF.MD5,3c46c7cfd4843b8fee2c8ad040dfba83*%
M02*
