%TF.GenerationSoftware,Altium Limited,Altium Designer,20.2.4 (192)*%
G04 Layer_Color=8421504*
%FSLAX26Y26*%
%MOIN*%
%TF.SameCoordinates,397090C4-8786-4783-B811-474920FB5975*%
%TF.FilePolarity,Positive*%
%TF.FileFunction,Paste,Top*%
%TF.Part,Single*%
G01*
G75*
%TA.AperFunction,SMDPad,CuDef*%
%ADD11R,0.220472X0.220472*%
%ADD12R,0.031496X0.011811*%
%ADD13R,0.011811X0.036417*%
%ADD14R,0.011811X0.021654*%
%ADD15R,0.021654X0.011811*%
%ADD16R,0.030000X0.030000*%
%ADD17R,0.025000X0.020000*%
%ADD18R,0.030000X0.030000*%
%ADD19R,0.050000X0.036000*%
%ADD20R,0.036000X0.036000*%
%ADD21R,0.039370X0.047244*%
%ADD22R,0.019291X0.020472*%
%ADD23R,0.039370X0.070866*%
%TA.AperFunction,BGAPad,CuDef*%
%ADD24C,0.008268*%
%TA.AperFunction,SMDPad,CuDef*%
%ADD25R,0.031496X0.031496*%
%ADD26R,0.017126X0.020000*%
%ADD27R,0.047244X0.070866*%
%ADD28R,0.023622X0.061024*%
%ADD29R,0.015748X0.053150*%
%ADD30R,0.074803X0.061024*%
%ADD31R,0.062992X0.055118*%
%ADD32R,0.029528X0.031496*%
%ADD33R,0.019685X0.022835*%
%ADD34R,0.037402X0.033465*%
%ADD36R,0.054724X0.108268*%
%ADD37R,0.055118X0.108268*%
%ADD38R,0.035433X0.031496*%
%ADD39R,0.068898X0.177165*%
%TA.AperFunction,BGAPad,CuDef*%
%ADD40R,0.015748X0.015748*%
%TA.AperFunction,SMDPad,CuDef*%
%ADD41R,0.079921X0.029921*%
%ADD42R,0.009842X0.015748*%
%ADD43R,0.027559X0.015748*%
%TA.AperFunction,OtherPad,Pad J3-6 (1461.323mil,64mil)*%
%ADD103O,0.059055X0.078740*%
%TA.AperFunction,OtherPad,Pad J3-6 (1721.166mil,64mil)*%
%ADD104O,0.059055X0.078740*%
D11*
X960630Y1397638D02*
D03*
D12*
X1868197Y910685D02*
D03*
Y891000D02*
D03*
Y871315D02*
D03*
X1767803D02*
D03*
Y891000D02*
D03*
Y910685D02*
D03*
X1864197Y1109685D02*
D03*
Y1090000D02*
D03*
Y1070315D02*
D03*
X1763803D02*
D03*
Y1090000D02*
D03*
Y1109685D02*
D03*
D13*
X1857370Y840311D02*
D03*
X1837685D02*
D03*
X1818000D02*
D03*
X1798315D02*
D03*
X1778630D02*
D03*
Y941689D02*
D03*
X1798315D02*
D03*
X1818000D02*
D03*
X1837685D02*
D03*
X1857370D02*
D03*
X1853370Y1039311D02*
D03*
X1833685D02*
D03*
X1814000D02*
D03*
X1794315D02*
D03*
X1774630D02*
D03*
Y1140689D02*
D03*
X1794315D02*
D03*
X1814000D02*
D03*
X1833685D02*
D03*
X1853370D02*
D03*
D14*
X1068898Y1264764D02*
D03*
X970472D02*
D03*
X950787D02*
D03*
X931102D02*
D03*
X911417D02*
D03*
X891732D02*
D03*
X872047D02*
D03*
X990158D02*
D03*
X1009842D02*
D03*
X1029527D02*
D03*
X1049213D02*
D03*
X852362D02*
D03*
X1049213Y1530512D02*
D03*
X970472D02*
D03*
X891732D02*
D03*
X1029527D02*
D03*
X1009842D02*
D03*
X990158D02*
D03*
X911417D02*
D03*
X931102D02*
D03*
X950787D02*
D03*
X872047D02*
D03*
X852362D02*
D03*
X1068898D02*
D03*
D15*
X1093504Y1309055D02*
D03*
Y1387795D02*
D03*
Y1466535D02*
D03*
Y1328740D02*
D03*
Y1348425D02*
D03*
Y1368110D02*
D03*
Y1446850D02*
D03*
Y1427165D02*
D03*
Y1407480D02*
D03*
Y1486220D02*
D03*
Y1505906D02*
D03*
Y1289370D02*
D03*
X827756Y1309055D02*
D03*
Y1387795D02*
D03*
Y1466535D02*
D03*
Y1328740D02*
D03*
Y1348425D02*
D03*
Y1368110D02*
D03*
Y1446850D02*
D03*
Y1427165D02*
D03*
Y1407480D02*
D03*
Y1486220D02*
D03*
Y1505906D02*
D03*
Y1289370D02*
D03*
D16*
X1185000Y523000D02*
D03*
Y468000D02*
D03*
X1314000Y470000D02*
D03*
Y525000D02*
D03*
X1173000Y338000D02*
D03*
Y283000D02*
D03*
X1244000Y578000D02*
D03*
Y633000D02*
D03*
X1182000Y577000D02*
D03*
Y632000D02*
D03*
X1245000Y524000D02*
D03*
Y469000D02*
D03*
X972000Y630010D02*
D03*
Y575010D02*
D03*
X124000Y1176000D02*
D03*
Y1231000D02*
D03*
X415000Y1405000D02*
D03*
Y1350000D02*
D03*
X397000Y1215000D02*
D03*
Y1160000D02*
D03*
X128000Y1428000D02*
D03*
Y1373000D02*
D03*
X853000Y1646000D02*
D03*
Y1591000D02*
D03*
X1220000Y336000D02*
D03*
Y281000D02*
D03*
X400000Y1054000D02*
D03*
Y1109000D02*
D03*
X1397000Y751000D02*
D03*
Y806000D02*
D03*
X1337000Y752000D02*
D03*
Y807000D02*
D03*
X1275591Y752087D02*
D03*
Y807087D02*
D03*
X1212598Y752087D02*
D03*
Y807087D02*
D03*
X1149606Y752087D02*
D03*
Y807087D02*
D03*
X1086614Y752087D02*
D03*
Y807087D02*
D03*
X1023622Y752087D02*
D03*
Y807087D02*
D03*
X1027010Y575010D02*
D03*
Y630010D02*
D03*
X1082677Y469000D02*
D03*
Y524000D02*
D03*
X1082020Y634010D02*
D03*
X1024000Y465000D02*
D03*
Y520000D02*
D03*
X827000Y346000D02*
D03*
Y291000D02*
D03*
X968990Y520000D02*
D03*
Y465000D02*
D03*
X1336000Y281000D02*
D03*
Y336000D02*
D03*
X1274000Y282000D02*
D03*
Y337000D02*
D03*
D17*
X663905Y586000D02*
D03*
X612095D02*
D03*
X795000Y1645000D02*
D03*
X755000D02*
D03*
X480000Y509000D02*
D03*
X520000D02*
D03*
X665354Y346457D02*
D03*
X768346D02*
D03*
D18*
X1592512Y1042630D02*
D03*
X1537512D02*
D03*
X396000Y461000D02*
D03*
X341000D02*
D03*
X1543693Y1461370D02*
D03*
X1598693D02*
D03*
X1544000Y1391000D02*
D03*
X1599000D02*
D03*
X1594370Y1161417D02*
D03*
X1539370D02*
D03*
X1535433Y1224409D02*
D03*
X1590433D02*
D03*
X1592000Y1100000D02*
D03*
X1537000D02*
D03*
X1602244Y1535433D02*
D03*
X1547244D02*
D03*
X1082020Y579010D02*
D03*
D19*
X206000Y1395000D02*
D03*
X203000Y1195000D02*
D03*
D20*
X286000Y1432000D02*
D03*
Y1357000D02*
D03*
X283000Y1157000D02*
D03*
Y1232000D02*
D03*
D21*
X1078740Y165354D02*
D03*
X1177165D02*
D03*
X1275591D02*
D03*
X875370Y165362D02*
D03*
X776945D02*
D03*
X678520D02*
D03*
D22*
X969945Y2101000D02*
D03*
X938055D02*
D03*
D23*
X494134Y418226D02*
D03*
X565000D02*
D03*
X441630Y581000D02*
D03*
X512496D02*
D03*
D24*
X704567Y440787D02*
D03*
X688819D02*
D03*
X673071D02*
D03*
X657323D02*
D03*
X641575D02*
D03*
X625827D02*
D03*
X704567Y456536D02*
D03*
X688819D02*
D03*
X673071D02*
D03*
X657323D02*
D03*
X641575D02*
D03*
X625827D02*
D03*
X704567Y472284D02*
D03*
X688819D02*
D03*
X641575D02*
D03*
X625827D02*
D03*
X704567Y488031D02*
D03*
X688819D02*
D03*
X641575D02*
D03*
X625827D02*
D03*
X704567Y503780D02*
D03*
X688819D02*
D03*
X673071D02*
D03*
X657323D02*
D03*
X641575D02*
D03*
X625827D02*
D03*
X704567Y519528D02*
D03*
X688819D02*
D03*
X673071D02*
D03*
X657323D02*
D03*
X641575D02*
D03*
X625827D02*
D03*
D25*
X54000Y1231528D02*
D03*
Y1172472D02*
D03*
X62992Y1372047D02*
D03*
Y1431102D02*
D03*
D26*
X835276Y570866D02*
D03*
X803150D02*
D03*
X834646Y507874D02*
D03*
X802520D02*
D03*
X833638Y436000D02*
D03*
X801512D02*
D03*
X559055Y346457D02*
D03*
X526929D02*
D03*
X629291D02*
D03*
X732284D02*
D03*
D27*
X496063Y36417D02*
D03*
X291339D02*
D03*
D28*
X393701Y188976D02*
D03*
X354331D02*
D03*
X433071D02*
D03*
D29*
X1591245Y169315D02*
D03*
X1565654D02*
D03*
X1540063D02*
D03*
X1616835D02*
D03*
X1642426D02*
D03*
D30*
X1544000Y64000D02*
D03*
X1638489D02*
D03*
D31*
X1717229Y160456D02*
D03*
X1465260D02*
D03*
D32*
X813646Y1983071D02*
D03*
X894354D02*
D03*
Y1908268D02*
D03*
X813646D02*
D03*
D33*
X854000Y1991339D02*
D03*
Y1900000D02*
D03*
D34*
X855000Y2047425D02*
D03*
Y2100575D02*
D03*
D36*
X1744094Y1529528D02*
D03*
D37*
X1901575D02*
D03*
X1744094Y1795276D02*
D03*
X1901575D02*
D03*
D38*
X715441Y1496653D02*
D03*
X770559D02*
D03*
X715441Y1453347D02*
D03*
D39*
X503024Y919000D02*
D03*
X630976D02*
D03*
D40*
X1768756Y1247756D02*
D03*
Y1279252D02*
D03*
Y1310748D02*
D03*
Y1342244D02*
D03*
X1863244D02*
D03*
Y1310748D02*
D03*
Y1279252D02*
D03*
Y1247756D02*
D03*
D41*
X165157Y647047D02*
D03*
X285236Y797047D02*
D03*
Y747047D02*
D03*
Y697047D02*
D03*
Y647047D02*
D03*
Y597047D02*
D03*
X165157Y797047D02*
D03*
Y747047D02*
D03*
Y697047D02*
D03*
Y597047D02*
D03*
D42*
X1091858Y321220D02*
D03*
X1074142D02*
D03*
D43*
X1083000Y348779D02*
D03*
D103*
X1461323Y64000D02*
D03*
D104*
X1721166D02*
D03*
%TF.MD5,9f15a66d712034cbd883a7f579df4a6e*%
M02*
