G04*
G04 #@! TF.GenerationSoftware,Altium Limited,Altium Designer,20.2.4 (192)*
G04*
G04 Layer_Color=16711935*
%FSLAX25Y25*%
%MOIN*%
G70*
G04*
G04 #@! TF.SameCoordinates,C82156A4-65EB-44BA-A6C3-424022D268A2*
G04*
G04*
G04 #@! TF.FilePolarity,Positive*
G04*
G01*
G75*
%ADD11C,0.00787*%
G36*
X7040Y143426D02*
X5071D01*
X5075Y143423D01*
X5089Y143404D01*
X5111Y143383D01*
X5137Y143346D01*
X5169Y143306D01*
X5206Y143255D01*
X5246Y143197D01*
X5286Y143131D01*
Y143128D01*
X5289Y143124D01*
X5304Y143102D01*
X5322Y143066D01*
X5344Y143022D01*
X5370Y142971D01*
X5395Y142917D01*
X5421Y142862D01*
X5442Y142807D01*
X5144D01*
Y142811D01*
X5137Y142818D01*
X5133Y142833D01*
X5122Y142851D01*
X5111Y142873D01*
X5097Y142898D01*
X5060Y142960D01*
X5020Y143033D01*
X4969Y143106D01*
X4911Y143182D01*
X4849Y143259D01*
X4845Y143262D01*
X4842Y143266D01*
X4831Y143277D01*
X4820Y143291D01*
X4783Y143324D01*
X4740Y143368D01*
X4689Y143412D01*
X4631Y143459D01*
X4572Y143499D01*
X4510Y143535D01*
Y143736D01*
X7040D01*
Y143426D01*
D02*
G37*
G36*
X5843Y142236D02*
X5872D01*
X5941Y142232D01*
X6021Y142221D01*
X6105Y142210D01*
X6192Y142192D01*
X6280Y142170D01*
X6283D01*
X6290Y142167D01*
X6301Y142163D01*
X6316Y142159D01*
X6356Y142145D01*
X6407Y142123D01*
X6465Y142101D01*
X6523Y142072D01*
X6585Y142036D01*
X6644Y141999D01*
X6651Y141996D01*
X6669Y141981D01*
X6695Y141959D01*
X6727Y141930D01*
X6764Y141897D01*
X6800Y141857D01*
X6840Y141817D01*
X6873Y141770D01*
X6876Y141763D01*
X6887Y141748D01*
X6902Y141723D01*
X6920Y141686D01*
X6942Y141643D01*
X6960Y141592D01*
X6982Y141533D01*
X7000Y141468D01*
Y141461D01*
X7004Y141450D01*
X7008Y141439D01*
X7011Y141402D01*
X7018Y141351D01*
X7026Y141293D01*
X7033Y141224D01*
X7037Y141148D01*
X7040Y141064D01*
Y140157D01*
X4521D01*
Y141126D01*
X4525Y141191D01*
X4529Y141264D01*
X4536Y141337D01*
X4547Y141410D01*
X4558Y141472D01*
Y141475D01*
X4561Y141482D01*
Y141493D01*
X4569Y141508D01*
X4580Y141548D01*
X4598Y141599D01*
X4623Y141657D01*
X4656Y141719D01*
X4693Y141781D01*
X4740Y141839D01*
X4744Y141843D01*
X4747Y141846D01*
X4758Y141857D01*
X4769Y141872D01*
X4805Y141908D01*
X4856Y141952D01*
X4918Y141999D01*
X4991Y142050D01*
X5075Y142098D01*
X5169Y142138D01*
X5173D01*
X5180Y142141D01*
X5195Y142149D01*
X5217Y142152D01*
X5242Y142163D01*
X5271Y142170D01*
X5304Y142178D01*
X5344Y142189D01*
X5384Y142200D01*
X5431Y142207D01*
X5533Y142225D01*
X5646Y142236D01*
X5770Y142240D01*
X5774D01*
X5781D01*
X5799D01*
X5817D01*
X5843Y142236D01*
D02*
G37*
G36*
X74300Y150841D02*
X72331D01*
X72334Y150838D01*
X72349Y150820D01*
X72371Y150798D01*
X72396Y150761D01*
X72429Y150721D01*
X72465Y150670D01*
X72505Y150612D01*
X72545Y150547D01*
Y150543D01*
X72549Y150539D01*
X72564Y150517D01*
X72582Y150481D01*
X72604Y150437D01*
X72629Y150387D01*
X72655Y150332D01*
X72680Y150277D01*
X72702Y150223D01*
X72404D01*
Y150226D01*
X72396Y150234D01*
X72393Y150248D01*
X72382Y150266D01*
X72371Y150288D01*
X72356Y150314D01*
X72320Y150375D01*
X72280Y150448D01*
X72229Y150521D01*
X72171Y150598D01*
X72109Y150674D01*
X72105Y150678D01*
X72101Y150681D01*
X72090Y150692D01*
X72079Y150707D01*
X72043Y150740D01*
X72000Y150783D01*
X71948Y150827D01*
X71890Y150874D01*
X71832Y150914D01*
X71770Y150951D01*
Y151151D01*
X74300D01*
Y150841D01*
D02*
G37*
G36*
X73233Y148807D02*
X74300D01*
Y148472D01*
X73233D01*
X71781Y147500D01*
Y147904D01*
X72545Y148399D01*
X72549D01*
X72556Y148406D01*
X72567Y148414D01*
X72582Y148421D01*
X72600Y148435D01*
X72622Y148450D01*
X72676Y148483D01*
X72742Y148523D01*
X72815Y148566D01*
X72891Y148614D01*
X72971Y148658D01*
X72968D01*
X72960Y148661D01*
X72949Y148668D01*
X72935Y148679D01*
X72917Y148690D01*
X72895Y148705D01*
X72840Y148738D01*
X72775Y148778D01*
X72698Y148825D01*
X72615Y148880D01*
X72524Y148938D01*
X71781Y149422D01*
Y149811D01*
X73233Y148807D01*
D02*
G37*
%LPC*%
G36*
X5763Y141897D02*
X5759D01*
X5745D01*
X5726D01*
X5697Y141894D01*
X5664D01*
X5628Y141890D01*
X5584Y141886D01*
X5541Y141883D01*
X5442Y141865D01*
X5340Y141843D01*
X5246Y141810D01*
X5198Y141788D01*
X5158Y141766D01*
X5155D01*
X5147Y141759D01*
X5137Y141752D01*
X5122Y141744D01*
X5086Y141715D01*
X5042Y141679D01*
X4995Y141632D01*
X4947Y141577D01*
X4907Y141515D01*
X4874Y141450D01*
X4871Y141442D01*
X4867Y141424D01*
X4856Y141391D01*
X4845Y141344D01*
X4838Y141286D01*
X4827Y141213D01*
X4824Y141169D01*
Y141122D01*
X4820Y141075D01*
Y140492D01*
X6742D01*
Y141089D01*
X6738Y141115D01*
X6735Y141169D01*
X6731Y141231D01*
X6724Y141297D01*
X6713Y141362D01*
X6698Y141417D01*
X6695Y141424D01*
X6691Y141442D01*
X6680Y141468D01*
X6665Y141501D01*
X6644Y141537D01*
X6622Y141573D01*
X6596Y141610D01*
X6567Y141646D01*
X6560Y141650D01*
X6545Y141664D01*
X6520Y141686D01*
X6483Y141712D01*
X6436Y141741D01*
X6381Y141774D01*
X6320Y141803D01*
X6250Y141828D01*
X6247D01*
X6239Y141832D01*
X6229Y141835D01*
X6214Y141839D01*
X6196Y141843D01*
X6170Y141850D01*
X6145Y141857D01*
X6116Y141865D01*
X6043Y141876D01*
X5959Y141886D01*
X5865Y141894D01*
X5763Y141897D01*
D02*
G37*
%LPD*%
D11*
X4134Y135236D02*
Y145079D01*
X8465D01*
Y135236D02*
Y145079D01*
X4134Y135236D02*
X8465D01*
X69379Y143366D02*
Y151634D01*
Y143366D02*
X79221D01*
Y151634D01*
X69379D02*
X79221D01*
M02*
