%TF.GenerationSoftware,Altium Limited,Altium Designer,20.2.4 (192)*%
G04 Layer_Color=8421504*
%FSLAX26Y26*%
%MOIN*%
%TF.SameCoordinates,E8949934-62E6-4346-A9B8-0D5D28CF3135*%
%TF.FilePolarity,Positive*%
%TF.FileFunction,Paste,Top*%
%TF.Part,Single*%
G01*
G75*
%TA.AperFunction,SMDPad,CuDef*%
%ADD11C,0.039370*%
%ADD12R,0.030000X0.030000*%
%ADD13R,0.025000X0.020000*%
%TA.AperFunction,BGAPad,CuDef*%
%ADD14C,0.008268*%
%TA.AperFunction,SMDPad,CuDef*%
%ADD15R,0.017126X0.020000*%
%TA.AperFunction,BGAPad,CuDef*%
%ADD16R,0.015748X0.015748*%
%TA.AperFunction,SMDPad,CuDef*%
%ADD17R,0.030000X0.030000*%
%ADD18R,0.023622X0.061024*%
%ADD19R,0.047244X0.070866*%
%ADD20R,0.039370X0.047244*%
%TA.AperFunction,ConnectorPad*%
%ADD21R,0.079921X0.029921*%
%TA.AperFunction,SMDPad,CuDef*%
%ADD22R,0.039370X0.070866*%
%ADD23R,0.068898X0.177165*%
%ADD25R,0.031496X0.031496*%
%ADD26R,0.035433X0.031496*%
%ADD27R,0.055118X0.108268*%
%ADD28R,0.054724X0.108268*%
%ADD29R,0.011811X0.036417*%
%ADD30R,0.031496X0.011811*%
%ADD31R,0.027559X0.015748*%
%ADD32R,0.009842X0.015748*%
%ADD33R,0.220472X0.220472*%
%ADD34R,0.011811X0.021654*%
%ADD35R,0.021654X0.011811*%
%ADD36R,0.050000X0.036000*%
%ADD37R,0.036000X0.036000*%
%ADD38R,0.019291X0.020472*%
%TA.AperFunction,ConnectorPad*%
%ADD39R,0.015748X0.053150*%
%ADD40R,0.074803X0.061024*%
%ADD41R,0.062992X0.055118*%
%TA.AperFunction,SMDPad,CuDef*%
%ADD42R,0.029528X0.031496*%
%ADD43R,0.019685X0.022835*%
%ADD44R,0.037402X0.033465*%
%TA.AperFunction,OtherPad,Pad J3-6 (1486.834mil,93mil)*%
%ADD104O,0.059055X0.078740*%
%TA.AperFunction,OtherPad,Pad J3-6 (1746.677mil,93mil)*%
%ADD105O,0.059055X0.078740*%
D11*
X69882Y2681102D02*
D03*
X1899606Y2685039D02*
D03*
X1907480Y57544D02*
D03*
D12*
X1306102Y466654D02*
D03*
Y521654D02*
D03*
X1185000Y468000D02*
D03*
X1245000Y469000D02*
D03*
Y524000D02*
D03*
X1185000Y523000D02*
D03*
X1082677Y520669D02*
D03*
X1086614Y807087D02*
D03*
Y752087D02*
D03*
X1023622Y807087D02*
D03*
Y752087D02*
D03*
X1369094Y384842D02*
D03*
Y329842D02*
D03*
X1298228Y383740D02*
D03*
Y328740D02*
D03*
X1082020Y634010D02*
D03*
X400000Y1109000D02*
D03*
Y1054000D02*
D03*
X1223000Y328000D02*
D03*
Y383000D02*
D03*
X1161000Y329000D02*
D03*
Y384000D02*
D03*
X1082677Y465669D02*
D03*
X1009000Y575000D02*
D03*
Y630000D02*
D03*
X968990Y465000D02*
D03*
Y520000D02*
D03*
X1182000Y632000D02*
D03*
Y577000D02*
D03*
X1149606Y807087D02*
D03*
Y752087D02*
D03*
X1212598Y807087D02*
D03*
Y752087D02*
D03*
X1275591Y807087D02*
D03*
Y752087D02*
D03*
X1337000Y807000D02*
D03*
Y752000D02*
D03*
X1397000Y806000D02*
D03*
Y751000D02*
D03*
X124000Y1176000D02*
D03*
Y1231000D02*
D03*
X415000Y1405000D02*
D03*
Y1350000D02*
D03*
X397000Y1215000D02*
D03*
Y1160000D02*
D03*
X128000Y1428000D02*
D03*
Y1373000D02*
D03*
X853000Y1646000D02*
D03*
Y1591000D02*
D03*
D13*
X665354Y346457D02*
D03*
X520000Y509000D02*
D03*
X755000Y1645000D02*
D03*
X795000D02*
D03*
X663905Y586000D02*
D03*
X612095D02*
D03*
X480000Y509000D02*
D03*
X768346Y346457D02*
D03*
D14*
X641575Y440787D02*
D03*
X625827Y488031D02*
D03*
X704567Y456536D02*
D03*
X688819D02*
D03*
X673071D02*
D03*
X704567Y440787D02*
D03*
X688819D02*
D03*
X673071D02*
D03*
X657323D02*
D03*
X625827D02*
D03*
X657323Y456536D02*
D03*
X641575D02*
D03*
X625827D02*
D03*
X704567Y472284D02*
D03*
X688819D02*
D03*
X641575D02*
D03*
X625827D02*
D03*
X704567Y488031D02*
D03*
X688819D02*
D03*
X641575D02*
D03*
X704567Y503780D02*
D03*
X688819D02*
D03*
X673071D02*
D03*
X657323D02*
D03*
X641575D02*
D03*
X625827D02*
D03*
X704567Y519528D02*
D03*
X688819D02*
D03*
X673071D02*
D03*
X657323D02*
D03*
X641575D02*
D03*
X625827D02*
D03*
D15*
X802520Y507874D02*
D03*
X835276Y570866D02*
D03*
X803150D02*
D03*
X834646Y507874D02*
D03*
X833638Y436000D02*
D03*
X801512D02*
D03*
X559055Y346457D02*
D03*
X526929D02*
D03*
X629291D02*
D03*
X732284D02*
D03*
D16*
X1768756Y1342244D02*
D03*
X1863244Y1247756D02*
D03*
Y1279252D02*
D03*
Y1310748D02*
D03*
Y1342244D02*
D03*
X1768756Y1310748D02*
D03*
Y1279252D02*
D03*
Y1247756D02*
D03*
D17*
X1082020Y579010D02*
D03*
X1529646Y1099409D02*
D03*
X1584646D02*
D03*
X1528583Y1164292D02*
D03*
X1583583D02*
D03*
X1583661Y1225394D02*
D03*
X1528661D02*
D03*
X1599000Y1391000D02*
D03*
X1544000D02*
D03*
X1598693Y1461370D02*
D03*
X1543693D02*
D03*
X1547244Y1535433D02*
D03*
X1602244D02*
D03*
X1585630Y1041339D02*
D03*
X1530630D02*
D03*
D18*
X437370Y203000D02*
D03*
X358630D02*
D03*
X398000D02*
D03*
D19*
X295638Y50441D02*
D03*
X500362D02*
D03*
D20*
X1289480Y214362D02*
D03*
X1191055D02*
D03*
X1092630D02*
D03*
X700575D02*
D03*
X799000D02*
D03*
X897425D02*
D03*
D21*
X175000Y597000D02*
D03*
Y697000D02*
D03*
Y747000D02*
D03*
Y797000D02*
D03*
X295079Y597000D02*
D03*
Y647000D02*
D03*
Y697000D02*
D03*
Y747000D02*
D03*
Y797000D02*
D03*
X175000Y647000D02*
D03*
D22*
X512496Y581000D02*
D03*
X441630D02*
D03*
X494134Y418226D02*
D03*
X565000D02*
D03*
D23*
X630976Y919000D02*
D03*
X503024D02*
D03*
D25*
X62992Y1431102D02*
D03*
Y1372047D02*
D03*
X54000Y1231528D02*
D03*
Y1172472D02*
D03*
D26*
X715441Y1453347D02*
D03*
X770559Y1496653D02*
D03*
X715441D02*
D03*
D27*
X1901575Y1795276D02*
D03*
X1744094D02*
D03*
X1901575Y1529528D02*
D03*
D28*
X1744094D02*
D03*
D29*
X1853370Y1140689D02*
D03*
X1833685D02*
D03*
X1814000D02*
D03*
X1794315D02*
D03*
X1774630D02*
D03*
Y1039311D02*
D03*
X1794315D02*
D03*
X1814000D02*
D03*
X1833685D02*
D03*
X1853370D02*
D03*
X1857370Y840311D02*
D03*
X1837685D02*
D03*
X1818000D02*
D03*
X1798315D02*
D03*
X1778630D02*
D03*
Y941689D02*
D03*
X1798315D02*
D03*
X1818000D02*
D03*
X1837685D02*
D03*
X1857370D02*
D03*
D30*
X1763803Y1109685D02*
D03*
Y1090000D02*
D03*
Y1070315D02*
D03*
X1864197D02*
D03*
Y1090000D02*
D03*
Y1109685D02*
D03*
X1868197Y910685D02*
D03*
Y891000D02*
D03*
Y871315D02*
D03*
X1767803D02*
D03*
Y891000D02*
D03*
Y910685D02*
D03*
D31*
X1096000Y368000D02*
D03*
D32*
X1087142Y340441D02*
D03*
X1104858D02*
D03*
D33*
X960630Y1397638D02*
D03*
D34*
X1068898Y1264764D02*
D03*
X970472D02*
D03*
X950787D02*
D03*
X931102D02*
D03*
X911417D02*
D03*
X891732D02*
D03*
X872047D02*
D03*
X990158D02*
D03*
X1009842D02*
D03*
X1029527D02*
D03*
X1049213D02*
D03*
X852362D02*
D03*
X1049213Y1530512D02*
D03*
X970472D02*
D03*
X891732D02*
D03*
X1029527D02*
D03*
X1009842D02*
D03*
X990158D02*
D03*
X911417D02*
D03*
X931102D02*
D03*
X950787D02*
D03*
X872047D02*
D03*
X852362D02*
D03*
X1068898D02*
D03*
D35*
X1093504Y1309055D02*
D03*
Y1387795D02*
D03*
Y1466535D02*
D03*
Y1328740D02*
D03*
Y1348425D02*
D03*
Y1368110D02*
D03*
Y1446850D02*
D03*
Y1427165D02*
D03*
Y1407480D02*
D03*
Y1486220D02*
D03*
Y1505906D02*
D03*
Y1289370D02*
D03*
X827756Y1309055D02*
D03*
Y1387795D02*
D03*
Y1466535D02*
D03*
Y1328740D02*
D03*
Y1348425D02*
D03*
Y1368110D02*
D03*
Y1446850D02*
D03*
Y1427165D02*
D03*
Y1407480D02*
D03*
Y1486220D02*
D03*
Y1505906D02*
D03*
Y1289370D02*
D03*
D36*
X206000Y1395000D02*
D03*
X203000Y1195000D02*
D03*
D37*
X286000Y1432000D02*
D03*
Y1357000D02*
D03*
X283000Y1157000D02*
D03*
Y1232000D02*
D03*
D38*
X969945Y2101000D02*
D03*
X938055D02*
D03*
D39*
X1616755Y198315D02*
D03*
X1591165D02*
D03*
X1565574D02*
D03*
X1642346D02*
D03*
X1667937D02*
D03*
D40*
X1569511Y93000D02*
D03*
X1664000D02*
D03*
D41*
X1742740Y189456D02*
D03*
X1490771D02*
D03*
D42*
X813646Y1983071D02*
D03*
X894354D02*
D03*
Y1908268D02*
D03*
X813646D02*
D03*
D43*
X854000Y1991339D02*
D03*
Y1900000D02*
D03*
D44*
X855000Y2047425D02*
D03*
Y2100575D02*
D03*
D104*
X1486834Y93000D02*
D03*
D105*
X1746677D02*
D03*
%TF.MD5,3fc0fbe83cc2bde42ef3acd0fb487788*%
M02*
