G04*
G04 #@! TF.GenerationSoftware,Altium Limited,Altium Designer,20.2.4 (192)*
G04*
G04 Layer_Color=32896*
%FSLAX25Y25*%
%MOIN*%
G70*
G04*
G04 #@! TF.SameCoordinates,C82156A4-65EB-44BA-A6C3-424022D268A2*
G04*
G04*
G04 #@! TF.FilePolarity,Positive*
G04*
G01*
G75*
%ADD13C,0.00591*%
%ADD20C,0.01000*%
D13*
X163500Y30500D02*
G03*
X163500Y30500I-3000J0D01*
G01*
X65000Y23100D02*
G03*
X65000Y23100I-3000J0D01*
G01*
X70200Y128800D02*
G03*
X70200Y128800I-3000J0D01*
G01*
X145700Y35000D02*
G03*
X145700Y35000I-3000J0D01*
G01*
X163200Y39800D02*
G03*
X163200Y39800I-3000J0D01*
G01*
X94700Y114800D02*
G03*
X94700Y114800I-3000J0D01*
G01*
X136800Y21900D02*
G03*
X136800Y21900I-3000J0D01*
G01*
X42400Y39900D02*
G03*
X42400Y39900I-3000J0D01*
G01*
X110900Y23300D02*
G03*
X110900Y23300I-3000J0D01*
G01*
X60800Y7300D02*
G03*
X60800Y7300I-3000J0D01*
G01*
X93900Y59500D02*
G03*
X93900Y59500I-3000J0D01*
G01*
X113300Y119500D02*
G03*
X113300Y119500I-3000J0D01*
G01*
X94000Y45300D02*
G03*
X94000Y45300I-3000J0D01*
G01*
X96400Y75000D02*
G03*
X96400Y75000I-3000J0D01*
G01*
D20*
X179220Y42784D02*
X175222D01*
X177221D01*
Y36786D01*
X173222D02*
Y42784D01*
X170223D01*
X169223Y41785D01*
Y39785D01*
X170223Y38785D01*
X173222D01*
X167224Y36786D02*
X165225D01*
X166225D01*
Y42784D01*
X167224Y41785D01*
X158227Y42784D02*
X160226Y41785D01*
X162226Y39785D01*
Y37786D01*
X161226Y36786D01*
X159227D01*
X158227Y37786D01*
Y38785D01*
X159227Y39785D01*
X162226D01*
X76452Y19584D02*
X72453D01*
X74453D01*
Y13586D01*
X70454D02*
Y19584D01*
X67455D01*
X66455Y18585D01*
Y16585D01*
X67455Y15586D01*
X70454D01*
X64456Y13586D02*
X62456D01*
X63456D01*
Y19584D01*
X64456Y18585D01*
X55459Y19584D02*
X59457D01*
Y16585D01*
X57458Y17585D01*
X56458D01*
X55459Y16585D01*
Y14586D01*
X56458Y13586D01*
X58458D01*
X59457Y14586D01*
X178927Y52084D02*
X174928D01*
X176927D01*
Y46086D01*
X172929D02*
Y52084D01*
X169930D01*
X168930Y51085D01*
Y49085D01*
X169930Y48085D01*
X172929D01*
X166931Y46086D02*
X164931D01*
X165931D01*
Y52084D01*
X166931Y51085D01*
X158933Y46086D02*
Y52084D01*
X161932Y49085D01*
X157934D01*
X80653Y35384D02*
X76654D01*
X78654D01*
Y29386D01*
X74655D02*
Y35384D01*
X71656D01*
X70656Y34385D01*
Y32385D01*
X71656Y31385D01*
X74655D01*
X68657Y29386D02*
X66658D01*
X67657D01*
Y35384D01*
X68657Y34385D01*
X63659D02*
X62659Y35384D01*
X60660D01*
X59660Y34385D01*
Y33385D01*
X60660Y32385D01*
X61659D01*
X60660D01*
X59660Y31385D01*
Y30386D01*
X60660Y29386D01*
X62659D01*
X63659Y30386D01*
X161411Y47284D02*
X157412D01*
X159411D01*
Y41286D01*
X155413D02*
Y47284D01*
X152414D01*
X151414Y46284D01*
Y44285D01*
X152414Y43285D01*
X155413D01*
X149415Y41286D02*
X147415D01*
X148415D01*
Y47284D01*
X149415Y46284D01*
X140418Y41286D02*
X144416D01*
X140418Y45285D01*
Y46284D01*
X141417Y47284D01*
X143417D01*
X144416Y46284D01*
X124631Y35584D02*
X120633D01*
X122632D01*
Y29586D01*
X118633D02*
Y35584D01*
X115634D01*
X114635Y34585D01*
Y32585D01*
X115634Y31585D01*
X118633D01*
X112635Y29586D02*
X110636D01*
X111635D01*
Y35584D01*
X112635Y34585D01*
X107637Y29586D02*
X105637D01*
X106637D01*
Y35584D01*
X107637Y34585D01*
X109685Y57584D02*
X105686D01*
X107686D01*
Y51586D01*
X103687D02*
Y57584D01*
X100688D01*
X99688Y56585D01*
Y54585D01*
X100688Y53585D01*
X103687D01*
X97689Y51586D02*
X95690D01*
X96689D01*
Y57584D01*
X97689Y56585D01*
X92691D02*
X91691Y57584D01*
X89692D01*
X88692Y56585D01*
Y52586D01*
X89692Y51586D01*
X91691D01*
X92691Y52586D01*
Y56585D01*
X53088Y52184D02*
X49089D01*
X51088D01*
Y46186D01*
X47090D02*
Y52184D01*
X44091D01*
X43091Y51184D01*
Y49185D01*
X44091Y48185D01*
X47090D01*
X41092Y47186D02*
X40092Y46186D01*
X38092D01*
X37093Y47186D01*
Y51184D01*
X38092Y52184D01*
X40092D01*
X41092Y51184D01*
Y50185D01*
X40092Y49185D01*
X37093D01*
X123990Y131784D02*
X119992D01*
X121991D01*
Y125786D01*
X117992D02*
Y131784D01*
X114993D01*
X113993Y130784D01*
Y128785D01*
X114993Y127785D01*
X117992D01*
X111994Y131784D02*
X107995D01*
Y130784D01*
X111994Y126786D01*
Y125786D01*
X104634Y71826D02*
X100635D01*
X102635D01*
Y65828D01*
X98636D02*
Y71826D01*
X95637D01*
X94637Y70827D01*
Y68827D01*
X95637Y67828D01*
X98636D01*
X88639Y71826D02*
X90638Y70827D01*
X92638Y68827D01*
Y66828D01*
X91638Y65828D01*
X89639D01*
X88639Y66828D01*
Y67828D01*
X89639Y68827D01*
X92638D01*
X107136Y87338D02*
X103138D01*
X105137D01*
Y81340D01*
X101138D02*
Y87338D01*
X98139D01*
X97139Y86339D01*
Y84339D01*
X98139Y83340D01*
X101138D01*
X91141Y87338D02*
X95140D01*
Y84339D01*
X93141Y85339D01*
X92141D01*
X91141Y84339D01*
Y82340D01*
X92141Y81340D01*
X94140D01*
X95140Y82340D01*
X147474Y34184D02*
X143475D01*
X145475D01*
Y28186D01*
X141476D02*
Y34184D01*
X138477D01*
X137477Y33184D01*
Y31185D01*
X138477Y30185D01*
X141476D01*
X132479Y28186D02*
Y34184D01*
X135478Y31185D01*
X131479D01*
X105420Y127136D02*
X101422D01*
X103421D01*
Y121138D01*
X99422D02*
Y127136D01*
X96423D01*
X95424Y126137D01*
Y124137D01*
X96423Y123138D01*
X99422D01*
X89425Y121138D02*
X93424D01*
X89425Y125137D01*
Y126137D01*
X90425Y127136D01*
X92424D01*
X93424Y126137D01*
X78886Y141136D02*
X74887D01*
X76886D01*
Y135138D01*
X72888D02*
Y141136D01*
X69889D01*
X68889Y140137D01*
Y138137D01*
X69889Y137138D01*
X72888D01*
X66890Y135138D02*
X64890D01*
X65890D01*
Y141136D01*
X66890Y140137D01*
M02*
