%TF.GenerationSoftware,Altium Limited,Altium Designer,20.2.4 (192)*%
G04 Layer_Color=32768*
%FSLAX26Y26*%
%MOIN*%
%TF.SameCoordinates,E8949934-62E6-4346-A9B8-0D5D28CF3135*%
%TF.FilePolarity,Positive*%
%TF.FileFunction,Other,Mechanical_15*%
%TF.Part,Single*%
G01*
G75*
%TA.AperFunction,NonConductor*%
%ADD97C,0.003937*%
%ADD98C,0.007874*%
%ADD144C,0.001968*%
D97*
X457378Y581000D02*
X496748D01*
X477063Y561315D02*
Y600685D01*
X567000Y899315D02*
Y938685D01*
X547315Y919000D02*
X586685D01*
X445937Y830417D02*
X688063D01*
X445937Y1007583D02*
X688063D01*
Y830417D02*
Y1007583D01*
X445937Y830417D02*
Y1007583D01*
X1816000Y1275315D02*
Y1314685D01*
X1796315Y1295000D02*
X1835685D01*
X1814000Y1070315D02*
Y1109685D01*
X1794315Y1090000D02*
X1833685D01*
X1076315Y354221D02*
X1115685D01*
X1096000Y334536D02*
Y373906D01*
X1798315Y891000D02*
X1837685D01*
X1818000Y871315D02*
Y910685D01*
X954000Y2090173D02*
Y2111827D01*
X943173Y2101000D02*
X964827D01*
X529567Y398541D02*
Y437911D01*
X509882Y418226D02*
X549252D01*
X665197Y460473D02*
Y499843D01*
X645512Y480158D02*
X684882D01*
X54000Y1192158D02*
Y1211842D01*
X44157Y1202000D02*
X63843D01*
X855000Y2056284D02*
Y2091716D01*
X837284Y2074000D02*
X872716D01*
D98*
X1478960Y35913D02*
X1754551D01*
D144*
X410134Y535724D02*
X543992D01*
X410134Y626276D02*
X543992D01*
X410134Y535724D02*
Y626276D01*
X543992Y535724D02*
Y626276D01*
X1766787Y1344213D02*
X1865213D01*
X1766787Y1245787D02*
X1865213D01*
X1766787D02*
Y1344213D01*
X1865213Y1245787D02*
Y1344213D01*
X1731323Y1176614D02*
X1896677D01*
X1731323Y1003386D02*
X1896677D01*
Y1176614D01*
X1731323Y1003386D02*
Y1176614D01*
X1112732Y329614D02*
Y378827D01*
X1079268Y329614D02*
Y378827D01*
X1112732D01*
X1079268Y329614D02*
X1112732D01*
X1735323Y804386D02*
Y977614D01*
X1900677Y804386D02*
Y977614D01*
X1735323Y804386D02*
X1900677D01*
X1735323Y977614D02*
X1900677D01*
X924472Y2085252D02*
X983528D01*
X924472Y2116748D02*
X983528D01*
Y2085252D02*
Y2116748D01*
X924472Y2085252D02*
Y2116748D01*
X596496Y372951D02*
Y463502D01*
X462638Y372951D02*
Y463502D01*
X596496D01*
X462638Y372951D02*
X596496D01*
X608110Y423071D02*
X722283D01*
X608110Y537244D02*
X722283D01*
Y423071D02*
Y537244D01*
X608110Y423071D02*
Y537244D01*
X34315Y1251213D02*
X73685D01*
Y1152787D02*
Y1251213D01*
X34315Y1152787D02*
Y1251213D01*
Y1152787D02*
X73685D01*
X825472Y2020850D02*
X884528D01*
X825472Y2127150D02*
X884528D01*
X825472Y2020850D02*
Y2127150D01*
X884528Y2020850D02*
Y2127150D01*
%TF.MD5,dc9a02b95f39ddfff3a409c46b68239f*%
M02*
