%TF.GenerationSoftware,Altium Limited,Altium Designer,20.2.4 (192)*%
G04 Layer_Color=16711935*
%FSLAX26Y26*%
%MOIN*%
%TF.SameCoordinates,397090C4-8786-4783-B811-474920FB5975*%
%TF.FilePolarity,Positive*%
%TF.FileFunction,Other,Top_Assembly*%
%TF.Part,Single*%
G01*
G75*
%TA.AperFunction,NonConductor*%
%ADD95C,0.007874*%
G36*
X70403Y1434262D02*
X50711D01*
X50747Y1434226D01*
X50893Y1434043D01*
X51111Y1433825D01*
X51366Y1433461D01*
X51694Y1433061D01*
X52058Y1432551D01*
X52458Y1431969D01*
X52858Y1431313D01*
Y1431277D01*
X52895Y1431241D01*
X53040Y1431022D01*
X53222Y1430658D01*
X53441Y1430222D01*
X53696Y1429712D01*
X53950Y1429166D01*
X54205Y1428620D01*
X54424Y1428074D01*
X51439D01*
Y1428110D01*
X51366Y1428183D01*
X51330Y1428329D01*
X51220Y1428511D01*
X51111Y1428729D01*
X50966Y1428984D01*
X50602Y1429603D01*
X50201Y1430331D01*
X49692Y1431059D01*
X49109Y1431823D01*
X48490Y1432588D01*
X48454Y1432624D01*
X48418Y1432660D01*
X48308Y1432770D01*
X48199Y1432915D01*
X47835Y1433243D01*
X47398Y1433679D01*
X46889Y1434116D01*
X46306Y1434590D01*
X45724Y1434990D01*
X45105Y1435354D01*
Y1437356D01*
X70403D01*
Y1434262D01*
D02*
G37*
G36*
X58428Y1422359D02*
X58719D01*
X59410Y1422323D01*
X60211Y1422214D01*
X61048Y1422104D01*
X61922Y1421922D01*
X62796Y1421704D01*
X62832D01*
X62905Y1421668D01*
X63014Y1421631D01*
X63160Y1421595D01*
X63560Y1421449D01*
X64070Y1421231D01*
X64652Y1421012D01*
X65234Y1420721D01*
X65853Y1420357D01*
X66436Y1419993D01*
X66508Y1419957D01*
X66690Y1419811D01*
X66945Y1419593D01*
X67273Y1419302D01*
X67637Y1418974D01*
X68001Y1418573D01*
X68401Y1418173D01*
X68729Y1417700D01*
X68765Y1417627D01*
X68874Y1417482D01*
X69020Y1417227D01*
X69202Y1416863D01*
X69420Y1416426D01*
X69602Y1415916D01*
X69821Y1415334D01*
X70003Y1414679D01*
Y1414606D01*
X70039Y1414497D01*
X70076Y1414388D01*
X70112Y1414024D01*
X70185Y1413514D01*
X70258Y1412931D01*
X70330Y1412240D01*
X70367Y1411476D01*
X70403Y1410638D01*
Y1401575D01*
X45214D01*
Y1411257D01*
X45251Y1411912D01*
X45287Y1412640D01*
X45360Y1413368D01*
X45469Y1414096D01*
X45578Y1414715D01*
Y1414752D01*
X45615Y1414824D01*
Y1414934D01*
X45688Y1415079D01*
X45797Y1415479D01*
X45979Y1415989D01*
X46234Y1416572D01*
X46561Y1417190D01*
X46925Y1417809D01*
X47398Y1418391D01*
X47435Y1418428D01*
X47471Y1418464D01*
X47580Y1418573D01*
X47690Y1418719D01*
X48054Y1419083D01*
X48563Y1419520D01*
X49182Y1419993D01*
X49910Y1420503D01*
X50747Y1420976D01*
X51694Y1421376D01*
X51730D01*
X51803Y1421413D01*
X51948Y1421486D01*
X52167Y1421522D01*
X52422Y1421631D01*
X52713Y1421704D01*
X53040Y1421777D01*
X53441Y1421886D01*
X53841Y1421995D01*
X54314Y1422068D01*
X55334Y1422250D01*
X56462Y1422359D01*
X57700Y1422396D01*
X57736D01*
X57809D01*
X57991D01*
X58173D01*
X58428Y1422359D01*
D02*
G37*
G36*
X742999Y1508415D02*
X723307D01*
X723343Y1508378D01*
X723489Y1508196D01*
X723707Y1507978D01*
X723962Y1507614D01*
X724290Y1507214D01*
X724654Y1506704D01*
X725054Y1506121D01*
X725455Y1505466D01*
Y1505430D01*
X725491Y1505393D01*
X725636Y1505175D01*
X725818Y1504811D01*
X726037Y1504374D01*
X726292Y1503865D01*
X726547Y1503319D01*
X726801Y1502773D01*
X727020Y1502227D01*
X724035D01*
Y1502263D01*
X723962Y1502336D01*
X723926Y1502482D01*
X723817Y1502664D01*
X723707Y1502882D01*
X723562Y1503137D01*
X723198Y1503755D01*
X722797Y1504484D01*
X722288Y1505211D01*
X721705Y1505976D01*
X721087Y1506740D01*
X721050Y1506777D01*
X721014Y1506813D01*
X720904Y1506922D01*
X720795Y1507068D01*
X720431Y1507396D01*
X719995Y1507832D01*
X719485Y1508269D01*
X718903Y1508742D01*
X718320Y1509143D01*
X717701Y1509507D01*
Y1511509D01*
X742999D01*
Y1508415D01*
D02*
G37*
G36*
X732334Y1488067D02*
X742999D01*
Y1484718D01*
X732334D01*
X717811Y1474999D01*
Y1479040D01*
X725455Y1483990D01*
X725491D01*
X725564Y1484063D01*
X725673Y1484136D01*
X725818Y1484209D01*
X726000Y1484354D01*
X726219Y1484500D01*
X726765Y1484828D01*
X727420Y1485228D01*
X728148Y1485665D01*
X728913Y1486138D01*
X729713Y1486575D01*
X729677D01*
X729604Y1486611D01*
X729495Y1486684D01*
X729349Y1486793D01*
X729167Y1486902D01*
X728949Y1487048D01*
X728403Y1487376D01*
X727748Y1487776D01*
X726983Y1488249D01*
X726146Y1488795D01*
X725236Y1489378D01*
X717811Y1494219D01*
Y1498113D01*
X732334Y1488067D01*
D02*
G37*
%LPC*%
G36*
X57627Y1418974D02*
X57590D01*
X57445D01*
X57263D01*
X56972Y1418938D01*
X56644D01*
X56280Y1418901D01*
X55843Y1418865D01*
X55406Y1418828D01*
X54424Y1418646D01*
X53404Y1418428D01*
X52458Y1418100D01*
X51985Y1417882D01*
X51584Y1417664D01*
X51548D01*
X51475Y1417591D01*
X51366Y1417518D01*
X51220Y1417445D01*
X50856Y1417154D01*
X50420Y1416790D01*
X49946Y1416317D01*
X49473Y1415771D01*
X49073Y1415152D01*
X48745Y1414497D01*
X48709Y1414424D01*
X48672Y1414242D01*
X48563Y1413914D01*
X48454Y1413441D01*
X48381Y1412859D01*
X48272Y1412131D01*
X48236Y1411694D01*
Y1411221D01*
X48199Y1410747D01*
Y1404924D01*
X67418D01*
Y1410893D01*
X67382Y1411148D01*
X67346Y1411694D01*
X67309Y1412313D01*
X67236Y1412968D01*
X67127Y1413623D01*
X66982Y1414169D01*
X66945Y1414242D01*
X66909Y1414424D01*
X66800Y1414679D01*
X66654Y1415006D01*
X66436Y1415370D01*
X66217Y1415734D01*
X65962Y1416098D01*
X65671Y1416462D01*
X65598Y1416499D01*
X65453Y1416644D01*
X65198Y1416863D01*
X64834Y1417118D01*
X64361Y1417409D01*
X63815Y1417736D01*
X63196Y1418027D01*
X62504Y1418282D01*
X62468D01*
X62395Y1418319D01*
X62286Y1418355D01*
X62140Y1418391D01*
X61958Y1418428D01*
X61704Y1418501D01*
X61449Y1418573D01*
X61158Y1418646D01*
X60430Y1418755D01*
X59592Y1418865D01*
X58646Y1418938D01*
X57627Y1418974D01*
D02*
G37*
%LPD*%
D95*
X41339Y1352362D02*
Y1450787D01*
X84646D01*
Y1352362D02*
Y1450787D01*
X41339Y1352362D02*
X84646D01*
X693787Y1433661D02*
Y1516339D01*
Y1433661D02*
X792213D01*
Y1516339D01*
X693787D02*
X792213D01*
%TF.MD5,7895c57500dbe06cb23e60a8758fbcd6*%
M02*
