%TF.GenerationSoftware,Altium Limited,Altium Designer,20.2.4 (192)*%
G04 Layer_Color=65535*
%FSLAX26Y26*%
%MOIN*%
%TF.SameCoordinates,397090C4-8786-4783-B811-474920FB5975*%
%TF.FilePolarity,Positive*%
%TF.FileFunction,Legend,Top*%
%TF.Part,Single*%
G01*
G75*
%TA.AperFunction,NonConductor*%
%ADD47C,0.004000*%
%ADD54C,0.005000*%
%ADD82C,0.005906*%
%ADD83C,0.010000*%
%ADD94C,0.009842*%
%ADD95C,0.007874*%
%ADD96C,0.006000*%
%ADD97C,0.003937*%
%ADD98C,0.015748*%
%ADD99C,0.004921*%
%ADD100C,0.005984*%
%ADD101C,0.001968*%
%ADD102R,0.157480X0.019685*%
D47*
X306882Y1340984D02*
X310882Y1344984D01*
Y1345984D01*
X304882Y1331984D02*
X310882Y1337984D01*
X295882Y1331984D02*
X310882D01*
Y1341984D01*
X300882Y1331984D02*
X310882Y1341984D01*
X175882Y1331984D02*
Y1456984D01*
Y1331984D02*
X310882D01*
Y1456984D01*
X175882D02*
X310882D01*
X172882Y1256984D02*
X307882D01*
Y1131984D02*
Y1256984D01*
X172882Y1131984D02*
X307882D01*
X172882D02*
Y1256984D01*
X297882Y1131984D02*
X307882Y1141984D01*
Y1131984D02*
Y1141984D01*
X292882Y1131984D02*
X307882D01*
X301882D02*
X307882Y1137984D01*
Y1144984D02*
Y1145984D01*
X303882Y1140984D02*
X307882Y1144984D01*
D54*
X1162000Y445000D02*
X1208000D01*
X1162000Y546000D02*
X1208000D01*
Y445000D02*
Y546000D01*
X1162000Y445000D02*
Y546000D01*
X679000Y567000D02*
Y605000D01*
X597000Y567000D02*
X679000D01*
X597000D02*
Y605000D01*
X679000D01*
X816000Y1626000D02*
Y1664000D01*
X734000Y1626000D02*
X816000D01*
X734000D02*
Y1664000D01*
X816000D01*
X1291000Y447000D02*
Y548000D01*
X1337000Y447000D02*
Y548000D01*
X1291000D02*
X1337000D01*
X1291000Y447000D02*
X1337000D01*
X1514512Y1019630D02*
X1615512D01*
X1514512Y1065630D02*
X1615512D01*
X1514512Y1019630D02*
Y1065630D01*
X1615512Y1019630D02*
Y1065630D01*
X1196000Y260000D02*
Y361000D01*
X1150000Y260000D02*
Y361000D01*
Y260000D02*
X1196000D01*
X1150000Y361000D02*
X1196000D01*
X1221000Y555000D02*
Y656000D01*
X1267000Y555000D02*
Y656000D01*
X1221000D02*
X1267000D01*
X1221000Y555000D02*
X1267000D01*
X1159000Y655000D02*
X1205000D01*
X1159000Y554000D02*
X1205000D01*
X1159000D02*
Y655000D01*
X1205000Y554000D02*
Y655000D01*
X1222000Y446000D02*
X1268000D01*
X1222000Y547000D02*
X1268000D01*
Y446000D02*
Y547000D01*
X1222000Y446000D02*
Y547000D01*
X949000Y552010D02*
X995000D01*
X949000Y653010D02*
X995000D01*
Y552010D02*
Y653010D01*
X949000Y552010D02*
Y653010D01*
X318000Y438000D02*
X419000D01*
X318000Y484000D02*
X419000D01*
X318000Y438000D02*
Y484000D01*
X419000Y438000D02*
Y484000D01*
X101000Y1254000D02*
X147000D01*
X101000Y1153000D02*
X147000D01*
X101000D02*
Y1254000D01*
X147000Y1153000D02*
Y1254000D01*
X392000Y1327000D02*
X438000D01*
X392000Y1428000D02*
X438000D01*
Y1327000D02*
Y1428000D01*
X392000Y1327000D02*
Y1428000D01*
X374000Y1137000D02*
X420000D01*
X374000Y1238000D02*
X420000D01*
Y1137000D02*
Y1238000D01*
X374000Y1137000D02*
Y1238000D01*
X105000Y1350000D02*
X151000D01*
X105000Y1451000D02*
X151000D01*
Y1350000D02*
Y1451000D01*
X105000Y1350000D02*
Y1451000D01*
X459000Y528000D02*
X541000D01*
X459000Y490000D02*
Y528000D01*
Y490000D02*
X541000D01*
Y528000D01*
X778213Y551866D02*
X860213D01*
Y589866D01*
X778213D02*
X860213D01*
X778213Y551866D02*
Y589866D01*
X777583Y488874D02*
X859583D01*
Y526874D01*
X777583D02*
X859583D01*
X777583Y488874D02*
Y526874D01*
X776575Y417000D02*
X858575D01*
Y455000D01*
X776575D02*
X858575D01*
X776575Y417000D02*
Y455000D01*
X501992Y327457D02*
X583992D01*
Y365457D01*
X501992D02*
X583992D01*
X501992Y327457D02*
Y365457D01*
X604354D02*
X686354D01*
X604354Y327457D02*
Y365457D01*
Y327457D02*
X686354D01*
Y365457D01*
X707346D02*
X789346D01*
X707346Y327457D02*
Y365457D01*
Y327457D02*
X789346D01*
Y365457D01*
X830000Y1568000D02*
X876000D01*
X830000Y1669000D02*
X876000D01*
Y1568000D02*
Y1669000D01*
X830000Y1568000D02*
Y1669000D01*
X1621693Y1438370D02*
Y1484370D01*
X1520693Y1438370D02*
Y1484370D01*
X1621693D01*
X1520693Y1438370D02*
X1621693D01*
X1622000Y1368000D02*
Y1414000D01*
X1521000Y1368000D02*
Y1414000D01*
X1622000D01*
X1521000Y1368000D02*
X1622000D01*
X1197000Y258000D02*
X1243000D01*
X1197000Y359000D02*
X1243000D01*
Y258000D02*
Y359000D01*
X1197000Y258000D02*
Y359000D01*
X1516370Y1138417D02*
Y1184417D01*
X1617370Y1138417D02*
Y1184417D01*
X1516370Y1138417D02*
X1617370D01*
X1516370Y1184417D02*
X1617370D01*
X377000Y1031000D02*
Y1132000D01*
X423000Y1031000D02*
Y1132000D01*
X377000D02*
X423000D01*
X377000Y1031000D02*
X423000D01*
X1374000Y728000D02*
Y829000D01*
X1420000Y728000D02*
Y829000D01*
X1374000D02*
X1420000D01*
X1374000Y728000D02*
X1420000D01*
X1314000Y729000D02*
Y830000D01*
X1360000Y729000D02*
Y830000D01*
X1314000D02*
X1360000D01*
X1314000Y729000D02*
X1360000D01*
X1252591Y729087D02*
Y830087D01*
X1298591Y729087D02*
Y830087D01*
X1252591D02*
X1298591D01*
X1252591Y729087D02*
X1298591D01*
X1189598D02*
Y830087D01*
X1235598Y729087D02*
Y830087D01*
X1189598D02*
X1235598D01*
X1189598Y729087D02*
X1235598D01*
X1126606D02*
Y830087D01*
X1172606Y729087D02*
Y830087D01*
X1126606D02*
X1172606D01*
X1126606Y729087D02*
X1172606D01*
X1063614D02*
Y830087D01*
X1109614Y729087D02*
Y830087D01*
X1063614D02*
X1109614D01*
X1063614Y729087D02*
X1109614D01*
X1000622D02*
Y830087D01*
X1046622Y729087D02*
Y830087D01*
X1000622D02*
X1046622D01*
X1000622Y729087D02*
X1046622D01*
X1512433Y1247409D02*
X1613433D01*
X1512433Y1201409D02*
X1613433D01*
Y1247409D01*
X1512433Y1201409D02*
Y1247409D01*
X1514000Y1077000D02*
X1615000D01*
X1514000Y1123000D02*
X1615000D01*
X1514000Y1077000D02*
Y1123000D01*
X1615000Y1077000D02*
Y1123000D01*
X1524244Y1512433D02*
X1625244D01*
X1524244Y1558433D02*
X1625244D01*
X1524244Y1512433D02*
Y1558433D01*
X1625244Y1512433D02*
Y1558433D01*
X1004010Y552010D02*
Y653010D01*
X1050010Y552010D02*
Y653010D01*
X1004010D02*
X1050010D01*
X1004010Y552010D02*
X1050010D01*
X1059677Y446000D02*
Y547000D01*
X1105677Y446000D02*
Y547000D01*
X1059677D02*
X1105677D01*
X1059677Y446000D02*
X1105677D01*
X1059020Y556010D02*
Y657010D01*
X1105020Y556010D02*
Y657010D01*
X1059020D02*
X1105020D01*
X1059020Y556010D02*
X1105020D01*
X1001000Y442000D02*
Y543000D01*
X1047000Y442000D02*
Y543000D01*
X1001000D02*
X1047000D01*
X1001000Y442000D02*
X1047000D01*
X850000Y268000D02*
Y369000D01*
X804000Y268000D02*
Y369000D01*
Y268000D02*
X850000D01*
X804000Y369000D02*
X850000D01*
X991990Y442000D02*
Y543000D01*
X945990Y442000D02*
Y543000D01*
Y442000D02*
X991990D01*
X945990Y543000D02*
X991990D01*
X1313000Y258000D02*
Y359000D01*
X1359000Y258000D02*
Y359000D01*
X1313000D02*
X1359000D01*
X1313000Y258000D02*
X1359000D01*
X1251000Y259000D02*
Y360000D01*
X1297000Y259000D02*
Y360000D01*
X1251000D02*
X1297000D01*
X1251000Y259000D02*
X1297000D01*
D82*
X1853401Y1318622D02*
G03*
X1853401Y1318622I-13780J0D01*
G01*
X1791394Y1247756D02*
G03*
X1791394Y1247756I-2953J0D01*
G01*
X481000Y280000D02*
G03*
X481000Y280000I-30000J0D01*
G01*
X247000Y486000D02*
G03*
X247000Y486000I-30000J0D01*
G01*
X1754024Y927417D02*
Y958913D01*
X1761898D01*
X1754024Y823087D02*
Y854583D01*
Y823087D02*
X1761898D01*
X1874102D02*
X1881976D01*
Y854583D01*
Y927417D02*
Y958913D01*
X1874102D02*
X1881976D01*
X1750024Y1126417D02*
Y1157913D01*
X1757898D01*
X1750024Y1022087D02*
Y1053583D01*
Y1022087D02*
X1757898D01*
X1870102D02*
X1877976D01*
Y1053583D01*
Y1126417D02*
Y1157913D01*
X1870102D02*
X1877976D01*
X1177165Y-35433D02*
Y3937D01*
X1118110Y-35433D02*
X1177165D01*
X1118110D02*
Y3937D01*
X1035433Y122047D02*
X1318898Y122047D01*
Y3937D02*
Y122047D01*
X1035433Y3937D02*
X1318898Y3937D01*
X1035433Y3937D02*
Y122047D01*
X495082Y78740D02*
Y177165D01*
X320866Y4683D02*
X466535D01*
X292326Y78740D02*
Y177165D01*
X452756D02*
X495082D01*
X292326D02*
X334652D01*
X868764Y1987992D02*
X875653Y1994882D01*
X832347D02*
X839236Y1987992D01*
X804787Y1928740D02*
Y1962598D01*
X868173Y1896457D02*
X875654D01*
X832346D02*
X839827D01*
X903213Y1928740D02*
Y1962598D01*
X875653Y1923228D02*
X875654Y1896457D01*
X832346D02*
X832347Y1923228D01*
X875653D01*
X1753992Y1232992D02*
X1878008D01*
X1753992D02*
Y1357008D01*
X1878008D01*
Y1232992D02*
Y1357008D01*
X635213Y3945D02*
Y122055D01*
Y3945D02*
X918677Y3945D01*
Y122055D01*
X635213Y122055D02*
X918677Y122055D01*
X717890Y-35425D02*
Y3945D01*
Y-35425D02*
X776945D01*
Y3945D01*
D83*
X5906Y572244D02*
Y821850D01*
X104331D01*
Y572244D02*
Y821850D01*
X5906Y572244D02*
X104331D01*
X1713016Y1070990D02*
Y1021006D01*
X1723013Y1011010D01*
X1743006D01*
X1753003Y1021006D01*
Y1070990D01*
X1812984Y1011010D02*
X1772997D01*
X1812984Y1050997D01*
Y1060994D01*
X1802987Y1070990D01*
X1782994D01*
X1772997Y1060994D01*
X1740000Y1282981D02*
Y1232997D01*
X1749997Y1223000D01*
X1769990D01*
X1779987Y1232997D01*
Y1282981D01*
X1799981Y1223000D02*
X1819974D01*
X1809977D01*
Y1282981D01*
X1799981Y1272984D01*
X1002032Y1623994D02*
X992036Y1633990D01*
X972042D01*
X962045Y1623994D01*
Y1613997D01*
X972042Y1604000D01*
X992036D01*
X1002032Y1594003D01*
Y1584006D01*
X992036Y1574010D01*
X972042D01*
X962045Y1584006D01*
X1022026Y1633990D02*
X1062013D01*
X1042019D01*
Y1574010D01*
X1082006D02*
Y1633990D01*
X1102000Y1613997D01*
X1121994Y1633990D01*
Y1574010D01*
X1141987Y1623994D02*
X1151984Y1633990D01*
X1171977D01*
X1181974Y1623994D01*
Y1613997D01*
X1171977Y1604000D01*
X1161981D01*
X1171977D01*
X1181974Y1594003D01*
Y1584006D01*
X1171977Y1574010D01*
X1151984D01*
X1141987Y1584006D01*
X1241955Y1574010D02*
X1201968D01*
X1241955Y1613997D01*
Y1623994D01*
X1231958Y1633990D01*
X1211965D01*
X1201968Y1623994D01*
X1166013Y590010D02*
Y649990D01*
X1196003D01*
X1206000Y639994D01*
Y620000D01*
X1196003Y610003D01*
X1166013D01*
X1186006D02*
X1206000Y590010D01*
X1225994D02*
X1245987D01*
X1235990D01*
Y649990D01*
X1225994Y639994D01*
X649003Y692994D02*
X639006Y702990D01*
X619013D01*
X609016Y692994D01*
Y653006D01*
X619013Y643010D01*
X639006D01*
X649003Y653006D01*
X668997D02*
X678994Y643010D01*
X698987D01*
X708984Y653006D01*
Y692994D01*
X698987Y702990D01*
X678994D01*
X668997Y692994D01*
Y682997D01*
X678994Y673000D01*
X708984D01*
X1298000Y580000D02*
Y639981D01*
X1327990D01*
X1337987Y629984D01*
Y609990D01*
X1327990Y599994D01*
X1298000D01*
X1317994D02*
X1337987Y580000D01*
X1397968Y639981D02*
X1377974Y629984D01*
X1357981Y609990D01*
Y589997D01*
X1367977Y580000D01*
X1387971D01*
X1397968Y589997D01*
Y599994D01*
X1387971Y609990D01*
X1357981D01*
X741000Y1756981D02*
Y1697000D01*
X780987D01*
X840968Y1756981D02*
X800981D01*
Y1726990D01*
X820974Y1736987D01*
X830971D01*
X840968Y1726990D01*
Y1706997D01*
X830971Y1697000D01*
X810977D01*
X800981Y1706997D01*
X1173016Y770020D02*
Y830000D01*
X1203006D01*
X1213003Y820004D01*
Y800010D01*
X1203006Y790013D01*
X1173016D01*
X1193010D02*
X1213003Y770020D01*
X1262987D02*
Y830000D01*
X1232997Y800010D01*
X1272984D01*
X325000Y516000D02*
Y575981D01*
X354990D01*
X364987Y565984D01*
Y545990D01*
X354990Y535994D01*
X325000D01*
X344993D02*
X364987Y516000D01*
X424968D02*
X384981D01*
X424968Y555987D01*
Y565984D01*
X414971Y575981D01*
X394977D01*
X384981Y565984D01*
X649859Y768833D02*
Y718849D01*
X659856Y708852D01*
X679849D01*
X689846Y718849D01*
Y768833D01*
X739830Y708852D02*
Y768833D01*
X709839Y738842D01*
X749826D01*
X419126Y717185D02*
Y657205D01*
X459113D01*
X519094D02*
X479106D01*
X519094Y697192D01*
Y707189D01*
X509097Y717185D01*
X489103D01*
X479106Y707189D01*
X399265Y537209D02*
Y477228D01*
X439252D01*
X459245D02*
X479239D01*
X469242D01*
Y537209D01*
X459245Y527212D01*
X852011Y655994D02*
X842015Y665990D01*
X822021D01*
X812024Y655994D01*
Y616006D01*
X822021Y606010D01*
X842015D01*
X852011Y616006D01*
X872005Y606010D02*
X891998D01*
X882002D01*
Y665990D01*
X872005Y655994D01*
X951979Y606010D02*
Y665990D01*
X921989Y636000D01*
X961976D01*
X909004Y434986D02*
X899007Y444982D01*
X879013D01*
X869016Y434986D01*
Y394999D01*
X879013Y385002D01*
X899007D01*
X909004Y394999D01*
X928997Y385002D02*
X948990D01*
X938994D01*
Y444982D01*
X928997Y434986D01*
X978981D02*
X988978Y444982D01*
X1008971D01*
X1018968Y434986D01*
Y424989D01*
X1008971Y414992D01*
X998974D01*
X1008971D01*
X1018968Y404995D01*
Y394999D01*
X1008971Y385002D01*
X988978D01*
X978981Y394999D01*
X787011Y299993D02*
X777015Y309990D01*
X757021D01*
X747024Y299993D01*
Y260007D01*
X757021Y250010D01*
X777015D01*
X787011Y260007D01*
X807005Y250010D02*
X826998D01*
X817002D01*
Y309990D01*
X807005Y299993D01*
X896976Y250010D02*
X856989D01*
X896976Y289997D01*
Y299993D01*
X886979Y309990D01*
X866986D01*
X856989Y299993D01*
X904008Y522994D02*
X894011Y532990D01*
X874018D01*
X864021Y522994D01*
Y483007D01*
X874018Y473010D01*
X894011D01*
X904008Y483007D01*
X924002Y473010D02*
X943995D01*
X933999D01*
Y532990D01*
X924002Y522994D01*
X973986Y473010D02*
X993979D01*
X983982D01*
Y532990D01*
X973986Y522994D01*
X481011Y612994D02*
X471015Y622990D01*
X451021D01*
X441024Y612994D01*
Y573006D01*
X451021Y563010D01*
X471015D01*
X481011Y573006D01*
X501005Y563010D02*
X520998D01*
X511002D01*
Y622990D01*
X501005Y612994D01*
X550989D02*
X560986Y622990D01*
X580979D01*
X590976Y612994D01*
Y573006D01*
X580979Y563010D01*
X560986D01*
X550989Y573006D01*
Y612994D01*
X663003Y299993D02*
X653006Y309990D01*
X633013D01*
X623016Y299993D01*
Y260007D01*
X633013Y250010D01*
X653006D01*
X663003Y260007D01*
X682997Y299993D02*
X692994Y309990D01*
X712987D01*
X722984Y299993D01*
Y289997D01*
X712987Y280000D01*
X722984Y270003D01*
Y260007D01*
X712987Y250010D01*
X692994D01*
X682997Y260007D01*
Y270003D01*
X692994Y280000D01*
X682997Y289997D01*
Y299993D01*
X692994Y280000D02*
X712987D01*
X418003Y360993D02*
X408007Y370990D01*
X388013D01*
X378016Y360993D01*
Y321007D01*
X388013Y311010D01*
X408007D01*
X418003Y321007D01*
X437997Y370990D02*
X477984D01*
Y360993D01*
X437997Y321007D01*
Y311010D01*
X676500Y1620481D02*
Y1610484D01*
X696494Y1590490D01*
X716487Y1610484D01*
Y1620481D01*
X696494Y1590490D02*
Y1560500D01*
X736481D02*
X756474D01*
X746477D01*
Y1620481D01*
X736481Y1610484D01*
X1749000Y1449981D02*
Y1399997D01*
X1758997Y1390000D01*
X1778990D01*
X1788987Y1399997D01*
Y1449981D01*
X1808981Y1439984D02*
X1818977Y1449981D01*
X1838971D01*
X1848968Y1439984D01*
Y1429987D01*
X1838971Y1419990D01*
X1828974D01*
X1838971D01*
X1848968Y1409994D01*
Y1399997D01*
X1838971Y1390000D01*
X1818977D01*
X1808981Y1399997D01*
X194500Y608481D02*
X234487D01*
X214494D01*
Y548500D01*
X254481D02*
Y608481D01*
X284471D01*
X294468Y598484D01*
Y578490D01*
X284471Y568494D01*
X254481D01*
X314461Y598484D02*
X324458Y608481D01*
X344452D01*
X354448Y598484D01*
Y588487D01*
X344452Y578490D01*
X354448Y568494D01*
Y558497D01*
X344452Y548500D01*
X324458D01*
X314461Y558497D01*
Y568494D01*
X324458Y578490D01*
X314461Y588487D01*
Y598484D01*
X324458Y578490D02*
X344452D01*
X428500Y402481D02*
X468487D01*
X448493D01*
Y342500D01*
X488481D02*
Y402481D01*
X518471D01*
X528468Y392484D01*
Y372490D01*
X518471Y362493D01*
X488481D01*
X548461Y392484D02*
X558458Y402481D01*
X578452D01*
X588448Y392484D01*
Y382487D01*
X578452Y372490D01*
X568455D01*
X578452D01*
X588448Y362493D01*
Y352497D01*
X578452Y342500D01*
X558458D01*
X548461Y352497D01*
X1743322Y1933885D02*
X1733325Y1943882D01*
X1713332D01*
X1703335Y1933885D01*
Y1923889D01*
X1713332Y1913892D01*
X1733325D01*
X1743322Y1903895D01*
Y1893898D01*
X1733325Y1883902D01*
X1713332D01*
X1703335Y1893898D01*
X1763315Y1943882D02*
Y1883902D01*
X1783309Y1903895D01*
X1803302Y1883902D01*
Y1943882D01*
X1823296Y1933885D02*
X1833293Y1943882D01*
X1853286D01*
X1863283Y1933885D01*
Y1923889D01*
X1853286Y1913892D01*
X1843289D01*
X1853286D01*
X1863283Y1903895D01*
Y1893898D01*
X1853286Y1883902D01*
X1833293D01*
X1823296Y1893898D01*
X682432Y272484D02*
X672435Y282481D01*
X652442D01*
X642445Y272484D01*
Y262487D01*
X652442Y252490D01*
X672435D01*
X682432Y242494D01*
Y232497D01*
X672435Y222500D01*
X652442D01*
X642445Y232497D01*
X702426Y282481D02*
Y222500D01*
X722419Y242494D01*
X742413Y222500D01*
Y282481D01*
X802393Y222500D02*
X762406D01*
X802393Y262487D01*
Y272484D01*
X792396Y282481D01*
X772403D01*
X762406Y272484D01*
X1099010Y257993D02*
X1089013Y267990D01*
X1069020D01*
X1059023Y257993D01*
Y247997D01*
X1069020Y238000D01*
X1089013D01*
X1099010Y228003D01*
Y218006D01*
X1089013Y208010D01*
X1069020D01*
X1059023Y218006D01*
X1119003Y267990D02*
Y208010D01*
X1138997Y228003D01*
X1158990Y208010D01*
Y267990D01*
X1178984Y208010D02*
X1198977D01*
X1188981D01*
Y267990D01*
X1178984Y257993D01*
X425987Y1057384D02*
X415990Y1067381D01*
X395997D01*
X386000Y1057384D01*
Y1047387D01*
X395997Y1037390D01*
X415990D01*
X425987Y1027393D01*
Y1017397D01*
X415990Y1007400D01*
X395997D01*
X386000Y1017397D01*
X445981Y1067381D02*
Y1007400D01*
X475971D01*
X485968Y1017397D01*
Y1027393D01*
X475971Y1037390D01*
X445981D01*
X475971D01*
X485968Y1047387D01*
Y1057384D01*
X475971Y1067381D01*
X445981D01*
X505961Y1007400D02*
X525955D01*
X515958D01*
Y1067381D01*
X505961Y1057384D01*
X460024Y1527010D02*
Y1586990D01*
X490015D01*
X500011Y1576994D01*
Y1557000D01*
X490015Y1547003D01*
X460024D01*
X480018D02*
X500011Y1527010D01*
X520005D02*
X539998D01*
X530002D01*
Y1586990D01*
X520005Y1576994D01*
X569989Y1537006D02*
X579986Y1527010D01*
X599979D01*
X609976Y1537006D01*
Y1576994D01*
X599979Y1586990D01*
X579986D01*
X569989Y1576994D01*
Y1566997D01*
X579986Y1557000D01*
X609976D01*
X444024Y1081010D02*
Y1140990D01*
X474015D01*
X484011Y1130994D01*
Y1111000D01*
X474015Y1101003D01*
X444024D01*
X464018D02*
X484011Y1081010D01*
X504005D02*
X523998D01*
X514002D01*
Y1140990D01*
X504005Y1130994D01*
X553989D02*
X563986Y1140990D01*
X583979D01*
X593976Y1130994D01*
Y1120997D01*
X583979Y1111000D01*
X593976Y1101003D01*
Y1091006D01*
X583979Y1081010D01*
X563986D01*
X553989Y1091006D01*
Y1101003D01*
X563986Y1111000D01*
X553989Y1120997D01*
Y1130994D01*
X563986Y1111000D02*
X583979D01*
X42976Y1177990D02*
Y1118009D01*
X12985D01*
X2989Y1128006D01*
Y1148000D01*
X12985Y1157997D01*
X42976D01*
X22982D02*
X2989Y1177990D01*
X-17005D02*
X-36998D01*
X-27002D01*
Y1118009D01*
X-17005Y1128006D01*
X-66989Y1118009D02*
X-106976D01*
Y1128006D01*
X-66989Y1167993D01*
Y1177990D01*
X41024Y1503010D02*
Y1562990D01*
X71015D01*
X81011Y1552994D01*
Y1533000D01*
X71015Y1523003D01*
X41024D01*
X61018D02*
X81011Y1503010D01*
X101005D02*
X120998D01*
X111002D01*
Y1562990D01*
X101005Y1552994D01*
X190976Y1562990D02*
X170982Y1552994D01*
X150989Y1533000D01*
Y1513006D01*
X160986Y1503010D01*
X180979D01*
X190976Y1513006D01*
Y1523003D01*
X180979Y1533000D01*
X150989D01*
X1157622Y393551D02*
Y453532D01*
X1187612D01*
X1197609Y443535D01*
Y423541D01*
X1187612Y413545D01*
X1157622D01*
X1177616D02*
X1197609Y393551D01*
X1217603D02*
X1237596D01*
X1227599D01*
Y453532D01*
X1217603Y443535D01*
X1307573Y453532D02*
X1267586D01*
Y423541D01*
X1287580Y433538D01*
X1297577D01*
X1307573Y423541D01*
Y403548D01*
X1297577Y393551D01*
X1277583D01*
X1267586Y403548D01*
X1204500Y391500D02*
Y451481D01*
X1234490D01*
X1244487Y441484D01*
Y421490D01*
X1234490Y411493D01*
X1204500D01*
X1224494D02*
X1244487Y391500D01*
X1264481D02*
X1284474D01*
X1274477D01*
Y451481D01*
X1264481Y441484D01*
X1344455Y391500D02*
Y451481D01*
X1314464Y421490D01*
X1354451D01*
X811000Y402000D02*
Y461981D01*
X840990D01*
X850987Y451984D01*
Y431990D01*
X840990Y421993D01*
X811000D01*
X830994D02*
X850987Y402000D01*
X870981D02*
X890974D01*
X880977D01*
Y461981D01*
X870981Y451984D01*
X920964D02*
X930961Y461981D01*
X950955D01*
X960952Y451984D01*
Y441987D01*
X950955Y431990D01*
X940958D01*
X950955D01*
X960952Y421993D01*
Y411997D01*
X950955Y402000D01*
X930961D01*
X920964Y411997D01*
X953604Y575551D02*
Y635532D01*
X983595D01*
X993591Y625535D01*
Y605542D01*
X983595Y595545D01*
X953604D01*
X973598D02*
X993591Y575551D01*
X1013585D02*
X1033578D01*
X1023582D01*
Y635532D01*
X1013585Y625535D01*
X1103556Y575551D02*
X1063569D01*
X1103556Y615538D01*
Y625535D01*
X1093559Y635532D01*
X1073565D01*
X1063569Y625535D01*
X1166020Y687000D02*
Y746981D01*
X1196010D01*
X1206007Y736984D01*
Y716990D01*
X1196010Y706994D01*
X1166020D01*
X1186014D02*
X1206007Y687000D01*
X1226001D02*
X1245994D01*
X1235997D01*
Y746981D01*
X1226001Y736984D01*
X1275984Y687000D02*
X1295978D01*
X1285981D01*
Y746981D01*
X1275984Y736984D01*
X1066020Y690010D02*
Y749991D01*
X1096010D01*
X1106007Y739994D01*
Y720000D01*
X1096010Y710004D01*
X1066020D01*
X1086014D02*
X1106007Y690010D01*
X1126001D02*
X1145994D01*
X1135997D01*
Y749991D01*
X1126001Y739994D01*
X1175984D02*
X1185981Y749991D01*
X1205975D01*
X1215972Y739994D01*
Y700007D01*
X1205975Y690010D01*
X1185981D01*
X1175984Y700007D01*
Y739994D01*
X1008929Y575953D02*
Y635933D01*
X1038919D01*
X1048916Y625937D01*
Y605943D01*
X1038919Y595946D01*
X1008929D01*
X1028923D02*
X1048916Y575953D01*
X1068910Y585950D02*
X1078907Y575953D01*
X1098900D01*
X1108897Y585950D01*
Y625937D01*
X1098900Y635933D01*
X1078907D01*
X1068910Y625937D01*
Y615940D01*
X1078907Y605943D01*
X1108897D01*
X1228488Y688323D02*
Y748303D01*
X1258478D01*
X1268475Y738307D01*
Y718313D01*
X1258478Y708316D01*
X1228488D01*
X1248482D02*
X1268475Y688323D01*
X1288469Y738307D02*
X1298466Y748303D01*
X1318459D01*
X1328456Y738307D01*
Y728310D01*
X1318459Y718313D01*
X1328456Y708316D01*
Y698320D01*
X1318459Y688323D01*
X1298466D01*
X1288469Y698320D01*
Y708316D01*
X1298466Y718313D01*
X1288469Y728310D01*
Y738307D01*
X1298466Y718313D02*
X1318459D01*
X1194016Y603010D02*
Y662990D01*
X1224006D01*
X1234003Y652994D01*
Y633000D01*
X1224006Y623003D01*
X1194016D01*
X1214010D02*
X1234003Y603010D01*
X1253997Y662990D02*
X1293984D01*
Y652994D01*
X1253997Y613006D01*
Y603010D01*
X1067331Y579764D02*
Y639744D01*
X1097321D01*
X1107318Y629748D01*
Y609754D01*
X1097321Y599757D01*
X1067331D01*
X1087324D02*
X1107318Y579764D01*
X1167299Y639744D02*
X1127311D01*
Y609754D01*
X1147305Y619751D01*
X1157302D01*
X1167299Y609754D01*
Y589761D01*
X1157302Y579764D01*
X1137308D01*
X1127311Y589761D01*
X1011364Y685010D02*
Y744991D01*
X1041355D01*
X1051351Y734994D01*
Y715000D01*
X1041355Y705004D01*
X1011364D01*
X1031358D02*
X1051351Y685010D01*
X1071345Y734994D02*
X1081342Y744991D01*
X1101335D01*
X1111332Y734994D01*
Y724997D01*
X1101335Y715000D01*
X1091339D01*
X1101335D01*
X1111332Y705004D01*
Y695007D01*
X1101335Y685010D01*
X1081342D01*
X1071345Y695007D01*
X109997Y1352993D02*
Y1313006D01*
X119993Y1303009D01*
X139987D01*
X149984Y1313006D01*
Y1352993D01*
X139987Y1362990D01*
X119993D01*
X129990Y1342997D02*
X109997Y1362990D01*
X119993D02*
X109997Y1352993D01*
X90003Y1313006D02*
X80006Y1303009D01*
X60013D01*
X50016Y1313006D01*
Y1323003D01*
X60013Y1333000D01*
X70010D01*
X60013D01*
X50016Y1342997D01*
Y1352993D01*
X60013Y1362990D01*
X80006D01*
X90003Y1352993D01*
X385119Y1199949D02*
X384888Y1239935D01*
X374833Y1249874D01*
X354840Y1249758D01*
X344901Y1239704D01*
X345133Y1199717D01*
X355187Y1189779D01*
X375180Y1189894D01*
X365068Y1209830D02*
X385177Y1189952D01*
X375180Y1189894D02*
X385119Y1199949D01*
X445157Y1190300D02*
X405170Y1190068D01*
X444925Y1230286D01*
X444867Y1240283D01*
X434813Y1250221D01*
X414820Y1250106D01*
X404881Y1240051D01*
X1103987Y400776D02*
Y440763D01*
X1093990Y450760D01*
X1073997D01*
X1064000Y440763D01*
Y400776D01*
X1073997Y390779D01*
X1093990D01*
X1083994Y410773D02*
X1103987Y390779D01*
X1093990D02*
X1103987Y400776D01*
X1123981Y390779D02*
X1143974D01*
X1133977D01*
Y450760D01*
X1123981Y440763D01*
X-106559Y877961D02*
Y937941D01*
X-76569D01*
X-66572Y927944D01*
Y907951D01*
X-76569Y897954D01*
X-106559D01*
X-46578Y877961D02*
X-26585D01*
X-36582D01*
Y937941D01*
X-46578Y927944D01*
X981016Y2062990D02*
Y2003010D01*
X1021003D01*
X1070987D02*
Y2062990D01*
X1040997Y2033000D01*
X1080984D01*
X453500Y1101481D02*
Y1041500D01*
X493487D01*
X513481Y1091484D02*
X523477Y1101481D01*
X543471D01*
X553468Y1091484D01*
Y1081487D01*
X543471Y1071490D01*
X533474D01*
X543471D01*
X553468Y1061494D01*
Y1051497D01*
X543471Y1041500D01*
X523477D01*
X513481Y1051497D01*
X1430003Y264990D02*
X1410010D01*
X1420006D01*
Y215006D01*
X1410010Y205010D01*
X1400013D01*
X1390016Y215006D01*
X1449997Y254994D02*
X1459994Y264990D01*
X1479987D01*
X1489984Y254994D01*
Y244997D01*
X1479987Y235000D01*
X1469990D01*
X1479987D01*
X1489984Y225003D01*
Y215006D01*
X1479987Y205010D01*
X1459994D01*
X1449997Y215006D01*
X707003Y1984990D02*
X687010D01*
X697006D01*
Y1935006D01*
X687010Y1925010D01*
X677013D01*
X667016Y1935006D01*
X766984Y1925010D02*
X726997D01*
X766984Y1964997D01*
Y1974994D01*
X756987Y1984990D01*
X736994D01*
X726997Y1974994D01*
X273000Y274990D02*
X253006D01*
X263003D01*
Y225006D01*
X253006Y215010D01*
X243010D01*
X233013Y225006D01*
X292994Y215010D02*
X312987D01*
X302990D01*
Y274990D01*
X292994Y264993D01*
X12023Y1047990D02*
Y988010D01*
X42013D01*
X52010Y998006D01*
Y1037994D01*
X42013Y1047990D01*
X12023D01*
X111990Y1037994D02*
X101994Y1047990D01*
X82000D01*
X72003Y1037994D01*
Y1027997D01*
X82000Y1018000D01*
X101994D01*
X111990Y1008003D01*
Y998006D01*
X101994Y988010D01*
X82000D01*
X72003Y998006D01*
X131984Y988010D02*
X151977D01*
X141981D01*
Y1047990D01*
X131984Y1037994D01*
X37441Y1544382D02*
Y1484402D01*
X67431D01*
X77428Y1494399D01*
Y1534386D01*
X67431Y1544382D01*
X37441D01*
X97421Y1484402D02*
X117415D01*
X107418D01*
Y1544382D01*
X97421Y1534386D01*
X1571814Y1640826D02*
X1561817Y1650823D01*
X1541823D01*
X1531827Y1640826D01*
Y1600839D01*
X1541823Y1590842D01*
X1561817D01*
X1571814Y1600839D01*
X1631794Y1590842D02*
X1591807D01*
X1631794Y1630830D01*
Y1640826D01*
X1621798Y1650823D01*
X1601804D01*
X1591807Y1640826D01*
X1651788Y1650823D02*
X1691775D01*
Y1640826D01*
X1651788Y1600839D01*
Y1590842D01*
X664013Y1655994D02*
X654016Y1665990D01*
X634023D01*
X624026Y1655994D01*
Y1616006D01*
X634023Y1606010D01*
X654016D01*
X664013Y1616006D01*
X723994Y1606010D02*
X684006D01*
X723994Y1645997D01*
Y1655994D01*
X713997Y1665990D01*
X694003D01*
X684006Y1655994D01*
X783974Y1665990D02*
X763981Y1655994D01*
X743987Y1636000D01*
Y1616006D01*
X753984Y1606010D01*
X773977D01*
X783974Y1616006D01*
Y1626003D01*
X773977Y1636000D01*
X743987D01*
X683013Y2094994D02*
X673016Y2104990D01*
X653023D01*
X643026Y2094994D01*
Y2055006D01*
X653023Y2045010D01*
X673016D01*
X683013Y2055006D01*
X742994Y2045010D02*
X703006D01*
X742994Y2084997D01*
Y2094994D01*
X732997Y2104990D01*
X713003D01*
X703006Y2094994D01*
X802974Y2104990D02*
X762987D01*
Y2075000D01*
X782981Y2084997D01*
X792977D01*
X802974Y2075000D01*
Y2055006D01*
X792977Y2045010D01*
X772984D01*
X762987Y2055006D01*
X424487Y1214484D02*
X414490Y1224481D01*
X394497D01*
X384500Y1214484D01*
Y1174497D01*
X394497Y1164500D01*
X414490D01*
X424487Y1174497D01*
X484468Y1164500D02*
X444481D01*
X484468Y1204487D01*
Y1214484D01*
X474471Y1224481D01*
X454477D01*
X444481Y1214484D01*
X534452Y1164500D02*
Y1224481D01*
X504461Y1194490D01*
X544448D01*
X1421987Y911984D02*
X1411990Y921981D01*
X1391997D01*
X1382000Y911984D01*
Y871997D01*
X1391997Y862000D01*
X1411990D01*
X1421987Y871997D01*
X1481968Y862000D02*
X1441981D01*
X1481968Y901987D01*
Y911984D01*
X1471971Y921981D01*
X1451977D01*
X1441981Y911984D01*
X1501961D02*
X1511958Y921981D01*
X1531951D01*
X1541948Y911984D01*
Y901987D01*
X1531951Y891990D01*
X1521955D01*
X1531951D01*
X1541948Y881994D01*
Y871997D01*
X1531951Y862000D01*
X1511958D01*
X1501961Y871997D01*
X1361487Y912484D02*
X1351490Y922481D01*
X1331497D01*
X1321500Y912484D01*
Y872497D01*
X1331497Y862500D01*
X1351490D01*
X1361487Y872497D01*
X1421468Y862500D02*
X1381481D01*
X1421468Y902487D01*
Y912484D01*
X1411471Y922481D01*
X1391477D01*
X1381481Y912484D01*
X1481448Y862500D02*
X1441461D01*
X1481448Y902487D01*
Y912484D01*
X1471451Y922481D01*
X1451458D01*
X1441461Y912484D01*
X1300078Y912570D02*
X1290081Y922567D01*
X1270087D01*
X1260091Y912570D01*
Y872583D01*
X1270087Y862587D01*
X1290081D01*
X1300078Y872583D01*
X1360058Y862587D02*
X1320071D01*
X1360058Y902574D01*
Y912570D01*
X1350062Y922567D01*
X1330068D01*
X1320071Y912570D01*
X1380052Y862587D02*
X1400045D01*
X1390049D01*
Y922567D01*
X1380052Y912570D01*
X1237085D02*
X1227089Y922567D01*
X1207095D01*
X1197098Y912570D01*
Y872583D01*
X1207095Y862587D01*
X1227089D01*
X1237085Y872583D01*
X1297066Y862587D02*
X1257079D01*
X1297066Y902574D01*
Y912570D01*
X1287069Y922567D01*
X1267076D01*
X1257079Y912570D01*
X1317060D02*
X1327056Y922567D01*
X1347050D01*
X1357047Y912570D01*
Y872583D01*
X1347050Y862587D01*
X1327056D01*
X1317060Y872583D01*
Y912570D01*
X1174093D02*
X1164097Y922567D01*
X1144103D01*
X1134106Y912570D01*
Y872583D01*
X1144103Y862587D01*
X1164097D01*
X1174093Y872583D01*
X1194087Y862587D02*
X1214080D01*
X1204084D01*
Y922567D01*
X1194087Y912570D01*
X1244071Y872583D02*
X1254068Y862587D01*
X1274061D01*
X1284058Y872583D01*
Y912570D01*
X1274061Y922567D01*
X1254068D01*
X1244071Y912570D01*
Y902574D01*
X1254068Y892577D01*
X1284058D01*
X1111101Y912570D02*
X1101104Y922567D01*
X1081111D01*
X1071114Y912570D01*
Y872583D01*
X1081111Y862587D01*
X1101104D01*
X1111101Y872583D01*
X1131095Y862587D02*
X1151088D01*
X1141092D01*
Y922567D01*
X1131095Y912570D01*
X1181079D02*
X1191075Y922567D01*
X1211069D01*
X1221066Y912570D01*
Y902574D01*
X1211069Y892577D01*
X1221066Y882580D01*
Y872583D01*
X1211069Y862587D01*
X1191075D01*
X1181079Y872583D01*
Y882580D01*
X1191075Y892577D01*
X1181079Y902574D01*
Y912570D01*
X1191075Y892577D02*
X1211069D01*
X1048109Y912570D02*
X1038112Y922567D01*
X1018119D01*
X1008122Y912570D01*
Y872583D01*
X1018119Y862587D01*
X1038112D01*
X1048109Y872583D01*
X1068103Y862587D02*
X1088096D01*
X1078099D01*
Y922567D01*
X1068103Y912570D01*
X1118086Y922567D02*
X1158073D01*
Y912570D01*
X1118086Y872583D01*
Y862587D01*
X1360487Y441484D02*
X1350490Y451481D01*
X1330497D01*
X1320500Y441484D01*
Y401497D01*
X1330497Y391500D01*
X1350490D01*
X1360487Y401497D01*
X1380481Y391500D02*
X1400474D01*
X1390477D01*
Y451481D01*
X1380481Y441484D01*
X1470451Y451481D02*
X1450458Y441484D01*
X1430464Y421490D01*
Y401497D01*
X1440461Y391500D01*
X1460455D01*
X1470451Y401497D01*
Y411493D01*
X1460455Y421490D01*
X1430464D01*
X1298487Y442484D02*
X1288490Y452481D01*
X1268497D01*
X1258500Y442484D01*
Y402497D01*
X1268497Y392500D01*
X1288490D01*
X1298487Y402497D01*
X1318481Y392500D02*
X1338474D01*
X1328477D01*
Y452481D01*
X1318481Y442484D01*
X1408451Y452481D02*
X1368464D01*
Y422490D01*
X1388458Y432487D01*
X1398455D01*
X1408451Y422490D01*
Y402497D01*
X1398455Y392500D01*
X1378461D01*
X1368464Y402497D01*
X1559920Y1329893D02*
X1549923Y1339890D01*
X1529930D01*
X1519933Y1329893D01*
Y1289906D01*
X1529930Y1279909D01*
X1549923D01*
X1559920Y1289906D01*
X1619901Y1339890D02*
X1599907Y1329893D01*
X1579914Y1309900D01*
Y1289906D01*
X1589910Y1279909D01*
X1609904D01*
X1619901Y1289906D01*
Y1299903D01*
X1609904Y1309900D01*
X1579914D01*
X1563857Y1266901D02*
X1553860Y1276898D01*
X1533867D01*
X1523870Y1266901D01*
Y1226914D01*
X1533867Y1216917D01*
X1553860D01*
X1563857Y1226914D01*
X1623838Y1276898D02*
X1583851D01*
Y1246908D01*
X1603844Y1256904D01*
X1613841D01*
X1623838Y1246908D01*
Y1226914D01*
X1613841Y1216917D01*
X1593848D01*
X1583851Y1226914D01*
X1561357Y1205346D02*
X1551360Y1215343D01*
X1531367D01*
X1521370Y1205346D01*
Y1165359D01*
X1531367Y1155362D01*
X1551360D01*
X1561357Y1165359D01*
X1611341Y1155362D02*
Y1215343D01*
X1581351Y1185352D01*
X1621338D01*
X1572003Y1160994D02*
X1562006Y1170990D01*
X1542013D01*
X1532016Y1160994D01*
Y1121006D01*
X1542013Y1111010D01*
X1562006D01*
X1572003Y1121006D01*
X1591997Y1160994D02*
X1601994Y1170990D01*
X1621987D01*
X1631984Y1160994D01*
Y1150997D01*
X1621987Y1141000D01*
X1611990D01*
X1621987D01*
X1631984Y1131003D01*
Y1121006D01*
X1621987Y1111010D01*
X1601994D01*
X1591997Y1121006D01*
X1568475Y1496685D02*
X1558478Y1506681D01*
X1538485D01*
X1528488Y1496685D01*
Y1456698D01*
X1538485Y1446701D01*
X1558478D01*
X1568475Y1456698D01*
X1628456Y1446701D02*
X1588469D01*
X1628456Y1486688D01*
Y1496685D01*
X1618459Y1506681D01*
X1598466D01*
X1588469Y1496685D01*
X1567987Y1566984D02*
X1557990Y1576981D01*
X1537997D01*
X1528000Y1566984D01*
Y1526997D01*
X1537997Y1517000D01*
X1557990D01*
X1567987Y1526997D01*
X1587981Y1517000D02*
X1607974D01*
X1597977D01*
Y1576981D01*
X1587981Y1566984D01*
D94*
X1883945Y984504D02*
G03*
X1883945Y984504I-4921J0D01*
G01*
X1879945Y1183504D02*
G03*
X1879945Y1183504I-4921J0D01*
G01*
X67913Y1333661D02*
G03*
X67913Y1333661I-4921J0D01*
G01*
X680992Y1453347D02*
G03*
X680992Y1453347I-4921J0D01*
G01*
X1748087Y1225118D02*
G03*
X1748087Y1225118I-1968J0D01*
G01*
D95*
X610472Y536850D02*
G03*
X610472Y536850I-1968J0D01*
G01*
X31496Y1368110D02*
Y1435039D01*
X94488Y1368110D02*
Y1435039D01*
X701661Y1526181D02*
X784339D01*
X701661Y1423819D02*
X784339D01*
D96*
X1885858Y1662402D02*
G03*
X1885858Y1662402I-63023J0D01*
G01*
X1443607Y179157D02*
X1462307D01*
X1720181D02*
X1738882D01*
X1443607Y-14740D02*
X1738882D01*
X1704724Y1544291D02*
Y1780512D01*
X1940945D01*
Y1544291D02*
Y1780512D01*
X1704724Y1544291D02*
X1940945D01*
X148031Y841929D02*
Y828600D01*
Y835265D01*
X188018D01*
X181354Y841929D01*
D97*
X1060362Y314331D02*
G03*
X1060362Y314331I-1968J0D01*
G01*
D98*
X908724Y2090173D02*
Y2111827D01*
X38252Y1137039D02*
X69748D01*
D99*
X519724Y448541D02*
X539409D01*
X519724Y387911D02*
X539409D01*
X615984Y430945D02*
X714409D01*
Y529370D01*
X615984Y430945D02*
Y529370D01*
X714409D01*
X467221Y611315D02*
X486906D01*
X467221Y550685D02*
X486906D01*
D100*
X1738882Y99433D02*
Y179157D01*
X1443607Y99433D02*
Y179157D01*
Y-14740D02*
Y27583D01*
X1738882Y-14740D02*
Y27583D01*
D101*
X1106102Y1233550D02*
X1112661D01*
Y1238470D01*
X1109382D01*
X1112661D01*
Y1243390D01*
X1102822Y1236830D02*
Y1243390D01*
Y1240110D01*
X1101182Y1238470D01*
X1099542Y1236830D01*
X1097902D01*
X1091343D02*
X1088063D01*
X1086423Y1238470D01*
Y1243390D01*
X1091343D01*
X1092983Y1241750D01*
X1091343Y1240110D01*
X1086423D01*
X1083144Y1243390D02*
Y1236830D01*
X1078224D01*
X1076584Y1238470D01*
Y1243390D01*
X1063465D02*
Y1236830D01*
X1060185Y1233550D01*
X1056906Y1236830D01*
Y1243390D01*
Y1238470D01*
X1063465D01*
X1047066Y1236830D02*
X1051986D01*
X1053626Y1238470D01*
Y1241750D01*
X1051986Y1243390D01*
X1047066D01*
X1043786D02*
X1040507D01*
X1042147D01*
Y1236830D01*
X1043786D01*
X1030667Y1243390D02*
X1033947D01*
X1035587Y1241750D01*
Y1238470D01*
X1033947Y1236830D01*
X1030667D01*
X1029027Y1238470D01*
Y1240110D01*
X1035587D01*
X1025748Y1243390D02*
Y1236830D01*
X1020828D01*
X1019188Y1238470D01*
Y1243390D01*
X1006069Y1236830D02*
Y1241750D01*
X1004429Y1243390D01*
X999510D01*
Y1245030D01*
X1001149Y1246669D01*
X1002789D01*
X999510Y1243390D02*
Y1236830D01*
X986390Y1233550D02*
Y1243390D01*
X981471D01*
X979831Y1241750D01*
Y1240110D01*
X981471Y1238470D01*
X986390D01*
X981471D01*
X979831Y1236830D01*
Y1235190D01*
X981471Y1233550D01*
X986390D01*
X971631Y1243390D02*
X974911D01*
X976551Y1241750D01*
Y1238470D01*
X974911Y1236830D01*
X971631D01*
X969992Y1238470D01*
Y1240110D01*
X976551D01*
X965072Y1236830D02*
X961792D01*
X960152Y1238470D01*
Y1243390D01*
X965072D01*
X966712Y1241750D01*
X965072Y1240110D01*
X960152D01*
X955233Y1235190D02*
Y1236830D01*
X956873D01*
X953593D01*
X955233D01*
Y1241750D01*
X953593Y1243390D01*
X948673Y1236830D02*
Y1243390D01*
Y1240110D01*
X947033Y1238470D01*
X945393Y1236830D01*
X943754D01*
X938834Y1243390D02*
X935554D01*
X937194D01*
Y1236830D01*
X938834D01*
X930635D02*
X924075D01*
X930635Y1243390D01*
X924075D01*
X910956Y1238470D02*
X904396D01*
X884718Y1233550D02*
X891277D01*
Y1238470D01*
X887997D01*
X891277D01*
Y1243390D01*
X874879Y1233550D02*
X881438D01*
Y1243390D01*
X874879D01*
X881438Y1238470D02*
X878158D01*
X865039Y1233550D02*
X871599D01*
Y1243390D01*
X865039D01*
X871599Y1238470D02*
X868319D01*
X861759Y1233550D02*
Y1243390D01*
X855200D01*
X835521D02*
X842081D01*
X835521Y1236830D01*
Y1235190D01*
X837161Y1233550D01*
X840441D01*
X842081Y1235190D01*
X832241D02*
X830602Y1233550D01*
X827322D01*
X825682Y1235190D01*
Y1241750D01*
X827322Y1243390D01*
X830602D01*
X832241Y1241750D01*
Y1235190D01*
X815843Y1243390D02*
X822402D01*
X815843Y1236830D01*
Y1235190D01*
X817482Y1233550D01*
X820762D01*
X822402Y1235190D01*
X812563D02*
X810923Y1233550D01*
X807643D01*
X806003Y1235190D01*
Y1241750D01*
X807643Y1243390D01*
X810923D01*
X812563Y1241750D01*
Y1235190D01*
D102*
X1591244Y-7836D02*
D03*
%TF.MD5,b1a98f90038dad3cf2d5e10c6ea214ba*%
M02*
