G04*
G04 #@! TF.GenerationSoftware,Altium Limited,Altium Designer,20.2.4 (192)*
G04*
G04 Layer_Color=255*
%FSLAX25Y25*%
%MOIN*%
G70*
G04*
G04 #@! TF.SameCoordinates,C82156A4-65EB-44BA-A6C3-424022D268A2*
G04*
G04*
G04 #@! TF.FilePolarity,Positive*
G04*
G01*
G75*
%ADD109C,0.03937*%
%ADD110C,0.07874*%
%ADD111C,0.03347*%
%ADD112O,0.03543X0.06299*%
%ADD113C,0.04016*%
D109*
X160500Y30500D02*
D03*
X62000Y23100D02*
D03*
X67200Y128800D02*
D03*
X142700Y35000D02*
D03*
X160200Y39800D02*
D03*
X91700Y114800D02*
D03*
X133800Y21900D02*
D03*
X39400Y39900D02*
D03*
X107900Y23300D02*
D03*
X57800Y7300D02*
D03*
X90900Y59500D02*
D03*
X110300Y119500D02*
D03*
X91000Y45300D02*
D03*
X93400Y75000D02*
D03*
X45100Y28000D02*
D03*
X21700Y48600D02*
D03*
X192000Y5000D02*
D03*
Y270700D02*
D03*
X5100Y270000D02*
D03*
D110*
X13500Y190400D02*
D03*
X10300Y15800D02*
D03*
X186100Y15600D02*
D03*
D111*
X123622Y6299D02*
D03*
X111811Y6299D02*
D03*
X71789Y6300D02*
D03*
X83600Y6300D02*
D03*
D112*
X172117Y6400D02*
D03*
X146132D02*
D03*
D113*
X5512Y77205D02*
D03*
Y62205D02*
D03*
M02*
