M48
;Layer_Color=9474304
;FILE_FORMAT=2:5
INCH,LZ
;TYPE=PLATED
T1F00S00C0.00394
T2F00S00C0.00787
;TYPE=NON_PLATED
%
T01
X0062583Y0044079
X0064157Y0050378
T02
X00288Y00425
X00433Y0051
X00814Y00469
X0097Y00425
X01136Y00497
X01124Y0032
X01173Y00229
X01336Y004
X01519Y0031
X0167Y00267
X00793Y00242
X00967Y01024
X00859Y012
X00794Y0126
X00674Y01416
X00666Y01496
X00699Y01646
X0075461Y0196987
X00937Y02038
X01078Y01597
X01111Y01555
X01187Y01481
Y01398
X01096Y01244
X01724Y01273
X01826Y01377
X01902Y01417
X01911Y01111
X01917Y01015
X01914Y00925
X01847Y00786
X01464Y00805
X01537Y00998
X0148Y01536
X01904Y01922
X00284Y01291
X00345Y01112
M30
