%TF.GenerationSoftware,Altium Limited,Altium Designer,20.2.4 (192)*%
G04 Layer_Color=16711935*
%FSLAX26Y26*%
%MOIN*%
%TF.SameCoordinates,397090C4-8786-4783-B811-474920FB5975*%
%TF.FilePolarity,Negative*%
%TF.FileFunction,Soldermask,Bot*%
%TF.Part,Single*%
G01*
G75*
%TA.AperFunction,SMDPad,CuDef*%
%ADD84C,0.045276*%
%TA.AperFunction,ViaPad*%
%ADD85C,0.045276*%
%ADD86C,0.084646*%
%TA.AperFunction,ComponentPad*%
%ADD87C,0.039370*%
%ADD88O,0.041339X0.068898*%
%ADD89C,0.046063*%
%TA.AperFunction,ViaPad*%
%ADD90C,0.023622*%
%ADD91C,0.020866*%
%ADD92C,0.055906*%
%ADD93C,0.013780*%
D84*
X1605000Y305000D02*
D03*
X620000Y231000D02*
D03*
X672000Y1288000D02*
D03*
X1427000Y350000D02*
D03*
X1602000Y398000D02*
D03*
X917000Y1148000D02*
D03*
X1338000Y219000D02*
D03*
X394000Y399000D02*
D03*
X1079000Y233000D02*
D03*
X578000Y73000D02*
D03*
X909000Y595000D02*
D03*
X1103000Y1195000D02*
D03*
X910000Y453000D02*
D03*
X934000Y750000D02*
D03*
X451000Y280000D02*
D03*
X217000Y486000D02*
D03*
X1920000Y50000D02*
D03*
D85*
Y2707000D02*
D03*
X51000Y2700000D02*
D03*
D86*
X135000Y1904000D02*
D03*
X103000Y158000D02*
D03*
X1861000Y156000D02*
D03*
D87*
X1236220Y62992D02*
D03*
X1118110Y62992D02*
D03*
X717890Y63000D02*
D03*
X836000Y63000D02*
D03*
D88*
X1721166Y64000D02*
D03*
X1461323D02*
D03*
D89*
X55118Y772047D02*
D03*
Y622047D02*
D03*
D90*
X1798315Y899685D02*
D03*
X883000Y997000D02*
D03*
X880976Y964000D02*
D03*
X1084000Y429000D02*
D03*
X1027000Y358000D02*
D03*
X728000Y1346000D02*
D03*
X903000Y509000D02*
D03*
X920000Y406000D02*
D03*
X289000Y474000D02*
D03*
X610000Y397000D02*
D03*
X609000Y142000D02*
D03*
X721000Y212000D02*
D03*
X950000Y1214000D02*
D03*
X1448000Y279000D02*
D03*
X617000Y1376000D02*
D03*
X798000Y1198000D02*
D03*
X848000Y784000D02*
D03*
X574000Y839000D02*
D03*
X1033000Y947000D02*
D03*
X342000Y961000D02*
D03*
X857000Y749000D02*
D03*
X826000Y1173000D02*
D03*
X614000Y1115000D02*
D03*
X1221000Y243000D02*
D03*
X504000Y274000D02*
D03*
X999000Y213000D02*
D03*
X867000Y346000D02*
D03*
X841362Y864362D02*
D03*
X752000Y844000D02*
D03*
X902000Y1020000D02*
D03*
X467000Y1407000D02*
D03*
X1137000Y1349000D02*
D03*
X1418500Y1399500D02*
D03*
X1730685Y1070315D02*
D03*
X1132000Y1624000D02*
D03*
X1797756Y1342244D02*
D03*
X1639000Y1268000D02*
D03*
X1684000Y1313000D02*
D03*
X1365000Y969000D02*
D03*
X1794315Y1185685D02*
D03*
X1187000Y1427000D02*
D03*
X1630000Y1032000D02*
D03*
X1692000Y1011000D02*
D03*
X902000Y1046000D02*
D03*
X1365000Y994000D02*
D03*
X1685000Y871000D02*
D03*
X1187000Y1369000D02*
D03*
X1709000Y912000D02*
D03*
Y1086000D02*
D03*
X392000Y253000D02*
D03*
X757000Y630000D02*
D03*
X753000Y728000D02*
D03*
X1048000Y1572000D02*
D03*
X730000Y755000D02*
D03*
X719114Y717114D02*
D03*
X1022000Y1575000D02*
D03*
X434000Y464000D02*
D03*
X689000Y381000D02*
D03*
X727551Y456536D02*
D03*
X589000Y507000D02*
D03*
X665000Y397000D02*
D03*
D91*
X1563661Y2644449D02*
D03*
Y2408228D02*
D03*
X1484921Y2644449D02*
D03*
Y2408228D02*
D03*
X1406181Y2644449D02*
D03*
Y2408228D02*
D03*
X1327441Y2644449D02*
D03*
Y2408228D02*
D03*
X1248701Y2644449D02*
D03*
Y2408228D02*
D03*
X1169961Y2644449D02*
D03*
Y2408228D02*
D03*
X1091220Y2644449D02*
D03*
Y2408228D02*
D03*
X1012480Y2644449D02*
D03*
Y2408228D02*
D03*
X933740Y2644449D02*
D03*
Y2408228D02*
D03*
X855000Y2644441D02*
D03*
D92*
X809762Y1810191D02*
D03*
Y1750191D02*
D03*
X806112Y1690302D02*
D03*
X903302Y1651743D02*
D03*
X898238Y1711529D02*
D03*
Y1771529D02*
D03*
Y1831529D02*
D03*
D93*
X844000Y630000D02*
D03*
X851000Y699000D02*
D03*
X848000Y679000D02*
D03*
X847000Y662000D02*
D03*
X719000Y396000D02*
D03*
X572000Y464000D02*
D03*
X688819Y503780D02*
D03*
Y488031D02*
D03*
Y472284D02*
D03*
X673071Y503780D02*
D03*
X657323D02*
D03*
%TF.MD5,136483010256252c02fe172534800b0f*%
M02*
