%TF.GenerationSoftware,Altium Limited,Altium Designer,20.2.4 (192)*%
G04 Layer_Color=32896*
%FSLAX26Y26*%
%MOIN*%
%TF.SameCoordinates,397090C4-8786-4783-B811-474920FB5975*%
%TF.FilePolarity,Positive*%
%TF.FileFunction,Legend,Bot*%
%TF.Part,Single*%
G01*
G75*
%TA.AperFunction,NonConductor*%
%ADD82C,0.005906*%
%ADD83C,0.010000*%
D82*
X1635000Y305000D02*
G03*
X1635000Y305000I-30000J0D01*
G01*
X650000Y231000D02*
G03*
X650000Y231000I-30000J0D01*
G01*
X702000Y1288000D02*
G03*
X702000Y1288000I-30000J0D01*
G01*
X1457000Y350000D02*
G03*
X1457000Y350000I-30000J0D01*
G01*
X1632000Y398000D02*
G03*
X1632000Y398000I-30000J0D01*
G01*
X947000Y1148000D02*
G03*
X947000Y1148000I-30000J0D01*
G01*
X1368000Y219000D02*
G03*
X1368000Y219000I-30000J0D01*
G01*
X424000Y399000D02*
G03*
X424000Y399000I-30000J0D01*
G01*
X1109000Y233000D02*
G03*
X1109000Y233000I-30000J0D01*
G01*
X608000Y73000D02*
G03*
X608000Y73000I-30000J0D01*
G01*
X939000Y595000D02*
G03*
X939000Y595000I-30000J0D01*
G01*
X1133000Y1195000D02*
G03*
X1133000Y1195000I-30000J0D01*
G01*
X940000Y453000D02*
G03*
X940000Y453000I-30000J0D01*
G01*
X964000Y750000D02*
G03*
X964000Y750000I-30000J0D01*
G01*
D83*
X1792203Y427842D02*
X1752216D01*
X1772209D01*
Y367861D01*
X1732222D02*
Y427842D01*
X1702232D01*
X1692235Y417845D01*
Y397851D01*
X1702232Y387854D01*
X1732222D01*
X1672242Y367861D02*
X1652248D01*
X1662245D01*
Y427842D01*
X1672242Y417845D01*
X1582271Y427842D02*
X1602264Y417845D01*
X1622258Y397851D01*
Y377858D01*
X1612261Y367861D01*
X1592268D01*
X1582271Y377858D01*
Y387854D01*
X1592268Y397851D01*
X1622258D01*
X764519Y195842D02*
X724532D01*
X744525D01*
Y135861D01*
X704538D02*
Y195842D01*
X674548D01*
X664551Y185845D01*
Y165851D01*
X674548Y155855D01*
X704538D01*
X644558Y135861D02*
X624564D01*
X634561D01*
Y195842D01*
X644558Y185845D01*
X554587Y195842D02*
X594574D01*
Y165851D01*
X574581Y175848D01*
X564584D01*
X554587Y165851D01*
Y145858D01*
X564584Y135861D01*
X584577D01*
X594574Y145858D01*
X1789269Y520842D02*
X1749282D01*
X1769275D01*
Y460861D01*
X1729288D02*
Y520842D01*
X1699298D01*
X1689301Y510845D01*
Y490851D01*
X1699298Y480854D01*
X1729288D01*
X1669308Y460861D02*
X1649314D01*
X1659311D01*
Y520842D01*
X1669308Y510845D01*
X1589334Y460861D02*
Y520842D01*
X1619324Y490851D01*
X1579337D01*
X806531Y353842D02*
X766544D01*
X786538D01*
Y293861D01*
X746550D02*
Y353842D01*
X716560D01*
X706563Y343845D01*
Y323851D01*
X716560Y313854D01*
X746550D01*
X686570Y293861D02*
X666576D01*
X676573D01*
Y353842D01*
X686570Y343845D01*
X636586D02*
X626589Y353842D01*
X606596D01*
X596599Y343845D01*
Y333848D01*
X606596Y323851D01*
X616592D01*
X606596D01*
X596599Y313854D01*
Y303858D01*
X606596Y293861D01*
X626589D01*
X636586Y303858D01*
X1614107Y472842D02*
X1574120D01*
X1594113D01*
Y412861D01*
X1554126D02*
Y472842D01*
X1524136D01*
X1514139Y462845D01*
Y442851D01*
X1524136Y432854D01*
X1554126D01*
X1494146Y412861D02*
X1474152D01*
X1484149D01*
Y472842D01*
X1494146Y462845D01*
X1404175Y412861D02*
X1444162D01*
X1404175Y452848D01*
Y462845D01*
X1414172Y472842D01*
X1434165D01*
X1444162Y462845D01*
X1246313Y355842D02*
X1206326D01*
X1226320D01*
Y295861D01*
X1186332D02*
Y355842D01*
X1156342D01*
X1146345Y345845D01*
Y325851D01*
X1156342Y315854D01*
X1186332D01*
X1126352Y295861D02*
X1106358D01*
X1116355D01*
Y355842D01*
X1126352Y345845D01*
X1076368Y295861D02*
X1056374D01*
X1066371D01*
Y355842D01*
X1076368Y345845D01*
X1096852Y575842D02*
X1056865D01*
X1076859D01*
Y515861D01*
X1036871D02*
Y575842D01*
X1006881D01*
X996884Y565845D01*
Y545851D01*
X1006881Y535855D01*
X1036871D01*
X976891Y515861D02*
X956897D01*
X966894D01*
Y575842D01*
X976891Y565845D01*
X926907D02*
X916910Y575842D01*
X896917D01*
X886920Y565845D01*
Y525858D01*
X896917Y515861D01*
X916910D01*
X926907Y525858D01*
Y565845D01*
X530877Y521842D02*
X490890D01*
X510884D01*
Y461861D01*
X470896D02*
Y521842D01*
X440906D01*
X430909Y511845D01*
Y491851D01*
X440906Y481854D01*
X470896D01*
X410916Y471858D02*
X400919Y461861D01*
X380925D01*
X370929Y471858D01*
Y511845D01*
X380925Y521842D01*
X400919D01*
X410916Y511845D01*
Y501848D01*
X400919Y491851D01*
X370929D01*
X1239902Y1317842D02*
X1199915D01*
X1219909D01*
Y1257861D01*
X1179921D02*
Y1317842D01*
X1149931D01*
X1139934Y1307845D01*
Y1287851D01*
X1149931Y1277854D01*
X1179921D01*
X1119941Y1317842D02*
X1079954D01*
Y1307845D01*
X1119941Y1267858D01*
Y1257861D01*
X1046339Y718264D02*
X1006352D01*
X1026345D01*
Y658284D01*
X986358D02*
Y718264D01*
X956368D01*
X946371Y708267D01*
Y688274D01*
X956368Y678277D01*
X986358D01*
X886390Y718264D02*
X906384Y708267D01*
X926378Y688274D01*
Y668280D01*
X916381Y658284D01*
X896387D01*
X886390Y668280D01*
Y678277D01*
X896387Y688274D01*
X926378D01*
X1071362Y873382D02*
X1031375D01*
X1051369D01*
Y813402D01*
X1011382D02*
Y873382D01*
X981391D01*
X971394Y863385D01*
Y843392D01*
X981391Y833395D01*
X1011382D01*
X911414Y873382D02*
X951401D01*
Y843392D01*
X931408Y853389D01*
X921411D01*
X911414Y843392D01*
Y823398D01*
X921411Y813402D01*
X941404D01*
X951401Y823398D01*
X1474742Y341842D02*
X1434755D01*
X1454748D01*
Y281861D01*
X1414761D02*
Y341842D01*
X1384771D01*
X1374774Y331845D01*
Y311851D01*
X1384771Y301854D01*
X1414761D01*
X1324791Y281861D02*
Y341842D01*
X1354781Y311851D01*
X1314794D01*
X1054203Y1271364D02*
X1014216D01*
X1034209D01*
Y1211383D01*
X994222D02*
Y1271364D01*
X964232D01*
X954235Y1261367D01*
Y1241373D01*
X964232Y1231377D01*
X994222D01*
X894255Y1211383D02*
X934242D01*
X894255Y1251370D01*
Y1261367D01*
X904251Y1271364D01*
X924245D01*
X934242Y1261367D01*
X788857Y1411364D02*
X748870D01*
X768864D01*
Y1351383D01*
X728876D02*
Y1411364D01*
X698886D01*
X688889Y1401367D01*
Y1381373D01*
X698886Y1371377D01*
X728876D01*
X668896Y1351383D02*
X648902D01*
X658899D01*
Y1411364D01*
X668896Y1401367D01*
%TF.MD5,e9bdac0406320b61a9d8fffe194d6c74*%
M02*
