%TF.GenerationSoftware,Altium Limited,Altium Designer,20.2.4 (192)*%
G04 Layer_Physical_Order=1*
G04 Layer_Color=255*
%FSLAX26Y26*%
%MOIN*%
%TF.SameCoordinates,E8949934-62E6-4346-A9B8-0D5D28CF3135*%
%TF.FilePolarity,Positive*%
%TF.FileFunction,Copper,L1,Top,Signal*%
%TF.Part,Single*%
G01*
G75*
%TA.AperFunction,Conductor*%
%ADD10C,0.006000*%
%TA.AperFunction,SMDPad,CuDef*%
%ADD11C,0.039370*%
%ADD12R,0.030000X0.030000*%
%ADD13R,0.025000X0.020000*%
%TA.AperFunction,BGAPad,CuDef*%
%ADD14C,0.008268*%
%TA.AperFunction,SMDPad,CuDef*%
%ADD15R,0.017126X0.020000*%
%TA.AperFunction,BGAPad,CuDef*%
%ADD16R,0.015748X0.015748*%
%TA.AperFunction,SMDPad,CuDef*%
%ADD17R,0.030000X0.030000*%
%ADD18R,0.023622X0.061024*%
%ADD19R,0.047244X0.070866*%
%ADD20R,0.039370X0.047244*%
%TA.AperFunction,ConnectorPad*%
%ADD21R,0.079921X0.029921*%
%TA.AperFunction,SMDPad,CuDef*%
%ADD22R,0.039370X0.070866*%
%ADD23R,0.068898X0.177165*%
%ADD24C,0.007874*%
%ADD25R,0.031496X0.031496*%
%ADD26R,0.035433X0.031496*%
%ADD27R,0.055118X0.108268*%
%ADD28R,0.054724X0.108268*%
%ADD29R,0.011811X0.036417*%
%ADD30R,0.031496X0.011811*%
%ADD31R,0.027559X0.015748*%
%ADD32R,0.009842X0.015748*%
%ADD33R,0.220472X0.220472*%
%ADD34R,0.011811X0.021654*%
%ADD35R,0.021654X0.011811*%
%ADD36R,0.050000X0.036000*%
%ADD37R,0.036000X0.036000*%
%ADD38R,0.019291X0.020472*%
%TA.AperFunction,ConnectorPad*%
%ADD39R,0.015748X0.053150*%
%ADD40R,0.074803X0.061024*%
%ADD41R,0.062992X0.055118*%
%TA.AperFunction,SMDPad,CuDef*%
%ADD42R,0.029528X0.031496*%
%ADD43R,0.019685X0.022835*%
%ADD44R,0.037402X0.033465*%
%TA.AperFunction,Conductor*%
%ADD45C,0.003543*%
%ADD46C,0.007874*%
%ADD47C,0.004000*%
%ADD48C,0.039370*%
%ADD49C,0.010000*%
%ADD50C,0.017529*%
%ADD51C,0.005000*%
%TA.AperFunction,NonConductor*%
%ADD52C,0.003543*%
%ADD53C,0.005000*%
%TA.AperFunction,Conductor*%
%ADD54R,0.043000X0.050000*%
%ADD55R,0.055118X0.049213*%
%ADD56R,0.052165X0.045276*%
%ADD57R,0.101378X0.098425*%
%ADD58R,0.447835X0.056102*%
%ADD59R,0.443898X0.062008*%
%ADD60R,0.070866X0.213583*%
%ADD61R,0.105315X0.058071*%
%ADD62R,0.074000X0.156000*%
%ADD63R,0.039000X0.186000*%
%ADD64R,0.044000X0.055000*%
%ADD65R,0.096000X0.056000*%
%ADD66R,0.043000X0.058000*%
%ADD67R,0.041000X0.057000*%
%TA.AperFunction,ComponentPad*%
%ADD68C,0.033465*%
%ADD69C,0.040157*%
%TA.AperFunction,ViaPad*%
%ADD70C,0.078740*%
%TA.AperFunction,ComponentPad*%
%ADD71O,0.035433X0.062992*%
%TA.AperFunction,ViaPad*%
%ADD72C,0.017716*%
%ADD73C,0.015748*%
%ADD74C,0.014961*%
%ADD75C,0.050000*%
G36*
X1947834Y2168307D02*
X1949803Y2167492D01*
Y1531496D01*
X1933134D01*
Y1587661D01*
X1903575D01*
Y1529528D01*
X1899575D01*
Y1587661D01*
X1870016D01*
Y1531496D01*
X1819882D01*
X1775457Y1575921D01*
Y1587661D01*
X1763717D01*
X1752953Y1598425D01*
X1751721D01*
Y1737142D01*
X1775653D01*
Y1853409D01*
X1712535D01*
Y1737142D01*
X1736468D01*
Y1598425D01*
X1579361D01*
X1511393Y1666393D01*
X1508919Y1668046D01*
X1506000Y1668627D01*
X1505999Y1668627D01*
X1083654D01*
X1083653Y1668627D01*
X1080735Y1668046D01*
X1078261Y1666393D01*
X1078260Y1666393D01*
X1010293Y1598425D01*
X918848D01*
X918297Y1597393D01*
X910774Y1588226D01*
X901607Y1580703D01*
X891149Y1575113D01*
X879801Y1571671D01*
X876739Y1571369D01*
X872000Y1575927D01*
Y1610000D01*
X834000D01*
Y1575927D01*
X829261Y1571369D01*
X826199Y1571671D01*
X814851Y1575113D01*
X814662Y1575214D01*
X807500Y1574509D01*
X782500D01*
X770699Y1575671D01*
X759351Y1579113D01*
X749016Y1584638D01*
Y1540354D01*
X657728D01*
X657481Y1540354D01*
X656496Y1541339D01*
X653543Y1538386D01*
X653543Y1537220D01*
Y1474722D01*
X689501Y1474970D01*
X693724Y1469999D01*
Y1433599D01*
X696850D01*
Y1394172D01*
X627545D01*
X624626Y1393591D01*
X622152Y1391938D01*
X622152Y1391938D01*
X619789Y1389575D01*
X617000Y1390130D01*
X611593Y1389054D01*
X607009Y1385991D01*
X603946Y1381407D01*
X602870Y1376000D01*
X603946Y1370593D01*
X607009Y1366009D01*
X611593Y1362946D01*
X617000Y1361870D01*
X622407Y1362946D01*
X626991Y1366009D01*
X630054Y1370593D01*
X631130Y1376000D01*
X635647Y1378918D01*
X696850D01*
Y1359636D01*
X692607Y1355393D01*
X690954Y1352919D01*
X690373Y1350000D01*
X690373Y1349999D01*
Y1322001D01*
X690373Y1322000D01*
X690954Y1319081D01*
X692607Y1316607D01*
X696850Y1312364D01*
Y1246280D01*
X680994Y1230424D01*
X679726Y1227362D01*
Y1103593D01*
X675106Y1101680D01*
X611393Y1165393D01*
X608919Y1167046D01*
X606000Y1167627D01*
X606000Y1167627D01*
X416000D01*
Y1179000D01*
X378000D01*
Y1141000D01*
X416000D01*
Y1152373D01*
X602841D01*
X624649Y1130565D01*
X621461Y1126682D01*
X619407Y1128054D01*
X614000Y1129130D01*
X608593Y1128054D01*
X604009Y1124991D01*
X600946Y1120407D01*
X599870Y1115000D01*
X600946Y1109593D01*
X604009Y1105009D01*
X606373Y1103429D01*
Y1061627D01*
X419000D01*
Y1073000D01*
X381000D01*
Y1035000D01*
X419000D01*
Y1046373D01*
X610841D01*
X623350Y1033864D01*
Y1011583D01*
X592528D01*
Y992126D01*
X541472D01*
Y1011583D01*
X464575D01*
Y992126D01*
Y949327D01*
X423579D01*
X420971Y953566D01*
X422087Y956770D01*
X422786Y958770D01*
X422710Y960128D01*
X422836Y961481D01*
X421600Y965469D01*
X421229Y965915D01*
X421133Y966487D01*
X418868Y970100D01*
X418483Y970374D01*
X418308Y970814D01*
X416667Y972507D01*
X416334Y973004D01*
X415908Y973289D01*
X415108Y974114D01*
X414590Y974338D01*
X414258Y974794D01*
X408858Y978094D01*
X408673Y978123D01*
X408381Y978318D01*
X408190Y978357D01*
X408056Y978477D01*
X405256Y979477D01*
X404548Y979442D01*
X404446Y979487D01*
X404393Y979567D01*
X401919Y981220D01*
X399000Y981801D01*
X355174D01*
X352255Y981220D01*
X349781Y979567D01*
X344789Y974575D01*
X342000Y975130D01*
X336593Y974054D01*
X332009Y970991D01*
X328946Y966407D01*
X327870Y961000D01*
X328946Y955593D01*
X332009Y951009D01*
X336593Y947946D01*
X342000Y946870D01*
X347407Y947946D01*
X351991Y951009D01*
X355054Y955593D01*
X356130Y961000D01*
X355813Y962591D01*
X359288Y966547D01*
X371418D01*
X375050Y961547D01*
X374982Y961338D01*
X375034Y960674D01*
X374771Y960063D01*
X375160Y959085D01*
X375242Y958034D01*
X375388Y957910D01*
X377156Y954800D01*
X375913Y951230D01*
X375214Y949230D01*
X375290Y947872D01*
X375164Y946519D01*
X376400Y942531D01*
X376771Y942085D01*
X376867Y941513D01*
X379132Y937900D01*
X379517Y937626D01*
X379692Y937186D01*
X381334Y935493D01*
X381666Y934996D01*
X382092Y934711D01*
X382892Y933886D01*
X383410Y933662D01*
X383742Y933206D01*
X389142Y929906D01*
X389327Y929877D01*
X389619Y929682D01*
X389810Y929643D01*
X389944Y929523D01*
X392744Y928523D01*
X393452Y928558D01*
X394101Y928271D01*
X397048Y928204D01*
X399000Y927816D01*
X400547Y928123D01*
X402800Y928072D01*
X403446Y928322D01*
X404134Y928250D01*
X407834Y929350D01*
X408197Y929645D01*
X408381Y929682D01*
X408438Y929720D01*
X408799Y929771D01*
X412699Y932071D01*
X412980Y932444D01*
X413419Y932603D01*
X415030Y934073D01*
X464575D01*
Y826417D01*
X461614Y824803D01*
Y821656D01*
X457894Y818316D01*
X425197Y821850D01*
X401575Y812992D01*
X339039D01*
Y815961D01*
X251118D01*
Y812992D01*
X239173D01*
X230315Y821850D01*
X226378Y817913D01*
Y779263D01*
X223961Y778092D01*
X218961Y781074D01*
Y815961D01*
X182627D01*
Y939000D01*
Y997000D01*
X182627Y997000D01*
X182046Y999919D01*
X180393Y1002393D01*
X130627Y1052159D01*
Y1126968D01*
X319701D01*
X322835Y1123031D01*
Y1156049D01*
X373000Y1206214D01*
X378000Y1204575D01*
Y1196000D01*
X416000D01*
Y1234000D01*
X378000D01*
Y1222627D01*
X371000D01*
X371000Y1222627D01*
X368081Y1222046D01*
X365607Y1220393D01*
X327454Y1182240D01*
X322835Y1184153D01*
Y1349373D01*
X338000D01*
X338000Y1349373D01*
X340919Y1349954D01*
X343393Y1351607D01*
X389159Y1397373D01*
X396000D01*
Y1386000D01*
X429080D01*
X433143Y1386000D01*
X436072Y1381858D01*
X423214Y1369000D01*
X396000D01*
Y1331000D01*
X434000D01*
Y1358214D01*
X469067Y1393282D01*
X472407Y1393946D01*
X476991Y1397009D01*
X480054Y1401593D01*
X481130Y1407000D01*
X480054Y1412407D01*
X476991Y1416991D01*
X472407Y1420054D01*
X467000Y1421130D01*
X461593Y1420054D01*
X457009Y1416991D01*
X453946Y1412407D01*
X452870Y1407000D01*
X453946Y1401593D01*
X454691Y1400477D01*
X438142Y1383928D01*
X434000Y1386857D01*
X434000Y1390645D01*
Y1424000D01*
X396000D01*
Y1412627D01*
X386000D01*
X386000Y1412627D01*
X383082Y1412046D01*
X380607Y1410393D01*
X380607Y1410393D01*
X334841Y1364627D01*
X322835D01*
Y1458661D01*
X293627D01*
Y1468921D01*
X293046Y1471840D01*
X291393Y1474314D01*
X291393Y1474314D01*
X289842Y1475865D01*
X287367Y1477519D01*
X284449Y1478099D01*
X281530Y1477519D01*
X279056Y1475865D01*
X277403Y1473391D01*
X276822Y1470472D01*
X277403Y1467554D01*
X278373Y1466101D01*
Y1458661D01*
X36417D01*
X26273Y1448517D01*
X21654Y1450430D01*
Y2168307D01*
X832051D01*
X833119Y2162937D01*
X838253Y2155253D01*
X845937Y2150119D01*
X846289Y2150049D01*
Y2121307D01*
X832299D01*
Y2079843D01*
X850851D01*
X853196Y2077482D01*
X855539Y2079843D01*
X877701D01*
Y2092289D01*
X924410D01*
Y2086764D01*
X951299D01*
X951701Y2086764D01*
X956299D01*
X956701Y2086764D01*
X967945D01*
Y2101000D01*
Y2115236D01*
X956701D01*
X956299Y2115236D01*
X951701D01*
X951299Y2115236D01*
X924410D01*
Y2109711D01*
X877701D01*
Y2121307D01*
X863711D01*
Y2150049D01*
X864063Y2150119D01*
X871747Y2155253D01*
X876881Y2162937D01*
X877949Y2168307D01*
X1947834D01*
D02*
G37*
G36*
X1553169Y1603045D02*
X1551256Y1598425D01*
X1062744D01*
X1060831Y1603045D01*
X1074159Y1616373D01*
X1120429D01*
X1122009Y1614009D01*
X1126593Y1610946D01*
X1132000Y1609870D01*
X1137407Y1610946D01*
X1141991Y1614009D01*
X1145054Y1618593D01*
X1146130Y1624000D01*
X1145054Y1629407D01*
X1141991Y1633991D01*
X1137407Y1637054D01*
X1132000Y1638130D01*
X1126593Y1637054D01*
X1122009Y1633991D01*
X1120429Y1631627D01*
X1072137D01*
X1070417Y1634360D01*
X1069957Y1636517D01*
X1086813Y1653373D01*
X1502841D01*
X1553169Y1603045D01*
D02*
G37*
G36*
X681825Y1073389D02*
X681804Y1070220D01*
X680994Y1067688D01*
X680664Y1066892D01*
X680055Y1066283D01*
Y1065422D01*
X679726Y1064626D01*
Y992126D01*
X669425D01*
Y1011583D01*
X638603D01*
Y1037023D01*
X638603Y1037024D01*
X638023Y1039942D01*
X636369Y1042417D01*
X636369Y1042417D01*
X621627Y1057159D01*
Y1103429D01*
X623991Y1105009D01*
X627054Y1109593D01*
X628130Y1115000D01*
X627054Y1120407D01*
X625682Y1122461D01*
X629565Y1125649D01*
X681825Y1073389D01*
D02*
G37*
G36*
X403800Y975400D02*
X406600Y974400D01*
X412000Y971100D01*
X415200Y967800D01*
X417465Y964187D01*
X418700Y960200D01*
X418000Y958200D01*
X415929Y957022D01*
X381992D01*
X379100Y960000D01*
X380614Y964660D01*
X382300Y967200D01*
X385200Y970100D01*
X387500Y972200D01*
X391400Y974500D01*
X395100Y975600D01*
X403800Y975400D01*
D02*
G37*
G36*
X115373Y1049001D02*
X115373Y1049000D01*
X115954Y1046081D01*
X117607Y1043607D01*
X167373Y993841D01*
Y946627D01*
X158571D01*
X156991Y948991D01*
X152407Y952054D01*
X147000Y953130D01*
X141593Y952054D01*
X137009Y948991D01*
X133946Y944407D01*
X132870Y939000D01*
X133946Y933593D01*
X137009Y929009D01*
X141593Y925946D01*
X147000Y924870D01*
X152407Y925946D01*
X156991Y929009D01*
X158571Y931373D01*
X167373D01*
Y815961D01*
X131039D01*
Y778039D01*
X126891Y775983D01*
X125000D01*
X121939Y774715D01*
X120670Y771654D01*
Y679685D01*
X114214Y673228D01*
X114173D01*
Y673188D01*
X108780Y667795D01*
X107127Y665320D01*
X106546Y662402D01*
X106546Y662401D01*
Y627000D01*
X95448D01*
X91419D01*
X88279Y628193D01*
X87642Y631395D01*
X82320Y639360D01*
X74356Y644682D01*
X64961Y646550D01*
X55566Y644682D01*
X47601Y639360D01*
X42279Y631395D01*
X40410Y622000D01*
X42279Y612605D01*
X47601Y604640D01*
X55566Y599318D01*
X64961Y597450D01*
X74356Y599318D01*
X82320Y604640D01*
X87642Y612605D01*
X89511Y622000D01*
X89363Y622744D01*
X92608Y626548D01*
X106546Y626020D01*
X106546Y617000D01*
X106546Y617000D01*
X107127Y614081D01*
X108780Y611607D01*
X117757Y602631D01*
X120231Y600977D01*
X123150Y600397D01*
X123150Y600397D01*
X131039D01*
Y599000D01*
X173000D01*
Y615961D01*
X131040D01*
Y615961D01*
X128388Y615939D01*
X124179Y620149D01*
X124185Y620780D01*
X128785Y625176D01*
X237205Y621063D01*
X238189Y620079D01*
Y547244D01*
X312008D01*
X368110Y491142D01*
Y252953D01*
X379921Y241142D01*
Y8028D01*
X327025D01*
X323260Y11008D01*
X323260Y13028D01*
Y89874D01*
X268016D01*
Y13028D01*
X268016Y11008D01*
X264250Y8028D01*
X8028D01*
Y673228D01*
Y1126968D01*
X115373D01*
Y1049001D01*
D02*
G37*
G36*
X418900Y948000D02*
X417386Y943340D01*
X415700Y940800D01*
X412800Y937900D01*
X410500Y935800D01*
X406600Y933500D01*
X402900Y932400D01*
X394200Y932600D01*
X391400Y933600D01*
X386000Y936900D01*
X382800Y940200D01*
X380535Y943813D01*
X379300Y947800D01*
X380000Y949800D01*
X382071Y950978D01*
X416008D01*
X418900Y948000D01*
D02*
G37*
G36*
X1960476Y8028D02*
X1403543D01*
Y326153D01*
X1443054D01*
X1445726Y321153D01*
X1444623Y319502D01*
X1443547Y314094D01*
X1444623Y308687D01*
X1447686Y304103D01*
X1452270Y301040D01*
X1457677Y299965D01*
X1463084Y301040D01*
X1467668Y304103D01*
X1470731Y308687D01*
X1471807Y314094D01*
X1471806Y314101D01*
X1476414Y316564D01*
X1557948Y235030D01*
Y228890D01*
X1553700D01*
Y167740D01*
X1575053D01*
X1575679Y166230D01*
X1578740Y164962D01*
X1684055D01*
X1687117Y166230D01*
X1688385Y169291D01*
Y227362D01*
X1687117Y230424D01*
X1684055Y231692D01*
X1638532D01*
Y311024D01*
X1637952Y313942D01*
X1636299Y316417D01*
X1633824Y318070D01*
X1630906Y318650D01*
X1627987Y318070D01*
X1625513Y316417D01*
X1623859Y313942D01*
X1623279Y311024D01*
Y231692D01*
X1578740D01*
X1578201Y231469D01*
X1573201Y234479D01*
Y238189D01*
X1572621Y241108D01*
X1570967Y243582D01*
X1570967Y243582D01*
X1475377Y339173D01*
X1472902Y340826D01*
X1469984Y341406D01*
X1469983Y341406D01*
X1403543D01*
Y415354D01*
X1352362D01*
X1346457Y421260D01*
X1348425Y423228D01*
Y560039D01*
X1279527D01*
X1270669Y568898D01*
Y707677D01*
X1426181D01*
X1432678Y714174D01*
X1434055D01*
X1437117Y715442D01*
X1438385Y718504D01*
Y742373D01*
X1453980D01*
X1455560Y740009D01*
X1460144Y736946D01*
X1465551Y735870D01*
X1470958Y736946D01*
X1475542Y740009D01*
X1478605Y744593D01*
X1479681Y750000D01*
X1478605Y755407D01*
X1475542Y759991D01*
X1470958Y763054D01*
X1465551Y764130D01*
X1460144Y763054D01*
X1455560Y759991D01*
X1453980Y757627D01*
X1438385D01*
Y774606D01*
X1643608D01*
X1661607Y756607D01*
X1664081Y754954D01*
X1667000Y754373D01*
X1667001Y754373D01*
X1876999D01*
X1877000Y754373D01*
X1879919Y754954D01*
X1882393Y756607D01*
X1900392Y774606D01*
X1960476D01*
Y8028D01*
D02*
G37*
%LPC*%
G36*
X971945Y2115236D02*
Y2103000D01*
X983591D01*
Y2115236D01*
X971945D01*
D02*
G37*
G36*
X983591Y2099000D02*
X971945D01*
Y2086764D01*
X983591D01*
Y2099000D01*
D02*
G37*
G36*
X877701Y2068157D02*
X832299D01*
Y2026693D01*
X845289D01*
Y2018882D01*
X820063D01*
X811024Y2009842D01*
Y2002819D01*
X794882D01*
Y1990698D01*
X786363D01*
X786362Y1990698D01*
X783444Y1990117D01*
X780969Y1988464D01*
X769999Y1977493D01*
X754608D01*
X751690Y1976913D01*
X749215Y1975260D01*
X747562Y1972785D01*
X746982Y1969867D01*
X747562Y1966948D01*
X749215Y1964474D01*
X751690Y1962820D01*
X754608Y1962240D01*
X773158D01*
X773158Y1962240D01*
X776077Y1962820D01*
X778551Y1964474D01*
X789521Y1975444D01*
X794882D01*
Y1963323D01*
X806019D01*
Y1952148D01*
Y1928016D01*
X794882D01*
Y1910268D01*
X813646D01*
Y1908268D01*
X815646D01*
Y1888520D01*
X832409D01*
X835029Y1884605D01*
X835072Y1884541D01*
Y1834047D01*
X830072Y1832421D01*
X824891Y1836396D01*
X817593Y1839419D01*
X811024Y1840284D01*
Y1708661D01*
X782386D01*
X779907Y1705431D01*
X776884Y1698134D01*
X775853Y1690302D01*
X776884Y1682470D01*
X779907Y1675173D01*
X783882Y1669992D01*
X782879Y1666361D01*
X781788Y1664850D01*
X778676Y1664231D01*
X775435Y1662065D01*
X775308Y1661877D01*
X771500Y1659000D01*
X757000D01*
Y1645000D01*
Y1631000D01*
X771500D01*
X775308Y1628123D01*
X775435Y1627935D01*
X778676Y1625769D01*
X782500Y1625008D01*
X807500D01*
X811324Y1625769D01*
X812526Y1626572D01*
X829173D01*
X830935Y1623935D01*
X834176Y1621769D01*
X838000Y1621008D01*
X868000D01*
X871824Y1621769D01*
X875065Y1623935D01*
X877231Y1627176D01*
X877397Y1628009D01*
X879329Y1629011D01*
X882820Y1629645D01*
X888173Y1625538D01*
X895470Y1622515D01*
X903302Y1621484D01*
X903543Y1621516D01*
Y1861089D01*
X898238Y1861788D01*
X890407Y1860757D01*
X883109Y1857734D01*
X877928Y1853759D01*
X872928Y1855385D01*
Y1884541D01*
X872971Y1884605D01*
X875591Y1888520D01*
X892354D01*
Y1908268D01*
X894354D01*
Y1910268D01*
X913118D01*
Y1928016D01*
X901981D01*
Y1952148D01*
X903543Y1952887D01*
Y1963323D01*
X913118D01*
Y1981071D01*
X894354D01*
Y1985071D01*
X913118D01*
Y2002819D01*
X903543D01*
Y2023622D01*
X881429D01*
X877701Y2026693D01*
Y2068157D01*
D02*
G37*
G36*
X913118Y1906268D02*
X896354D01*
Y1888520D01*
X913118D01*
Y1906268D01*
D02*
G37*
G36*
X811646D02*
X794882D01*
Y1888520D01*
X811646D01*
Y1906268D01*
D02*
G37*
G36*
X135000Y1949730D02*
X123164Y1948172D01*
X112135Y1943603D01*
X102664Y1936336D01*
X95397Y1926865D01*
X90828Y1915836D01*
X89270Y1904000D01*
X90828Y1892164D01*
X95397Y1881135D01*
X102664Y1871664D01*
X112135Y1864397D01*
X123164Y1859828D01*
X135000Y1858270D01*
X146836Y1859828D01*
X157865Y1864397D01*
X167336Y1871664D01*
X174603Y1881135D01*
X179172Y1892164D01*
X180730Y1904000D01*
X179172Y1915836D01*
X174603Y1926865D01*
X167336Y1936336D01*
X157865Y1943603D01*
X146836Y1948172D01*
X135000Y1949730D01*
D02*
G37*
G36*
X1904000Y1929627D02*
X1901081Y1929046D01*
X1898607Y1927393D01*
X1896954Y1924919D01*
X1896373Y1922000D01*
Y1853409D01*
X1870016D01*
Y1797276D01*
X1901575D01*
X1933134D01*
Y1853409D01*
X1911627D01*
Y1922000D01*
X1911046Y1924919D01*
X1909393Y1927393D01*
X1906919Y1929046D01*
X1904000Y1929627D01*
D02*
G37*
G36*
X1933134Y1793276D02*
X1903575D01*
Y1737142D01*
X1933134D01*
Y1793276D01*
D02*
G37*
G36*
X1899575D02*
X1870016D01*
Y1737142D01*
X1899575D01*
Y1793276D01*
D02*
G37*
G36*
X752257Y1708662D02*
X748893Y1705297D01*
X748893Y1705297D01*
X748893Y1705297D01*
X755188Y1708661D01*
X752571D01*
X752257Y1708662D01*
D02*
G37*
G36*
X753000Y1659000D02*
X738500D01*
Y1652000D01*
X699000D01*
X694757Y1650243D01*
X693000Y1646000D01*
X694757Y1641757D01*
X699000Y1640000D01*
X738500D01*
Y1631000D01*
X753000D01*
Y1645000D01*
Y1659000D01*
D02*
G37*
G36*
X419000Y1128000D02*
X402000D01*
Y1111000D01*
X419000D01*
Y1128000D01*
D02*
G37*
G36*
Y1107000D02*
X402000D01*
Y1090000D01*
X419000D01*
Y1107000D01*
D02*
G37*
G36*
X398000Y1128000D02*
X381000D01*
Y1119627D01*
X345000D01*
X342081Y1119046D01*
X339607Y1117393D01*
X337954Y1114919D01*
X337373Y1112000D01*
X337954Y1109081D01*
X339607Y1106607D01*
X342081Y1104954D01*
X345000Y1104373D01*
X381000D01*
Y1090000D01*
X398000D01*
Y1109000D01*
Y1128000D01*
D02*
G37*
%LPD*%
G36*
X875591Y1963323D02*
X886727D01*
Y1928016D01*
X875591D01*
Y1924016D01*
X832409D01*
Y1928016D01*
X821273D01*
Y1963323D01*
X832409D01*
Y1967323D01*
X875591D01*
Y1963323D01*
D02*
G37*
G36*
X883109Y1805324D02*
X885738Y1804235D01*
Y1798823D01*
X883109Y1797734D01*
X877928Y1793759D01*
X872928Y1795385D01*
Y1807672D01*
X877928Y1809299D01*
X883109Y1805324D01*
D02*
G37*
G36*
X835072Y1786334D02*
Y1774047D01*
X830072Y1772421D01*
X824891Y1776396D01*
X822262Y1777485D01*
Y1782897D01*
X824891Y1783986D01*
X830072Y1787961D01*
X835072Y1786334D01*
D02*
G37*
G36*
X883109Y1745324D02*
X885738Y1744235D01*
Y1738823D01*
X883109Y1737734D01*
X877928Y1733759D01*
X872928Y1735385D01*
Y1747672D01*
X877928Y1749299D01*
X883109Y1745324D01*
D02*
G37*
G36*
X835072Y1726334D02*
Y1710055D01*
X830072Y1708358D01*
X827509Y1711698D01*
X821242Y1716507D01*
X820572Y1716785D01*
Y1722197D01*
X824891Y1723986D01*
X830072Y1727961D01*
X835072Y1726334D01*
D02*
G37*
G36*
X883109Y1685324D02*
X888011Y1683293D01*
X888173Y1677948D01*
X881906Y1673139D01*
X879652Y1670202D01*
X877880Y1669377D01*
X872928Y1672523D01*
Y1687672D01*
X877928Y1689299D01*
X883109Y1685324D01*
D02*
G37*
%LPC*%
G36*
X64961Y796550D02*
X55566Y794682D01*
X47601Y789360D01*
X42279Y781395D01*
X40410Y772000D01*
X42279Y762605D01*
X47601Y754640D01*
X55566Y749318D01*
X64961Y747450D01*
X74356Y749318D01*
X82320Y754640D01*
X87642Y762605D01*
X89511Y772000D01*
X87642Y781395D01*
X82320Y789360D01*
X74356Y794682D01*
X64961Y796550D01*
D02*
G37*
G36*
X218961Y615961D02*
X177000D01*
Y599000D01*
X218961D01*
Y615961D01*
D02*
G37*
G36*
Y595000D02*
X177000D01*
Y578039D01*
X218961D01*
Y595000D01*
D02*
G37*
G36*
X173000D02*
X131039D01*
Y578039D01*
X173000D01*
Y595000D01*
D02*
G37*
G36*
X374441Y237512D02*
X360630D01*
Y205000D01*
X374441D01*
Y237512D01*
D02*
G37*
G36*
X356630D02*
X342819D01*
Y205000D01*
X356630D01*
Y237512D01*
D02*
G37*
G36*
X374441Y201000D02*
X360630D01*
Y168488D01*
X374441D01*
Y201000D01*
D02*
G37*
G36*
X356630D02*
X342819D01*
Y168488D01*
X356630D01*
Y201000D01*
D02*
G37*
G36*
X103000Y203730D02*
X91164Y202172D01*
X80135Y197603D01*
X70664Y190336D01*
X63397Y180865D01*
X58828Y169836D01*
X57270Y158000D01*
X58828Y146164D01*
X63397Y135135D01*
X70664Y125664D01*
X80135Y118397D01*
X91164Y113828D01*
X103000Y112270D01*
X114836Y113828D01*
X125865Y118397D01*
X135336Y125664D01*
X142603Y135135D01*
X147172Y146164D01*
X148730Y158000D01*
X147172Y169836D01*
X142603Y180865D01*
X135336Y190336D01*
X125865Y197603D01*
X114836Y202172D01*
X103000Y203730D01*
D02*
G37*
G36*
X1630906Y480665D02*
X1625498Y479590D01*
X1620914Y476527D01*
X1617851Y471943D01*
X1616776Y466536D01*
X1617851Y461128D01*
X1620914Y456544D01*
X1625498Y453481D01*
X1630906Y452406D01*
X1636313Y453481D01*
X1640897Y456544D01*
X1643960Y461128D01*
X1645035Y466536D01*
X1643960Y471943D01*
X1640897Y476527D01*
X1636313Y479590D01*
X1630906Y480665D01*
D02*
G37*
G36*
X1778236Y221015D02*
X1707244D01*
Y157897D01*
X1778236D01*
Y221015D01*
D02*
G37*
G36*
X1526267D02*
X1455275D01*
Y157897D01*
X1526267D01*
Y221015D01*
D02*
G37*
G36*
X1861000Y201730D02*
X1849164Y200172D01*
X1838135Y195603D01*
X1828664Y188336D01*
X1821397Y178865D01*
X1816828Y167836D01*
X1815270Y156000D01*
X1816828Y144164D01*
X1821397Y133135D01*
X1828664Y123664D01*
X1838135Y116397D01*
X1849164Y111828D01*
X1861000Y110270D01*
X1872836Y111828D01*
X1883865Y116397D01*
X1893336Y123664D01*
X1900603Y133135D01*
X1905172Y144164D01*
X1906730Y156000D01*
X1905172Y167836D01*
X1900603Y178865D01*
X1893336Y188336D01*
X1883865Y195603D01*
X1872836Y200172D01*
X1861000Y201730D01*
D02*
G37*
G36*
X1705401Y127512D02*
X1622599D01*
Y58488D01*
X1705401D01*
Y127512D01*
D02*
G37*
G36*
X1610912D02*
X1528110D01*
Y58488D01*
X1610912D01*
Y127512D01*
D02*
G37*
G36*
X1746677Y128922D02*
X1738203Y127236D01*
X1731020Y122436D01*
X1726220Y115253D01*
X1724535Y106779D01*
Y79221D01*
X1726220Y70747D01*
X1731020Y63564D01*
X1738203Y58764D01*
X1746677Y57078D01*
X1755150Y58764D01*
X1762334Y63564D01*
X1767133Y70747D01*
X1768819Y79221D01*
Y106779D01*
X1767133Y115253D01*
X1762334Y122436D01*
X1755150Y127236D01*
X1746677Y128922D01*
D02*
G37*
G36*
X1486834D02*
X1478361Y127236D01*
X1471177Y122436D01*
X1466378Y115253D01*
X1464692Y106779D01*
Y79221D01*
X1466378Y70747D01*
X1471177Y63564D01*
X1478361Y58764D01*
X1486834Y57078D01*
X1495308Y58764D01*
X1502491Y63564D01*
X1507291Y70747D01*
X1508976Y79221D01*
Y106779D01*
X1507291Y115253D01*
X1502491Y122436D01*
X1495308Y127236D01*
X1486834Y128922D01*
D02*
G37*
G36*
X1907480Y81693D02*
X1898239Y79855D01*
X1890404Y74620D01*
X1885169Y66785D01*
X1883331Y57544D01*
X1885169Y48303D01*
X1890404Y40468D01*
X1898239Y35233D01*
X1907480Y33395D01*
X1916722Y35233D01*
X1924556Y40468D01*
X1929791Y48303D01*
X1931629Y57544D01*
X1929791Y66785D01*
X1924556Y74620D01*
X1916722Y79855D01*
X1907480Y81693D01*
D02*
G37*
%LPD*%
D10*
X414390Y964000D02*
G03*
X414298Y964169I-15390J-8330D01*
G01*
X383702D02*
G03*
X383610Y964000I15298J-8499D01*
G01*
D02*
G03*
X382050Y960022I15390J-8330D01*
G01*
X415950D02*
G03*
X414390Y964000I-16950J-4352D01*
G01*
X387661Y939000D02*
G03*
X393140Y935840I11339J13330D01*
G01*
X385098Y941700D02*
G03*
X387661Y939000I13902J10630D01*
G01*
X393140Y935840D02*
G03*
X412902Y941700I5860J16490D01*
G01*
D02*
G03*
X415950Y947978I-13902J10630D01*
G01*
X382050D02*
G03*
X385098Y941700I16950J4352D01*
G01*
X414298Y964169D02*
G03*
X399000Y973170I-15298J-8499D01*
G01*
D02*
G03*
X383702Y964169I0J-17500D01*
G01*
X385098Y941700D02*
X399000D01*
X480324D02*
X503024Y919000D01*
D11*
X69882Y2681102D02*
D03*
X1899606Y2685039D02*
D03*
X1907480Y57544D02*
D03*
D12*
X1306102Y466654D02*
D03*
Y521654D02*
D03*
X1185000Y468000D02*
D03*
X1245000Y469000D02*
D03*
Y524000D02*
D03*
X1185000Y523000D02*
D03*
X1082677Y520669D02*
D03*
X1086614Y807087D02*
D03*
Y752087D02*
D03*
X1023622Y807087D02*
D03*
Y752087D02*
D03*
X1369094Y384842D02*
D03*
Y329842D02*
D03*
X1298228Y383740D02*
D03*
Y328740D02*
D03*
X1082020Y634010D02*
D03*
X400000Y1109000D02*
D03*
Y1054000D02*
D03*
X1223000Y328000D02*
D03*
Y383000D02*
D03*
X1161000Y329000D02*
D03*
Y384000D02*
D03*
X1082677Y465669D02*
D03*
X1009000Y575000D02*
D03*
Y630000D02*
D03*
X968990Y465000D02*
D03*
Y520000D02*
D03*
X1182000Y632000D02*
D03*
Y577000D02*
D03*
X1149606Y807087D02*
D03*
Y752087D02*
D03*
X1212598Y807087D02*
D03*
Y752087D02*
D03*
X1275591Y807087D02*
D03*
Y752087D02*
D03*
X1337000Y807000D02*
D03*
Y752000D02*
D03*
X1397000Y806000D02*
D03*
Y751000D02*
D03*
X124000Y1176000D02*
D03*
Y1231000D02*
D03*
X415000Y1405000D02*
D03*
Y1350000D02*
D03*
X397000Y1215000D02*
D03*
Y1160000D02*
D03*
X128000Y1428000D02*
D03*
Y1373000D02*
D03*
X853000Y1646000D02*
D03*
Y1591000D02*
D03*
D13*
X665354Y346457D02*
D03*
X520000Y509000D02*
D03*
X755000Y1645000D02*
D03*
X795000D02*
D03*
X663905Y586000D02*
D03*
X612095D02*
D03*
X480000Y509000D02*
D03*
X768346Y346457D02*
D03*
D14*
X641575Y440787D02*
D03*
X625827Y488031D02*
D03*
X704567Y456536D02*
D03*
X688819D02*
D03*
X673071D02*
D03*
X704567Y440787D02*
D03*
X688819D02*
D03*
X673071D02*
D03*
X657323D02*
D03*
X625827D02*
D03*
X657323Y456536D02*
D03*
X641575D02*
D03*
X625827D02*
D03*
X704567Y472284D02*
D03*
X688819D02*
D03*
X641575D02*
D03*
X625827D02*
D03*
X704567Y488031D02*
D03*
X688819D02*
D03*
X641575D02*
D03*
X704567Y503780D02*
D03*
X688819D02*
D03*
X673071D02*
D03*
X657323D02*
D03*
X641575D02*
D03*
X625827D02*
D03*
X704567Y519528D02*
D03*
X688819D02*
D03*
X673071D02*
D03*
X657323D02*
D03*
X641575D02*
D03*
X625827D02*
D03*
D15*
X802520Y507874D02*
D03*
X835276Y570866D02*
D03*
X803150D02*
D03*
X834646Y507874D02*
D03*
X833638Y436000D02*
D03*
X801512D02*
D03*
X559055Y346457D02*
D03*
X526929D02*
D03*
X629291D02*
D03*
X732284D02*
D03*
D16*
X1768756Y1342244D02*
D03*
X1863244Y1247756D02*
D03*
Y1279252D02*
D03*
Y1310748D02*
D03*
Y1342244D02*
D03*
X1768756Y1310748D02*
D03*
Y1279252D02*
D03*
Y1247756D02*
D03*
D17*
X1082020Y579010D02*
D03*
X1529646Y1099409D02*
D03*
X1584646D02*
D03*
X1528583Y1164292D02*
D03*
X1583583D02*
D03*
X1583661Y1225394D02*
D03*
X1528661D02*
D03*
X1599000Y1391000D02*
D03*
X1544000D02*
D03*
X1598693Y1461370D02*
D03*
X1543693D02*
D03*
X1547244Y1535433D02*
D03*
X1602244D02*
D03*
X1585630Y1041339D02*
D03*
X1530630D02*
D03*
D18*
X437370Y203000D02*
D03*
X358630D02*
D03*
X398000D02*
D03*
D19*
X295638Y50441D02*
D03*
X500362D02*
D03*
D20*
X1289480Y214362D02*
D03*
X1191055D02*
D03*
X1092630D02*
D03*
X700575D02*
D03*
X799000D02*
D03*
X897425D02*
D03*
D21*
X175000Y597000D02*
D03*
Y697000D02*
D03*
Y747000D02*
D03*
Y797000D02*
D03*
X295079Y597000D02*
D03*
Y647000D02*
D03*
Y697000D02*
D03*
Y747000D02*
D03*
Y797000D02*
D03*
X175000Y647000D02*
D03*
D22*
X512496Y581000D02*
D03*
X441630D02*
D03*
X494134Y418226D02*
D03*
X565000D02*
D03*
D23*
X630976Y919000D02*
D03*
X503024D02*
D03*
D24*
X399000Y941700D02*
D03*
Y966300D02*
D03*
D25*
X62992Y1431102D02*
D03*
Y1372047D02*
D03*
X54000Y1231528D02*
D03*
Y1172472D02*
D03*
D26*
X715441Y1453347D02*
D03*
X770559Y1496653D02*
D03*
X715441D02*
D03*
D27*
X1901575Y1795276D02*
D03*
X1744094D02*
D03*
X1901575Y1529528D02*
D03*
D28*
X1744094D02*
D03*
D29*
X1853370Y1140689D02*
D03*
X1833685D02*
D03*
X1814000D02*
D03*
X1794315D02*
D03*
X1774630D02*
D03*
Y1039311D02*
D03*
X1794315D02*
D03*
X1814000D02*
D03*
X1833685D02*
D03*
X1853370D02*
D03*
X1857370Y840311D02*
D03*
X1837685D02*
D03*
X1818000D02*
D03*
X1798315D02*
D03*
X1778630D02*
D03*
Y941689D02*
D03*
X1798315D02*
D03*
X1818000D02*
D03*
X1837685D02*
D03*
X1857370D02*
D03*
D30*
X1763803Y1109685D02*
D03*
Y1090000D02*
D03*
Y1070315D02*
D03*
X1864197D02*
D03*
Y1090000D02*
D03*
Y1109685D02*
D03*
X1868197Y910685D02*
D03*
Y891000D02*
D03*
Y871315D02*
D03*
X1767803D02*
D03*
Y891000D02*
D03*
Y910685D02*
D03*
D31*
X1096000Y368000D02*
D03*
D32*
X1087142Y340441D02*
D03*
X1104858D02*
D03*
D33*
X960630Y1397638D02*
D03*
D34*
X1068898Y1264764D02*
D03*
X970472D02*
D03*
X950787D02*
D03*
X931102D02*
D03*
X911417D02*
D03*
X891732D02*
D03*
X872047D02*
D03*
X990158D02*
D03*
X1009842D02*
D03*
X1029527D02*
D03*
X1049213D02*
D03*
X852362D02*
D03*
X1049213Y1530512D02*
D03*
X970472D02*
D03*
X891732D02*
D03*
X1029527D02*
D03*
X1009842D02*
D03*
X990158D02*
D03*
X911417D02*
D03*
X931102D02*
D03*
X950787D02*
D03*
X872047D02*
D03*
X852362D02*
D03*
X1068898D02*
D03*
D35*
X1093504Y1309055D02*
D03*
Y1387795D02*
D03*
Y1466535D02*
D03*
Y1328740D02*
D03*
Y1348425D02*
D03*
Y1368110D02*
D03*
Y1446850D02*
D03*
Y1427165D02*
D03*
Y1407480D02*
D03*
Y1486220D02*
D03*
Y1505906D02*
D03*
Y1289370D02*
D03*
X827756Y1309055D02*
D03*
Y1387795D02*
D03*
Y1466535D02*
D03*
Y1328740D02*
D03*
Y1348425D02*
D03*
Y1368110D02*
D03*
Y1446850D02*
D03*
Y1427165D02*
D03*
Y1407480D02*
D03*
Y1486220D02*
D03*
Y1505906D02*
D03*
Y1289370D02*
D03*
D36*
X206000Y1395000D02*
D03*
X203000Y1195000D02*
D03*
D37*
X286000Y1432000D02*
D03*
Y1357000D02*
D03*
X283000Y1157000D02*
D03*
Y1232000D02*
D03*
D38*
X969945Y2101000D02*
D03*
X938055D02*
D03*
D39*
X1616755Y198315D02*
D03*
X1591165D02*
D03*
X1565574D02*
D03*
X1642346D02*
D03*
X1667937D02*
D03*
D40*
X1569511Y93000D02*
D03*
X1664000D02*
D03*
D41*
X1742740Y189456D02*
D03*
X1490771D02*
D03*
D42*
X813646Y1983071D02*
D03*
X894354D02*
D03*
Y1908268D02*
D03*
X813646D02*
D03*
D43*
X854000Y1991339D02*
D03*
Y1900000D02*
D03*
D44*
X855000Y2047425D02*
D03*
Y2100575D02*
D03*
D45*
X723265Y403000D02*
X723266D01*
X740266Y386000D02*
X759924D01*
X723266Y403000D02*
X740266Y386000D01*
X657323Y471677D02*
Y503780D01*
X688819Y456536D02*
Y472284D01*
X704780Y503992D02*
X757000Y556213D01*
Y667000D01*
X995772Y643228D02*
X1009000Y630000D01*
X859772Y643228D02*
X995772D01*
X859000Y644000D02*
X859772Y643228D01*
X673071Y489331D02*
Y503780D01*
X688819Y488031D02*
Y503780D01*
X673071Y456536D02*
Y472284D01*
X688819Y488031D01*
X625827Y519528D02*
X641575Y503780D01*
X704567Y456536D02*
X704724Y456693D01*
X799000Y492551D02*
Y507457D01*
X763000Y469000D02*
X775449D01*
X799000Y492551D01*
X798583Y507874D02*
X799000Y507457D01*
X704724Y456693D02*
X750693D01*
X763000Y469000D01*
X641732Y428268D02*
Y438712D01*
X587000Y509000D02*
X589000Y507000D01*
X520000Y509000D02*
X587000D01*
X592841Y507000D02*
X611841Y488000D01*
X622682D01*
X589000Y507000D02*
X592841D01*
X641732Y428268D02*
X665000Y405000D01*
X665354Y346457D02*
X666000Y347102D01*
X663000Y350102D02*
X666000Y347102D01*
X665000Y397000D02*
Y405000D01*
Y352102D02*
Y397000D01*
X663000Y350102D02*
X665000Y352102D01*
X673228Y426772D02*
X728346Y371654D01*
Y346457D02*
Y371654D01*
X673228Y426772D02*
Y440945D01*
X396299Y204701D02*
X398000Y203000D01*
X546045Y480315D02*
X598685D01*
X530283Y464552D02*
X546045Y480315D01*
X598685D02*
X606559Y472441D01*
X625984D01*
X704724Y440945D02*
X704882Y440788D01*
X796713Y565855D02*
Y570866D01*
X753000Y705000D02*
Y728000D01*
X727000Y557709D02*
Y752000D01*
X688819Y519528D02*
X727000Y557709D01*
X673071Y519528D02*
X711000Y557457D01*
Y716000D01*
X688976Y440945D02*
X689723Y440199D01*
Y436543D02*
X723265Y403000D01*
X625827Y519843D02*
X625984Y519685D01*
X625827Y440787D02*
X625827Y440788D01*
X625827Y346929D02*
Y440787D01*
X641602Y561437D02*
Y628924D01*
Y561437D02*
X641732Y561307D01*
X488000Y631000D02*
X639527D01*
X641602Y628924D01*
X797575Y436000D02*
X800075D01*
X808303Y427772D01*
X825331Y1346000D02*
X827756Y1348425D01*
X738000Y552961D02*
Y690000D01*
X753000Y705000D01*
X1009842Y1530512D02*
Y1535433D01*
X1019032Y1575032D02*
X1021968D01*
X990158Y1530512D02*
X994291Y1534646D01*
X706957Y488189D02*
X714073D01*
X788484Y562601D02*
Y562638D01*
X714073Y488189D02*
X788484Y562601D01*
Y562638D02*
X791347Y565501D01*
X796358D01*
X796713Y565855D01*
X689723Y436543D02*
Y440199D01*
X704780Y503780D02*
Y503992D01*
X704567Y503780D02*
X704780D01*
X704567Y519528D02*
X738000Y552961D01*
X689000Y381000D02*
Y400000D01*
X657661Y431339D02*
X689000Y400000D01*
X657323Y440787D02*
X657661Y440449D01*
Y431339D02*
Y440449D01*
X637000Y327000D02*
X709000D01*
X704567Y472284D02*
Y488031D01*
X657323Y519528D02*
X657480Y519685D01*
X839213Y570866D02*
Y576240D01*
X512496Y581000D02*
X539026D01*
X615932Y504094D02*
X625827D01*
X625984Y503937D01*
X539026Y581000D02*
X615932Y504094D01*
X494630Y428000D02*
X519630D01*
X530283Y438653D01*
Y464552D01*
X625827Y456536D02*
X625984Y456693D01*
X615747Y456536D02*
X625827D01*
X593211Y434000D02*
X615747Y456536D01*
X566496Y434000D02*
X593211D01*
X625354Y346457D02*
X625827Y346929D01*
X614000Y582000D02*
X618000Y586000D01*
X614000Y558000D02*
Y582000D01*
X625827Y519843D02*
Y546173D01*
X614000Y558000D02*
X625827Y546173D01*
X666000Y582693D02*
X669921Y586614D01*
X666000Y559000D02*
Y582693D01*
X657480Y519685D02*
Y550480D01*
X666000Y559000D01*
X441630Y581000D02*
Y596748D01*
X459543Y614661D01*
X471661D01*
X488000Y631000D01*
X641732Y519685D02*
Y561307D01*
X768346Y346457D02*
X769000Y347110D01*
Y376924D01*
X759924Y386000D02*
X769000Y376924D01*
X796713Y570866D02*
X799213D01*
X769000Y436000D02*
X797575D01*
X704882Y440788D02*
X764212D01*
X769000Y436000D01*
X669921Y586614D02*
X670000Y586535D01*
D46*
X769000Y313000D02*
Y345803D01*
X768346Y346457D02*
X769000Y345803D01*
X1009000Y442000D02*
Y575000D01*
X998000Y431000D02*
X1009000Y442000D01*
X998000Y366000D02*
Y431000D01*
X908000Y276000D02*
X998000Y366000D01*
X628000Y303000D02*
Y333000D01*
X567000Y605000D02*
X596000D01*
X1477000Y1130000D02*
X1549291D01*
X1583661Y1164370D01*
X1068898Y1530512D02*
X1114173D01*
X1115158Y1529528D01*
X1068898Y1505906D02*
Y1530512D01*
X970472Y1387795D02*
X1093504D01*
X1029527Y1466535D02*
X1093504D01*
X1068898Y1505906D02*
X1093504D01*
X1113189Y520669D02*
X1137795Y496063D01*
X1124262Y484252D02*
X1125984D01*
X1137795Y496063D01*
X1082677Y520669D02*
X1113189D01*
X1162402Y471457D02*
X1181543D01*
X1185000Y468000D01*
X1137795Y496063D02*
X1162402Y471457D01*
X283465Y1241409D02*
Y1278543D01*
X279528Y1237472D02*
X283465Y1241409D01*
X1068898Y1264764D02*
Y1289370D01*
X970472Y1264764D02*
Y1387795D01*
Y1407480D02*
X1093504D01*
X1009842Y1446850D02*
X1093504D01*
X392000Y250337D02*
X398000Y244337D01*
X392000Y250337D02*
Y253000D01*
X398000Y203000D02*
Y244337D01*
X286000Y1432000D02*
Y1468921D01*
X284449Y1470472D02*
X286000Y1468921D01*
X827756Y1309055D02*
X872047D01*
X279528Y1237472D02*
X284000Y1233000D01*
X891732Y1252953D02*
X892716Y1251969D01*
Y1232284D02*
Y1251969D01*
X1831693Y1301181D02*
X1850081Y1282793D01*
X1848822Y1339963D02*
X1860963D01*
X1831693Y1301181D02*
Y1322835D01*
X1860963Y1339963D02*
X1863244Y1342244D01*
X1831693Y1322835D02*
X1848822Y1339963D01*
X1859704Y1282793D02*
X1863244Y1279252D01*
X1850081Y1282793D02*
X1859704D01*
X1027000Y409992D02*
X1082677Y465669D01*
X1027000Y358000D02*
Y409992D01*
X114173Y662402D02*
X141732Y689961D01*
X114173Y617000D02*
Y662402D01*
Y617000D02*
X123150Y608024D01*
X163976D02*
X175000Y597000D01*
X123150Y608024D02*
X163976D01*
X1457677Y314094D02*
Y333780D01*
X1365157Y328740D02*
X1366575Y327323D01*
X1469984Y333780D02*
X1565574Y238189D01*
X1457677Y333780D02*
X1469984D01*
X1397000Y751000D02*
X1398000Y750000D01*
X1465551D01*
X1413504Y805000D02*
X1464000D01*
X1009842Y1535433D02*
X1053150Y1578740D01*
X1021968Y1575032D02*
X1022032D01*
X990158Y1530512D02*
Y1535433D01*
X1020117Y1565392D01*
Y1573266D01*
X1021850Y1575000D01*
X1022000D01*
X970663Y1548009D02*
X1083653Y1661000D01*
X1506000D01*
X970472Y1530512D02*
X970663Y1530702D01*
Y1548009D01*
X1455370Y1042630D02*
X1529646D01*
Y1099409D01*
Y1042323D02*
Y1042630D01*
Y1042323D02*
X1530630Y1041339D01*
X1585630D02*
Y1098425D01*
X1584646Y1099409D02*
X1585630Y1098425D01*
X1583661Y1164370D02*
Y1225394D01*
X1574102Y1268000D02*
X1639000D01*
X1528661Y1225394D02*
X1539724Y1236457D01*
X1542559D01*
X1574102Y1268000D01*
X1528661Y1164370D02*
Y1225394D01*
X1528583Y1164292D02*
X1528661Y1164370D01*
X1612441Y1041339D02*
X1633571Y1020209D01*
X1333110Y383740D02*
X1367992D01*
X1298228D02*
X1333110D01*
Y422677D01*
X1367992Y383740D02*
X1369094Y384842D01*
X1079724Y279528D02*
Y295276D01*
X1113347Y328898D01*
Y329000D01*
X1082020Y579010D02*
X1084258Y576772D01*
X1132874D01*
X1181772D02*
X1182000Y577000D01*
X1132874Y576772D02*
X1181772D01*
X1144685Y279528D02*
X1145669Y280512D01*
X1175512D01*
X1223000Y328000D01*
X998236Y214362D02*
X1092630D01*
X1191055D02*
X1193701Y217008D01*
X1126500Y368000D02*
X1135248Y359252D01*
X1199252D02*
X1223000Y383000D01*
X1135248Y359252D02*
X1199252D01*
X1096000Y368000D02*
X1126500D01*
X1052165Y310039D02*
X1067913D01*
X989165D02*
X1052165D01*
X1138000Y407000D02*
X1161000Y384000D01*
X1088102Y407000D02*
X1138000D01*
X1052165Y371063D02*
X1088102Y407000D01*
X1052165Y310039D02*
Y371063D01*
X1104858Y337488D02*
Y340441D01*
Y337488D02*
X1113347Y329000D01*
Y329000D02*
Y329000D01*
Y329000D02*
X1161000D01*
X504000Y301000D02*
Y343000D01*
X471457Y284449D02*
X487449D01*
X504000Y301000D01*
X1630906Y219488D02*
Y311024D01*
X1373032Y333780D02*
X1457677D01*
X1369094Y329842D02*
X1373032Y333780D01*
X1298228Y328740D02*
X1365157D01*
X1191055Y218299D02*
X1287165Y314409D01*
Y317677D01*
X1298228Y328740D01*
X1086614Y339913D02*
X1087142Y340441D01*
X1086614Y328740D02*
Y339913D01*
X1067913Y310039D02*
X1086614Y328740D01*
X897425Y218299D02*
X989165Y310039D01*
X897425Y214362D02*
Y218299D01*
X659032Y255905D02*
X660915Y254022D01*
X664852D01*
X700575Y218299D01*
Y214362D02*
Y218299D01*
X734244Y251969D01*
X842709D01*
X887000Y296260D01*
X609000Y142000D02*
X610252Y140748D01*
X763779D01*
X799000Y175969D01*
Y214362D01*
X548000Y203000D02*
X609000Y142000D01*
X437370Y203000D02*
X548000D01*
X1103370Y710630D02*
X1182000Y632000D01*
X874016Y710630D02*
X1103370D01*
X1033943Y682087D02*
X1082020Y634010D01*
X863189Y682087D02*
X1033943D01*
X1815945Y995079D02*
Y1037366D01*
X1814000Y1039311D02*
X1815945Y1037366D01*
X1857370Y971457D02*
X1918543D01*
X1931000Y959000D01*
X1692000Y1011000D02*
X1731543Y971457D01*
X1857370D01*
Y941689D02*
Y971457D01*
X1864854Y1110342D02*
X1910342D01*
X780811Y1175189D02*
Y1304095D01*
X805456Y1328740D01*
X827756D01*
X780811Y1175189D02*
X902000Y1054000D01*
X698000Y1322000D02*
Y1350000D01*
Y1322000D02*
X717000Y1303000D01*
X698000Y1350000D02*
X718000Y1370000D01*
X791000D01*
X808795Y1387795D01*
X827756D01*
X1031000Y1016000D02*
X1160000Y1145000D01*
X1031000Y931000D02*
Y1016000D01*
X1427000Y940000D02*
X1526000D01*
X1365000Y1002000D02*
X1427000Y940000D01*
X1701000Y1087000D02*
X1760803D01*
X1763803Y1090000D01*
X147000Y939000D02*
X175000D01*
Y997000D01*
Y797000D02*
Y939000D01*
X127000Y1291000D02*
Y1372000D01*
X123000Y1175000D02*
X124000Y1176000D01*
X123000Y1049000D02*
Y1175000D01*
Y1049000D02*
X175000Y997000D01*
X295079Y747000D02*
X295126Y747047D01*
X697047D01*
X295079Y797000D02*
X297079Y795000D01*
X703000D01*
X789309Y214362D02*
X799000D01*
X1892315Y871315D02*
X1931000Y910000D01*
Y959000D01*
X1868197Y871315D02*
X1892315D01*
X1942000Y827000D02*
Y1137504D01*
X1877000Y762000D02*
X1942000Y827000D01*
X1768756Y1310748D02*
X1942000Y1137504D01*
X1798315Y899685D02*
Y941689D01*
X717000Y1163000D02*
X883000Y997000D01*
X717000Y1163000D02*
Y1303000D01*
X606000Y1160000D02*
X802000Y964000D01*
X880976D01*
X697047Y747047D02*
X950000Y1000000D01*
Y1214000D01*
X397000Y1160000D02*
X606000D01*
X755000Y1167000D02*
Y1346000D01*
X617000Y1376000D02*
X627545Y1386545D01*
X782214D01*
X822835Y1427165D01*
X827756Y1407480D02*
X950787D01*
X827756Y1368110D02*
X931102D01*
X1672000Y980000D02*
Y1109685D01*
Y980000D02*
X1741315Y910685D01*
X786362Y1983071D02*
X813646D01*
X773158Y1969867D02*
X786362Y1983071D01*
X754608Y1969867D02*
X773158D01*
X894354Y1908268D02*
Y1983071D01*
X813646Y1908268D02*
Y1983071D01*
X1742008Y1306000D02*
X1768756Y1279252D01*
X1724000Y1306000D02*
X1742008D01*
X1749244Y1247756D02*
X1768756D01*
X1728220Y1268780D02*
X1749244Y1247756D01*
X1875000Y1184000D02*
X1928000Y1131000D01*
X1864197Y1070315D02*
X1908315D01*
X1928000Y1090000D02*
Y1131000D01*
X1908315Y1070315D02*
X1928000Y1090000D01*
X1853500Y1184000D02*
X1875000D01*
X1853370Y1039311D02*
X1892689D01*
X1917000Y1015000D01*
X1833685Y1039311D02*
X1853370D01*
X1868197Y910685D02*
X1899685D01*
X1914000Y925000D01*
X790984Y1415000D02*
X822835Y1446850D01*
X755000Y1346000D02*
X825331D01*
X931102Y1233102D02*
Y1264764D01*
X918000Y1220000D02*
X931102Y1233102D01*
X989579Y1216579D02*
Y1264185D01*
X984000Y1173000D02*
X1009842Y1198842D01*
X848000Y784000D02*
X984000Y920000D01*
X1009842Y1198842D02*
Y1264764D01*
X984000Y920000D02*
Y1173000D01*
X1049213Y1164213D02*
Y1264764D01*
X1010000Y1125000D02*
X1049213Y1164213D01*
X1022000Y1177000D02*
Y1220000D01*
X1029527Y1227527D01*
X1010000Y902000D02*
Y1125000D01*
X1092032Y1579371D02*
X1238629D01*
X1049213Y1530512D02*
X1051181Y1532480D01*
Y1537402D02*
X1077504Y1563725D01*
Y1564843D01*
X1092032Y1579371D01*
X1051181Y1532480D02*
Y1537402D01*
X1238629Y1579371D02*
X1418500Y1399500D01*
X794000Y1280220D02*
X822835Y1309055D01*
X794000Y1260000D02*
Y1280220D01*
X798000Y1198000D02*
X812778Y1212778D01*
Y1279313D01*
X820866Y1287402D01*
X825787D01*
X827756Y1289370D01*
X1837685Y797698D02*
X1847000Y788383D01*
X1837685Y797698D02*
Y840311D01*
X1852000Y1377000D02*
X1863244Y1365756D01*
X1826000Y1377000D02*
X1852000D01*
X1863244Y1342244D02*
Y1365756D01*
X1772000Y1401000D02*
X1862000D01*
X1684000Y1313000D02*
X1772000Y1401000D01*
X1887000Y1312756D02*
Y1376000D01*
X1862000Y1401000D02*
X1887000Y1376000D01*
X1902000Y1417000D02*
Y1529102D01*
X1857370Y796643D02*
Y840311D01*
X1849110Y788383D02*
X1857370Y796643D01*
X1667000Y762000D02*
X1877000D01*
X1434000Y1064000D02*
X1455370Y1042630D01*
X1434000Y1087000D02*
X1477000Y1130000D01*
X1434000Y1064000D02*
Y1087000D01*
X1530118Y996709D02*
Y1040827D01*
X1672000Y1109685D02*
Y1264000D01*
X1608000Y1328000D02*
X1672000Y1264000D01*
X666000Y1496000D02*
X714787D01*
X345000Y1112000D02*
X397000D01*
X970000Y425000D02*
Y463990D01*
X887000Y296260D02*
Y602388D01*
X882388Y607000D02*
X887000Y602388D01*
X825000Y607000D02*
X882388D01*
X903000Y509000D02*
X914000Y520000D01*
X968990D01*
X433000Y510000D02*
X479000D01*
X1087142Y340441D02*
X1088126Y339457D01*
X1480000Y1536000D02*
X1546677D01*
X1904000Y1797701D02*
Y1922000D01*
X1029527Y1227527D02*
Y1264764D01*
X950000Y1214000D02*
Y1263976D01*
X857000Y749000D02*
X1010000Y902000D01*
X574000Y839000D02*
X600465D01*
X630976Y869512D02*
Y919000D01*
X600465Y839000D02*
X630976Y869512D01*
X399000Y973170D02*
Y974174D01*
X355174D02*
X399000D01*
X342000Y961000D02*
X355174Y974174D01*
X399000Y966300D02*
Y973170D01*
X826000Y1238402D02*
X852362Y1264764D01*
X826000Y1173000D02*
Y1238402D01*
X412902Y941700D02*
X480324D01*
X399000D02*
X412902D01*
X614000Y1054000D02*
Y1115000D01*
X400000Y1054000D02*
X614000D01*
X630976Y1037024D01*
Y919000D02*
Y1037024D01*
X1565574Y198315D02*
Y238189D01*
X1223000Y328000D02*
X1224000Y327000D01*
X504000Y343000D02*
X511000Y350000D01*
X867000Y346000D02*
Y373000D01*
X849000Y391000D02*
X867000Y373000D01*
X825000Y391000D02*
X849000D01*
X808303Y407697D02*
X825000Y391000D01*
X808303Y407697D02*
Y427772D01*
X825000Y848000D02*
X841362Y864362D01*
X825000Y607000D02*
Y848000D01*
X806000Y588000D02*
X825000Y607000D01*
X800000Y588000D02*
X806000D01*
X795000Y583000D02*
X800000Y588000D01*
X703000Y795000D02*
X752000Y844000D01*
X950000Y1263976D02*
X950787Y1264764D01*
X755000Y1167000D02*
X902000Y1020000D01*
X803000Y1490833D02*
Y1507000D01*
X807612Y1486220D02*
X827756D01*
X803000Y1490833D02*
X807612Y1486220D01*
X787000Y1523000D02*
X803000Y1507000D01*
X746612Y1523000D02*
X787000D01*
X742000Y1477937D02*
Y1518388D01*
X746612Y1523000D01*
X715441Y1453347D02*
X717409D01*
X742000Y1477937D01*
X770559Y1496653D02*
X772528D01*
X802646Y1466535D01*
X827756D01*
X1093504Y1289370D02*
X1114630D01*
X1160000Y1244000D01*
Y1145000D02*
Y1244000D01*
X415000Y1350000D02*
X465117Y1400117D01*
Y1405117D01*
X467000Y1407000D01*
X1136425Y1348425D02*
X1137000Y1349000D01*
X1093504Y1348425D02*
X1136425D01*
X371000Y1215000D02*
X397000D01*
X313000Y1157000D02*
X371000Y1215000D01*
X283000Y1157000D02*
X313000D01*
X194000Y1204000D02*
X203000Y1195000D01*
X85528Y1204000D02*
X194000D01*
X54000Y1172472D02*
X85528Y1204000D01*
X54000Y1231528D02*
X123472D01*
X124000Y1231000D01*
X386000Y1405000D02*
X415000D01*
X338000Y1357000D02*
X386000Y1405000D01*
X286000Y1357000D02*
X338000D01*
X199945Y1401055D02*
X206000Y1395000D01*
X92000Y1401055D02*
X199945D01*
X62992Y1372047D02*
X92000Y1401055D01*
X62992Y1431102D02*
X124898D01*
X128000Y1428000D01*
X1730685Y1070315D02*
X1763803D01*
X1506000Y1661000D02*
X1602244Y1564756D01*
Y1535433D02*
Y1564756D01*
X1608150Y1529528D02*
X1744094D01*
X1602244Y1535433D02*
X1608150Y1529528D01*
X1744094D02*
Y1795276D01*
X1044942Y1597942D02*
Y1597942D01*
X1071000Y1624000D01*
X1132000D01*
X1022032Y1575032D02*
X1044942Y1597942D01*
X1768756Y1342244D02*
X1797756D01*
X1887000Y1271512D02*
Y1312756D01*
X1863244Y1310748D02*
X1884992D01*
X1887000Y1312756D01*
X1133260Y1328740D02*
X1134000Y1328000D01*
X1608000D01*
X1093504Y1328740D02*
X1133260D01*
X1672000Y1109685D02*
X1763803D01*
X1863244Y1247756D02*
X1887000Y1271512D01*
X728000Y1346000D02*
X755000D01*
X1365000Y968000D02*
Y969000D01*
Y968000D02*
X1410000Y923000D01*
X1506000D01*
X1667000Y762000D01*
X1842000Y1184000D02*
X1853500D01*
X1853370Y1140689D02*
Y1183870D01*
X1853500Y1184000D01*
X1599000Y1391000D02*
Y1461063D01*
X1598693Y1461370D02*
X1599000Y1461063D01*
Y1353000D02*
Y1391000D01*
Y1353000D02*
X1742000Y1210000D01*
X1816000D01*
X1842000Y1184000D01*
X1794315Y1140689D02*
Y1185685D01*
X1093504Y1427165D02*
X1093587Y1427083D01*
X1186917D01*
X1187000Y1427000D01*
X1585630Y1041339D02*
X1612441D01*
X1526000Y940000D02*
X1689000Y777000D01*
X1790000D01*
X1818000Y805000D01*
Y840311D01*
X1767646Y871158D02*
X1767803Y871315D01*
X1685158Y871158D02*
X1767646D01*
X1685000Y871000D02*
X1685158Y871158D01*
X1186000Y1368000D02*
X1187000Y1369000D01*
X1170000Y1368000D02*
X1186000D01*
X1169890Y1368110D02*
X1170000Y1368000D01*
X1093504Y1368110D02*
X1169890D01*
X1766803Y890000D02*
X1767803Y891000D01*
X1650000Y890000D02*
X1709000D01*
X1766803D01*
X1564000Y976000D02*
X1650000Y890000D01*
X1709000D02*
Y912000D01*
X1093504Y1309055D02*
X1094559Y1308000D01*
X1118000D01*
X1450000Y976000D01*
X1564000D01*
X1741315Y910685D02*
X1767803D01*
D47*
X960630Y1397638D02*
X970472Y1387795D01*
X1009842Y1446850D02*
X1029527Y1466535D01*
X970472Y1407480D02*
X1009842Y1446850D01*
X960630Y1397638D02*
X970472Y1407480D01*
X1185000Y471457D02*
Y523000D01*
X1245000Y469000D02*
X1304512D01*
X1306102Y470591D01*
X1245000Y469000D02*
Y524000D01*
X1185000Y523000D02*
X1244000D01*
X1245000Y524000D01*
X1185000Y468000D02*
Y471457D01*
X806102Y464972D02*
Y468215D01*
Y464972D02*
X835075Y436000D01*
X970472Y1387795D02*
X1068898Y1289370D01*
X1029527Y1466535D02*
X1068898Y1505906D01*
X1029527Y1466535D02*
Y1530512D01*
X911417Y1446850D02*
X950787Y1407480D01*
X931102Y1368110D02*
X960630Y1397638D01*
X872047Y1309055D02*
X931102Y1368110D01*
X127000Y1372000D02*
X128000Y1373000D01*
X950787Y1407480D02*
X960630Y1397638D01*
X894354Y1983071D02*
Y1984055D01*
X754000Y1646000D02*
X755000Y1645000D01*
X699000Y1646000D02*
X754000D01*
X813646Y1907283D02*
Y1908268D01*
X1864197Y1109685D02*
X1864854Y1110342D01*
X1396000Y752000D02*
X1397000Y751000D01*
X1336913Y752087D02*
X1337000Y752000D01*
X822835Y1446850D02*
X827756D01*
X789000Y1415000D02*
X790984D01*
X822835Y1427165D02*
X827756D01*
X989579Y1264185D02*
X990158Y1264764D01*
X989000Y1216000D02*
X989579Y1216579D01*
X1093504Y1486220D02*
X1094114Y1485610D01*
X1154390D01*
X1155000Y1485000D01*
X822835Y1309055D02*
X827756D01*
X872047Y1259842D02*
Y1264764D01*
X1847000Y788383D02*
X1849110D01*
X1901575Y1529528D02*
X1902000Y1529102D01*
X658000Y586000D02*
X659000D01*
X667000Y594000D01*
Y643000D01*
X175000Y697000D02*
X200000D01*
X175000Y597000D02*
X200000D01*
X212961Y609961D01*
X1530118Y1040827D02*
X1530630Y1041339D01*
X1479000Y1536000D02*
X1480000D01*
X1397000Y806000D02*
X1398000Y805000D01*
X1396000Y807000D02*
X1397000Y806000D01*
X1336913Y807087D02*
X1337000Y807000D01*
X714787Y1496000D02*
X715441Y1496653D01*
X397000Y1112000D02*
X400000Y1109000D01*
X1182000Y632000D02*
X1183000Y633000D01*
X968990Y465000D02*
X970000Y463990D01*
X479000Y510000D02*
X480000Y509000D01*
X835075Y436000D02*
X837575D01*
X1104858Y340441D02*
X1106079Y339221D01*
X1667937Y198315D02*
Y217016D01*
X1546677Y1536000D02*
X1547244Y1535433D01*
X1901575Y1795276D02*
X1904000Y1797701D01*
X283000Y1232000D02*
X284000Y1233000D01*
D48*
X1563661Y2408228D02*
Y2644449D01*
X1484921Y2408228D02*
Y2644449D01*
X1406181Y2408228D02*
Y2644449D01*
X1327441Y2408228D02*
Y2644449D01*
X1248701Y2408228D02*
Y2644449D01*
X1169961Y2408228D02*
Y2644449D01*
X1091220Y2408228D02*
Y2644449D01*
X1012480Y2408228D02*
Y2644449D01*
X933740Y2408228D02*
Y2644449D01*
X855000Y2172000D02*
Y2644441D01*
D49*
Y2100575D02*
Y2172000D01*
Y2100575D02*
X855425Y2101000D01*
X938055D01*
X854000Y1991339D02*
Y2046425D01*
X855000Y2047425D01*
X853000Y1646000D02*
X854000Y1647000D01*
X852362Y1530512D02*
Y1590362D01*
X853000Y1591000D01*
D50*
X852500Y1645500D02*
X853000Y1646000D01*
X795500Y1645500D02*
X852500D01*
X795000Y1645000D02*
X795500Y1645500D01*
X854000Y1647000D02*
Y1900000D01*
D51*
X962799Y2093854D02*
X969945Y2101000D01*
D52*
X641575Y456536D02*
Y456575D01*
D53*
X872047Y1530512D02*
X873327Y1531791D01*
D54*
X795500Y508000D02*
D03*
X724500Y346000D02*
D03*
D55*
X931102Y1519685D02*
D03*
D56*
X892224Y1272638D02*
D03*
D57*
X175689Y722441D02*
D03*
D58*
X1210138Y746555D02*
D03*
D59*
X1208169Y813484D02*
D03*
D60*
X1537401Y1463091D02*
D03*
D61*
X1631398Y198327D02*
D03*
D62*
X497000Y400000D02*
D03*
D63*
X845500Y504000D02*
D03*
D64*
X795000Y571500D02*
D03*
D65*
X594000Y348000D02*
D03*
D66*
X609500Y587000D02*
D03*
D67*
X668500Y585500D02*
D03*
D68*
X1132000Y112000D02*
D03*
X1250110Y112000D02*
D03*
X858055D02*
D03*
X739945Y112000D02*
D03*
D69*
X64961Y622000D02*
D03*
Y772000D02*
D03*
D70*
X135000Y1904000D02*
D03*
X103000Y158000D02*
D03*
X1861000Y156000D02*
D03*
D71*
X1746677Y93000D02*
D03*
X1486834D02*
D03*
D72*
X1465551Y750000D02*
D03*
X1464000Y805000D02*
D03*
X1876536Y2106064D02*
D03*
X1832166Y2017323D02*
D03*
X1876536Y1928583D02*
D03*
X1832166Y1839843D02*
D03*
Y1662362D02*
D03*
Y1484882D02*
D03*
X1876536Y686220D02*
D03*
X1832166Y597480D02*
D03*
X1876536Y508740D02*
D03*
X1832166Y420000D02*
D03*
X1876536Y331260D02*
D03*
X1832166Y242519D02*
D03*
Y65039D02*
D03*
X1787795Y2106064D02*
D03*
X1743425Y2017323D02*
D03*
X1787795Y1928583D02*
D03*
X1743425Y597480D02*
D03*
X1787795Y508740D02*
D03*
X1743425Y420000D02*
D03*
X1787795Y331260D02*
D03*
X1743425Y242519D02*
D03*
X1787795Y153779D02*
D03*
X1699055Y2106064D02*
D03*
X1654685Y2017323D02*
D03*
X1699055Y1928583D02*
D03*
X1654685Y1839843D02*
D03*
Y1662362D02*
D03*
Y1484882D02*
D03*
X1699055Y1396142D02*
D03*
X1654685Y1129921D02*
D03*
Y952441D02*
D03*
Y597480D02*
D03*
X1699055Y508740D02*
D03*
Y331260D02*
D03*
Y153779D02*
D03*
X1610315Y2106064D02*
D03*
X1565945Y2017323D02*
D03*
X1610315Y1928583D02*
D03*
X1565945Y1839843D02*
D03*
X1610315Y1751103D02*
D03*
X1565945Y1662362D02*
D03*
Y597480D02*
D03*
X1610315Y508740D02*
D03*
Y331260D02*
D03*
X1521575Y2106064D02*
D03*
X1477205Y2017323D02*
D03*
X1521575Y1928583D02*
D03*
X1477205Y1839843D02*
D03*
X1521575Y1751103D02*
D03*
X1477205Y1484882D02*
D03*
Y1307402D02*
D03*
Y1129921D02*
D03*
Y597480D02*
D03*
X1521575Y508740D02*
D03*
X1477205Y420000D02*
D03*
X1521575Y331260D02*
D03*
X1477205Y242519D02*
D03*
X1432835Y2106064D02*
D03*
X1388465Y2017323D02*
D03*
X1432835Y1928583D02*
D03*
X1388465Y1839843D02*
D03*
X1432835Y1751103D02*
D03*
Y1573622D02*
D03*
X1388465Y1484882D02*
D03*
Y1307402D02*
D03*
X1432835Y1218661D02*
D03*
X1388465Y1129921D02*
D03*
X1432835Y686220D02*
D03*
X1388465Y597480D02*
D03*
X1432835Y508740D02*
D03*
X1388465Y242519D02*
D03*
X1432835Y153779D02*
D03*
X1388465Y65039D02*
D03*
X1344094Y2106064D02*
D03*
X1299724Y2017323D02*
D03*
X1344094Y1928583D02*
D03*
X1299724Y1839843D02*
D03*
X1344094Y1751103D02*
D03*
Y1573622D02*
D03*
X1299724Y1307402D02*
D03*
X1344094Y1041181D02*
D03*
Y863701D02*
D03*
Y686220D02*
D03*
X1299724Y597480D02*
D03*
Y420000D02*
D03*
X1344094Y153779D02*
D03*
X1299724Y65039D02*
D03*
X1255354Y2106064D02*
D03*
X1210984Y2017323D02*
D03*
X1255354Y1928583D02*
D03*
X1210984Y1839843D02*
D03*
X1255354Y1751103D02*
D03*
X1210984Y1307402D02*
D03*
X1255354Y1218661D02*
D03*
X1210984Y1129921D02*
D03*
X1255354Y1041181D02*
D03*
Y863701D02*
D03*
Y686220D02*
D03*
X1210984Y420000D02*
D03*
X1255354Y153779D02*
D03*
X1210984Y65039D02*
D03*
X1166614Y2106064D02*
D03*
X1122244Y2017323D02*
D03*
X1166614Y1928583D02*
D03*
X1122244Y1839843D02*
D03*
X1166614Y1751103D02*
D03*
X1122244Y1129921D02*
D03*
X1166614Y1041181D02*
D03*
Y863701D02*
D03*
Y686220D02*
D03*
Y153779D02*
D03*
X1122244Y65039D02*
D03*
X1077874Y2106064D02*
D03*
X1033504Y2017323D02*
D03*
X1077874Y1928583D02*
D03*
X1033504Y1839843D02*
D03*
X1077874Y1751103D02*
D03*
Y1218661D02*
D03*
Y1041181D02*
D03*
Y863701D02*
D03*
Y686220D02*
D03*
X1033504Y65039D02*
D03*
X944764Y2017323D02*
D03*
X989134Y1928583D02*
D03*
X944764Y1839843D02*
D03*
X989134Y1751103D02*
D03*
X944764Y65039D02*
D03*
X856023D02*
D03*
X811653Y2106064D02*
D03*
X767283Y2017323D02*
D03*
Y1839843D02*
D03*
Y65039D02*
D03*
X722913Y2106064D02*
D03*
X678543Y2017323D02*
D03*
X722913Y1928583D02*
D03*
X678543Y1839843D02*
D03*
X722913Y1751103D02*
D03*
Y1573622D02*
D03*
X678543Y65039D02*
D03*
X634173Y2106064D02*
D03*
X589803Y2017323D02*
D03*
X634173Y1928583D02*
D03*
X589803Y1839843D02*
D03*
X634173Y1751103D02*
D03*
X589803Y1662362D02*
D03*
X634173Y1573622D02*
D03*
X589803Y1484882D02*
D03*
X634173Y1218661D02*
D03*
X545433Y2106064D02*
D03*
X501062Y2017323D02*
D03*
X545433Y1928583D02*
D03*
X501062Y1839843D02*
D03*
X545433Y1751103D02*
D03*
X501062Y1662362D02*
D03*
X545433Y1573622D02*
D03*
Y1396142D02*
D03*
X501062Y1307402D02*
D03*
X545433Y1218661D02*
D03*
X501062Y1129921D02*
D03*
X456692Y2106064D02*
D03*
X412322Y2017323D02*
D03*
X456692Y1928583D02*
D03*
X412322Y1839843D02*
D03*
X456692Y1751103D02*
D03*
X412322Y1662362D02*
D03*
X456692Y1573622D02*
D03*
X412322Y1484882D02*
D03*
Y1307402D02*
D03*
X456692Y1218661D02*
D03*
X367952Y2106064D02*
D03*
X323582Y2017323D02*
D03*
X367952Y1928583D02*
D03*
X323582Y1839843D02*
D03*
X367952Y1751103D02*
D03*
X323582Y1662362D02*
D03*
X367952Y1573622D02*
D03*
X323582Y1484882D02*
D03*
Y420000D02*
D03*
Y242519D02*
D03*
X367952Y153779D02*
D03*
X279212Y2106064D02*
D03*
X234842Y2017323D02*
D03*
X279212Y1928583D02*
D03*
X234842Y1839843D02*
D03*
X279212Y1751103D02*
D03*
X234842Y1662362D02*
D03*
X279212Y1573622D02*
D03*
X234842Y1484882D02*
D03*
Y1307402D02*
D03*
X279212Y1041181D02*
D03*
X234842Y952441D02*
D03*
X279212Y863701D02*
D03*
X234842Y774961D02*
D03*
X279212Y508740D02*
D03*
X234842Y420000D02*
D03*
X279212Y331260D02*
D03*
X234842Y242519D02*
D03*
X279212Y153779D02*
D03*
X234842Y65039D02*
D03*
X190472Y2106064D02*
D03*
X146102Y2017323D02*
D03*
X190472Y1928583D02*
D03*
X146102Y1839843D02*
D03*
X190472Y1751103D02*
D03*
X146102Y1662362D02*
D03*
X190472Y1573622D02*
D03*
X146102Y1484882D02*
D03*
X190472Y1041181D02*
D03*
Y508740D02*
D03*
X146102Y420000D02*
D03*
X190472Y331260D02*
D03*
X146102Y242519D02*
D03*
X190472Y153779D02*
D03*
X146102Y65039D02*
D03*
X101732Y2106064D02*
D03*
X57361Y2017323D02*
D03*
Y1839843D02*
D03*
X101732Y1751103D02*
D03*
X57361Y1662362D02*
D03*
X101732Y1573622D02*
D03*
X57361Y1484882D02*
D03*
Y1307402D02*
D03*
X101732Y1041181D02*
D03*
X57361Y952441D02*
D03*
X101732Y863701D02*
D03*
Y686220D02*
D03*
Y508740D02*
D03*
X57361Y420000D02*
D03*
X101732Y331260D02*
D03*
X57361Y242519D02*
D03*
Y65039D02*
D03*
X769000Y313000D02*
D03*
X908000Y276000D02*
D03*
X628000Y303000D02*
D03*
X567000Y605000D02*
D03*
X757000Y667000D02*
D03*
X859000Y644000D02*
D03*
X1115158Y1529528D02*
D03*
X739201Y456693D02*
D03*
X1124262Y484252D02*
D03*
X589000Y507000D02*
D03*
X665000Y397000D02*
D03*
X806102Y468215D02*
D03*
X283465Y1278543D02*
D03*
X392000Y253000D02*
D03*
X1630906Y466536D02*
D03*
X284449Y1470472D02*
D03*
X471457Y284449D02*
D03*
X892716Y1232284D02*
D03*
X1053150Y1578740D02*
D03*
X1633571Y1020209D02*
D03*
X1333110Y422677D02*
D03*
X1079724Y279528D02*
D03*
X1132874Y576772D02*
D03*
X1144685Y279528D02*
D03*
X998236Y214362D02*
D03*
X1630906Y311024D02*
D03*
X1457677Y314094D02*
D03*
X659032Y255905D02*
D03*
X874016Y710630D02*
D03*
X863189Y682087D02*
D03*
X1815945Y995079D02*
D03*
X1910342Y1110342D02*
D03*
X902000Y1054000D02*
D03*
X1031000Y931000D02*
D03*
X1365000Y1002000D02*
D03*
X1701000Y1087000D02*
D03*
X753000Y728000D02*
D03*
X727000Y752000D02*
D03*
X711000Y716000D02*
D03*
X1728220Y1268780D02*
D03*
X147000Y939000D02*
D03*
X609000Y142000D02*
D03*
X1798315Y899685D02*
D03*
X883000Y997000D02*
D03*
X880976Y964000D02*
D03*
X754608Y1969867D02*
D03*
X699000Y1646000D02*
D03*
X1027000Y358000D02*
D03*
X1724000Y1306000D02*
D03*
X1917000Y1015000D02*
D03*
X1914000Y925000D02*
D03*
X789000Y1415000D02*
D03*
X728000Y1346000D02*
D03*
X918000Y1220000D02*
D03*
X989000Y1216000D02*
D03*
X1022000Y1177000D02*
D03*
X1155000Y1485000D02*
D03*
X794000Y1260000D02*
D03*
X1826000Y1377000D02*
D03*
X1902000Y1417000D02*
D03*
X1847000Y786000D02*
D03*
X667000Y643000D02*
D03*
X1530118Y996709D02*
D03*
X666000Y1496000D02*
D03*
X345000Y1112000D02*
D03*
X970000Y425000D02*
D03*
X903000Y509000D02*
D03*
X433000Y510000D02*
D03*
X1480000Y1536000D02*
D03*
X1904000Y1922000D02*
D03*
X127000Y1291000D02*
D03*
X950000Y1214000D02*
D03*
X617000Y1376000D02*
D03*
X798000Y1198000D02*
D03*
X848000Y784000D02*
D03*
X574000Y839000D02*
D03*
X342000Y961000D02*
D03*
X857000Y749000D02*
D03*
X826000Y1173000D02*
D03*
X614000Y1115000D02*
D03*
X867000Y346000D02*
D03*
X841362Y864362D02*
D03*
X752000Y844000D02*
D03*
X902000Y1020000D02*
D03*
X467000Y1407000D02*
D03*
X1137000Y1349000D02*
D03*
X1418500Y1399500D02*
D03*
X1730685Y1070315D02*
D03*
X1132000Y1624000D02*
D03*
X1797756Y1342244D02*
D03*
X1639000Y1268000D02*
D03*
X1684000Y1313000D02*
D03*
X1365000Y969000D02*
D03*
X1794315Y1185685D02*
D03*
X1187000Y1427000D02*
D03*
X1692000Y1011000D02*
D03*
X1685000Y871000D02*
D03*
X1187000Y1369000D02*
D03*
X1709000Y912000D02*
D03*
X1022000Y1575000D02*
D03*
X689000Y381000D02*
D03*
D73*
X657323Y471677D02*
D03*
X688819Y456536D02*
D03*
X673071Y489331D02*
D03*
X688819Y503780D02*
D03*
D74*
X1270669Y1387795D02*
D03*
X221457Y520669D02*
D03*
X1563661Y2644449D02*
D03*
Y2408228D02*
D03*
X1484921Y2644449D02*
D03*
Y2408228D02*
D03*
X1406181Y2644449D02*
D03*
Y2408228D02*
D03*
X1327441Y2644449D02*
D03*
Y2408228D02*
D03*
X1248701Y2644449D02*
D03*
Y2408228D02*
D03*
X1169961Y2644449D02*
D03*
Y2408228D02*
D03*
X1091220Y2644449D02*
D03*
Y2408228D02*
D03*
X1012480Y2644449D02*
D03*
Y2408228D02*
D03*
X933740Y2644449D02*
D03*
Y2408228D02*
D03*
X855000Y2644441D02*
D03*
D75*
X809762Y1810191D02*
D03*
Y1750191D02*
D03*
X806112Y1690302D02*
D03*
X903302Y1651743D02*
D03*
X898238Y1711529D02*
D03*
Y1771529D02*
D03*
Y1831529D02*
D03*
%TF.MD5,3442fa3228953a8a53a052b2ec543f20*%
M02*
