%TF.GenerationSoftware,Altium Limited,Altium Designer,20.2.4 (192)*%
G04 Layer_Physical_Order=1*
G04 Layer_Color=255*
%FSLAX26Y26*%
%MOIN*%
%TF.SameCoordinates,397090C4-8786-4783-B811-474920FB5975*%
%TF.FilePolarity,Positive*%
%TF.FileFunction,Copper,L1,Top,Signal*%
%TF.Part,Single*%
G01*
G75*
%TA.AperFunction,Conductor*%
%ADD10C,0.006000*%
%TA.AperFunction,SMDPad,CuDef*%
%ADD11R,0.220472X0.220472*%
%ADD12R,0.031496X0.011811*%
%ADD13R,0.011811X0.036417*%
%ADD14R,0.011811X0.021654*%
%ADD15R,0.021654X0.011811*%
%ADD16R,0.030000X0.030000*%
%ADD17R,0.025000X0.020000*%
%ADD18R,0.030000X0.030000*%
%ADD19R,0.050000X0.036000*%
%ADD20R,0.036000X0.036000*%
%ADD21R,0.039370X0.047244*%
%ADD22R,0.019291X0.020472*%
%ADD23R,0.039370X0.070866*%
%TA.AperFunction,BGAPad,CuDef*%
%ADD24C,0.008268*%
%TA.AperFunction,SMDPad,CuDef*%
%ADD25R,0.031496X0.031496*%
%ADD26R,0.017126X0.020000*%
%ADD27R,0.047244X0.070866*%
%ADD28R,0.023622X0.061024*%
%ADD29R,0.015748X0.053150*%
%ADD30R,0.074803X0.061024*%
%ADD31R,0.062992X0.055118*%
%ADD32R,0.029528X0.031496*%
%ADD33R,0.019685X0.022835*%
%ADD34R,0.037402X0.033465*%
%ADD35C,0.007874*%
%ADD36R,0.054724X0.108268*%
%ADD37R,0.055118X0.108268*%
%ADD38R,0.035433X0.031496*%
%ADD39R,0.068898X0.177165*%
%TA.AperFunction,BGAPad,CuDef*%
%ADD40R,0.015748X0.015748*%
%TA.AperFunction,SMDPad,CuDef*%
%ADD41R,0.079921X0.029921*%
%ADD42R,0.009842X0.015748*%
%ADD43R,0.027559X0.015748*%
%TA.AperFunction,Conductor*%
%ADD44C,0.007874*%
%ADD45C,0.004000*%
%ADD46C,0.003543*%
%TA.AperFunction,NonConductor*%
%ADD47C,0.004000*%
%ADD48C,0.039370*%
%TA.AperFunction,Conductor*%
%ADD49C,0.039370*%
%ADD50C,0.010000*%
%ADD51C,0.017529*%
%ADD52C,0.005000*%
%TA.AperFunction,NonConductor*%
%ADD53C,0.003543*%
%ADD54C,0.005000*%
%TA.AperFunction,Conductor*%
%ADD55R,0.074000X0.156000*%
%ADD56R,0.039000X0.186000*%
%ADD57R,0.043000X0.050000*%
%ADD58R,0.044000X0.055000*%
%ADD59R,0.096000X0.056000*%
%ADD60R,0.043000X0.058000*%
%ADD61R,0.041000X0.057000*%
%TA.AperFunction,SMDPad,CuDef*%
%ADD62C,0.039370*%
%TA.AperFunction,ViaPad*%
%ADD63C,0.039370*%
%ADD64C,0.078740*%
%TA.AperFunction,ComponentPad*%
%ADD65C,0.033465*%
%ADD66O,0.035433X0.062992*%
%ADD67C,0.040157*%
%TA.AperFunction,ViaPad*%
%ADD68C,0.017716*%
%ADD69C,0.014961*%
%ADD70C,0.050000*%
%ADD71C,0.007874*%
G36*
X838253Y2155253D02*
X845937Y2150119D01*
X846289Y2150049D01*
Y2121307D01*
X832299D01*
Y2079843D01*
X877701D01*
Y2092289D01*
X924410D01*
Y2086764D01*
X951701D01*
X951701Y2086764D01*
X956300D01*
Y2086764D01*
X956701Y2086764D01*
X963945D01*
Y2045430D01*
X962515Y2044000D01*
X949658D01*
X946991Y2047991D01*
X942407Y2051054D01*
X937000Y2052130D01*
X931593Y2051054D01*
X927009Y2047991D01*
X923946Y2043407D01*
X922870Y2038000D01*
X923946Y2032593D01*
X927009Y2028009D01*
X925091Y2023277D01*
X904633Y2002819D01*
X875591D01*
Y1998819D01*
X867842D01*
Y2006756D01*
X862711D01*
Y2026693D01*
X877701D01*
Y2068157D01*
X832299D01*
Y2026693D01*
X845289D01*
Y2006756D01*
X840158D01*
Y1998819D01*
X832409D01*
Y2002819D01*
X794882D01*
Y1989071D01*
X786362D01*
X782120Y1987313D01*
X771760Y1976954D01*
X766283Y1977339D01*
X764600Y1979858D01*
X760016Y1982921D01*
X754608Y1983996D01*
X749201Y1982921D01*
X744617Y1979858D01*
X741554Y1975274D01*
X740479Y1969867D01*
X741554Y1964459D01*
X744617Y1959875D01*
X749201Y1956812D01*
X754608Y1955737D01*
X760016Y1956812D01*
X764600Y1959875D01*
X767266Y1963867D01*
X773158D01*
X777401Y1965624D01*
X788847Y1977071D01*
X794882D01*
Y1963323D01*
X798265D01*
X799950Y1958615D01*
X798637Y1957538D01*
X798428Y1957147D01*
X798037Y1956938D01*
X790514Y1947771D01*
X790385Y1947347D01*
X790042Y1947065D01*
X784452Y1936607D01*
X784409Y1936166D01*
X784128Y1935823D01*
X780685Y1924475D01*
X780729Y1924034D01*
X780520Y1923643D01*
X779357Y1911842D01*
X779423Y1911626D01*
X779337Y1911417D01*
Y1888583D01*
X779423Y1888374D01*
X779357Y1888158D01*
X780243Y1879169D01*
Y1815812D01*
X779503Y1810191D01*
X780243Y1804570D01*
Y1755812D01*
X779503Y1750191D01*
X780243Y1744570D01*
Y1719620D01*
X770274Y1718638D01*
X769883Y1718429D01*
X769442Y1718472D01*
X758094Y1715030D01*
X757751Y1714749D01*
X757310Y1714705D01*
X746852Y1709115D01*
X746570Y1708772D01*
X746146Y1708643D01*
X736980Y1701121D01*
X736770Y1700729D01*
X736379Y1700521D01*
X728856Y1691354D01*
X728728Y1690929D01*
X728385Y1690648D01*
X722795Y1680190D01*
X722751Y1679749D01*
X722470Y1679406D01*
X719028Y1668058D01*
X719071Y1667617D01*
X718862Y1667226D01*
X717700Y1655425D01*
X716033Y1653683D01*
X710273Y1654074D01*
X708991Y1655991D01*
X704407Y1659054D01*
X699000Y1660130D01*
X693593Y1659054D01*
X689009Y1655991D01*
X685946Y1651407D01*
X684870Y1646000D01*
X685946Y1640593D01*
X689009Y1636009D01*
X693593Y1632946D01*
X699000Y1631870D01*
X704407Y1632946D01*
X708991Y1636009D01*
X711658Y1640000D01*
X717679D01*
Y1635000D01*
X717765Y1634792D01*
X717700Y1634576D01*
X718862Y1622774D01*
X719071Y1622383D01*
X719028Y1621942D01*
X722470Y1610594D01*
X722751Y1610251D01*
X722795Y1609810D01*
X728385Y1599352D01*
X728728Y1599070D01*
X728856Y1598646D01*
X736379Y1589479D01*
X736770Y1589271D01*
X736980Y1588879D01*
X746146Y1581357D01*
X746571Y1581228D01*
X746852Y1580885D01*
X757310Y1575295D01*
X757751Y1575251D01*
X758094Y1574970D01*
X769442Y1571528D01*
X769883Y1571571D01*
X770274Y1571362D01*
X782076Y1570200D01*
X782292Y1570265D01*
X782500Y1570179D01*
X807500D01*
X807708Y1570265D01*
X807924Y1570200D01*
X814121Y1570810D01*
X824942Y1567528D01*
X825383Y1567571D01*
X825774Y1567362D01*
X828837Y1567061D01*
X829011Y1567113D01*
X829177Y1567041D01*
X830573Y1567587D01*
X832008Y1568023D01*
X832093Y1568183D01*
X832262Y1568249D01*
X836163Y1572000D01*
X843652D01*
Y1545339D01*
X842457D01*
Y1515811D01*
X812929D01*
Y1514604D01*
X809865Y1513111D01*
X807929Y1512857D01*
X792393Y1528393D01*
X789919Y1530046D01*
X787000Y1530627D01*
X787000Y1530627D01*
X746613D01*
X746612Y1530627D01*
X743694Y1530046D01*
X741220Y1528393D01*
X741219Y1528393D01*
X736607Y1523781D01*
X734954Y1521306D01*
X734373Y1518388D01*
X730144Y1516401D01*
X693724D01*
Y1503627D01*
X677571D01*
X675991Y1505991D01*
X671407Y1509054D01*
X666000Y1510130D01*
X660593Y1509054D01*
X656009Y1505991D01*
X652946Y1501407D01*
X651870Y1496000D01*
X652946Y1490593D01*
X656009Y1486009D01*
X660593Y1482946D01*
X666000Y1481870D01*
X671407Y1482946D01*
X675991Y1486009D01*
X677571Y1488373D01*
X693724D01*
Y1476906D01*
X693724Y1476906D01*
Y1473094D01*
X693724D01*
X693724Y1471906D01*
Y1433599D01*
X737157D01*
Y1462309D01*
X747393Y1472544D01*
X747393Y1472544D01*
X749046Y1475018D01*
X749422Y1476906D01*
X781490D01*
X797253Y1461143D01*
X797253Y1461142D01*
X799727Y1459489D01*
X802646Y1458909D01*
X812929D01*
Y1445430D01*
X795094Y1427595D01*
X794407Y1428054D01*
X789000Y1429130D01*
X783593Y1428054D01*
X783186Y1427782D01*
X778186Y1430455D01*
Y1453347D01*
X777605Y1456265D01*
X775952Y1458739D01*
X773478Y1460393D01*
X770559Y1460973D01*
X767640Y1460393D01*
X765166Y1458739D01*
X763513Y1456265D01*
X762932Y1453347D01*
Y1417600D01*
X753959Y1408627D01*
X692159D01*
X687575Y1413211D01*
X688130Y1416000D01*
X687054Y1421407D01*
X683991Y1425991D01*
X679407Y1429054D01*
X674000Y1430130D01*
X669292Y1429193D01*
X649243Y1449243D01*
X645000Y1451000D01*
X308000D01*
Y1454000D01*
X264000D01*
Y1410000D01*
X308000D01*
Y1426000D01*
X391828D01*
X396000Y1424000D01*
X396000Y1421000D01*
Y1412627D01*
X386000D01*
X386000Y1412627D01*
X383082Y1412046D01*
X380607Y1410393D01*
X380607Y1410393D01*
X334841Y1364627D01*
X308000D01*
Y1379000D01*
X264000D01*
Y1335000D01*
X308000D01*
Y1349373D01*
X338000D01*
X338000Y1349373D01*
X340919Y1349954D01*
X343393Y1351607D01*
X389159Y1397373D01*
X396000D01*
Y1386000D01*
X433143D01*
X436072Y1381858D01*
X423214Y1369000D01*
X396000D01*
Y1331000D01*
X434000D01*
Y1358214D01*
X469067Y1393282D01*
X472407Y1393946D01*
X476991Y1397009D01*
X480054Y1401593D01*
X481130Y1407000D01*
X480054Y1412407D01*
X476991Y1416991D01*
X472407Y1420054D01*
X467652Y1421000D01*
X468145Y1426000D01*
X503201D01*
X523000Y1406201D01*
Y1313485D01*
X506515Y1297000D01*
X296658D01*
X293991Y1300991D01*
X289407Y1304054D01*
X284000Y1305130D01*
X278593Y1304054D01*
X274009Y1300991D01*
X270946Y1296407D01*
X269870Y1291000D01*
X270946Y1285593D01*
X274009Y1281009D01*
X278000Y1278342D01*
Y1254000D01*
X261000D01*
Y1210000D01*
X305000D01*
Y1254000D01*
X290000D01*
Y1278342D01*
X293991Y1281009D01*
X296658Y1285000D01*
X509000D01*
X513243Y1286757D01*
X533243Y1306757D01*
X535000Y1311000D01*
Y1408686D01*
X533243Y1412929D01*
X512172Y1434000D01*
X514243Y1439000D01*
X642515D01*
X660807Y1420708D01*
X659870Y1416000D01*
X660946Y1410593D01*
X664009Y1406009D01*
X668593Y1402946D01*
X674000Y1401870D01*
X676789Y1402425D01*
X681669Y1397545D01*
X679598Y1392545D01*
X627545D01*
X623302Y1390788D01*
X621708Y1389193D01*
X617000Y1390130D01*
X611593Y1389054D01*
X607009Y1385991D01*
X603946Y1381407D01*
X602870Y1376000D01*
X603946Y1370593D01*
X607009Y1366009D01*
X611593Y1362946D01*
X617000Y1361870D01*
X622407Y1362946D01*
X626991Y1366009D01*
X630054Y1370593D01*
X631130Y1376000D01*
X630994Y1376680D01*
X634166Y1380545D01*
X782214D01*
X786457Y1382303D01*
X808310Y1404155D01*
X812929Y1402242D01*
Y1393795D01*
X809795D01*
X805553Y1392038D01*
X778515Y1365000D01*
X702000D01*
X697757Y1363243D01*
X686757Y1352243D01*
X685000Y1348000D01*
Y1329000D01*
X686757Y1324757D01*
X711000Y1300515D01*
Y1163000D01*
X712757Y1158757D01*
X869807Y1001708D01*
X868870Y997000D01*
X869946Y991593D01*
X873009Y987009D01*
X877593Y983946D01*
X883000Y982870D01*
X888407Y983946D01*
X892991Y987009D01*
X896054Y991593D01*
X897130Y997000D01*
X896148Y1001936D01*
X897359Y1003955D01*
X899409Y1006386D01*
X902000Y1005870D01*
X907407Y1006946D01*
X911991Y1010009D01*
X915054Y1014593D01*
X916130Y1020000D01*
X915054Y1025407D01*
X911991Y1029991D01*
X911230Y1030500D01*
Y1035500D01*
X911991Y1036009D01*
X915054Y1040593D01*
X916130Y1046000D01*
X915054Y1051407D01*
X911991Y1055991D01*
X907407Y1059054D01*
X902000Y1060130D01*
X899211Y1059575D01*
X782627Y1176159D01*
Y1187064D01*
X787627Y1188581D01*
X788009Y1188009D01*
X792593Y1184946D01*
X798000Y1183870D01*
X803407Y1184946D01*
X807991Y1188009D01*
X811054Y1192593D01*
X812073Y1197714D01*
X812209Y1198058D01*
X813373Y1198911D01*
X818373Y1196375D01*
Y1184571D01*
X816009Y1182991D01*
X812946Y1178407D01*
X811870Y1173000D01*
X812946Y1167593D01*
X816009Y1163009D01*
X820593Y1159946D01*
X826000Y1158870D01*
X831407Y1159946D01*
X835991Y1163009D01*
X839054Y1167593D01*
X840130Y1173000D01*
X839054Y1178407D01*
X835991Y1182991D01*
X833627Y1184571D01*
Y1235242D01*
X848321Y1249937D01*
X869034D01*
X871105Y1244937D01*
X854757Y1228589D01*
X853000Y1224346D01*
Y1212658D01*
X849009Y1209991D01*
X845946Y1205407D01*
X844870Y1200000D01*
X845946Y1194593D01*
X849009Y1190009D01*
X853593Y1186946D01*
X859000Y1185870D01*
X864407Y1186946D01*
X868991Y1190009D01*
X872054Y1194593D01*
X872740Y1198041D01*
X899784Y1225084D01*
X904392Y1222621D01*
X903870Y1220000D01*
X904946Y1214593D01*
X908009Y1210009D01*
X912593Y1206946D01*
X918000Y1205870D01*
X923407Y1206946D01*
X927991Y1210009D01*
X931054Y1214593D01*
X935870Y1214000D01*
X936946Y1208593D01*
X940009Y1204009D01*
X942373Y1202429D01*
Y1003159D01*
X899457Y960242D01*
X894848Y962706D01*
X895106Y964000D01*
X894030Y969407D01*
X890967Y973991D01*
X886384Y977054D01*
X880976Y978130D01*
X875569Y977054D01*
X870985Y973991D01*
X869405Y971627D01*
X805159D01*
X611393Y1165393D01*
X608919Y1167046D01*
X606000Y1167627D01*
X606000Y1167627D01*
X416000D01*
Y1179000D01*
X378000D01*
Y1141000D01*
X416000D01*
Y1152373D01*
X602841D01*
X624649Y1130565D01*
X621461Y1126682D01*
X619407Y1128054D01*
X614000Y1129130D01*
X608593Y1128054D01*
X604009Y1124991D01*
X600946Y1120407D01*
X599870Y1115000D01*
X600946Y1109593D01*
X604009Y1105009D01*
X606373Y1103429D01*
Y1061627D01*
X419000D01*
Y1073000D01*
X381000D01*
Y1035000D01*
X419000D01*
Y1046373D01*
X610841D01*
X623350Y1033864D01*
Y1011583D01*
X592528D01*
Y846627D01*
X585571D01*
X583991Y848991D01*
X579407Y852054D01*
X574000Y853130D01*
X568593Y852054D01*
X564009Y848991D01*
X560946Y844407D01*
X559870Y839000D01*
X560946Y833593D01*
X564009Y829009D01*
X568593Y825946D01*
X574000Y824870D01*
X579407Y825946D01*
X583991Y829009D01*
X585571Y831373D01*
X592528D01*
Y826417D01*
X669425D01*
Y1011583D01*
X638603D01*
Y1037023D01*
X638603Y1037024D01*
X638023Y1039942D01*
X636369Y1042417D01*
X636369Y1042417D01*
X621627Y1057159D01*
Y1103429D01*
X623991Y1105009D01*
X627054Y1109593D01*
X628130Y1115000D01*
X627054Y1120407D01*
X625682Y1122461D01*
X629565Y1125649D01*
X796607Y958607D01*
X796607Y958607D01*
X799081Y956954D01*
X802000Y956373D01*
X802000Y956373D01*
X869405D01*
X870985Y954009D01*
X875569Y950946D01*
X880976Y949870D01*
X882271Y950128D01*
X884734Y945520D01*
X693888Y754674D01*
X329197D01*
Y766008D01*
X241276D01*
Y728087D01*
X329197D01*
Y739420D01*
X697047D01*
X697047Y739420D01*
X699966Y740001D01*
X702440Y741654D01*
X711604Y750818D01*
X716767Y749634D01*
X717148Y749291D01*
X720009Y745009D01*
X724247Y742177D01*
Y734163D01*
X720382Y730991D01*
X719114Y731244D01*
X713707Y730168D01*
X709123Y727105D01*
X706060Y722521D01*
X704984Y717114D01*
X706060Y711707D01*
X709123Y707123D01*
X713707Y704060D01*
X715247Y703754D01*
Y569840D01*
X673202Y527795D01*
X673071Y527821D01*
X669897Y527189D01*
X668585Y526313D01*
X667907Y526187D01*
X664587Y527304D01*
X663233Y528293D01*
Y548097D01*
X667806Y552670D01*
X689000D01*
X692062Y553938D01*
X693330Y557000D01*
Y614000D01*
X692062Y617062D01*
X689000Y618330D01*
X673000D01*
Y630342D01*
X676991Y633009D01*
X680054Y637593D01*
X681130Y643000D01*
X680054Y648407D01*
X676991Y652991D01*
X672407Y656054D01*
X667000Y657130D01*
X661593Y656054D01*
X657009Y652991D01*
X653946Y648407D01*
X652870Y643000D01*
X653946Y637593D01*
X657009Y633009D01*
X661000Y630342D01*
Y618330D01*
X648000D01*
X647355Y618761D01*
Y628924D01*
X645670Y632992D01*
X643594Y635068D01*
X639527Y636753D01*
X488000D01*
X483932Y635068D01*
X470017Y621153D01*
X465315Y620433D01*
X465315Y620433D01*
X465315Y620433D01*
X417945D01*
Y541567D01*
X465315D01*
Y608909D01*
X471661D01*
X475729Y610594D01*
X483811Y618675D01*
X488811Y616604D01*
Y541567D01*
X536181D01*
Y568638D01*
X541181Y570710D01*
X586217Y525674D01*
X584571Y520249D01*
X583593Y520054D01*
X579009Y516991D01*
X577513Y514753D01*
X536500D01*
Y523000D01*
X503500D01*
Y498978D01*
X500000Y496817D01*
X496500Y498977D01*
Y523000D01*
X463500D01*
Y517627D01*
X444571D01*
X442991Y519991D01*
X438407Y523054D01*
X433000Y524130D01*
X427593Y523054D01*
X423009Y519991D01*
X419946Y515407D01*
X418870Y510000D01*
X419946Y504593D01*
X423009Y500009D01*
X423392Y499753D01*
X421875Y494753D01*
X304000D01*
X299932Y493068D01*
X294000Y487135D01*
X289000Y488130D01*
X283593Y487054D01*
X279009Y483991D01*
X275946Y479407D01*
X274870Y474000D01*
X275946Y468593D01*
X279009Y464009D01*
X283593Y460946D01*
X289000Y459870D01*
X294407Y460946D01*
X298991Y464009D01*
X302054Y468593D01*
X303130Y474000D01*
X302135Y479000D01*
X306383Y483247D01*
X318345D01*
X322000Y480000D01*
X322000Y478247D01*
Y450485D01*
X304895Y433380D01*
X298718Y433904D01*
X297991Y434991D01*
X293407Y438054D01*
X288000Y439130D01*
X285211Y438575D01*
X172784Y551002D01*
Y578087D01*
X209118D01*
Y610008D01*
X209118Y610008D01*
Y624216D01*
X229243Y644341D01*
X231000Y648583D01*
Y669657D01*
X229243Y673899D01*
X222028Y681114D01*
X217785Y682872D01*
X212818D01*
X209118Y686572D01*
Y716008D01*
X171157D01*
Y728087D01*
X209118D01*
Y766008D01*
X121197D01*
Y728087D01*
X159157D01*
Y716008D01*
X121197D01*
Y678087D01*
X200633D01*
X206090Y672629D01*
X210333Y670872D01*
X215300D01*
X219000Y667172D01*
Y651068D01*
X213737Y645806D01*
X209118Y647719D01*
Y666008D01*
X121197D01*
Y628087D01*
X196192D01*
X197118Y626701D01*
Y616008D01*
X121197D01*
Y578087D01*
X157531D01*
Y547843D01*
X157530Y547843D01*
X158111Y544924D01*
X159764Y542450D01*
X274425Y427789D01*
X273870Y425000D01*
X274946Y419593D01*
X278009Y415009D01*
X282593Y411946D01*
X288000Y410870D01*
X290789Y411425D01*
X324373Y377841D01*
Y259000D01*
X324373Y259000D01*
X324954Y256081D01*
X326607Y253607D01*
X346704Y233510D01*
Y223488D01*
X338520D01*
Y154465D01*
X370142D01*
Y223488D01*
X361958D01*
Y236669D01*
X361377Y239588D01*
X359724Y242062D01*
X359724Y242062D01*
X339627Y262159D01*
Y381000D01*
X339627Y381000D01*
X339046Y383919D01*
X337393Y386393D01*
X308675Y415111D01*
X309243Y420757D01*
X330485Y442000D01*
X360000D01*
Y478247D01*
X360000Y480000D01*
X363655Y483247D01*
X373345D01*
X377000Y480000D01*
X377000Y478247D01*
Y442000D01*
X415000D01*
Y458247D01*
X421177D01*
X424009Y454009D01*
X428593Y450946D01*
X434000Y449870D01*
X439407Y450946D01*
X443991Y454009D01*
X447054Y458593D01*
X448130Y464000D01*
X447054Y469407D01*
X443991Y473991D01*
X439407Y477054D01*
X434000Y478130D01*
X428593Y477054D01*
X424009Y473991D01*
X422633Y471932D01*
X416810Y471478D01*
X415000Y473288D01*
X415000Y480000D01*
X418655Y483247D01*
X452591D01*
X455773Y478247D01*
X455670Y478000D01*
Y322000D01*
X456938Y318938D01*
X460000Y317670D01*
X496373D01*
Y285571D01*
X494009Y283991D01*
X490946Y279407D01*
X489870Y274000D01*
X490946Y268593D01*
X494009Y264009D01*
X498593Y260946D01*
X504000Y259870D01*
X509407Y260946D01*
X513991Y264009D01*
X517054Y268593D01*
X518130Y274000D01*
X517054Y279407D01*
X513991Y283991D01*
X511627Y285571D01*
Y317670D01*
X534000D01*
X537061Y318938D01*
X542292Y318500D01*
X542938Y316938D01*
X546000Y315670D01*
X642000D01*
X645062Y316938D01*
X646330Y320000D01*
Y321247D01*
X698670D01*
Y321000D01*
X699938Y317938D01*
X703000Y316670D01*
X746000D01*
X749062Y317938D01*
X750330Y321000D01*
Y328085D01*
X751847Y332457D01*
X784846D01*
Y360457D01*
X774753D01*
Y374040D01*
X779753Y376111D01*
X790932Y364932D01*
X795000Y363247D01*
X801617D01*
X808000Y356864D01*
Y327000D01*
X846000D01*
Y365000D01*
X816136D01*
X808068Y373068D01*
X804000Y374753D01*
X797383D01*
X775068Y397068D01*
X771000Y398753D01*
X749307D01*
X732992Y415068D01*
X728924Y416753D01*
X725694D01*
X712412Y430035D01*
X714483Y435035D01*
X761830D01*
X764932Y431932D01*
X769000Y430247D01*
X788949D01*
Y422000D01*
X800676D01*
Y407697D01*
X800676Y407697D01*
X801257Y404778D01*
X802910Y402304D01*
X819607Y385607D01*
X819607Y385607D01*
X822081Y383954D01*
X825000Y383373D01*
X825000Y383373D01*
X845841D01*
X859373Y369841D01*
Y357571D01*
X857009Y355991D01*
X853946Y351407D01*
X852870Y346000D01*
X853946Y340593D01*
X857009Y336009D01*
X861593Y332946D01*
X867000Y331870D01*
X872407Y332946D01*
X874373Y334260D01*
X879373Y331587D01*
Y271659D01*
X827341Y219627D01*
X732571D01*
X730991Y221991D01*
X726407Y225054D01*
X721000Y226130D01*
X715593Y225054D01*
X711009Y221991D01*
X708761Y218627D01*
X692000D01*
X689081Y218046D01*
X686607Y216393D01*
X686607Y216393D01*
X673127Y202913D01*
X671473Y200438D01*
X670893Y197520D01*
X670013Y192984D01*
X654835D01*
Y137740D01*
X702205D01*
Y192984D01*
X691841D01*
X689770Y197984D01*
X695159Y203373D01*
X710097D01*
X711009Y202009D01*
X715593Y198946D01*
X721000Y197870D01*
X726407Y198946D01*
X730991Y202009D01*
X732571Y204373D01*
X830500D01*
X830500Y204373D01*
X833419Y204954D01*
X835893Y206607D01*
X892393Y263107D01*
X892393Y263107D01*
X894046Y265581D01*
X894627Y268500D01*
X894627Y268500D01*
Y492372D01*
X899627Y495541D01*
X903000Y494870D01*
X908407Y495946D01*
X912991Y499009D01*
X916054Y503593D01*
X917130Y509000D01*
X917081Y509247D01*
X921184Y514247D01*
X949990D01*
Y501000D01*
X986247D01*
X987990Y501000D01*
X991247Y497349D01*
Y487651D01*
X987990Y484000D01*
X949990D01*
Y446000D01*
X964000D01*
Y437658D01*
X960009Y434991D01*
X956946Y430407D01*
X955870Y425000D01*
X956946Y419593D01*
X958843Y416753D01*
X956567Y411753D01*
X932823D01*
X929991Y415991D01*
X925407Y419054D01*
X920000Y420130D01*
X914593Y419054D01*
X910009Y415991D01*
X906946Y411407D01*
X905870Y406000D01*
X906946Y400593D01*
X910009Y396009D01*
X914593Y392946D01*
X920000Y391870D01*
X925407Y392946D01*
X929991Y396009D01*
X932823Y400247D01*
X974000D01*
X978068Y401932D01*
X1001068Y424932D01*
X1002753Y429000D01*
Y441931D01*
X1005000Y446000D01*
X1007753Y446000D01*
X1040793D01*
X1042864Y441000D01*
X1022932Y421068D01*
X1021247Y417000D01*
Y370823D01*
X1017009Y367991D01*
X1013946Y363407D01*
X1012870Y358000D01*
X1013946Y352593D01*
X1017009Y348009D01*
X1021593Y344946D01*
X1027000Y343870D01*
X1032407Y344946D01*
X1036991Y348009D01*
X1040054Y352593D01*
X1041130Y358000D01*
X1040054Y363407D01*
X1036991Y367991D01*
X1032753Y370823D01*
Y414617D01*
X1057068Y438932D01*
X1058753Y443000D01*
Y449817D01*
X1063677Y450000D01*
X1063753Y450000D01*
X1078000D01*
Y441658D01*
X1074009Y438991D01*
X1070946Y434407D01*
X1069870Y429000D01*
X1070946Y423593D01*
X1074009Y419009D01*
X1078593Y415946D01*
X1084000Y414870D01*
X1089407Y415946D01*
X1093991Y419009D01*
X1096658Y423000D01*
X1146000D01*
X1150243Y424757D01*
X1174485Y449000D01*
X1204000D01*
Y487000D01*
X1191000D01*
Y504000D01*
X1204000D01*
Y517000D01*
X1226000D01*
Y505000D01*
X1239000D01*
Y488000D01*
X1226000D01*
Y450000D01*
X1264000D01*
Y463000D01*
X1295000D01*
Y451000D01*
X1333000D01*
Y489000D01*
X1295000D01*
Y475000D01*
X1264000D01*
Y488000D01*
X1251000D01*
Y505000D01*
X1264000D01*
Y543000D01*
X1226000D01*
Y529000D01*
X1204000D01*
Y542000D01*
X1166000D01*
Y504000D01*
X1179000D01*
Y487000D01*
X1166000D01*
Y457485D01*
X1143515Y435000D01*
X1096658D01*
X1093991Y438991D01*
X1090000Y441658D01*
Y450000D01*
X1101677D01*
Y488000D01*
X1063753D01*
X1063677Y488000D01*
X1061506Y488080D01*
X1059954Y493142D01*
X1071813Y505000D01*
X1101677D01*
Y538264D01*
X1101677Y541496D01*
X1106276Y543968D01*
X1114888Y535356D01*
Y512746D01*
X1114888Y512746D01*
X1115469Y509827D01*
X1117122Y507353D01*
X1122800Y501675D01*
X1121870Y497000D01*
X1122946Y491593D01*
X1126009Y487009D01*
X1130593Y483946D01*
X1136000Y482870D01*
X1141407Y483946D01*
X1145991Y487009D01*
X1149054Y491593D01*
X1150130Y497000D01*
X1149133Y502010D01*
X1149393Y502270D01*
X1151046Y504745D01*
X1151627Y507663D01*
Y535841D01*
X1173786Y558000D01*
X1201000D01*
Y596000D01*
X1163000D01*
Y568786D01*
X1138607Y544393D01*
X1136954Y541919D01*
X1136373Y539000D01*
X1136373Y539000D01*
Y521425D01*
X1131373Y518753D01*
X1130142Y519576D01*
Y538514D01*
X1130142Y538515D01*
X1129561Y541434D01*
X1127908Y543908D01*
X1127908Y543908D01*
X1101020Y570796D01*
Y598010D01*
X1063020D01*
Y560010D01*
X1090234D01*
X1102645Y547599D01*
X1100173Y543000D01*
X1097300Y543000D01*
X1063677D01*
Y513136D01*
X1048932Y498391D01*
X1047247Y494323D01*
Y485817D01*
X1043000Y484000D01*
X1042247Y484000D01*
X1007753D01*
X1005000Y484000D01*
X1002753Y488069D01*
Y496931D01*
X1005000Y501000D01*
X1043000D01*
Y539000D01*
X1005000D01*
Y518753D01*
X1000932Y517068D01*
X992990Y509126D01*
X992657Y509131D01*
X987990Y510202D01*
Y539000D01*
X949990D01*
Y525753D01*
X914000D01*
X909932Y524068D01*
X908000Y522135D01*
X903000Y523130D01*
X899627Y522459D01*
X894627Y525628D01*
Y602387D01*
X894627Y602388D01*
X894046Y605306D01*
X892393Y607780D01*
X892393Y607781D01*
X887780Y612393D01*
X885306Y614046D01*
X882388Y614627D01*
X882387Y614627D01*
X832627D01*
Y621935D01*
X837557Y623557D01*
X840513Y621582D01*
X844000Y620888D01*
X847487Y621582D01*
X850443Y623557D01*
X850904Y624247D01*
X953000D01*
Y611010D01*
X991000D01*
Y649010D01*
X953000D01*
Y635753D01*
X850904D01*
X850443Y636443D01*
X847487Y638418D01*
X844000Y639112D01*
X840513Y638418D01*
X837557Y636443D01*
X832627Y638065D01*
Y773064D01*
X837627Y774581D01*
X838009Y774009D01*
X842593Y770946D01*
X848000Y769870D01*
X853407Y770946D01*
X857991Y774009D01*
X861054Y778593D01*
X862130Y784000D01*
X861575Y786789D01*
X989393Y914607D01*
X989393Y914607D01*
X991046Y917081D01*
X991627Y920000D01*
Y1169841D01*
X1003762Y1181976D01*
X1008370Y1179513D01*
X1007870Y1177000D01*
X1008946Y1171593D01*
X1012009Y1167009D01*
X1016593Y1163946D01*
X1022000Y1162870D01*
X1027407Y1163946D01*
X1031991Y1167009D01*
X1035054Y1171593D01*
X1036130Y1177000D01*
X1035054Y1182407D01*
X1031991Y1186991D01*
X1029627Y1188571D01*
Y1216841D01*
X1034920Y1222134D01*
X1036574Y1224609D01*
X1036586Y1224669D01*
X1041586Y1224177D01*
Y1167372D01*
X1004607Y1130393D01*
X1002954Y1127919D01*
X1002373Y1125000D01*
X1002373Y1124999D01*
Y905159D01*
X859789Y762575D01*
X857000Y763130D01*
X851593Y762054D01*
X847009Y758991D01*
X843946Y754407D01*
X842870Y749000D01*
X843946Y743593D01*
X847009Y739009D01*
X851593Y735946D01*
X857000Y734870D01*
X862407Y735946D01*
X866991Y739009D01*
X870054Y743593D01*
X871130Y749000D01*
X870575Y751789D01*
X1015393Y896607D01*
X1015393Y896607D01*
X1017046Y899081D01*
X1017627Y902000D01*
X1017627Y902000D01*
Y936064D01*
X1022627Y937581D01*
X1023009Y937009D01*
X1027593Y933946D01*
X1033000Y932870D01*
X1038407Y933946D01*
X1042991Y937009D01*
X1046054Y941593D01*
X1047130Y947000D01*
X1046054Y952407D01*
X1042991Y956991D01*
X1040627Y958571D01*
Y1014841D01*
X1165393Y1139607D01*
X1165393Y1139607D01*
X1167046Y1142081D01*
X1167627Y1145000D01*
Y1240516D01*
X1172627Y1242587D01*
X1444607Y970607D01*
X1447081Y968954D01*
X1450000Y968373D01*
X1450001Y968373D01*
X1560841D01*
X1644607Y884607D01*
X1644607Y884607D01*
X1647081Y882954D01*
X1650000Y882373D01*
X1650001Y882373D01*
X1669919D01*
X1672591Y877373D01*
X1671946Y876407D01*
X1670870Y871000D01*
X1671946Y865593D01*
X1675009Y861009D01*
X1679593Y857946D01*
X1685000Y856870D01*
X1690407Y857946D01*
X1694991Y861009D01*
X1696676Y863531D01*
X1748055D01*
Y861409D01*
X1768724D01*
Y818102D01*
X1810373D01*
Y808159D01*
X1786841Y784627D01*
X1692159D01*
X1531393Y945393D01*
X1528919Y947046D01*
X1526000Y947627D01*
X1525999Y947627D01*
X1422159D01*
X1378575Y991211D01*
X1379130Y994000D01*
X1378054Y999407D01*
X1374991Y1003991D01*
X1370407Y1007054D01*
X1365000Y1008130D01*
X1359593Y1007054D01*
X1355009Y1003991D01*
X1351946Y999407D01*
X1350870Y994000D01*
X1351946Y988593D01*
X1355009Y984009D01*
X1355022Y984000D01*
Y979000D01*
X1355009Y978991D01*
X1351946Y974407D01*
X1350870Y969000D01*
X1351946Y963593D01*
X1355009Y959009D01*
X1359593Y955946D01*
X1365000Y954870D01*
X1366955Y955259D01*
X1404607Y917607D01*
X1407081Y915954D01*
X1410000Y915373D01*
X1502841D01*
X1661607Y756607D01*
X1664081Y754954D01*
X1667000Y754373D01*
X1667001Y754373D01*
X1876999D01*
X1877000Y754373D01*
X1879919Y754954D01*
X1882393Y756607D01*
X1943407Y817621D01*
X1948407Y815550D01*
Y54222D01*
X1943407Y53730D01*
X1942311Y59241D01*
X1937076Y67076D01*
X1929241Y72311D01*
X1920000Y74149D01*
X1910759Y72311D01*
X1902924Y67076D01*
X1897689Y59241D01*
X1895851Y50000D01*
X1897689Y40759D01*
X1902924Y32924D01*
X1910759Y27689D01*
X1920000Y25851D01*
X1929241Y27689D01*
X1937076Y32924D01*
X1942311Y40759D01*
X1943407Y46270D01*
X1948407Y45778D01*
Y20097D01*
X523685D01*
Y75850D01*
X468441D01*
Y20097D01*
X318961D01*
Y75850D01*
X263717D01*
Y20097D01*
X20097D01*
X11015Y2152457D01*
X14543Y2156000D01*
X837754D01*
X838253Y2155253D01*
D02*
G37*
G36*
X875591Y1963323D02*
X894440D01*
X897450Y1961714D01*
X906616Y1954191D01*
X914139Y1945024D01*
X919729Y1934566D01*
X923172Y1923219D01*
X924334Y1911417D01*
Y1888583D01*
X923428Y1879383D01*
Y1685008D01*
X923887Y1684149D01*
X927329Y1672801D01*
X928491Y1661000D01*
Y1631000D01*
X927329Y1619199D01*
X923887Y1607851D01*
X918297Y1597393D01*
X910774Y1588226D01*
X901607Y1580703D01*
X891149Y1575113D01*
X879801Y1571671D01*
X876739Y1571369D01*
X872000Y1575927D01*
Y1610000D01*
X834000D01*
Y1575927D01*
X829261Y1571369D01*
X826199Y1571671D01*
X814851Y1575113D01*
X814662Y1575214D01*
X807500Y1574509D01*
X782500D01*
X770699Y1575671D01*
X759351Y1579113D01*
X748893Y1584703D01*
X739726Y1592226D01*
X732203Y1601393D01*
X726613Y1611851D01*
X723171Y1623199D01*
X722009Y1635000D01*
Y1655000D01*
X723171Y1666801D01*
X726613Y1678149D01*
X732203Y1688607D01*
X739726Y1697774D01*
X748893Y1705297D01*
X759351Y1710887D01*
X770699Y1714329D01*
X782500Y1715491D01*
X784572D01*
Y1879383D01*
X783666Y1888583D01*
Y1911417D01*
X784828Y1923219D01*
X788271Y1934566D01*
X793861Y1945024D01*
X801384Y1954191D01*
X810550Y1961714D01*
X813560Y1963323D01*
X832409D01*
Y1967323D01*
X875591D01*
Y1963323D01*
D02*
G37*
G36*
X1948407Y2140593D02*
Y1148954D01*
X1943407Y1146883D01*
X1859027Y1231263D01*
X1860941Y1235882D01*
X1875118D01*
Y1248844D01*
X1892393Y1266119D01*
X1894046Y1268593D01*
X1894627Y1271512D01*
Y1312755D01*
X1894627Y1312756D01*
X1894627Y1312756D01*
Y1376000D01*
X1894046Y1378919D01*
X1892393Y1381393D01*
X1892393Y1381393D01*
X1867393Y1406393D01*
X1864919Y1408046D01*
X1862000Y1408627D01*
X1861999Y1408627D01*
X1772001D01*
X1772000Y1408627D01*
X1769081Y1408046D01*
X1766607Y1406393D01*
X1686789Y1326575D01*
X1684000Y1327130D01*
X1678593Y1326054D01*
X1674009Y1322991D01*
X1670946Y1318407D01*
X1669870Y1313000D01*
X1670946Y1307593D01*
X1674009Y1303009D01*
X1678593Y1299946D01*
X1684000Y1298870D01*
X1689407Y1299946D01*
X1693991Y1303009D01*
X1697054Y1307593D01*
X1698130Y1313000D01*
X1697575Y1315789D01*
X1775159Y1393373D01*
X1816560D01*
X1818077Y1388373D01*
X1816009Y1386991D01*
X1812946Y1382407D01*
X1811870Y1377000D01*
X1812946Y1371593D01*
X1816009Y1367009D01*
X1820593Y1363946D01*
X1826000Y1362870D01*
X1831407Y1363946D01*
X1835991Y1367009D01*
X1838658Y1371000D01*
X1849515D01*
X1857244Y1363271D01*
Y1354118D01*
X1851370D01*
Y1348244D01*
X1825244D01*
X1821002Y1346487D01*
X1816623Y1342108D01*
X1816370Y1342115D01*
X1811521Y1344077D01*
X1810810Y1347651D01*
X1807747Y1352235D01*
X1803163Y1355298D01*
X1797756Y1356374D01*
X1792349Y1355298D01*
X1787765Y1352235D01*
X1786185Y1349871D01*
X1780630D01*
Y1354118D01*
X1756882D01*
Y1330370D01*
X1780630D01*
Y1334617D01*
X1786185D01*
X1787765Y1332253D01*
X1792349Y1329190D01*
X1797756Y1328114D01*
X1799381Y1328438D01*
X1799798Y1328308D01*
X1804000Y1324258D01*
Y1301000D01*
X1805757Y1296757D01*
X1827505Y1275009D01*
X1831748Y1273252D01*
X1851370D01*
Y1267378D01*
X1864719D01*
X1866678Y1262847D01*
X1864056Y1259630D01*
X1851370D01*
Y1245453D01*
X1846751Y1243539D01*
X1780630Y1309660D01*
Y1322622D01*
X1756882D01*
Y1306144D01*
X1752263Y1304231D01*
X1746251Y1310243D01*
X1742008Y1312000D01*
X1736658D01*
X1733991Y1315991D01*
X1729407Y1319054D01*
X1724000Y1320130D01*
X1718593Y1319054D01*
X1714009Y1315991D01*
X1710946Y1311407D01*
X1709870Y1306000D01*
X1710946Y1300593D01*
X1714009Y1296009D01*
X1718593Y1292946D01*
X1724000Y1291870D01*
X1729407Y1292946D01*
X1733991Y1296009D01*
X1735340Y1298027D01*
X1741062Y1298461D01*
X1756882Y1282641D01*
Y1267378D01*
X1780630D01*
Y1281555D01*
X1785249Y1283469D01*
X1872091Y1196627D01*
X1870020Y1191627D01*
X1845159D01*
X1821393Y1215393D01*
X1818919Y1217046D01*
X1816000Y1217627D01*
X1815999Y1217627D01*
X1745159D01*
X1606627Y1356159D01*
Y1372000D01*
X1618000D01*
Y1410000D01*
X1606627D01*
Y1442370D01*
X1617693D01*
Y1480370D01*
X1579693D01*
Y1442370D01*
X1591373D01*
Y1410000D01*
X1580000D01*
Y1372000D01*
X1591373D01*
Y1353001D01*
X1591373Y1353000D01*
X1591954Y1350081D01*
X1593607Y1347607D01*
X1600968Y1340246D01*
X1599054Y1335627D01*
X1150287D01*
X1150210Y1335706D01*
X1148072Y1340627D01*
X1150054Y1343593D01*
X1151130Y1349000D01*
X1150054Y1354407D01*
X1149335Y1355483D01*
X1152008Y1360483D01*
X1169446D01*
X1170000Y1360373D01*
X1176097D01*
X1177009Y1359009D01*
X1181593Y1355946D01*
X1187000Y1354870D01*
X1192407Y1355946D01*
X1196991Y1359009D01*
X1200054Y1363593D01*
X1201130Y1369000D01*
X1200054Y1374407D01*
X1196991Y1378991D01*
X1194504Y1380653D01*
Y1386347D01*
X1196991Y1388009D01*
X1200054Y1392593D01*
X1201130Y1398000D01*
X1200054Y1403407D01*
X1196991Y1407991D01*
X1194504Y1409653D01*
Y1415347D01*
X1196991Y1417009D01*
X1200054Y1421593D01*
X1201130Y1427000D01*
X1200054Y1432407D01*
X1196991Y1436991D01*
X1192407Y1440054D01*
X1190909Y1440352D01*
X1189263Y1445778D01*
X1193586Y1450101D01*
X1195343Y1454343D01*
Y1469908D01*
X1196991Y1471009D01*
X1200054Y1475593D01*
X1201130Y1481000D01*
X1200054Y1486407D01*
X1196991Y1490991D01*
X1192407Y1494054D01*
X1187000Y1495130D01*
X1182292Y1494193D01*
X1166337Y1510148D01*
X1162094Y1511906D01*
X1108331D01*
Y1515811D01*
X1078803D01*
Y1533339D01*
X1095339D01*
X1099581Y1535096D01*
X1106292Y1541807D01*
X1111000Y1540870D01*
X1116407Y1541946D01*
X1120991Y1545009D01*
X1124054Y1549593D01*
X1125130Y1555000D01*
X1124054Y1560407D01*
X1120991Y1564991D01*
X1118368Y1566744D01*
X1119884Y1571744D01*
X1235470D01*
X1404925Y1402289D01*
X1404370Y1399500D01*
X1405446Y1394093D01*
X1408509Y1389509D01*
X1413093Y1386446D01*
X1418500Y1385370D01*
X1423907Y1386446D01*
X1428491Y1389509D01*
X1431554Y1394093D01*
X1432630Y1399500D01*
X1431554Y1404907D01*
X1428491Y1409491D01*
X1423907Y1412554D01*
X1418500Y1413630D01*
X1415711Y1413075D01*
X1244022Y1584764D01*
X1241548Y1586417D01*
X1238629Y1586998D01*
X1238629Y1586998D01*
X1093997D01*
X1091054Y1591591D01*
X1091054Y1591593D01*
X1092130Y1597000D01*
X1091054Y1602407D01*
X1087991Y1606991D01*
X1083407Y1610054D01*
X1080477Y1610637D01*
X1077801Y1615663D01*
X1077791Y1615881D01*
X1078086Y1616373D01*
X1120429D01*
X1122009Y1614009D01*
X1126593Y1610946D01*
X1132000Y1609870D01*
X1137407Y1610946D01*
X1141991Y1614009D01*
X1145054Y1618593D01*
X1146130Y1624000D01*
X1145054Y1629407D01*
X1141991Y1633991D01*
X1137407Y1637054D01*
X1132000Y1638130D01*
X1126593Y1637054D01*
X1122009Y1633991D01*
X1120429Y1631627D01*
X1073834D01*
X1071763Y1636627D01*
X1086635Y1651499D01*
X1088919Y1651954D01*
X1091043Y1653373D01*
X1502841D01*
X1594617Y1561597D01*
Y1554433D01*
X1583244D01*
Y1516433D01*
X1621244D01*
Y1521901D01*
X1712732D01*
Y1471394D01*
X1775457D01*
Y1587661D01*
X1751721D01*
Y1737142D01*
X1775653D01*
Y1853409D01*
X1712535D01*
Y1737142D01*
X1736468D01*
Y1587661D01*
X1712732D01*
Y1537154D01*
X1621244D01*
Y1554433D01*
X1609871D01*
Y1564756D01*
X1609290Y1567675D01*
X1607637Y1570149D01*
X1511393Y1666393D01*
X1508919Y1668046D01*
X1506000Y1668627D01*
X1505999Y1668627D01*
X1088000D01*
X1085081Y1668046D01*
X1082607Y1666393D01*
X1082607Y1666393D01*
X1080607Y1664393D01*
X1078954Y1661919D01*
X1078499Y1659635D01*
X970538Y1551674D01*
X968853Y1547606D01*
Y1545339D01*
X861073D01*
Y1572000D01*
X869837D01*
X873738Y1568249D01*
X873907Y1568183D01*
X873992Y1568023D01*
X875427Y1567587D01*
X876823Y1567041D01*
X876989Y1567113D01*
X877163Y1567061D01*
X880226Y1567362D01*
X880617Y1567571D01*
X881058Y1567528D01*
X892406Y1570970D01*
X892749Y1571251D01*
X893190Y1571295D01*
X903648Y1576885D01*
X903930Y1577228D01*
X904354Y1577357D01*
X913520Y1584879D01*
X913730Y1585271D01*
X914121Y1585479D01*
X921644Y1594646D01*
X921772Y1595071D01*
X922115Y1595352D01*
X927705Y1605810D01*
X927749Y1606251D01*
X928030Y1606594D01*
X931472Y1617942D01*
X931429Y1618383D01*
X931638Y1618774D01*
X932800Y1630576D01*
X932735Y1630792D01*
X932821Y1631000D01*
Y1646122D01*
X933561Y1651743D01*
X932821Y1657364D01*
Y1661000D01*
X932735Y1661208D01*
X932800Y1661424D01*
X931638Y1673226D01*
X931429Y1673617D01*
X931472Y1674058D01*
X928030Y1685406D01*
X927757Y1685738D01*
Y1705908D01*
X928497Y1711529D01*
X927757Y1717150D01*
Y1765908D01*
X928497Y1771529D01*
X927757Y1777150D01*
Y1825908D01*
X928497Y1831529D01*
X927757Y1837150D01*
Y1879169D01*
X928643Y1888158D01*
X928577Y1888374D01*
X928663Y1888583D01*
Y1911417D01*
X928577Y1911626D01*
X928643Y1911842D01*
X927480Y1923643D01*
X927271Y1924034D01*
X927315Y1924475D01*
X923872Y1935823D01*
X923591Y1936166D01*
X923548Y1936607D01*
X917958Y1947065D01*
X917615Y1947347D01*
X917486Y1947771D01*
X909963Y1956938D01*
X909572Y1957147D01*
X909363Y1957538D01*
X908050Y1958615D01*
X909735Y1963323D01*
X913118D01*
Y1994334D01*
X938618Y2019834D01*
X940375Y2024076D01*
Y2024542D01*
X942407Y2024946D01*
X946991Y2028009D01*
X949658Y2032000D01*
X965000D01*
X969243Y2033757D01*
X974188Y2038702D01*
X975945Y2042945D01*
Y2086764D01*
X983591D01*
Y2115236D01*
X956701D01*
X956300Y2115236D01*
Y2115236D01*
X951701D01*
Y2115236D01*
X924410D01*
Y2109711D01*
X877701D01*
Y2121307D01*
X863711D01*
Y2150049D01*
X864063Y2150119D01*
X871747Y2155253D01*
X872246Y2156000D01*
X1933000D01*
X1948407Y2140593D01*
D02*
G37*
G36*
X1152373Y1240841D02*
Y1148159D01*
X1027607Y1023393D01*
X1025954Y1020919D01*
X1025373Y1018000D01*
X1025373Y1018000D01*
Y960142D01*
X1022627Y958068D01*
X1017627Y960153D01*
Y1121841D01*
X1054606Y1158820D01*
X1056259Y1161294D01*
X1056840Y1164213D01*
X1056839Y1164213D01*
Y1249937D01*
X1070318D01*
X1077873Y1242382D01*
X1082116Y1240624D01*
X1082542D01*
X1082946Y1238593D01*
X1086009Y1234009D01*
X1090593Y1230946D01*
X1096000Y1229870D01*
X1101407Y1230946D01*
X1105991Y1234009D01*
X1109054Y1238593D01*
X1110130Y1244000D01*
X1109054Y1249407D01*
X1105991Y1253991D01*
X1101407Y1257054D01*
X1096000Y1258130D01*
X1090593Y1257054D01*
X1086009Y1253991D01*
X1081293Y1255933D01*
X1078803Y1258422D01*
Y1279465D01*
X1108331D01*
Y1279465D01*
X1113331Y1279883D01*
X1152373Y1240841D01*
D02*
G37*
G36*
X1131081Y1320954D02*
X1134000Y1320373D01*
X1134001Y1320373D01*
X1604841D01*
X1638219Y1286995D01*
X1636509Y1281634D01*
X1633593Y1281054D01*
X1629009Y1277991D01*
X1627429Y1275627D01*
X1561001D01*
X1561000Y1275627D01*
X1558081Y1275046D01*
X1555607Y1273393D01*
X1534607Y1252393D01*
X1532954Y1249919D01*
X1532373Y1247000D01*
X1529216Y1243409D01*
X1516433D01*
Y1205409D01*
X1531743D01*
Y1180417D01*
X1520370D01*
Y1142417D01*
X1520370D01*
X1519864Y1137627D01*
X1477001D01*
X1477000Y1137627D01*
X1474081Y1137046D01*
X1471607Y1135393D01*
X1428607Y1092393D01*
X1426954Y1089919D01*
X1426373Y1087000D01*
X1426373Y1086999D01*
Y1064001D01*
X1426373Y1064000D01*
X1426954Y1061081D01*
X1428607Y1058607D01*
X1449977Y1037237D01*
X1452451Y1035584D01*
X1455370Y1035003D01*
X1455371Y1035003D01*
X1518512D01*
Y1023630D01*
X1529373D01*
Y1009571D01*
X1527009Y1007991D01*
X1523946Y1003407D01*
X1522870Y998000D01*
X1523946Y992593D01*
X1526596Y988627D01*
X1525890Y986002D01*
X1524567Y983627D01*
X1453159D01*
X1123393Y1313393D01*
X1120919Y1315046D01*
X1118000Y1315627D01*
X1117999Y1315627D01*
X1108331D01*
Y1321113D01*
X1130842D01*
X1131081Y1320954D01*
D02*
G37*
G36*
X1664373Y1260841D02*
Y1163484D01*
X1659373Y1161413D01*
X1651393Y1169393D01*
X1648919Y1171046D01*
X1646000Y1171627D01*
X1645999Y1171627D01*
X1613370D01*
Y1180417D01*
X1601000D01*
Y1191000D01*
X1599243Y1195243D01*
X1596433Y1198052D01*
Y1205409D01*
X1609433D01*
Y1243409D01*
X1571433D01*
Y1205409D01*
X1584433D01*
Y1195567D01*
X1586190Y1191324D01*
X1589000Y1188515D01*
Y1180417D01*
X1575370D01*
Y1142417D01*
X1575370D01*
X1574864Y1137627D01*
X1558876D01*
X1558370Y1142417D01*
X1558370D01*
Y1180417D01*
X1546997D01*
Y1205409D01*
X1554433D01*
Y1243409D01*
X1554266D01*
X1552195Y1248409D01*
X1564159Y1260373D01*
X1627429D01*
X1629009Y1258009D01*
X1633593Y1254946D01*
X1639000Y1253870D01*
X1644407Y1254946D01*
X1648991Y1258009D01*
X1652054Y1262593D01*
X1652634Y1265509D01*
X1657995Y1267219D01*
X1664373Y1260841D01*
D02*
G37*
G36*
Y1130516D02*
Y1109685D01*
Y980000D01*
X1664373Y980000D01*
X1664954Y977081D01*
X1666607Y974607D01*
X1710231Y930983D01*
X1709605Y928516D01*
X1708177Y925966D01*
X1703593Y925054D01*
X1699009Y921991D01*
X1695946Y917407D01*
X1694870Y912000D01*
X1695946Y906593D01*
X1698596Y902627D01*
X1697890Y900002D01*
X1696567Y897627D01*
X1653159D01*
X1569393Y981393D01*
X1566919Y983046D01*
X1564000Y983627D01*
X1563999Y983627D01*
X1549433D01*
X1548110Y986002D01*
X1547404Y988627D01*
X1550054Y992593D01*
X1551130Y998000D01*
X1550054Y1003407D01*
X1546991Y1007991D01*
X1544627Y1009571D01*
Y1023630D01*
X1556512D01*
Y1061630D01*
X1518512D01*
Y1050257D01*
X1458529D01*
X1441627Y1067159D01*
Y1083841D01*
X1480159Y1122373D01*
X1514397D01*
X1518000Y1119000D01*
X1518000Y1117373D01*
Y1081000D01*
X1556000D01*
Y1117373D01*
X1556000Y1119000D01*
X1559603Y1122373D01*
X1569397D01*
X1573000Y1119000D01*
X1573000Y1117373D01*
Y1081000D01*
X1611000D01*
Y1117373D01*
X1611000Y1119000D01*
X1614603Y1122373D01*
X1645999D01*
X1646000Y1122373D01*
X1648919Y1122954D01*
X1651393Y1124607D01*
X1659373Y1132587D01*
X1664373Y1130516D01*
D02*
G37*
G36*
X1736607Y1204607D02*
X1736607Y1204607D01*
X1739081Y1202954D01*
X1742000Y1202373D01*
X1785347D01*
X1786863Y1197373D01*
X1784324Y1195676D01*
X1781261Y1191092D01*
X1780185Y1185685D01*
X1781261Y1180278D01*
X1784324Y1175694D01*
X1786688Y1174114D01*
Y1162898D01*
X1764724D01*
Y1119591D01*
X1744055D01*
Y1117312D01*
X1679627D01*
Y1255054D01*
X1684246Y1256968D01*
X1736607Y1204607D01*
D02*
G37*
G36*
X1844449Y1099780D02*
Y1080094D01*
Y1061520D01*
X1783551D01*
Y1080094D01*
Y1099780D01*
Y1118480D01*
X1844449D01*
Y1099780D01*
D02*
G37*
G36*
X714268Y1348000D02*
X713870Y1346000D01*
X714946Y1340593D01*
X718009Y1336009D01*
X722593Y1332946D01*
X728000Y1331870D01*
X733407Y1332946D01*
X737991Y1336009D01*
X740823Y1340247D01*
X747373D01*
Y1167001D01*
X747373Y1167000D01*
X747954Y1164081D01*
X749607Y1161607D01*
X888425Y1022789D01*
X887870Y1020000D01*
X888852Y1015064D01*
X887641Y1013045D01*
X885591Y1010614D01*
X883000Y1011130D01*
X878292Y1010193D01*
X723000Y1165485D01*
Y1303000D01*
X721243Y1307243D01*
X697000Y1331485D01*
Y1345515D01*
X704485Y1353000D01*
X710454D01*
X714268Y1348000D01*
D02*
G37*
G36*
X1700606Y1097058D02*
X1699009Y1095991D01*
X1695946Y1091407D01*
X1694870Y1086000D01*
X1695946Y1080593D01*
X1699009Y1076009D01*
X1703593Y1072946D01*
X1709000Y1071870D01*
X1711881Y1072443D01*
X1715722Y1070694D01*
X1716871Y1068726D01*
X1717631Y1064908D01*
X1720694Y1060324D01*
X1725278Y1057261D01*
X1730685Y1056185D01*
X1736092Y1057261D01*
X1739435Y1059494D01*
X1744055Y1060409D01*
X1744055Y1060409D01*
X1744056Y1060409D01*
X1764724D01*
Y1017102D01*
X1863276D01*
Y1033311D01*
X1890204D01*
X1903807Y1019708D01*
X1902870Y1015000D01*
X1903946Y1009593D01*
X1907009Y1005009D01*
X1911593Y1001946D01*
X1917000Y1000870D01*
X1922407Y1001946D01*
X1926991Y1005009D01*
X1929373Y1008574D01*
X1934373Y1007628D01*
Y972946D01*
X1929754Y971032D01*
X1911393Y989393D01*
X1911393Y989393D01*
X1908919Y991046D01*
X1906000Y991627D01*
X1856001D01*
X1856000Y991627D01*
X1855999Y991627D01*
X1722159D01*
X1705575Y1008211D01*
X1706130Y1011000D01*
X1705054Y1016407D01*
X1701991Y1020991D01*
X1697407Y1024054D01*
X1692000Y1025130D01*
X1686593Y1024054D01*
X1684627Y1022740D01*
X1679627Y1025413D01*
Y1102058D01*
X1699089D01*
X1700606Y1097058D01*
D02*
G37*
G36*
X1923373Y955841D02*
Y940960D01*
X1918373Y938260D01*
X1914000Y939130D01*
X1908593Y938054D01*
X1904009Y934991D01*
X1900946Y930407D01*
X1899870Y925000D01*
X1900807Y920292D01*
X1897200Y916685D01*
X1887945D01*
Y920591D01*
X1867276D01*
Y963898D01*
X1864997D01*
Y976373D01*
X1902841D01*
X1923373Y955841D01*
D02*
G37*
G36*
X1686593Y997946D02*
X1692000Y996870D01*
X1694789Y997425D01*
X1713607Y978607D01*
X1713607Y978607D01*
X1716081Y976954D01*
X1719000Y976373D01*
X1719001Y976373D01*
X1849743D01*
Y963898D01*
X1768724D01*
Y920591D01*
X1748055D01*
Y920591D01*
X1743055Y919731D01*
X1679627Y983159D01*
Y996587D01*
X1684627Y999260D01*
X1686593Y997946D01*
D02*
G37*
G36*
X1848449Y900779D02*
Y862520D01*
X1787551D01*
Y884196D01*
X1792551Y886869D01*
X1792908Y886631D01*
X1798315Y885555D01*
X1803722Y886631D01*
X1808306Y889694D01*
X1811369Y894278D01*
X1812445Y899685D01*
X1811369Y905092D01*
X1808306Y909676D01*
X1805942Y911256D01*
Y919480D01*
X1848449D01*
Y900779D01*
D02*
G37*
G36*
X967000Y1009870D02*
X971373Y1010740D01*
X976373Y1008040D01*
Y923159D01*
X850789Y797575D01*
X848000Y798130D01*
X842593Y797054D01*
X838009Y793991D01*
X837627Y793419D01*
X832627Y794936D01*
Y844841D01*
X838573Y850787D01*
X841362Y850232D01*
X846769Y851308D01*
X851353Y854371D01*
X854416Y858955D01*
X855492Y864362D01*
X854416Y869769D01*
X851353Y874353D01*
X846769Y877416D01*
X845522Y877664D01*
X843876Y883090D01*
X955393Y994607D01*
X955393Y994607D01*
X957046Y997081D01*
X957627Y1000000D01*
X957627Y1000000D01*
Y1008040D01*
X962627Y1010740D01*
X967000Y1009870D01*
D02*
G37*
G36*
X1934373Y896054D02*
Y830159D01*
X1873841Y769627D01*
X1856440D01*
X1854923Y774627D01*
X1856991Y776009D01*
X1860054Y780593D01*
X1861130Y786000D01*
X1860148Y790935D01*
X1861613Y792400D01*
X1863370Y796643D01*
Y818102D01*
X1867276D01*
Y861409D01*
X1887945D01*
Y861978D01*
X1892315Y863688D01*
X1895234Y864269D01*
X1897708Y865922D01*
X1929754Y897968D01*
X1934373Y896054D01*
D02*
G37*
G36*
X588000Y620330D02*
X584938Y619062D01*
X583670Y616000D01*
Y558000D01*
X584938Y554938D01*
X588000Y553670D01*
X610194D01*
X620074Y543790D01*
Y525466D01*
X619962Y525392D01*
X618165Y522701D01*
X617534Y519528D01*
X617987Y517245D01*
X615547Y515103D01*
X613864Y514298D01*
X543094Y585068D01*
X539026Y586753D01*
X536181D01*
Y620433D01*
X536181D01*
X536630Y625247D01*
X587801D01*
X588000Y620330D01*
D02*
G37*
G36*
X812845Y850862D02*
X817373Y848000D01*
X817373Y848000D01*
Y610159D01*
X810544Y603330D01*
X773000D01*
X769938Y602062D01*
X768670Y599000D01*
Y550922D01*
X720086Y502337D01*
X714986Y504309D01*
X714906Y505983D01*
X751068Y542145D01*
X752753Y546213D01*
Y612774D01*
X756618Y615946D01*
X757000Y615870D01*
X762407Y616946D01*
X766991Y620009D01*
X770054Y624593D01*
X771130Y630000D01*
X770054Y635407D01*
X766991Y639991D01*
X762407Y643054D01*
X757000Y644130D01*
X751593Y643054D01*
X748753Y641157D01*
X743753Y643433D01*
Y687617D01*
X757068Y700932D01*
X758753Y705000D01*
Y715177D01*
X762991Y718009D01*
X766054Y722593D01*
X767130Y728000D01*
X766054Y733407D01*
X762991Y737991D01*
X758407Y741054D01*
X753000Y742130D01*
X747593Y741054D01*
X743009Y737991D01*
X740753Y734615D01*
X735753Y736005D01*
Y742177D01*
X739991Y745009D01*
X743054Y749593D01*
X744130Y755000D01*
X743054Y760407D01*
X739991Y764991D01*
X735709Y767852D01*
X735366Y768233D01*
X734182Y773396D01*
X811804Y851018D01*
X812845Y850862D01*
D02*
G37*
G36*
X879373Y599228D02*
Y374767D01*
X874373Y374275D01*
X874046Y375919D01*
X872393Y378393D01*
X872393Y378393D01*
X854393Y396393D01*
X851919Y398046D01*
X849000Y398627D01*
X849000Y398627D01*
X828159D01*
X824735Y402051D01*
X825051Y403206D01*
X827187Y406670D01*
X865000D01*
X868062Y407938D01*
X869330Y411000D01*
Y597000D01*
X870915Y599373D01*
X879228D01*
X879373Y599228D01*
D02*
G37*
%LPC*%
G36*
X135000Y1949730D02*
X123164Y1948172D01*
X112135Y1943603D01*
X102664Y1936336D01*
X95397Y1926865D01*
X90828Y1915836D01*
X89270Y1904000D01*
X90828Y1892164D01*
X95397Y1881135D01*
X102664Y1871664D01*
X112135Y1864397D01*
X123164Y1859828D01*
X135000Y1858270D01*
X146836Y1859828D01*
X157865Y1864397D01*
X167336Y1871664D01*
X174603Y1881135D01*
X179172Y1892164D01*
X180730Y1904000D01*
X179172Y1915836D01*
X174603Y1926865D01*
X167336Y1936336D01*
X157865Y1943603D01*
X146836Y1948172D01*
X135000Y1949730D01*
D02*
G37*
G36*
X82740Y1450850D02*
X43244D01*
Y1411354D01*
X82740D01*
Y1423476D01*
X105464D01*
X109000Y1419940D01*
X109000Y1409000D01*
X104132Y1408682D01*
X92001D01*
X92000Y1408682D01*
X89081Y1408101D01*
X86607Y1406448D01*
X86607Y1406448D01*
X71954Y1391795D01*
X43244D01*
Y1352299D01*
X82740D01*
Y1381009D01*
X95159Y1393428D01*
X104592D01*
X109000Y1392000D01*
X109000Y1388428D01*
Y1354000D01*
X121000D01*
Y1303658D01*
X117009Y1300991D01*
X113946Y1296407D01*
X112870Y1291000D01*
X113946Y1285593D01*
X117009Y1281009D01*
X121593Y1277946D01*
X127000Y1276870D01*
X132407Y1277946D01*
X136991Y1281009D01*
X140054Y1285593D01*
X141130Y1291000D01*
X140054Y1296407D01*
X136991Y1300991D01*
X133000Y1303658D01*
Y1354000D01*
X147000D01*
X147000Y1392000D01*
X151408Y1393428D01*
X177000D01*
Y1373000D01*
X235000D01*
Y1417000D01*
X177000D01*
Y1408682D01*
X151868D01*
X147000Y1409000D01*
X147000Y1413682D01*
Y1447000D01*
X109000D01*
Y1438729D01*
X82740D01*
Y1450850D01*
D02*
G37*
G36*
X416000Y1234000D02*
X378000D01*
Y1222627D01*
X371000D01*
X371000Y1222627D01*
X368081Y1222046D01*
X365607Y1220393D01*
X310000Y1164786D01*
X305000Y1165011D01*
Y1179000D01*
X261000D01*
Y1135000D01*
X305000D01*
Y1149373D01*
X313000D01*
X313000Y1149373D01*
X315919Y1149954D01*
X318393Y1151607D01*
X373000Y1206214D01*
X378000Y1204575D01*
Y1196000D01*
X416000D01*
Y1234000D01*
D02*
G37*
G36*
X73748Y1251276D02*
X34252D01*
Y1211780D01*
X73748D01*
Y1223901D01*
X101464D01*
X105000Y1220365D01*
X105000Y1212000D01*
X100155Y1211627D01*
X85528D01*
X85528Y1211627D01*
X82609Y1211046D01*
X80135Y1209393D01*
X80134Y1209393D01*
X62962Y1192220D01*
X34252D01*
Y1152724D01*
X73748D01*
Y1181434D01*
X88687Y1196373D01*
X100569D01*
X105000Y1195000D01*
X105000Y1191373D01*
Y1157000D01*
Y952000D01*
X106757Y947757D01*
X151807Y902708D01*
X150870Y898000D01*
X151946Y892593D01*
X155009Y888009D01*
X157373Y886429D01*
Y816008D01*
X121197D01*
Y778087D01*
X209118D01*
Y816008D01*
X172627D01*
Y886429D01*
X174991Y888009D01*
X178054Y892593D01*
X179130Y898000D01*
X178054Y903407D01*
X174991Y907991D01*
X170407Y911054D01*
X165000Y912130D01*
X160292Y911193D01*
X117000Y954485D01*
Y1157000D01*
X143000D01*
X143000Y1195000D01*
X147431Y1196373D01*
X174000D01*
Y1173000D01*
X232000D01*
Y1217000D01*
X174000D01*
Y1211627D01*
X147845D01*
X143000Y1212000D01*
X143000Y1216627D01*
Y1250000D01*
X105000D01*
Y1239154D01*
X73748D01*
Y1251276D01*
D02*
G37*
G36*
X419000Y1128000D02*
X381000D01*
Y1119627D01*
X356571D01*
X354991Y1121991D01*
X350407Y1125054D01*
X345000Y1126130D01*
X339593Y1125054D01*
X335009Y1121991D01*
X331946Y1117407D01*
X330870Y1112000D01*
X331946Y1106593D01*
X335009Y1102009D01*
X339593Y1098946D01*
X345000Y1097870D01*
X350407Y1098946D01*
X354991Y1102009D01*
X356571Y1104373D01*
X381000D01*
Y1090000D01*
X419000D01*
Y1128000D01*
D02*
G37*
G36*
X541472Y1011583D02*
X464575D01*
Y948371D01*
X423057D01*
X422840Y948915D01*
X422758Y949966D01*
X422612Y950090D01*
X420844Y953200D01*
X422087Y956770D01*
X422786Y958770D01*
X422710Y960128D01*
X422836Y961481D01*
X421600Y965469D01*
X421229Y965915D01*
X421133Y966487D01*
X418868Y970100D01*
X418483Y970374D01*
X418308Y970814D01*
X416667Y972507D01*
X416334Y973004D01*
X415908Y973289D01*
X415108Y974114D01*
X414590Y974338D01*
X414258Y974794D01*
X408858Y978094D01*
X408673Y978123D01*
X408381Y978318D01*
X408190Y978357D01*
X408056Y978477D01*
X405256Y979477D01*
X404548Y979442D01*
X404446Y979487D01*
X404393Y979567D01*
X401919Y981220D01*
X399000Y981801D01*
X355174D01*
X352255Y981220D01*
X349781Y979567D01*
X344789Y974575D01*
X342000Y975130D01*
X336593Y974054D01*
X332009Y970991D01*
X328946Y966407D01*
X327870Y961000D01*
X328946Y955593D01*
X332009Y951009D01*
X336593Y947946D01*
X342000Y946870D01*
X347407Y947946D01*
X351991Y951009D01*
X355054Y955593D01*
X356130Y961000D01*
X355813Y962591D01*
X359288Y966547D01*
X371418D01*
X375050Y961547D01*
X374982Y961338D01*
X375034Y960674D01*
X374771Y960063D01*
X375160Y959085D01*
X375242Y958034D01*
X375388Y957910D01*
X377156Y954800D01*
X375913Y951230D01*
X375214Y949230D01*
X375290Y947872D01*
X375164Y946519D01*
X376400Y942531D01*
X376771Y942085D01*
X376867Y941513D01*
X379132Y937900D01*
X379517Y937626D01*
X379692Y937186D01*
X381334Y935493D01*
X381666Y934996D01*
X382092Y934711D01*
X382892Y933886D01*
X383410Y933662D01*
X383742Y933206D01*
X389142Y929906D01*
X389327Y929877D01*
X389619Y929682D01*
X389810Y929643D01*
X389944Y929523D01*
X392744Y928523D01*
X393452Y928558D01*
X394101Y928271D01*
X397048Y928204D01*
X399000Y927816D01*
X400547Y928123D01*
X402800Y928072D01*
X403446Y928322D01*
X404134Y928250D01*
X407834Y929350D01*
X408197Y929645D01*
X408381Y929682D01*
X408438Y929720D01*
X408799Y929771D01*
X412699Y932071D01*
X412980Y932444D01*
X413419Y932603D01*
X415238Y934263D01*
X416334Y934996D01*
X416356Y935029D01*
X464575D01*
Y826417D01*
X541472D01*
Y1011583D01*
D02*
G37*
G36*
X752000Y858130D02*
X746593Y857054D01*
X742009Y853991D01*
X738946Y849407D01*
X737870Y844000D01*
X738425Y841211D01*
X699841Y802627D01*
X329197D01*
Y816008D01*
X241276D01*
Y778087D01*
X329197D01*
Y787373D01*
X703000D01*
X703000Y787373D01*
X705919Y787954D01*
X708393Y789607D01*
X749211Y830425D01*
X752000Y829870D01*
X757407Y830946D01*
X761991Y834009D01*
X765054Y838593D01*
X766130Y844000D01*
X765054Y849407D01*
X761991Y853991D01*
X757407Y857054D01*
X752000Y858130D01*
D02*
G37*
G36*
X1294591Y826087D02*
X1256591D01*
Y814713D01*
X1231598D01*
Y826087D01*
X1193598D01*
Y814713D01*
X1168606D01*
Y826087D01*
X1130606D01*
Y814713D01*
X1105614D01*
Y826087D01*
X1067614D01*
Y814713D01*
X1042622D01*
Y826087D01*
X1004622D01*
Y788087D01*
X1042622D01*
Y799460D01*
X1067614D01*
Y788087D01*
X1105614D01*
Y799460D01*
X1130606D01*
Y788087D01*
X1168606D01*
Y799460D01*
X1193598D01*
Y788087D01*
X1231598D01*
Y799460D01*
X1256591D01*
Y788087D01*
X1294591D01*
Y799460D01*
X1318000D01*
Y788000D01*
X1356000D01*
Y799373D01*
X1378000D01*
Y787000D01*
X1416000D01*
Y797373D01*
X1452429D01*
X1454009Y795009D01*
X1458593Y791946D01*
X1464000Y790870D01*
X1469407Y791946D01*
X1473991Y795009D01*
X1477054Y799593D01*
X1478130Y805000D01*
X1477054Y810407D01*
X1473991Y814991D01*
X1469407Y818054D01*
X1464000Y819130D01*
X1458593Y818054D01*
X1454009Y814991D01*
X1452429Y812627D01*
X1416000D01*
Y825000D01*
X1378000D01*
Y814627D01*
X1356000D01*
Y826000D01*
X1318000D01*
Y814713D01*
X1294591D01*
Y826087D01*
D02*
G37*
G36*
X55118Y796598D02*
X45723Y794729D01*
X37758Y789407D01*
X32437Y781442D01*
X30568Y772047D01*
X32437Y762652D01*
X37758Y754687D01*
X45723Y749366D01*
X55118Y747497D01*
X64513Y749366D01*
X72478Y754687D01*
X77800Y762652D01*
X79668Y772047D01*
X77800Y781442D01*
X72478Y789407D01*
X64513Y794729D01*
X55118Y796598D01*
D02*
G37*
G36*
X974000Y817130D02*
X968593Y816054D01*
X964009Y812991D01*
X960946Y808407D01*
X959870Y803000D01*
X960946Y797593D01*
X964009Y793009D01*
X968593Y789946D01*
X974000Y788870D01*
X977631Y789592D01*
X1004622Y762601D01*
Y733087D01*
X1042622D01*
Y746087D01*
X1067614D01*
Y733087D01*
X1105614D01*
Y746087D01*
X1130606D01*
Y733087D01*
X1168606D01*
Y746087D01*
X1193598D01*
Y733087D01*
X1231598D01*
Y746087D01*
X1256591D01*
Y733087D01*
X1294591D01*
Y746087D01*
X1318000D01*
Y733000D01*
X1356000D01*
Y746000D01*
X1378000D01*
Y732000D01*
X1416000D01*
Y770000D01*
X1378000D01*
Y758000D01*
X1356000D01*
Y771000D01*
X1318000D01*
Y758087D01*
X1294591D01*
Y771087D01*
X1256591D01*
Y758087D01*
X1231598D01*
Y771087D01*
X1193598D01*
Y758087D01*
X1168606D01*
Y771087D01*
X1130606D01*
Y758087D01*
X1105614D01*
Y771087D01*
X1067614D01*
Y758087D01*
X1042622D01*
Y771087D01*
X1013107D01*
X986873Y797321D01*
X987054Y797593D01*
X988130Y803000D01*
X987054Y808407D01*
X983991Y812991D01*
X979407Y816054D01*
X974000Y817130D01*
D02*
G37*
G36*
X329197Y716008D02*
X241276D01*
Y678087D01*
X329197D01*
Y716008D01*
D02*
G37*
G36*
Y666008D02*
X241276D01*
Y628087D01*
X329197D01*
Y666008D01*
D02*
G37*
G36*
X851000Y708112D02*
X847513Y707418D01*
X844557Y705443D01*
X842582Y702487D01*
X841888Y699000D01*
X842582Y695513D01*
X844557Y692557D01*
X844593Y692533D01*
X844554Y690037D01*
X843880Y686995D01*
X841557Y685443D01*
X839582Y682487D01*
X838888Y679000D01*
X839582Y675513D01*
X841557Y672557D01*
X839988Y667592D01*
X838582Y665487D01*
X837888Y662000D01*
X838582Y658513D01*
X840557Y655557D01*
X843513Y653582D01*
X847000Y652888D01*
X850487Y653582D01*
X853443Y655557D01*
X853904Y656247D01*
X992637D01*
X1008010Y640874D01*
Y611010D01*
X1046010D01*
Y649010D01*
X1016146D01*
X999088Y666068D01*
X995020Y667753D01*
X861805D01*
X859184Y672753D01*
X859511Y673226D01*
X859574Y673247D01*
X1034647D01*
X1063020Y644874D01*
Y615010D01*
X1101020D01*
Y653010D01*
X1071156D01*
X1041098Y683068D01*
X1037030Y684753D01*
X859131D01*
X856926Y686264D01*
X854836Y689725D01*
X855120Y691005D01*
X857443Y692557D01*
X857904Y693247D01*
X1069657D01*
X1132962Y629942D01*
X1137030Y628257D01*
X1163000D01*
Y613000D01*
X1201000D01*
Y627000D01*
X1225000D01*
Y614000D01*
X1263000D01*
Y652000D01*
X1225000D01*
Y639000D01*
X1201000D01*
Y651000D01*
X1163000D01*
Y639763D01*
X1139413D01*
X1076108Y703068D01*
X1072040Y704753D01*
X857904D01*
X857443Y705443D01*
X854487Y707418D01*
X851000Y708112D01*
D02*
G37*
G36*
X55118Y646598D02*
X45723Y644729D01*
X37758Y639407D01*
X32437Y631442D01*
X30568Y622047D01*
X32437Y612652D01*
X37758Y604687D01*
X45723Y599366D01*
X55118Y597497D01*
X64513Y599366D01*
X72478Y604687D01*
X77800Y612652D01*
X79668Y622047D01*
X77800Y631442D01*
X72478Y639407D01*
X64513Y644729D01*
X55118Y646598D01*
D02*
G37*
G36*
X329197Y616008D02*
X241276D01*
Y578087D01*
X329197D01*
Y616008D01*
D02*
G37*
G36*
X1263000Y597000D02*
X1225000D01*
Y559000D01*
X1263000D01*
Y597000D01*
D02*
G37*
G36*
X1046010Y594010D02*
X1008010D01*
Y556010D01*
X1046010D01*
Y594010D01*
D02*
G37*
G36*
X991000D02*
X953000D01*
Y556010D01*
X991000D01*
Y594010D01*
D02*
G37*
G36*
X1333000Y544000D02*
X1295000D01*
Y506000D01*
X1333000D01*
Y544000D01*
D02*
G37*
G36*
X1178000Y388627D02*
X1177999Y388627D01*
X1102001D01*
X1102000Y388627D01*
X1099081Y388046D01*
X1096607Y386393D01*
X1096607Y386393D01*
X1077607Y367393D01*
X1075954Y364919D01*
X1075373Y362000D01*
X1070717Y360654D01*
X1065220D01*
Y336906D01*
X1065220D01*
Y333847D01*
X1063403Y328847D01*
X1031229D01*
X1031228Y328847D01*
X1028310Y328267D01*
X1025835Y326613D01*
X892206Y192984D01*
X851685D01*
Y137740D01*
X899055D01*
Y178724D01*
X900448Y179654D01*
X1034387Y313594D01*
X1065220D01*
Y309346D01*
X1067499D01*
Y277613D01*
X1067499Y277613D01*
X1068080Y274694D01*
X1069733Y272219D01*
X1074345Y267607D01*
X1074345Y267607D01*
X1076820Y265954D01*
X1079738Y265373D01*
X1079739Y265373D01*
X1128999D01*
X1129000Y265373D01*
X1131919Y265954D01*
X1134393Y267607D01*
X1149000Y282214D01*
X1154000Y280143D01*
Y264000D01*
X1165373D01*
Y240571D01*
X1163009Y238991D01*
X1159946Y234407D01*
X1158870Y229000D01*
X1159946Y223593D01*
X1163009Y219009D01*
X1167593Y215946D01*
X1173000Y214870D01*
X1178407Y215946D01*
X1182991Y219009D01*
X1186054Y223593D01*
X1187130Y229000D01*
X1186054Y234407D01*
X1182991Y238991D01*
X1180627Y240571D01*
Y264000D01*
X1192000D01*
Y302000D01*
X1155627D01*
Y309841D01*
X1164786Y319000D01*
X1192000D01*
Y349681D01*
X1196619Y351595D01*
X1201000Y347214D01*
Y317000D01*
X1239000D01*
Y355000D01*
X1214786D01*
X1183393Y386393D01*
X1180919Y388046D01*
X1180434Y388142D01*
X1178000Y388627D01*
D02*
G37*
G36*
X1336000Y414130D02*
X1330593Y413054D01*
X1326009Y409991D01*
X1322946Y405407D01*
X1321870Y400000D01*
X1322591Y396377D01*
X1282214Y356000D01*
X1255000D01*
Y318000D01*
X1293000D01*
Y345214D01*
X1323754Y375968D01*
X1328373Y374054D01*
Y355000D01*
X1317000D01*
Y317000D01*
X1346515D01*
X1354586Y308928D01*
X1354954Y307081D01*
X1355319Y306534D01*
X1356396Y303949D01*
X1355511Y301235D01*
X1355375Y301069D01*
X1352864Y300000D01*
X1350138Y300000D01*
X1317000D01*
Y288627D01*
X1293000D01*
Y301000D01*
X1255000D01*
Y263000D01*
X1266373D01*
Y247159D01*
X1205470Y186256D01*
X1200850Y188169D01*
Y192976D01*
X1153480D01*
Y137732D01*
X1200850D01*
Y160940D01*
X1200919Y160954D01*
X1203393Y162607D01*
X1279393Y238607D01*
X1279393Y238607D01*
X1281046Y241081D01*
X1281627Y244000D01*
Y263000D01*
X1293000D01*
Y273373D01*
X1317000D01*
Y262000D01*
X1355000D01*
Y273373D01*
X1435093D01*
X1438009Y269009D01*
X1442593Y265946D01*
X1448000Y264870D01*
X1451689Y265604D01*
X1528189Y189104D01*
Y138740D01*
X1548780D01*
X1551937Y138740D01*
X1556938Y138740D01*
X1577528D01*
Y138740D01*
X1579371D01*
Y138740D01*
X1603118D01*
Y138740D01*
X1604961D01*
Y138740D01*
X1628709D01*
Y138740D01*
X1630552D01*
Y138740D01*
X1654300D01*
Y199890D01*
X1641338D01*
X1640627Y200601D01*
Y219841D01*
X1673509Y252724D01*
X1673510Y252724D01*
X1674161Y253698D01*
X1675407Y253946D01*
X1679991Y257009D01*
X1683054Y261593D01*
X1684130Y267000D01*
X1683054Y272407D01*
X1679991Y276991D01*
X1675407Y280054D01*
X1670000Y281130D01*
X1664593Y280054D01*
X1660009Y276991D01*
X1658429Y274627D01*
X1647159D01*
X1608393Y313393D01*
X1605919Y315046D01*
X1603000Y315627D01*
X1602999Y315627D01*
X1531907D01*
X1528991Y319991D01*
X1524407Y323054D01*
X1519000Y324130D01*
X1513593Y323054D01*
X1509009Y319991D01*
X1507429Y317627D01*
X1362859D01*
X1355000Y325485D01*
Y355000D01*
X1343627D01*
Y388429D01*
X1345991Y390009D01*
X1349054Y394593D01*
X1350130Y400000D01*
X1349054Y405407D01*
X1345991Y409991D01*
X1341407Y413054D01*
X1336000Y414130D01*
D02*
G37*
G36*
X846000Y310000D02*
X808000D01*
Y272000D01*
X819373D01*
Y254159D01*
X813841Y248627D01*
X805239D01*
X802991Y251991D01*
X798407Y255054D01*
X793000Y256130D01*
X787593Y255054D01*
X783009Y251991D01*
X779946Y247407D01*
X778870Y242000D01*
X779946Y236593D01*
X783009Y232009D01*
X787593Y228946D01*
X793000Y227870D01*
X798407Y228946D01*
X802991Y232009D01*
X803903Y233373D01*
X817000D01*
X817000Y233373D01*
X819919Y233954D01*
X822393Y235607D01*
X832393Y245607D01*
X832393Y245607D01*
X834046Y248081D01*
X834627Y251000D01*
Y272000D01*
X846000D01*
Y310000D01*
D02*
G37*
G36*
X1239000Y300000D02*
X1201000D01*
Y262000D01*
X1213373D01*
Y254571D01*
X1211009Y252991D01*
X1207946Y248407D01*
X1206870Y243000D01*
X1207946Y237593D01*
X1211009Y233009D01*
X1215593Y229946D01*
X1221000Y228870D01*
X1226407Y229946D01*
X1230991Y233009D01*
X1234054Y237593D01*
X1235130Y243000D01*
X1234054Y248407D01*
X1230991Y252991D01*
X1228627Y254571D01*
Y262000D01*
X1239000D01*
Y300000D01*
D02*
G37*
G36*
X392000Y267130D02*
X386593Y266054D01*
X382009Y262991D01*
X378946Y258407D01*
X377870Y253000D01*
X378946Y247593D01*
X382009Y243009D01*
X386247Y240177D01*
Y223488D01*
X377890D01*
Y154465D01*
X409512D01*
Y223488D01*
X397753D01*
Y240177D01*
X401991Y243009D01*
X405054Y247593D01*
X406130Y253000D01*
X405054Y258407D01*
X401991Y262991D01*
X397407Y266054D01*
X392000Y267130D01*
D02*
G37*
G36*
X1299275Y192976D02*
X1251906D01*
Y137732D01*
X1299275D01*
Y192976D01*
D02*
G37*
G36*
X999000Y227130D02*
X993593Y226054D01*
X989009Y222991D01*
X985946Y218407D01*
X984870Y213000D01*
X985946Y207593D01*
X989009Y203009D01*
X993593Y199946D01*
X999000Y198870D01*
X1001789Y199425D01*
X1029607Y171607D01*
X1032081Y169954D01*
X1035000Y169373D01*
X1035001Y169373D01*
X1055055D01*
Y137732D01*
X1102425D01*
Y192976D01*
X1055055D01*
Y184627D01*
X1038159D01*
X1012575Y210211D01*
X1013130Y213000D01*
X1012054Y218407D01*
X1008991Y222991D01*
X1004407Y226054D01*
X999000Y227130D01*
D02*
G37*
G36*
X1752725Y192015D02*
X1681733D01*
Y128897D01*
X1752725D01*
Y192015D01*
D02*
G37*
G36*
X1500756D02*
X1429764D01*
Y128897D01*
X1500756D01*
Y192015D01*
D02*
G37*
G36*
X448882Y223488D02*
X417260D01*
Y154465D01*
X448882D01*
Y181350D01*
X560864D01*
X595757Y146457D01*
X594870Y142000D01*
X595946Y136593D01*
X599009Y132009D01*
X603593Y128946D01*
X609000Y127870D01*
X613457Y128757D01*
X626607Y115607D01*
X626607Y115607D01*
X629081Y113954D01*
X632000Y113373D01*
X732582D01*
X732583Y113373D01*
X735501Y113954D01*
X737976Y115607D01*
X760109Y137740D01*
X800630D01*
Y192984D01*
X753260D01*
Y152001D01*
X751867Y151070D01*
X751867Y151070D01*
X729423Y128627D01*
X635159D01*
X622907Y140879D01*
X623130Y142000D01*
X622054Y147407D01*
X618991Y151991D01*
X614407Y155054D01*
X609000Y156130D01*
X607879Y155907D01*
X569417Y194369D01*
X566942Y196023D01*
X564024Y196603D01*
X564023Y196603D01*
X448882D01*
Y223488D01*
D02*
G37*
G36*
X103000Y203730D02*
X91164Y202172D01*
X80135Y197603D01*
X70664Y190336D01*
X63397Y180865D01*
X58828Y169836D01*
X57270Y158000D01*
X58828Y146164D01*
X63397Y135135D01*
X70664Y125664D01*
X80135Y118397D01*
X91164Y113828D01*
X103000Y112270D01*
X114836Y113828D01*
X125865Y118397D01*
X135336Y125664D01*
X142603Y135135D01*
X147172Y146164D01*
X148730Y158000D01*
X147172Y169836D01*
X142603Y180865D01*
X135336Y190336D01*
X125865Y197603D01*
X114836Y202172D01*
X103000Y203730D01*
D02*
G37*
G36*
X1861000Y201730D02*
X1849164Y200172D01*
X1838135Y195603D01*
X1828664Y188336D01*
X1821397Y178865D01*
X1816828Y167836D01*
X1815270Y156000D01*
X1816828Y144164D01*
X1821397Y133135D01*
X1828664Y123664D01*
X1838135Y116397D01*
X1849164Y111828D01*
X1861000Y110270D01*
X1872836Y111828D01*
X1883865Y116397D01*
X1893336Y123664D01*
X1900603Y133135D01*
X1905172Y144164D01*
X1906730Y156000D01*
X1905172Y167836D01*
X1900603Y178865D01*
X1893336Y188336D01*
X1883865Y195603D01*
X1872836Y200172D01*
X1861000Y201730D01*
D02*
G37*
G36*
X717890Y84139D02*
X709800Y82529D01*
X702943Y77947D01*
X698360Y71090D01*
X696751Y63000D01*
X698360Y54911D01*
X702943Y48053D01*
X709800Y43471D01*
X717890Y41862D01*
X725979Y43471D01*
X732837Y48053D01*
X737419Y54911D01*
X739028Y63000D01*
X737419Y71090D01*
X732837Y77947D01*
X725979Y82529D01*
X717890Y84139D01*
D02*
G37*
G36*
X836000Y84138D02*
X827911Y82529D01*
X821053Y77947D01*
X816471Y71089D01*
X814861Y63000D01*
X816471Y54911D01*
X821053Y48053D01*
X827911Y43471D01*
X836000Y41861D01*
X844089Y43471D01*
X850947Y48053D01*
X855529Y54911D01*
X857139Y63000D01*
X855529Y71089D01*
X850947Y77947D01*
X844089Y82529D01*
X836000Y84138D01*
D02*
G37*
G36*
X1118110Y84131D02*
X1110021Y82522D01*
X1103163Y77939D01*
X1098581Y71082D01*
X1096972Y62992D01*
X1098581Y54903D01*
X1103163Y48045D01*
X1110021Y43463D01*
X1118110Y41854D01*
X1126200Y43463D01*
X1133057Y48045D01*
X1137640Y54903D01*
X1139249Y62992D01*
X1137640Y71082D01*
X1133057Y77939D01*
X1126200Y82522D01*
X1118110Y84131D01*
D02*
G37*
G36*
X1236220Y84130D02*
X1228131Y82521D01*
X1221273Y77939D01*
X1216691Y71081D01*
X1215082Y62992D01*
X1216691Y54903D01*
X1221273Y48045D01*
X1228131Y43463D01*
X1236220Y41853D01*
X1244310Y43463D01*
X1251168Y48045D01*
X1255750Y54903D01*
X1257359Y62992D01*
X1255750Y71081D01*
X1251168Y77939D01*
X1244310Y82521D01*
X1236220Y84130D01*
D02*
G37*
G36*
X1679890Y98512D02*
X1597088D01*
Y29488D01*
X1679890D01*
Y98512D01*
D02*
G37*
G36*
X1585401D02*
X1502599D01*
Y29488D01*
X1585401D01*
Y98512D01*
D02*
G37*
G36*
X1721166Y99921D02*
X1712692Y98236D01*
X1705509Y93436D01*
X1700709Y86253D01*
X1699024Y77779D01*
Y50221D01*
X1700709Y41747D01*
X1705509Y34564D01*
X1712692Y29764D01*
X1721166Y28078D01*
X1729639Y29764D01*
X1736823Y34564D01*
X1741622Y41747D01*
X1743308Y50221D01*
Y77779D01*
X1741622Y86253D01*
X1736823Y93436D01*
X1729639Y98236D01*
X1721166Y99921D01*
D02*
G37*
G36*
X1461323D02*
X1452850Y98236D01*
X1445666Y93436D01*
X1440867Y86253D01*
X1439181Y77779D01*
Y50221D01*
X1440867Y41747D01*
X1445666Y34564D01*
X1452850Y29764D01*
X1461323Y28078D01*
X1469797Y29764D01*
X1476980Y34564D01*
X1481780Y41747D01*
X1483465Y50221D01*
Y77779D01*
X1481780Y86253D01*
X1476980Y93436D01*
X1469797Y98236D01*
X1461323Y99921D01*
D02*
G37*
%LPD*%
G36*
X403800Y975400D02*
X406600Y974400D01*
X412000Y971100D01*
X415200Y967800D01*
X417465Y964187D01*
X418700Y960200D01*
X418000Y958200D01*
X415929Y957022D01*
X381992D01*
X379100Y960000D01*
X380614Y964660D01*
X382300Y967200D01*
X385200Y970100D01*
X387500Y972200D01*
X391400Y974500D01*
X395100Y975600D01*
X403800Y975400D01*
D02*
G37*
G36*
X418900Y948000D02*
X417386Y943340D01*
X415700Y940800D01*
X412800Y937900D01*
X410500Y935800D01*
X406600Y933500D01*
X402900Y932400D01*
X394200Y932600D01*
X391400Y933600D01*
X386000Y936900D01*
X382800Y940200D01*
X380535Y943813D01*
X379300Y947800D01*
X380000Y949800D01*
X382071Y950978D01*
X416008D01*
X418900Y948000D01*
D02*
G37*
G36*
X1186595Y361619D02*
X1184681Y357000D01*
X1154000D01*
Y329786D01*
X1142983Y318769D01*
X1140967Y318998D01*
X1138024Y320533D01*
X1137054Y325407D01*
X1133991Y329991D01*
X1129407Y333054D01*
X1124000Y334130D01*
X1118593Y333054D01*
X1114009Y329991D01*
X1112429Y327627D01*
X1100780D01*
Y333094D01*
X1100780D01*
X1100780Y336906D01*
X1100780D01*
Y360654D01*
X1098972D01*
X1097059Y365273D01*
X1105159Y373373D01*
X1174841D01*
X1186595Y361619D01*
D02*
G37*
G36*
X1361998Y302373D02*
X1362000Y302373D01*
X1362089Y302373D01*
X1507429D01*
X1509009Y300009D01*
X1513593Y296946D01*
X1519000Y295870D01*
X1524407Y296946D01*
X1528991Y300009D01*
X1529235Y300373D01*
X1599841D01*
X1638607Y261607D01*
X1638607Y261607D01*
X1641081Y259954D01*
X1644000Y259373D01*
X1644001Y259373D01*
X1651516D01*
X1653587Y254373D01*
X1627607Y228393D01*
X1625954Y225919D01*
X1625373Y223000D01*
X1625373Y223000D01*
Y199890D01*
X1604961D01*
Y199890D01*
X1603118D01*
Y199890D01*
X1579371D01*
Y199890D01*
X1577528D01*
Y199890D01*
X1556938D01*
X1553780Y199890D01*
X1548780Y199890D01*
X1538975D01*
X1461754Y277111D01*
X1462130Y279000D01*
X1461054Y284407D01*
X1457991Y288991D01*
X1453407Y292054D01*
X1448000Y293130D01*
X1442593Y292054D01*
X1438009Y288991D01*
X1437765Y288627D01*
X1355000D01*
Y295026D01*
X1355000Y296589D01*
X1355400Y300057D01*
X1357046Y301662D01*
X1357427Y301911D01*
X1359973Y302776D01*
X1361998Y302373D01*
D02*
G37*
%LPC*%
G36*
X913118Y1928016D02*
X875591D01*
Y1924016D01*
X832409D01*
Y1928016D01*
X794882D01*
Y1888520D01*
X832409D01*
X835029Y1884605D01*
X835072Y1884541D01*
Y1670409D01*
X834176Y1670231D01*
X830935Y1668065D01*
X828769Y1664824D01*
X828690Y1664428D01*
X810333D01*
X807500Y1664992D01*
X782500D01*
X778676Y1664231D01*
X775435Y1662065D01*
X775308Y1661877D01*
X771500Y1659000D01*
X768206Y1659000D01*
X738500D01*
Y1631000D01*
X768206D01*
X771500Y1631000D01*
X775308Y1628123D01*
X775435Y1627935D01*
X778676Y1625769D01*
X782500Y1625008D01*
X807500D01*
X811324Y1625769D01*
X812526Y1626572D01*
X829173D01*
X830935Y1623935D01*
X834176Y1621769D01*
X838000Y1621008D01*
X868000D01*
X871824Y1621769D01*
X875065Y1623935D01*
X877231Y1627176D01*
X877992Y1631000D01*
Y1661000D01*
X877231Y1664824D01*
X875065Y1668065D01*
X872928Y1669493D01*
Y1884541D01*
X872971Y1884605D01*
X875591Y1888520D01*
X913118D01*
Y1928016D01*
D02*
G37*
G36*
X1904000Y1936130D02*
X1898593Y1935054D01*
X1894009Y1931991D01*
X1890946Y1927407D01*
X1889870Y1922000D01*
X1890946Y1916593D01*
X1894009Y1912009D01*
X1898000Y1909342D01*
Y1853409D01*
X1870016D01*
Y1737142D01*
X1933134D01*
Y1853409D01*
X1910000D01*
Y1909342D01*
X1913991Y1912009D01*
X1917054Y1916593D01*
X1918130Y1922000D01*
X1917054Y1927407D01*
X1913991Y1931991D01*
X1909407Y1935054D01*
X1904000Y1936130D01*
D02*
G37*
G36*
X1566244Y1554433D02*
X1528244D01*
Y1543627D01*
X1491571D01*
X1489991Y1545991D01*
X1485407Y1549054D01*
X1480000Y1550130D01*
X1474593Y1549054D01*
X1470009Y1545991D01*
X1466946Y1541407D01*
X1465870Y1536000D01*
X1466259Y1534045D01*
X1446607Y1514393D01*
X1444954Y1511919D01*
X1444373Y1509000D01*
X1444373Y1508999D01*
Y1483001D01*
X1444373Y1483000D01*
X1444954Y1480081D01*
X1446607Y1477607D01*
X1525000Y1399214D01*
Y1372000D01*
X1563000D01*
Y1410000D01*
X1535786D01*
X1459627Y1486159D01*
Y1505841D01*
X1467754Y1513968D01*
X1472373Y1512054D01*
Y1488001D01*
X1472373Y1488000D01*
X1472954Y1485081D01*
X1474607Y1482607D01*
X1501237Y1455977D01*
X1501237Y1455977D01*
X1503711Y1454324D01*
X1506630Y1453743D01*
X1506630Y1453743D01*
X1524693D01*
Y1442370D01*
X1562693D01*
Y1480370D01*
X1524693D01*
Y1468997D01*
X1509789D01*
X1487627Y1491159D01*
Y1524429D01*
X1489991Y1526009D01*
X1491571Y1528373D01*
X1528244D01*
Y1516433D01*
X1566244D01*
Y1554433D01*
D02*
G37*
G36*
X1933134Y1587661D02*
X1870016D01*
Y1471394D01*
X1896000D01*
Y1429658D01*
X1892009Y1426991D01*
X1888946Y1422407D01*
X1887870Y1417000D01*
X1888946Y1411593D01*
X1892009Y1407009D01*
X1896593Y1403946D01*
X1902000Y1402870D01*
X1907407Y1403946D01*
X1911991Y1407009D01*
X1915054Y1411593D01*
X1916130Y1417000D01*
X1915054Y1422407D01*
X1911991Y1426991D01*
X1908000Y1429658D01*
Y1471394D01*
X1933134D01*
Y1587661D01*
D02*
G37*
G36*
X1724000Y1287130D02*
X1718593Y1286054D01*
X1714009Y1282991D01*
X1710946Y1278407D01*
X1709870Y1273000D01*
X1710946Y1267593D01*
X1714009Y1263009D01*
X1718593Y1259946D01*
X1724000Y1258870D01*
X1728708Y1259807D01*
X1745001Y1243513D01*
X1749244Y1241756D01*
X1756882D01*
Y1235882D01*
X1780630D01*
Y1259630D01*
X1756882D01*
Y1253756D01*
X1751729D01*
X1737193Y1268292D01*
X1738130Y1273000D01*
X1737054Y1278407D01*
X1733991Y1282991D01*
X1729407Y1286054D01*
X1724000Y1287130D01*
D02*
G37*
G36*
X1611512Y1061630D02*
X1573512D01*
Y1023630D01*
X1611512D01*
Y1028283D01*
X1616512Y1028775D01*
X1616946Y1026593D01*
X1620009Y1022009D01*
X1624593Y1018946D01*
X1630000Y1017870D01*
X1635407Y1018946D01*
X1639991Y1022009D01*
X1643054Y1026593D01*
X1644130Y1032000D01*
X1643054Y1037407D01*
X1639991Y1041991D01*
X1635407Y1045054D01*
X1630000Y1046130D01*
X1627172Y1045567D01*
X1624716Y1048023D01*
X1622242Y1049676D01*
X1619323Y1050257D01*
X1619322Y1050257D01*
X1611512D01*
Y1061630D01*
D02*
G37*
%LPD*%
D10*
X399000Y973170D02*
G03*
X383702Y964169I0J-17500D01*
G01*
X414298D02*
G03*
X399000Y973170I-15298J-8499D01*
G01*
X382050Y947978D02*
G03*
X385098Y941700I16950J4352D01*
G01*
X412902D02*
G03*
X415950Y947978I-13902J10630D01*
G01*
X393140Y935840D02*
G03*
X412902Y941700I5860J16490D01*
G01*
X385098D02*
G03*
X387661Y939000I13902J10630D01*
G01*
D02*
G03*
X393140Y935840I11339J13330D01*
G01*
X415950Y960022D02*
G03*
X414390Y964000I-16950J-4352D01*
G01*
X383610D02*
G03*
X382050Y960022I15390J-8330D01*
G01*
X383702Y964169D02*
G03*
X383610Y964000I15298J-8499D01*
G01*
X414390D02*
G03*
X414298Y964169I-15390J-8330D01*
G01*
X412902Y941700D02*
X480324D01*
X399000D02*
X412902D01*
X385098D02*
X399000D01*
X480324D02*
X503024Y919000D01*
D11*
X960630Y1397638D02*
D03*
D12*
X1868197Y910685D02*
D03*
Y891000D02*
D03*
Y871315D02*
D03*
X1767803D02*
D03*
Y891000D02*
D03*
Y910685D02*
D03*
X1864197Y1109685D02*
D03*
Y1090000D02*
D03*
Y1070315D02*
D03*
X1763803D02*
D03*
Y1090000D02*
D03*
Y1109685D02*
D03*
D13*
X1857370Y840311D02*
D03*
X1837685D02*
D03*
X1818000D02*
D03*
X1798315D02*
D03*
X1778630D02*
D03*
Y941689D02*
D03*
X1798315D02*
D03*
X1818000D02*
D03*
X1837685D02*
D03*
X1857370D02*
D03*
X1853370Y1039311D02*
D03*
X1833685D02*
D03*
X1814000D02*
D03*
X1794315D02*
D03*
X1774630D02*
D03*
Y1140689D02*
D03*
X1794315D02*
D03*
X1814000D02*
D03*
X1833685D02*
D03*
X1853370D02*
D03*
D14*
X1068898Y1264764D02*
D03*
X970472D02*
D03*
X950787D02*
D03*
X931102D02*
D03*
X911417D02*
D03*
X891732D02*
D03*
X872047D02*
D03*
X990158D02*
D03*
X1009842D02*
D03*
X1029527D02*
D03*
X1049213D02*
D03*
X852362D02*
D03*
X1049213Y1530512D02*
D03*
X970472D02*
D03*
X891732D02*
D03*
X1029527D02*
D03*
X1009842D02*
D03*
X990158D02*
D03*
X911417D02*
D03*
X931102D02*
D03*
X950787D02*
D03*
X872047D02*
D03*
X852362D02*
D03*
X1068898D02*
D03*
D15*
X1093504Y1309055D02*
D03*
Y1387795D02*
D03*
Y1466535D02*
D03*
Y1328740D02*
D03*
Y1348425D02*
D03*
Y1368110D02*
D03*
Y1446850D02*
D03*
Y1427165D02*
D03*
Y1407480D02*
D03*
Y1486220D02*
D03*
Y1505906D02*
D03*
Y1289370D02*
D03*
X827756Y1309055D02*
D03*
Y1387795D02*
D03*
Y1466535D02*
D03*
Y1328740D02*
D03*
Y1348425D02*
D03*
Y1368110D02*
D03*
Y1446850D02*
D03*
Y1427165D02*
D03*
Y1407480D02*
D03*
Y1486220D02*
D03*
Y1505906D02*
D03*
Y1289370D02*
D03*
D16*
X1185000Y523000D02*
D03*
Y468000D02*
D03*
X1314000Y470000D02*
D03*
Y525000D02*
D03*
X1173000Y338000D02*
D03*
Y283000D02*
D03*
X1244000Y578000D02*
D03*
Y633000D02*
D03*
X1182000Y577000D02*
D03*
Y632000D02*
D03*
X1245000Y524000D02*
D03*
Y469000D02*
D03*
X972000Y630010D02*
D03*
Y575010D02*
D03*
X124000Y1176000D02*
D03*
Y1231000D02*
D03*
X415000Y1405000D02*
D03*
Y1350000D02*
D03*
X397000Y1215000D02*
D03*
Y1160000D02*
D03*
X128000Y1428000D02*
D03*
Y1373000D02*
D03*
X853000Y1646000D02*
D03*
Y1591000D02*
D03*
X1220000Y336000D02*
D03*
Y281000D02*
D03*
X400000Y1054000D02*
D03*
Y1109000D02*
D03*
X1397000Y751000D02*
D03*
Y806000D02*
D03*
X1337000Y752000D02*
D03*
Y807000D02*
D03*
X1275591Y752087D02*
D03*
Y807087D02*
D03*
X1212598Y752087D02*
D03*
Y807087D02*
D03*
X1149606Y752087D02*
D03*
Y807087D02*
D03*
X1086614Y752087D02*
D03*
Y807087D02*
D03*
X1023622Y752087D02*
D03*
Y807087D02*
D03*
X1027010Y575010D02*
D03*
Y630010D02*
D03*
X1082677Y469000D02*
D03*
Y524000D02*
D03*
X1082020Y634010D02*
D03*
X1024000Y465000D02*
D03*
Y520000D02*
D03*
X827000Y346000D02*
D03*
Y291000D02*
D03*
X968990Y520000D02*
D03*
Y465000D02*
D03*
X1336000Y281000D02*
D03*
Y336000D02*
D03*
X1274000Y282000D02*
D03*
Y337000D02*
D03*
D17*
X663905Y586000D02*
D03*
X612095D02*
D03*
X795000Y1645000D02*
D03*
X755000D02*
D03*
X480000Y509000D02*
D03*
X520000D02*
D03*
X665354Y346457D02*
D03*
X768346D02*
D03*
D18*
X1592512Y1042630D02*
D03*
X1537512D02*
D03*
X396000Y461000D02*
D03*
X341000D02*
D03*
X1543693Y1461370D02*
D03*
X1598693D02*
D03*
X1544000Y1391000D02*
D03*
X1599000D02*
D03*
X1594370Y1161417D02*
D03*
X1539370D02*
D03*
X1535433Y1224409D02*
D03*
X1590433D02*
D03*
X1592000Y1100000D02*
D03*
X1537000D02*
D03*
X1602244Y1535433D02*
D03*
X1547244D02*
D03*
X1082020Y579010D02*
D03*
D19*
X206000Y1395000D02*
D03*
X203000Y1195000D02*
D03*
D20*
X286000Y1432000D02*
D03*
Y1357000D02*
D03*
X283000Y1157000D02*
D03*
Y1232000D02*
D03*
D21*
X1078740Y165354D02*
D03*
X1177165D02*
D03*
X1275591D02*
D03*
X875370Y165362D02*
D03*
X776945D02*
D03*
X678520D02*
D03*
D22*
X969945Y2101000D02*
D03*
X938055D02*
D03*
D23*
X494134Y418226D02*
D03*
X565000D02*
D03*
X441630Y581000D02*
D03*
X512496D02*
D03*
D24*
X704567Y440787D02*
D03*
X688819D02*
D03*
X673071D02*
D03*
X657323D02*
D03*
X641575D02*
D03*
X625827D02*
D03*
X704567Y456536D02*
D03*
X688819D02*
D03*
X673071D02*
D03*
X657323D02*
D03*
X641575D02*
D03*
X625827D02*
D03*
X704567Y472284D02*
D03*
X688819D02*
D03*
X641575D02*
D03*
X625827D02*
D03*
X704567Y488031D02*
D03*
X688819D02*
D03*
X641575D02*
D03*
X625827D02*
D03*
X704567Y503780D02*
D03*
X688819D02*
D03*
X673071D02*
D03*
X657323D02*
D03*
X641575D02*
D03*
X625827D02*
D03*
X704567Y519528D02*
D03*
X688819D02*
D03*
X673071D02*
D03*
X657323D02*
D03*
X641575D02*
D03*
X625827D02*
D03*
D25*
X54000Y1231528D02*
D03*
Y1172472D02*
D03*
X62992Y1372047D02*
D03*
Y1431102D02*
D03*
D26*
X835276Y570866D02*
D03*
X803150D02*
D03*
X834646Y507874D02*
D03*
X802520D02*
D03*
X833638Y436000D02*
D03*
X801512D02*
D03*
X559055Y346457D02*
D03*
X526929D02*
D03*
X629291D02*
D03*
X732284D02*
D03*
D27*
X496063Y36417D02*
D03*
X291339D02*
D03*
D28*
X393701Y188976D02*
D03*
X354331D02*
D03*
X433071D02*
D03*
D29*
X1591245Y169315D02*
D03*
X1565654D02*
D03*
X1540063D02*
D03*
X1616835D02*
D03*
X1642426D02*
D03*
D30*
X1544000Y64000D02*
D03*
X1638489D02*
D03*
D31*
X1717229Y160456D02*
D03*
X1465260D02*
D03*
D32*
X813646Y1983071D02*
D03*
X894354D02*
D03*
Y1908268D02*
D03*
X813646D02*
D03*
D33*
X854000Y1991339D02*
D03*
Y1900000D02*
D03*
D34*
X855000Y2047425D02*
D03*
Y2100575D02*
D03*
D35*
X399000Y966300D02*
D03*
Y941700D02*
D03*
D36*
X1744094Y1529528D02*
D03*
D37*
X1901575D02*
D03*
X1744094Y1795276D02*
D03*
X1901575D02*
D03*
D38*
X715441Y1496653D02*
D03*
X770559D02*
D03*
X715441Y1453347D02*
D03*
D39*
X503024Y919000D02*
D03*
X630976D02*
D03*
D40*
X1768756Y1247756D02*
D03*
Y1279252D02*
D03*
Y1310748D02*
D03*
Y1342244D02*
D03*
X1863244D02*
D03*
Y1310748D02*
D03*
Y1279252D02*
D03*
Y1247756D02*
D03*
D41*
X165157Y647047D02*
D03*
X285236Y797047D02*
D03*
Y747047D02*
D03*
Y697047D02*
D03*
Y647047D02*
D03*
Y597047D02*
D03*
X165157Y797047D02*
D03*
Y747047D02*
D03*
Y697047D02*
D03*
Y597047D02*
D03*
D42*
X1091858Y321220D02*
D03*
X1074142D02*
D03*
D43*
X1083000Y348779D02*
D03*
D44*
X1892315Y871315D02*
X1931000Y910000D01*
Y959000D01*
X1906000Y984000D02*
X1931000Y959000D01*
X1856000Y984000D02*
X1906000D01*
X1868197Y871315D02*
X1892315D01*
X1942000Y827000D02*
Y1137504D01*
X1877000Y762000D02*
X1942000Y827000D01*
X1768756Y1310748D02*
X1942000Y1137504D01*
X1798315Y899685D02*
Y941689D01*
X1719000Y984000D02*
X1856000D01*
X1692000Y1011000D02*
X1719000Y984000D01*
X606000Y1160000D02*
X802000Y964000D01*
X880976D01*
X697047Y747047D02*
X950000Y1000000D01*
X285236Y747047D02*
X697047D01*
X950000Y1000000D02*
Y1214000D01*
X397000Y1160000D02*
X606000D01*
X755000Y1167000D02*
Y1346000D01*
X1672000Y980000D02*
Y1109685D01*
Y980000D02*
X1741315Y910685D01*
X1875000Y1184000D02*
X1928000Y1131000D01*
X1864197Y1070315D02*
X1908315D01*
X1928000Y1090000D02*
Y1131000D01*
X1908315Y1070315D02*
X1928000Y1090000D01*
X1853500Y1184000D02*
X1875000D01*
X792740Y1328740D02*
X827756D01*
X775000Y1311000D02*
X792740Y1328740D01*
X775000Y1173000D02*
Y1311000D01*
Y1173000D02*
X902000Y1046000D01*
X984000Y1173000D02*
X1009842Y1198842D01*
X848000Y784000D02*
X984000Y920000D01*
X1009842Y1198842D02*
Y1264764D01*
X984000Y920000D02*
Y1173000D01*
X1049213Y1164213D02*
Y1264764D01*
X1010000Y1125000D02*
X1049213Y1164213D01*
X1022000Y1177000D02*
Y1220000D01*
X1029527Y1227527D01*
X1010000Y902000D02*
Y1125000D01*
X1092032Y1579371D02*
X1238629D01*
X1049213Y1530512D02*
X1051181Y1532480D01*
Y1537402D02*
X1077504Y1563725D01*
Y1564843D01*
X1092032Y1579371D01*
X1051181Y1532480D02*
Y1537402D01*
X1238629Y1579371D02*
X1418500Y1399500D01*
X798000Y1198000D02*
X812778Y1212778D01*
Y1279313D01*
X820866Y1287402D01*
X825787D01*
X827756Y1289370D01*
X1136000Y499261D02*
Y499663D01*
X1144000Y507663D01*
X1122515Y512746D02*
X1136000Y499261D01*
X1122515Y512746D02*
Y538515D01*
X1144000Y507663D02*
Y539000D01*
X1082020Y579010D02*
X1122515Y538515D01*
X1772000Y1401000D02*
X1862000D01*
X1684000Y1313000D02*
X1772000Y1401000D01*
X1887000Y1312756D02*
Y1376000D01*
X1862000Y1401000D02*
X1887000Y1376000D01*
X1667000Y762000D02*
X1877000D01*
X165000Y797205D02*
Y898000D01*
X1633000Y197441D02*
X1642426Y188016D01*
X1668117Y258117D02*
Y265117D01*
X1670000Y267000D01*
X1633000Y197441D02*
Y223000D01*
X1668117Y258117D01*
X1644000Y267000D02*
X1670000D01*
X1603000Y308000D02*
X1644000Y267000D01*
X1521000Y308000D02*
X1603000D01*
X1434000Y1064000D02*
X1455370Y1042630D01*
X1537512D01*
X1434000Y1087000D02*
X1477000Y1130000D01*
X1434000Y1064000D02*
Y1087000D01*
X1477000Y1130000D02*
X1646000D01*
X1537000Y998000D02*
Y1042118D01*
X1595000Y1162047D02*
X1596953Y1164000D01*
X1452000Y1483000D02*
X1544000Y1391000D01*
X1452000Y1483000D02*
Y1509000D01*
X1479000Y1536000D01*
X1480000Y1488000D02*
Y1536000D01*
Y1488000D02*
X1506630Y1461370D01*
X1543693D01*
X1658500Y1142500D02*
Y1151500D01*
X1646000Y1130000D02*
X1658500Y1142500D01*
X1646000Y1164000D02*
X1658500Y1151500D01*
X1596953Y1164000D02*
X1646000D01*
X1672000Y1109685D02*
Y1264000D01*
X1608000Y1328000D02*
X1672000Y1264000D01*
X1398000Y805000D02*
X1464000D01*
X1337000Y807000D02*
X1396000D01*
X1275591Y807087D02*
X1336913D01*
X1212598D02*
X1275591D01*
X1149606D02*
X1212598D01*
X1086614D02*
X1149606D01*
X1023622D02*
X1086614D01*
X666000Y1496000D02*
X714787D01*
X674000Y1416000D02*
X689000Y1401000D01*
X757118D02*
X770559Y1414441D01*
X689000Y1401000D02*
X757118D01*
X770559Y1414441D02*
Y1453347D01*
X345000Y1112000D02*
X397000D01*
X1144000Y539000D02*
X1182000Y577000D01*
X827000Y251000D02*
Y291000D01*
X817000Y241000D02*
X827000Y251000D01*
X794000Y241000D02*
X817000D01*
X830500Y212000D02*
X887000Y268500D01*
X721000Y212000D02*
X830500D01*
X887000Y268500D02*
Y602388D01*
X882388Y607000D02*
X887000Y602388D01*
X825000Y607000D02*
X882388D01*
X165157Y547843D02*
Y597047D01*
Y547843D02*
X288000Y425000D01*
X332000Y381000D01*
Y259000D02*
Y381000D01*
Y259000D02*
X354331Y236669D01*
Y188976D02*
Y236669D01*
X433000Y510000D02*
X479000D01*
X1336000Y336000D02*
Y399000D01*
X1274000Y337000D02*
X1336000Y399000D01*
X1093079Y320000D02*
X1124000D01*
X895055Y185047D02*
X1031228Y321220D01*
X1074142D01*
X1075126Y277613D02*
X1079738Y273000D01*
X1075126Y277613D02*
Y320236D01*
X1079738Y273000D02*
X1129000D01*
X1074142Y321220D02*
X1075126Y320236D01*
X1083000Y348779D02*
Y362000D01*
X1102000Y381000D01*
X1178000D02*
X1219000Y340000D01*
X1102000Y381000D02*
X1178000D01*
X1173000Y229000D02*
Y283000D01*
X1480000Y1536000D02*
X1546677D01*
X1362000Y310000D02*
X1519000D01*
X564024Y188976D02*
X632000Y121000D01*
X692000Y211000D02*
X721000D01*
X1029527Y1227527D02*
Y1264764D01*
X950000Y1214000D02*
Y1263976D01*
X1447079Y281000D02*
X1540063Y188016D01*
X857000Y749000D02*
X1010000Y902000D01*
X574000Y839000D02*
X600465D01*
X630976Y869512D02*
Y919000D01*
X600465Y839000D02*
X630976Y869512D01*
X1033000Y1018000D02*
X1160000Y1145000D01*
X1033000Y947000D02*
Y1018000D01*
X399000Y973170D02*
Y974174D01*
X355174D02*
X399000D01*
X342000Y961000D02*
X355174Y974174D01*
X399000Y966300D02*
Y973170D01*
X826000Y1238402D02*
X852362Y1264764D01*
X826000Y1173000D02*
Y1238402D01*
X614000Y1054000D02*
Y1115000D01*
X400000Y1054000D02*
X614000D01*
X630976Y1037024D01*
Y919000D02*
Y1037024D01*
X1540063Y169315D02*
Y188016D01*
X1336000Y281000D02*
X1447079D01*
X1275000D02*
X1336000D01*
X1274000Y282000D02*
X1275000Y281000D01*
X1177165Y165354D02*
X1179811Y168000D01*
X1198000D01*
X1274000Y244000D01*
Y282000D01*
X1220000Y281000D02*
X1221000Y280000D01*
Y243000D02*
Y280000D01*
X504000Y274000D02*
Y343000D01*
X511000Y350000D01*
X1148000Y313000D02*
X1173000Y338000D01*
X1148000Y292000D02*
Y313000D01*
X1129000Y273000D02*
X1148000Y292000D01*
X875370Y165362D02*
Y169299D01*
X891118Y185047D01*
X895055D01*
X1035000Y177000D02*
X1067094D01*
X999000Y213000D02*
X1035000Y177000D01*
X867000Y346000D02*
Y373000D01*
X849000Y391000D02*
X867000Y373000D01*
X825000Y391000D02*
X849000D01*
X808303Y407697D02*
X825000Y391000D01*
X808303Y407697D02*
Y427772D01*
X776945Y161425D02*
Y165362D01*
X761197Y145677D02*
X776945Y161425D01*
X757260Y145677D02*
X761197D01*
X732583Y121000D02*
X757260Y145677D01*
X632000Y121000D02*
X732583D01*
X433071Y188976D02*
X564024D01*
X825000Y848000D02*
X841362Y864362D01*
X825000Y607000D02*
Y848000D01*
X678520Y165362D02*
Y197520D01*
X692000Y211000D01*
X806000Y588000D02*
X825000Y607000D01*
X800000Y588000D02*
X806000D01*
X795000Y583000D02*
X800000Y588000D01*
X285236Y797047D02*
X287283Y795000D01*
X703000D01*
X752000Y844000D01*
X950000Y1263976D02*
X950787Y1264764D01*
X755000Y1167000D02*
X902000Y1020000D01*
X803000Y1490833D02*
Y1507000D01*
X807612Y1486220D02*
X827756D01*
X803000Y1490833D02*
X807612Y1486220D01*
X787000Y1523000D02*
X803000Y1507000D01*
X746612Y1523000D02*
X787000D01*
X742000Y1477937D02*
Y1518388D01*
X746612Y1523000D01*
X715441Y1453347D02*
X717409D01*
X742000Y1477937D01*
X770559Y1496653D02*
X772528D01*
X802646Y1466535D01*
X827756D01*
X1093504Y1289370D02*
X1114630D01*
X1160000Y1244000D01*
Y1145000D02*
Y1244000D01*
X415000Y1350000D02*
X465117Y1400117D01*
Y1405117D01*
X467000Y1407000D01*
X1136425Y1348425D02*
X1137000Y1349000D01*
X1093504Y1348425D02*
X1136425D01*
X371000Y1215000D02*
X397000D01*
X313000Y1157000D02*
X371000Y1215000D01*
X283000Y1157000D02*
X313000D01*
X194000Y1204000D02*
X203000Y1195000D01*
X85528Y1204000D02*
X194000D01*
X54000Y1172472D02*
X85528Y1204000D01*
X54000Y1231528D02*
X123472D01*
X124000Y1231000D01*
X386000Y1405000D02*
X415000D01*
X338000Y1357000D02*
X386000Y1405000D01*
X286000Y1357000D02*
X338000D01*
X199945Y1401055D02*
X206000Y1395000D01*
X92000Y1401055D02*
X199945D01*
X62992Y1372047D02*
X92000Y1401055D01*
X62992Y1431102D02*
X124898D01*
X128000Y1428000D01*
X1730685Y1070315D02*
X1763803D01*
X1088000Y1661000D02*
X1506000D01*
X1086000Y1659000D02*
X1088000Y1661000D01*
X1506000D02*
X1602244Y1564756D01*
Y1535433D02*
Y1564756D01*
X1608150Y1529528D02*
X1744094D01*
X1602244Y1535433D02*
X1608150Y1529528D01*
X1744094D02*
Y1795276D01*
X1044942Y1597942D02*
Y1597942D01*
X1071000Y1624000D01*
X1132000D01*
X1022032Y1575032D02*
X1044942Y1597942D01*
X1021968Y1575032D02*
X1022032D01*
X1768756Y1342244D02*
X1797756D01*
X1887000Y1271512D02*
Y1312756D01*
X1863244Y1310748D02*
X1884992D01*
X1887000Y1312756D01*
X1539370Y1161417D02*
Y1220472D01*
X1535433Y1224409D02*
X1539370Y1220472D01*
X1535433Y1224409D02*
X1540000Y1228976D01*
Y1247000D01*
X1561000Y1268000D01*
X1639000D01*
X1133260Y1328740D02*
X1134000Y1328000D01*
X1608000D01*
X1093504Y1328740D02*
X1133260D01*
X1672000Y1109685D02*
X1763803D01*
X1863244Y1247756D02*
X1887000Y1271512D01*
X1365000Y968000D02*
Y969000D01*
Y968000D02*
X1410000Y923000D01*
X1506000D01*
X1667000Y762000D01*
X1842000Y1184000D02*
X1853500D01*
X1853370Y1140689D02*
Y1183870D01*
X1853500Y1184000D01*
X1599000Y1391000D02*
Y1461063D01*
X1598693Y1461370D02*
X1599000Y1461063D01*
Y1353000D02*
Y1391000D01*
Y1353000D02*
X1742000Y1210000D01*
X1816000D01*
X1842000Y1184000D01*
X1794315Y1140689D02*
Y1185685D01*
X1093504Y1427165D02*
X1093587Y1427083D01*
X1186917D01*
X1187000Y1427000D01*
X1857370Y941689D02*
Y982630D01*
X1856000Y984000D02*
X1857370Y982630D01*
X1592512Y1042630D02*
X1619323D01*
X1629953Y1032000D01*
X1630000D01*
X1365000Y994000D02*
X1419000Y940000D01*
X1526000D01*
X1689000Y777000D01*
X1790000D01*
X1818000Y805000D01*
Y840311D01*
X1767646Y871158D02*
X1767803Y871315D01*
X1685158Y871158D02*
X1767646D01*
X1685000Y871000D02*
X1685158Y871158D01*
X1186000Y1368000D02*
X1187000Y1369000D01*
X1170000Y1368000D02*
X1186000D01*
X1169890Y1368110D02*
X1170000Y1368000D01*
X1093504Y1368110D02*
X1169890D01*
X1766803Y890000D02*
X1767803Y891000D01*
X1650000Y890000D02*
X1709000D01*
X1766803D01*
X1564000Y976000D02*
X1650000Y890000D01*
X1709000D02*
Y912000D01*
X1093504Y1309055D02*
X1094559Y1308000D01*
X1118000D01*
X1450000Y976000D01*
X1564000D01*
X1709000Y1086000D02*
X1713000Y1090000D01*
X1763803D01*
X1741315Y910685D02*
X1767803D01*
D45*
X717000Y1163000D02*
X883000Y997000D01*
X717000Y1163000D02*
Y1303000D01*
X691000Y1329000D02*
X717000Y1303000D01*
X691000Y1329000D02*
Y1348000D01*
X702000Y1359000D02*
X781000D01*
X691000Y1348000D02*
X702000Y1359000D01*
X809795Y1387795D02*
X827756D01*
X781000Y1359000D02*
X809795Y1387795D01*
X617000Y1376000D02*
X627545Y1386545D01*
X782214D01*
X822835Y1427165D01*
X950787Y1407480D02*
Y1530512D01*
Y1407480D02*
X960630Y1397638D01*
X911417Y1446850D02*
X931102Y1427165D01*
X950787Y1407480D01*
X931102Y1427165D02*
Y1530512D01*
X911417Y1446850D02*
Y1530512D01*
X827756Y1407480D02*
X950787D01*
X827756Y1368110D02*
X931102D01*
X960630Y1397638D01*
X937000Y2038000D02*
X965000D01*
X969945Y2042945D01*
X894354Y1983071D02*
Y1984055D01*
X934375Y2024076D01*
Y2035376D01*
X937000Y2038000D01*
X786362Y1983071D02*
X813646D01*
X773158Y1969867D02*
X786362Y1983071D01*
X754608Y1969867D02*
X773158D01*
X969945Y2042945D02*
Y2101000D01*
X894354Y1908268D02*
Y1983071D01*
X754000Y1646000D02*
X755000Y1645000D01*
X699000Y1646000D02*
X754000D01*
X813646Y1907283D02*
Y1908268D01*
Y1983071D01*
X1245000Y469000D02*
X1313000D01*
X1314000Y470000D01*
X1245000Y469000D02*
Y524000D01*
X1185000Y523000D02*
X1244000D01*
X1245000Y524000D01*
X1185000Y468000D02*
Y523000D01*
X1146000Y429000D02*
X1185000Y468000D01*
X1084000Y429000D02*
X1146000D01*
X1082677Y469000D02*
X1084000Y467677D01*
Y429000D02*
Y467677D01*
X1742008Y1306000D02*
X1768756Y1279252D01*
X1724000Y1306000D02*
X1742008D01*
X1749244Y1247756D02*
X1768756D01*
X1728220Y1268780D02*
X1749244Y1247756D01*
X1831748Y1279252D02*
X1863244D01*
X1810000Y1301000D02*
X1831748Y1279252D01*
X1810000Y1301000D02*
Y1327000D01*
X1825244Y1342244D01*
X1863244D01*
X1864197Y1109685D02*
X1864854Y1110342D01*
X1910342D01*
X1911000Y1111000D01*
X1853370Y1039311D02*
X1892689D01*
X1917000Y1015000D01*
X1833685Y1039311D02*
X1853370D01*
X1868197Y910685D02*
X1899685D01*
X1914000Y925000D01*
X1337000Y752000D02*
X1396000D01*
X1397000Y751000D01*
X1275591Y752087D02*
X1336913D01*
X1337000Y752000D01*
X1212598Y752087D02*
X1275591D01*
X1149606D02*
X1212598D01*
X1086614D02*
X1149606D01*
X1023622D02*
X1086614D01*
X822835Y1446850D02*
X827756D01*
X790984Y1415000D02*
X822835Y1446850D01*
X789000Y1415000D02*
X790984D01*
X822835Y1427165D02*
X827756D01*
X931102Y1233102D02*
Y1264764D01*
X918000Y1220000D02*
X931102Y1233102D01*
X989579Y1264185D02*
X990158Y1264764D01*
X989579Y1216579D02*
Y1264185D01*
X989000Y1216000D02*
X989579Y1216579D01*
X967000Y1024000D02*
Y1261291D01*
X970472Y1264764D01*
X1093504Y1486220D02*
X1094114Y1485610D01*
X1154390D01*
X1155000Y1485000D01*
X1068898Y1530512D02*
Y1535433D01*
X1072803Y1539339D01*
X1095339D01*
X1111000Y1555000D01*
X1076236Y1577653D02*
Y1595236D01*
X1029527Y1530512D02*
Y1535431D01*
X1033433Y1539337D01*
X1037920D01*
X1076236Y1577653D01*
Y1595236D02*
X1078000Y1597000D01*
X822835Y1309055D02*
X827756D01*
X794000Y1280220D02*
X822835Y1309055D01*
X794000Y1260000D02*
Y1280220D01*
X1068898Y1259842D02*
Y1264764D01*
Y1259842D02*
X1082116Y1246624D01*
X1093376D01*
X1096000Y1244000D01*
X911417Y1245203D02*
Y1264764D01*
X866214Y1200000D02*
X911417Y1245203D01*
X859000Y1200000D02*
X866214D01*
X891732Y1232732D02*
Y1264764D01*
X859000Y1200000D02*
X891732Y1232732D01*
X859000Y1200000D02*
Y1224346D01*
X879827Y1245173D01*
Y1252063D01*
X872047Y1259842D02*
X879827Y1252063D01*
X872047Y1259842D02*
Y1264764D01*
X1184948Y1398000D02*
X1186397D01*
X1093504Y1387795D02*
X1176192D01*
X1186397Y1398000D01*
X1187000D01*
X1093504Y1407480D02*
X1175468D01*
X1184948Y1398000D01*
X1181850Y1446850D02*
X1189343Y1454343D01*
X1187000Y1481000D02*
X1189343Y1478657D01*
Y1454343D02*
Y1478657D01*
X1093504Y1446850D02*
X1181850D01*
X1093504Y1466535D02*
X1172535D01*
X1187000Y1481000D01*
X1093504Y1505906D02*
X1162094D01*
X1187000Y1481000D01*
X1847000Y788383D02*
X1849110D01*
X1837685Y797698D02*
X1847000Y788383D01*
X1837685Y797698D02*
Y840311D01*
X111000Y952000D02*
X165000Y898000D01*
X1852000Y1377000D02*
X1863244Y1365756D01*
X1826000Y1377000D02*
X1852000D01*
X1863244Y1342244D02*
Y1365756D01*
X1901575Y1529528D02*
X1902000Y1529102D01*
Y1417000D02*
Y1529102D01*
X1857370Y796643D02*
Y840311D01*
X1849110Y788383D02*
X1857370Y796643D01*
X974000Y801709D02*
X1023622Y752087D01*
X974000Y801709D02*
Y803000D01*
X658000Y586000D02*
X659000D01*
X667000Y594000D01*
Y643000D01*
X165000Y797205D02*
X165157Y797047D01*
X284000Y1291000D02*
X509000D01*
X529000Y1311000D01*
Y1408686D01*
X505000Y1432000D02*
X505343Y1432343D01*
X529000Y1408686D01*
X286000Y1432000D02*
X505000D01*
X286000D02*
X299000Y1445000D01*
X645000D02*
X674000Y1416000D01*
X299000Y1445000D02*
X645000D01*
X305000Y425000D02*
X341000Y461000D01*
X288000Y425000D02*
X305000D01*
X1519000Y310000D02*
X1521000Y308000D01*
X1616835Y169315D02*
X1642426D01*
X1591245D02*
X1616835D01*
X165157Y697047D02*
Y747047D01*
X225000Y648583D02*
Y669657D01*
X165157Y697047D02*
X190157D01*
X210333Y676872D01*
X217785D01*
X225000Y669657D01*
X165157Y597047D02*
X190157D01*
X203118Y610008D01*
Y626701D01*
X225000Y648583D01*
X1537000Y1042118D02*
X1537512Y1042630D01*
X1590433Y1195567D02*
Y1224409D01*
X1594370Y1161417D02*
X1595000Y1162047D01*
Y1191000D01*
X1590433Y1195567D02*
X1595000Y1191000D01*
X1479000Y1536000D02*
X1480000D01*
X1397000Y806000D02*
X1398000Y805000D01*
X1396000Y807000D02*
X1397000Y806000D01*
X1336913Y807087D02*
X1337000Y807000D01*
X714787Y1496000D02*
X715441Y1496653D01*
X397000Y1112000D02*
X400000Y1109000D01*
X1183000Y633000D02*
X1244000D01*
X1182000Y632000D02*
X1183000Y633000D01*
X968990Y465000D02*
X970000Y463990D01*
Y425000D02*
Y463990D01*
X793000Y242000D02*
X794000Y241000D01*
X479000Y510000D02*
X480000Y509000D01*
X835075Y436000D02*
X837575D01*
X827075Y444000D02*
X835075Y436000D01*
X827075Y444000D02*
Y446500D01*
X816625Y456950D02*
X827075Y446500D01*
X816625Y456950D02*
Y466375D01*
X814000Y469000D02*
X816625Y466375D01*
X1336000Y399000D02*
Y400000D01*
X1091858Y321220D02*
X1093079Y320000D01*
X1642426Y169315D02*
Y188016D01*
X1546677Y1536000D02*
X1547244Y1535433D01*
X1901575Y1795276D02*
X1904000Y1797701D01*
Y1922000D01*
X127000Y1372000D02*
X128000Y1373000D01*
X127000Y1291000D02*
Y1372000D01*
X111000Y1163000D02*
X124000Y1176000D01*
X111000Y952000D02*
Y1163000D01*
X283000Y1232000D02*
X284000Y1233000D01*
Y1291000D01*
X1336000Y336000D02*
X1362000Y310000D01*
X610000Y397000D02*
Y439000D01*
X619694Y448694D01*
X649481D01*
X657323Y456536D01*
X1565654Y169315D02*
X1591245D01*
D46*
X1027000Y417000D02*
X1053000Y443000D01*
X1027000Y358000D02*
Y417000D01*
X1053000Y443000D02*
Y494323D01*
X755000Y1346000D02*
X825331D01*
X673228Y426772D02*
Y440945D01*
X625827Y519843D02*
X625984Y519685D01*
X1179990Y634010D02*
X1182000Y632000D01*
X1137030Y634010D02*
X1179990D01*
X1242990D02*
X1244000Y633000D01*
X920000Y406000D02*
X974000D01*
X997000Y429000D02*
Y505000D01*
X974000Y406000D02*
X997000Y429000D01*
X903000Y509000D02*
X914000Y520000D01*
X968990D01*
X289000Y474000D02*
X304000Y489000D01*
X600000D01*
X608543Y480457D01*
X625827Y440787D02*
X625827Y440788D01*
X625827Y346929D02*
Y440787D01*
X663000Y350102D02*
X666000Y347102D01*
X641602Y561437D02*
Y628924D01*
Y561437D02*
X641732Y561307D01*
X488000Y631000D02*
X639527D01*
X641602Y628924D01*
X804000Y369000D02*
X827000Y346000D01*
X795000Y369000D02*
X804000D01*
X1067094Y177000D02*
X1078740Y165354D01*
X797575Y436000D02*
X800075D01*
X808303Y427772D01*
X844000Y630000D02*
X971990D01*
X972000Y630010D01*
X728000Y1346000D02*
X755000D01*
X825331D02*
X827756Y1348425D01*
X392000Y190677D02*
X393701Y188976D01*
X392000Y190677D02*
Y253000D01*
X747000Y620000D02*
X757000Y630000D01*
X747000Y546213D02*
Y620000D01*
X738000Y552961D02*
Y690000D01*
X753000Y705000D01*
Y728000D01*
X1046409Y1572000D02*
X1048000D01*
X1009842Y1535433D02*
X1046409Y1572000D01*
X1009842Y1530512D02*
Y1535433D01*
X729000Y705000D02*
X733000Y709000D01*
X729000Y559709D02*
Y705000D01*
X733000Y709000D02*
Y724000D01*
X730000Y727000D02*
X733000Y724000D01*
X730000Y727000D02*
Y755000D01*
X719114Y717114D02*
X721000Y715228D01*
Y567457D02*
Y715228D01*
X1019032Y1575032D02*
X1021968D01*
X994291Y1550291D02*
X1019032Y1575032D01*
X990158Y1530512D02*
X994291Y1534646D01*
Y1550291D01*
X974606Y1547606D02*
X1086000Y1659000D01*
X970472Y1530512D02*
X974606Y1534646D01*
Y1547606D01*
X396000Y461000D02*
X399000Y464000D01*
X434000D01*
X1053000Y494323D02*
X1082677Y524000D01*
X1017000Y513000D02*
X1024000Y520000D01*
X1005000Y513000D02*
X1017000D01*
X997000Y505000D02*
X1005000Y513000D01*
X1072040Y699000D02*
X1137030Y634010D01*
X851000Y699000D02*
X1072040D01*
X1037030Y679000D02*
X1082020Y634010D01*
X848000Y679000D02*
X1037030D01*
X995020Y662000D02*
X1027010Y630010D01*
X847000Y662000D02*
X995020D01*
X706957Y488189D02*
X714073D01*
X788484Y562601D02*
Y562638D01*
X714073Y488189D02*
X788484Y562601D01*
Y562638D02*
X791347Y565501D01*
X796358D01*
X796713Y565855D01*
Y570866D01*
X688819Y456536D02*
X696000Y449354D01*
Y438311D02*
Y449354D01*
Y438311D02*
X723311Y411000D01*
X747000Y379000D02*
X766924D01*
X688976Y440945D02*
X689723Y440199D01*
Y436543D02*
Y440199D01*
Y436543D02*
X690154Y436112D01*
Y435846D02*
Y436112D01*
Y435846D02*
X747000Y379000D01*
X680000Y435000D02*
X719000Y396000D01*
X728346Y346457D02*
Y371654D01*
X673228Y426772D02*
X728346Y371654D01*
X680000Y435000D02*
Y449606D01*
X673071Y456536D02*
X680000Y449606D01*
X771000Y393000D02*
X795000Y369000D01*
X746924Y393000D02*
X771000D01*
X728924Y411000D02*
X746924Y393000D01*
X723311Y411000D02*
X728924D01*
X572000Y464000D02*
X633291D01*
X641575Y472284D01*
X530283Y464552D02*
X542730Y477000D01*
X602000D01*
X606559Y472441D01*
X608543Y480457D02*
X634000D01*
X641575Y488031D01*
X704780Y503780D02*
Y503992D01*
X747000Y546213D01*
X704567Y503780D02*
X704780D01*
X704567Y519528D02*
X738000Y552961D01*
X688819Y519528D02*
X729000Y559709D01*
X673071Y519528D02*
X721000Y567457D01*
X689000Y381000D02*
Y400000D01*
X657661Y431339D02*
X689000Y400000D01*
X657323Y440787D02*
X657661Y440449D01*
Y431339D02*
Y440449D01*
X637000Y327000D02*
X709000D01*
X704567Y472284D02*
Y488031D01*
X657323Y519528D02*
X657480Y519685D01*
X704567Y456536D02*
X727551D01*
X625827Y519528D02*
X641575Y503780D01*
X520000Y509000D02*
X587000D01*
X589000Y507000D01*
X592841D02*
X611841Y488000D01*
X589000Y507000D02*
X592841D01*
X611841Y488000D02*
X622682D01*
X1082677Y469000D02*
X1084677Y471000D01*
X839213Y570866D02*
Y576240D01*
X727709Y456693D02*
X750693D01*
X665000Y397000D02*
Y405000D01*
X641732Y428268D02*
X665000Y405000D01*
Y352102D02*
Y397000D01*
X663000Y350102D02*
X665000Y352102D01*
X665354Y346457D02*
X666000Y347102D01*
X512496Y581000D02*
X539026D01*
X615932Y504094D02*
X625827D01*
X625984Y503937D01*
X539026Y581000D02*
X615932Y504094D01*
X494630Y428000D02*
X519630D01*
X530283Y438653D01*
Y464552D01*
X606559Y472441D02*
X625984D01*
X625827Y456536D02*
X625984Y456693D01*
X615747Y456536D02*
X625827D01*
X593211Y434000D02*
X615747Y456536D01*
X566496Y434000D02*
X593211D01*
X625354Y346457D02*
X625827Y346929D01*
X614000Y582000D02*
X618000Y586000D01*
X614000Y558000D02*
Y582000D01*
X625827Y519843D02*
Y546173D01*
X614000Y558000D02*
X625827Y546173D01*
X666000Y582693D02*
X669921Y586614D01*
X666000Y559000D02*
Y582693D01*
X657480Y519685D02*
Y550480D01*
X666000Y559000D01*
X441630Y581000D02*
Y596748D01*
X459543Y614661D01*
X471661D01*
X488000Y631000D01*
X641732Y519685D02*
Y561307D01*
Y428268D02*
Y438712D01*
X768346Y346457D02*
X769000Y347110D01*
Y376924D01*
X766924Y379000D02*
X769000Y376924D01*
X750693Y456693D02*
X763000Y469000D01*
X799000Y471076D02*
Y507457D01*
X796924Y469000D02*
X799000Y471076D01*
X763000Y469000D02*
X796924D01*
X796713Y570866D02*
X799213D01*
X798583Y507874D02*
X799000Y507457D01*
X769000Y436000D02*
X797575D01*
X704724Y440945D02*
X704882Y440788D01*
X764212D01*
X769000Y436000D01*
X669921Y586614D02*
X670000Y586535D01*
D47*
X1723000Y1276000D02*
X1724000Y1275000D01*
Y1273000D02*
Y1275000D01*
D48*
X1563661Y2408228D02*
Y2644449D01*
X1484921Y2408228D02*
Y2644449D01*
X1406181Y2408228D02*
Y2644449D01*
X1327441Y2408228D02*
Y2644449D01*
X1248701Y2408228D02*
Y2644449D01*
X1169961Y2408228D02*
Y2644449D01*
X1091220Y2408228D02*
Y2644449D01*
X1012480Y2408228D02*
Y2644449D01*
X933740Y2408228D02*
Y2644449D01*
D49*
X855000Y2172000D02*
Y2644441D01*
D50*
Y2100575D02*
Y2172000D01*
Y2100575D02*
X855425Y2101000D01*
X938055D01*
X854000Y1991339D02*
Y2046425D01*
X855000Y2047425D01*
X853000Y1646000D02*
X854000Y1647000D01*
X852362Y1530512D02*
Y1590362D01*
X853000Y1591000D01*
D51*
X852500Y1645500D02*
X853000Y1646000D01*
X795500Y1645500D02*
X852500D01*
X795000Y1645000D02*
X795500Y1645500D01*
X854000Y1647000D02*
Y1900000D01*
D52*
X962799Y2093854D02*
X969945Y2101000D01*
D53*
X641575Y456536D02*
Y456575D01*
D54*
X872047Y1530512D02*
X873327Y1531791D01*
D55*
X497000Y400000D02*
D03*
D56*
X845500Y504000D02*
D03*
D57*
X724500Y346000D02*
D03*
X795500Y508000D02*
D03*
D58*
X795000Y571500D02*
D03*
D59*
X594000Y348000D02*
D03*
D60*
X609500Y587000D02*
D03*
D61*
X668500Y585500D02*
D03*
D62*
X1920000Y50000D02*
D03*
D63*
Y2707000D02*
D03*
X51000Y2700000D02*
D03*
D64*
X135000Y1904000D02*
D03*
X103000Y158000D02*
D03*
X1861000Y156000D02*
D03*
D65*
X1236220Y62992D02*
D03*
X1118110Y62992D02*
D03*
X717890Y63000D02*
D03*
X836000Y63000D02*
D03*
D66*
X1721166Y64000D02*
D03*
X1461323D02*
D03*
D67*
X55118Y772047D02*
D03*
Y622047D02*
D03*
D68*
X1798315Y899685D02*
D03*
X883000Y997000D02*
D03*
X880976Y964000D02*
D03*
X754608Y1969867D02*
D03*
X937000Y2038000D02*
D03*
X699000Y1646000D02*
D03*
X1084000Y429000D02*
D03*
X1027000Y358000D02*
D03*
X1724000Y1306000D02*
D03*
Y1273000D02*
D03*
X1911000Y1111000D02*
D03*
X1917000Y1015000D02*
D03*
X1914000Y925000D02*
D03*
X789000Y1415000D02*
D03*
X728000Y1346000D02*
D03*
X918000Y1220000D02*
D03*
X989000Y1216000D02*
D03*
X1022000Y1177000D02*
D03*
X967000Y1024000D02*
D03*
X1155000Y1485000D02*
D03*
X1111000Y1555000D02*
D03*
X1078000Y1597000D02*
D03*
X794000Y1260000D02*
D03*
X1096000Y1244000D02*
D03*
X859000Y1200000D02*
D03*
X1187000Y1398000D02*
D03*
Y1481000D02*
D03*
X1136000Y497000D02*
D03*
X1826000Y1377000D02*
D03*
X1902000Y1417000D02*
D03*
X1847000Y786000D02*
D03*
X974000Y803000D02*
D03*
X667000Y643000D02*
D03*
X165000Y898000D02*
D03*
X1670000Y267000D02*
D03*
X1464000Y805000D02*
D03*
X1537000Y998000D02*
D03*
X674000Y1416000D02*
D03*
X666000Y1496000D02*
D03*
X345000Y1112000D02*
D03*
X970000Y425000D02*
D03*
X793000Y242000D02*
D03*
X903000Y509000D02*
D03*
X920000Y406000D02*
D03*
X289000Y474000D02*
D03*
X288000Y425000D02*
D03*
X433000Y510000D02*
D03*
X814000Y469000D02*
D03*
X1336000Y400000D02*
D03*
X1124000Y320000D02*
D03*
X1173000Y229000D02*
D03*
X1480000Y1536000D02*
D03*
X1904000Y1922000D02*
D03*
X127000Y1291000D02*
D03*
X284000D02*
D03*
X1519000Y310000D02*
D03*
X610000Y397000D02*
D03*
X609000Y142000D02*
D03*
X721000Y212000D02*
D03*
X950000Y1214000D02*
D03*
X1448000Y279000D02*
D03*
X617000Y1376000D02*
D03*
X798000Y1198000D02*
D03*
X848000Y784000D02*
D03*
X574000Y839000D02*
D03*
X1033000Y947000D02*
D03*
X342000Y961000D02*
D03*
X857000Y749000D02*
D03*
X826000Y1173000D02*
D03*
X614000Y1115000D02*
D03*
X1221000Y243000D02*
D03*
X504000Y274000D02*
D03*
X999000Y213000D02*
D03*
X867000Y346000D02*
D03*
X841362Y864362D02*
D03*
X752000Y844000D02*
D03*
X902000Y1020000D02*
D03*
X467000Y1407000D02*
D03*
X1137000Y1349000D02*
D03*
X1418500Y1399500D02*
D03*
X1730685Y1070315D02*
D03*
X1132000Y1624000D02*
D03*
X1797756Y1342244D02*
D03*
X1639000Y1268000D02*
D03*
X1684000Y1313000D02*
D03*
X1365000Y969000D02*
D03*
X1794315Y1185685D02*
D03*
X1187000Y1427000D02*
D03*
X1630000Y1032000D02*
D03*
X1692000Y1011000D02*
D03*
X902000Y1046000D02*
D03*
X1365000Y994000D02*
D03*
X1685000Y871000D02*
D03*
X1187000Y1369000D02*
D03*
X1709000Y912000D02*
D03*
Y1086000D02*
D03*
X392000Y253000D02*
D03*
X757000Y630000D02*
D03*
X753000Y728000D02*
D03*
X1048000Y1572000D02*
D03*
X730000Y755000D02*
D03*
X719114Y717114D02*
D03*
X1022000Y1575000D02*
D03*
X434000Y464000D02*
D03*
X689000Y381000D02*
D03*
X727551Y456536D02*
D03*
X589000Y507000D02*
D03*
X665000Y397000D02*
D03*
D69*
X1563661Y2644449D02*
D03*
Y2408228D02*
D03*
X1484921Y2644449D02*
D03*
Y2408228D02*
D03*
X1406181Y2644449D02*
D03*
Y2408228D02*
D03*
X1327441Y2644449D02*
D03*
Y2408228D02*
D03*
X1248701Y2644449D02*
D03*
Y2408228D02*
D03*
X1169961Y2644449D02*
D03*
Y2408228D02*
D03*
X1091220Y2644449D02*
D03*
Y2408228D02*
D03*
X1012480Y2644449D02*
D03*
Y2408228D02*
D03*
X933740Y2644449D02*
D03*
Y2408228D02*
D03*
X855000Y2644441D02*
D03*
D70*
X809762Y1810191D02*
D03*
Y1750191D02*
D03*
X806112Y1690302D02*
D03*
X903302Y1651743D02*
D03*
X898238Y1711529D02*
D03*
Y1771529D02*
D03*
Y1831529D02*
D03*
D71*
X625827Y440788D02*
D03*
X844000Y630000D02*
D03*
X851000Y699000D02*
D03*
X848000Y679000D02*
D03*
X847000Y662000D02*
D03*
X719000Y396000D02*
D03*
X572000Y464000D02*
D03*
X688819Y503780D02*
D03*
Y488031D02*
D03*
Y472284D02*
D03*
X673071Y503780D02*
D03*
X641575D02*
D03*
X657323D02*
D03*
%TF.MD5,3e36f04989e35abfc9bf027c00db574e*%
M02*
