%TF.GenerationSoftware,Altium Limited,Altium Designer,20.2.4 (192)*%
G04 Layer_Color=8388736*
%FSLAX26Y26*%
%MOIN*%
%TF.SameCoordinates,E8949934-62E6-4346-A9B8-0D5D28CF3135*%
%TF.FilePolarity,Negative*%
%TF.FileFunction,Soldermask,Top*%
%TF.Part,Single*%
G01*
G75*
%TA.AperFunction,SMDPad,CuDef*%
%ADD25R,0.031496X0.031496*%
%ADD26R,0.035433X0.031496*%
%TA.AperFunction,ViaPad*%
%ADD73C,0.015748*%
%TA.AperFunction,ComponentPad*%
%ADD88C,0.039370*%
%ADD89C,0.046063*%
%TA.AperFunction,ViaPad*%
%ADD90C,0.084646*%
%TA.AperFunction,ComponentPad*%
%ADD91O,0.041339X0.068898*%
%TA.AperFunction,ViaPad*%
%ADD92C,0.023622*%
%ADD93C,0.020866*%
%ADD94C,0.055906*%
%TA.AperFunction,NonConductor*%
%ADD106C,0.024000*%
%TA.AperFunction,SMDPad,CuDef*%
%ADD107C,0.078740*%
%ADD108R,0.035906X0.035906*%
%ADD109R,0.030906X0.025906*%
%TA.AperFunction,BGAPad,CuDef*%
%ADD110C,0.012205*%
%TA.AperFunction,SMDPad,CuDef*%
%ADD111R,0.023032X0.025906*%
%TA.AperFunction,BGAPad,CuDef*%
%ADD112R,0.023622X0.023622*%
%TA.AperFunction,SMDPad,CuDef*%
%ADD113R,0.035906X0.035906*%
%ADD114R,0.029528X0.066929*%
%ADD115R,0.053150X0.076772*%
%ADD116R,0.045276X0.053150*%
%TA.AperFunction,ConnectorPad*%
%ADD117R,0.085827X0.035827*%
%TA.AperFunction,SMDPad,CuDef*%
%ADD118R,0.045276X0.076772*%
%ADD119R,0.074803X0.183071*%
%ADD120C,0.013780*%
%ADD121R,0.061024X0.114173*%
%ADD122R,0.060630X0.114173*%
%ADD123R,0.016535X0.041142*%
%ADD124R,0.036221X0.016535*%
%ADD125R,0.033465X0.021654*%
%ADD126R,0.015748X0.021654*%
%ADD127R,0.226378X0.226378*%
%ADD128R,0.015748X0.025590*%
%ADD129R,0.025590X0.015748*%
%ADD130R,0.014567X0.024410*%
%ADD131R,0.053937X0.039937*%
%ADD132R,0.041906X0.041906*%
%ADD133R,0.039937X0.039937*%
%ADD134R,0.025197X0.026378*%
%ADD135R,0.037402X0.037402*%
%TA.AperFunction,ConnectorPad*%
%ADD136R,0.021654X0.059055*%
%ADD137R,0.080709X0.066929*%
%ADD138R,0.068898X0.061024*%
%TA.AperFunction,SMDPad,CuDef*%
%ADD139R,0.035433X0.037402*%
%ADD140R,0.025591X0.028740*%
%ADD141R,0.043307X0.039370*%
D25*
X62992Y1431102D02*
D03*
Y1372047D02*
D03*
D26*
X715441Y1453347D02*
D03*
X770559Y1496653D02*
D03*
X715441D02*
D03*
D73*
X657323Y471677D02*
D03*
X688819Y456536D02*
D03*
X673071Y489331D02*
D03*
X688819Y503780D02*
D03*
D88*
X1132000Y112000D02*
D03*
X1250110Y112000D02*
D03*
X858055D02*
D03*
X739945Y112000D02*
D03*
D89*
X64961Y622000D02*
D03*
Y772000D02*
D03*
D90*
X135000Y1904000D02*
D03*
X103000Y158000D02*
D03*
X1861000Y156000D02*
D03*
D91*
X1746677Y93000D02*
D03*
X1486834D02*
D03*
D92*
X1465551Y750000D02*
D03*
X1464000Y805000D02*
D03*
X1876536Y2106064D02*
D03*
X1832166Y2017323D02*
D03*
X1876536Y1928583D02*
D03*
X1832166Y1839843D02*
D03*
Y1662362D02*
D03*
Y1484882D02*
D03*
X1876536Y686220D02*
D03*
X1832166Y597480D02*
D03*
X1876536Y508740D02*
D03*
X1832166Y420000D02*
D03*
X1876536Y331260D02*
D03*
X1832166Y242519D02*
D03*
Y65039D02*
D03*
X1787795Y2106064D02*
D03*
X1743425Y2017323D02*
D03*
X1787795Y1928583D02*
D03*
X1743425Y597480D02*
D03*
X1787795Y508740D02*
D03*
X1743425Y420000D02*
D03*
X1787795Y331260D02*
D03*
X1743425Y242519D02*
D03*
X1787795Y153779D02*
D03*
X1699055Y2106064D02*
D03*
X1654685Y2017323D02*
D03*
X1699055Y1928583D02*
D03*
X1654685Y1839843D02*
D03*
Y1662362D02*
D03*
Y1484882D02*
D03*
X1699055Y1396142D02*
D03*
X1654685Y1129921D02*
D03*
Y952441D02*
D03*
Y597480D02*
D03*
X1699055Y508740D02*
D03*
Y331260D02*
D03*
Y153779D02*
D03*
X1610315Y2106064D02*
D03*
X1565945Y2017323D02*
D03*
X1610315Y1928583D02*
D03*
X1565945Y1839843D02*
D03*
X1610315Y1751103D02*
D03*
X1565945Y1662362D02*
D03*
Y597480D02*
D03*
X1610315Y508740D02*
D03*
Y331260D02*
D03*
X1521575Y2106064D02*
D03*
X1477205Y2017323D02*
D03*
X1521575Y1928583D02*
D03*
X1477205Y1839843D02*
D03*
X1521575Y1751103D02*
D03*
X1477205Y1484882D02*
D03*
Y1307402D02*
D03*
Y1129921D02*
D03*
Y597480D02*
D03*
X1521575Y508740D02*
D03*
X1477205Y420000D02*
D03*
X1521575Y331260D02*
D03*
X1477205Y242519D02*
D03*
X1432835Y2106064D02*
D03*
X1388465Y2017323D02*
D03*
X1432835Y1928583D02*
D03*
X1388465Y1839843D02*
D03*
X1432835Y1751103D02*
D03*
Y1573622D02*
D03*
X1388465Y1484882D02*
D03*
Y1307402D02*
D03*
X1432835Y1218661D02*
D03*
X1388465Y1129921D02*
D03*
X1432835Y686220D02*
D03*
X1388465Y597480D02*
D03*
X1432835Y508740D02*
D03*
X1388465Y242519D02*
D03*
X1432835Y153779D02*
D03*
X1388465Y65039D02*
D03*
X1344094Y2106064D02*
D03*
X1299724Y2017323D02*
D03*
X1344094Y1928583D02*
D03*
X1299724Y1839843D02*
D03*
X1344094Y1751103D02*
D03*
Y1573622D02*
D03*
X1299724Y1307402D02*
D03*
X1344094Y1041181D02*
D03*
Y863701D02*
D03*
Y686220D02*
D03*
X1299724Y597480D02*
D03*
Y420000D02*
D03*
X1344094Y153779D02*
D03*
X1299724Y65039D02*
D03*
X1255354Y2106064D02*
D03*
X1210984Y2017323D02*
D03*
X1255354Y1928583D02*
D03*
X1210984Y1839843D02*
D03*
X1255354Y1751103D02*
D03*
X1210984Y1307402D02*
D03*
X1255354Y1218661D02*
D03*
X1210984Y1129921D02*
D03*
X1255354Y1041181D02*
D03*
Y863701D02*
D03*
Y686220D02*
D03*
X1210984Y420000D02*
D03*
X1255354Y153779D02*
D03*
X1210984Y65039D02*
D03*
X1166614Y2106064D02*
D03*
X1122244Y2017323D02*
D03*
X1166614Y1928583D02*
D03*
X1122244Y1839843D02*
D03*
X1166614Y1751103D02*
D03*
X1122244Y1129921D02*
D03*
X1166614Y1041181D02*
D03*
Y863701D02*
D03*
Y686220D02*
D03*
Y153779D02*
D03*
X1122244Y65039D02*
D03*
X1077874Y2106064D02*
D03*
X1033504Y2017323D02*
D03*
X1077874Y1928583D02*
D03*
X1033504Y1839843D02*
D03*
X1077874Y1751103D02*
D03*
Y1218661D02*
D03*
Y1041181D02*
D03*
Y863701D02*
D03*
Y686220D02*
D03*
X1033504Y65039D02*
D03*
X944764Y2017323D02*
D03*
X989134Y1928583D02*
D03*
X944764Y1839843D02*
D03*
X989134Y1751103D02*
D03*
X944764Y65039D02*
D03*
X856023D02*
D03*
X811653Y2106064D02*
D03*
X767283Y2017323D02*
D03*
Y1839843D02*
D03*
Y65039D02*
D03*
X722913Y2106064D02*
D03*
X678543Y2017323D02*
D03*
X722913Y1928583D02*
D03*
X678543Y1839843D02*
D03*
X722913Y1751103D02*
D03*
Y1573622D02*
D03*
X678543Y65039D02*
D03*
X634173Y2106064D02*
D03*
X589803Y2017323D02*
D03*
X634173Y1928583D02*
D03*
X589803Y1839843D02*
D03*
X634173Y1751103D02*
D03*
X589803Y1662362D02*
D03*
X634173Y1573622D02*
D03*
X589803Y1484882D02*
D03*
X634173Y1218661D02*
D03*
X545433Y2106064D02*
D03*
X501062Y2017323D02*
D03*
X545433Y1928583D02*
D03*
X501062Y1839843D02*
D03*
X545433Y1751103D02*
D03*
X501062Y1662362D02*
D03*
X545433Y1573622D02*
D03*
Y1396142D02*
D03*
X501062Y1307402D02*
D03*
X545433Y1218661D02*
D03*
X501062Y1129921D02*
D03*
X456692Y2106064D02*
D03*
X412322Y2017323D02*
D03*
X456692Y1928583D02*
D03*
X412322Y1839843D02*
D03*
X456692Y1751103D02*
D03*
X412322Y1662362D02*
D03*
X456692Y1573622D02*
D03*
X412322Y1484882D02*
D03*
Y1307402D02*
D03*
X456692Y1218661D02*
D03*
X367952Y2106064D02*
D03*
X323582Y2017323D02*
D03*
X367952Y1928583D02*
D03*
X323582Y1839843D02*
D03*
X367952Y1751103D02*
D03*
X323582Y1662362D02*
D03*
X367952Y1573622D02*
D03*
X323582Y1484882D02*
D03*
Y420000D02*
D03*
Y242519D02*
D03*
X367952Y153779D02*
D03*
X279212Y2106064D02*
D03*
X234842Y2017323D02*
D03*
X279212Y1928583D02*
D03*
X234842Y1839843D02*
D03*
X279212Y1751103D02*
D03*
X234842Y1662362D02*
D03*
X279212Y1573622D02*
D03*
X234842Y1484882D02*
D03*
Y1307402D02*
D03*
X279212Y1041181D02*
D03*
X234842Y952441D02*
D03*
X279212Y863701D02*
D03*
X234842Y774961D02*
D03*
X279212Y508740D02*
D03*
X234842Y420000D02*
D03*
X279212Y331260D02*
D03*
X234842Y242519D02*
D03*
X279212Y153779D02*
D03*
X234842Y65039D02*
D03*
X190472Y2106064D02*
D03*
X146102Y2017323D02*
D03*
X190472Y1928583D02*
D03*
X146102Y1839843D02*
D03*
X190472Y1751103D02*
D03*
X146102Y1662362D02*
D03*
X190472Y1573622D02*
D03*
X146102Y1484882D02*
D03*
X190472Y1041181D02*
D03*
Y508740D02*
D03*
X146102Y420000D02*
D03*
X190472Y331260D02*
D03*
X146102Y242519D02*
D03*
X190472Y153779D02*
D03*
X146102Y65039D02*
D03*
X101732Y2106064D02*
D03*
X57361Y2017323D02*
D03*
Y1839843D02*
D03*
X101732Y1751103D02*
D03*
X57361Y1662362D02*
D03*
X101732Y1573622D02*
D03*
X57361Y1484882D02*
D03*
Y1307402D02*
D03*
X101732Y1041181D02*
D03*
X57361Y952441D02*
D03*
X101732Y863701D02*
D03*
Y686220D02*
D03*
Y508740D02*
D03*
X57361Y420000D02*
D03*
X101732Y331260D02*
D03*
X57361Y242519D02*
D03*
Y65039D02*
D03*
X769000Y313000D02*
D03*
X908000Y276000D02*
D03*
X628000Y303000D02*
D03*
X567000Y605000D02*
D03*
X757000Y667000D02*
D03*
X859000Y644000D02*
D03*
X1115158Y1529528D02*
D03*
X739201Y456693D02*
D03*
X1124262Y484252D02*
D03*
X589000Y507000D02*
D03*
X665000Y397000D02*
D03*
X806102Y468215D02*
D03*
X283465Y1278543D02*
D03*
X392000Y253000D02*
D03*
X1630906Y466536D02*
D03*
X284449Y1470472D02*
D03*
X471457Y284449D02*
D03*
X892716Y1232284D02*
D03*
X1053150Y1578740D02*
D03*
X1633571Y1020209D02*
D03*
X1333110Y422677D02*
D03*
X1079724Y279528D02*
D03*
X1132874Y576772D02*
D03*
X1144685Y279528D02*
D03*
X998236Y214362D02*
D03*
X1630906Y311024D02*
D03*
X1457677Y314094D02*
D03*
X659032Y255905D02*
D03*
X874016Y710630D02*
D03*
X863189Y682087D02*
D03*
X1815945Y995079D02*
D03*
X1910342Y1110342D02*
D03*
X902000Y1054000D02*
D03*
X1031000Y931000D02*
D03*
X1365000Y1002000D02*
D03*
X1701000Y1087000D02*
D03*
X753000Y728000D02*
D03*
X727000Y752000D02*
D03*
X711000Y716000D02*
D03*
X1728220Y1268780D02*
D03*
X147000Y939000D02*
D03*
X609000Y142000D02*
D03*
X1798315Y899685D02*
D03*
X883000Y997000D02*
D03*
X880976Y964000D02*
D03*
X754608Y1969867D02*
D03*
X699000Y1646000D02*
D03*
X1027000Y358000D02*
D03*
X1724000Y1306000D02*
D03*
X1917000Y1015000D02*
D03*
X1914000Y925000D02*
D03*
X789000Y1415000D02*
D03*
X728000Y1346000D02*
D03*
X918000Y1220000D02*
D03*
X989000Y1216000D02*
D03*
X1022000Y1177000D02*
D03*
X1155000Y1485000D02*
D03*
X794000Y1260000D02*
D03*
X1826000Y1377000D02*
D03*
X1902000Y1417000D02*
D03*
X1847000Y786000D02*
D03*
X667000Y643000D02*
D03*
X1530118Y996709D02*
D03*
X666000Y1496000D02*
D03*
X345000Y1112000D02*
D03*
X970000Y425000D02*
D03*
X903000Y509000D02*
D03*
X433000Y510000D02*
D03*
X1480000Y1536000D02*
D03*
X1904000Y1922000D02*
D03*
X127000Y1291000D02*
D03*
X950000Y1214000D02*
D03*
X617000Y1376000D02*
D03*
X798000Y1198000D02*
D03*
X848000Y784000D02*
D03*
X574000Y839000D02*
D03*
X342000Y961000D02*
D03*
X857000Y749000D02*
D03*
X826000Y1173000D02*
D03*
X614000Y1115000D02*
D03*
X867000Y346000D02*
D03*
X841362Y864362D02*
D03*
X752000Y844000D02*
D03*
X902000Y1020000D02*
D03*
X467000Y1407000D02*
D03*
X1137000Y1349000D02*
D03*
X1418500Y1399500D02*
D03*
X1730685Y1070315D02*
D03*
X1132000Y1624000D02*
D03*
X1797756Y1342244D02*
D03*
X1639000Y1268000D02*
D03*
X1684000Y1313000D02*
D03*
X1365000Y969000D02*
D03*
X1794315Y1185685D02*
D03*
X1187000Y1427000D02*
D03*
X1692000Y1011000D02*
D03*
X1685000Y871000D02*
D03*
X1187000Y1369000D02*
D03*
X1709000Y912000D02*
D03*
X1022000Y1575000D02*
D03*
X689000Y381000D02*
D03*
D93*
X1270669Y1387795D02*
D03*
X221457Y520669D02*
D03*
X1563661Y2644449D02*
D03*
Y2408228D02*
D03*
X1484921Y2644449D02*
D03*
Y2408228D02*
D03*
X1406181Y2644449D02*
D03*
Y2408228D02*
D03*
X1327441Y2644449D02*
D03*
Y2408228D02*
D03*
X1248701Y2644449D02*
D03*
Y2408228D02*
D03*
X1169961Y2644449D02*
D03*
Y2408228D02*
D03*
X1091220Y2644449D02*
D03*
Y2408228D02*
D03*
X1012480Y2644449D02*
D03*
Y2408228D02*
D03*
X933740Y2644449D02*
D03*
Y2408228D02*
D03*
X855000Y2644441D02*
D03*
D94*
X809762Y1810191D02*
D03*
Y1750191D02*
D03*
X806112Y1690302D02*
D03*
X903302Y1651743D02*
D03*
X898238Y1711529D02*
D03*
Y1771529D02*
D03*
Y1831529D02*
D03*
D106*
X410000Y954100D02*
G03*
X410000Y954100I-11000J0D01*
G01*
D107*
X69882Y2681102D02*
D03*
X1899606Y2685039D02*
D03*
X1907480Y57544D02*
D03*
D108*
X1306102Y466654D02*
D03*
Y521654D02*
D03*
X1185000Y468000D02*
D03*
X1245000Y469000D02*
D03*
Y524000D02*
D03*
X1185000Y523000D02*
D03*
X1082677Y520669D02*
D03*
X1086614Y807087D02*
D03*
Y752087D02*
D03*
X1023622Y807087D02*
D03*
Y752087D02*
D03*
X1369094Y384842D02*
D03*
Y329842D02*
D03*
X1298228Y383740D02*
D03*
Y328740D02*
D03*
X1082020Y634010D02*
D03*
X400000Y1109000D02*
D03*
Y1054000D02*
D03*
X1223000Y328000D02*
D03*
Y383000D02*
D03*
X1161000Y329000D02*
D03*
Y384000D02*
D03*
X1082677Y465669D02*
D03*
X1009000Y575000D02*
D03*
Y630000D02*
D03*
X968990Y465000D02*
D03*
Y520000D02*
D03*
X1182000Y632000D02*
D03*
Y577000D02*
D03*
X1149606Y807087D02*
D03*
Y752087D02*
D03*
X1212598Y807087D02*
D03*
Y752087D02*
D03*
X1275591Y807087D02*
D03*
Y752087D02*
D03*
X1337000Y807000D02*
D03*
Y752000D02*
D03*
X1397000Y806000D02*
D03*
Y751000D02*
D03*
X124000Y1176000D02*
D03*
Y1231000D02*
D03*
X415000Y1405000D02*
D03*
Y1350000D02*
D03*
X397000Y1215000D02*
D03*
Y1160000D02*
D03*
X128000Y1428000D02*
D03*
Y1373000D02*
D03*
X853000Y1646000D02*
D03*
Y1591000D02*
D03*
D109*
X665354Y346457D02*
D03*
X520000Y509000D02*
D03*
X755000Y1645000D02*
D03*
X795000D02*
D03*
X663905Y586000D02*
D03*
X612095D02*
D03*
X480000Y509000D02*
D03*
X768346Y346457D02*
D03*
D110*
X641575Y440787D02*
D03*
X625827Y488031D02*
D03*
X704567Y456536D02*
D03*
X688819D02*
D03*
X673071D02*
D03*
X704567Y440787D02*
D03*
X688819D02*
D03*
X673071D02*
D03*
X657323D02*
D03*
X625827D02*
D03*
X657323Y456536D02*
D03*
X641575D02*
D03*
X625827D02*
D03*
X704567Y472284D02*
D03*
X688819D02*
D03*
X641575D02*
D03*
X625827D02*
D03*
X704567Y488031D02*
D03*
X688819D02*
D03*
X641575D02*
D03*
X704567Y503780D02*
D03*
X688819D02*
D03*
X673071D02*
D03*
X657323D02*
D03*
X641575D02*
D03*
X625827D02*
D03*
X704567Y519528D02*
D03*
X688819D02*
D03*
X673071D02*
D03*
X657323D02*
D03*
X641575D02*
D03*
X625827D02*
D03*
D111*
X802520Y507874D02*
D03*
X835276Y570866D02*
D03*
X803150D02*
D03*
X834646Y507874D02*
D03*
X833638Y436000D02*
D03*
X801512D02*
D03*
X559055Y346457D02*
D03*
X526929D02*
D03*
X629291D02*
D03*
X732284D02*
D03*
D112*
X1768756Y1342244D02*
D03*
X1863244Y1247756D02*
D03*
Y1279252D02*
D03*
Y1310748D02*
D03*
Y1342244D02*
D03*
X1768756Y1310748D02*
D03*
Y1279252D02*
D03*
Y1247756D02*
D03*
D113*
X1082020Y579010D02*
D03*
X1529646Y1099409D02*
D03*
X1584646D02*
D03*
X1528583Y1164292D02*
D03*
X1583583D02*
D03*
X1583661Y1225394D02*
D03*
X1528661D02*
D03*
X1599000Y1391000D02*
D03*
X1544000D02*
D03*
X1598693Y1461370D02*
D03*
X1543693D02*
D03*
X1547244Y1535433D02*
D03*
X1602244D02*
D03*
X1585630Y1041339D02*
D03*
X1530630D02*
D03*
D114*
X437370Y203000D02*
D03*
X358630D02*
D03*
X398000D02*
D03*
D115*
X295638Y50441D02*
D03*
X500362D02*
D03*
D116*
X1289480Y214362D02*
D03*
X1191055D02*
D03*
X1092630D02*
D03*
X700575D02*
D03*
X799000D02*
D03*
X897425D02*
D03*
D117*
X175000Y597000D02*
D03*
Y697000D02*
D03*
Y747000D02*
D03*
Y797000D02*
D03*
X295079Y597000D02*
D03*
Y647000D02*
D03*
Y697000D02*
D03*
Y747000D02*
D03*
Y797000D02*
D03*
X175000Y647000D02*
D03*
D118*
X512496Y581000D02*
D03*
X441630D02*
D03*
X494134Y418226D02*
D03*
X565000D02*
D03*
D119*
X630976Y919000D02*
D03*
X503024D02*
D03*
D120*
X399000Y941700D02*
D03*
Y966300D02*
D03*
D121*
X1901575Y1795276D02*
D03*
X1744094D02*
D03*
X1901575Y1529528D02*
D03*
D122*
X1744094D02*
D03*
D123*
X1853370Y1140689D02*
D03*
X1833685D02*
D03*
X1814000D02*
D03*
X1794315D02*
D03*
X1774630D02*
D03*
Y1039311D02*
D03*
X1794315D02*
D03*
X1814000D02*
D03*
X1833685D02*
D03*
X1853370D02*
D03*
X1857370Y840311D02*
D03*
X1837685D02*
D03*
X1818000D02*
D03*
X1798315D02*
D03*
X1778630D02*
D03*
Y941689D02*
D03*
X1798315D02*
D03*
X1818000D02*
D03*
X1837685D02*
D03*
X1857370D02*
D03*
D124*
X1763803Y1109685D02*
D03*
Y1090000D02*
D03*
Y1070315D02*
D03*
X1864197D02*
D03*
Y1090000D02*
D03*
Y1109685D02*
D03*
X1868197Y910685D02*
D03*
Y891000D02*
D03*
Y871315D02*
D03*
X1767803D02*
D03*
Y891000D02*
D03*
Y910685D02*
D03*
D125*
X1096000Y368000D02*
D03*
D126*
X1087142Y340441D02*
D03*
X1104858D02*
D03*
D127*
X960630Y1397638D02*
D03*
D128*
X1068898Y1264764D02*
D03*
X970472D02*
D03*
X950787D02*
D03*
X931102D02*
D03*
X911417D02*
D03*
X891732D02*
D03*
X872047D02*
D03*
X990158D02*
D03*
X1009842D02*
D03*
X1029527D02*
D03*
X1049213D02*
D03*
X852362D02*
D03*
X1049213Y1530512D02*
D03*
X970472D02*
D03*
X891732D02*
D03*
X1029527D02*
D03*
X1009842D02*
D03*
X990158D02*
D03*
X911417D02*
D03*
X931102D02*
D03*
X950787D02*
D03*
X872047D02*
D03*
X852362D02*
D03*
D129*
X1093504Y1309055D02*
D03*
Y1387795D02*
D03*
Y1466535D02*
D03*
Y1328740D02*
D03*
Y1348425D02*
D03*
Y1368110D02*
D03*
Y1446850D02*
D03*
Y1427165D02*
D03*
Y1407480D02*
D03*
Y1486220D02*
D03*
Y1505906D02*
D03*
Y1289370D02*
D03*
X827756Y1309055D02*
D03*
Y1387795D02*
D03*
Y1466535D02*
D03*
Y1328740D02*
D03*
Y1348425D02*
D03*
Y1368110D02*
D03*
Y1446850D02*
D03*
Y1427165D02*
D03*
Y1407480D02*
D03*
Y1486220D02*
D03*
Y1505906D02*
D03*
Y1289370D02*
D03*
D130*
X1068898Y1530512D02*
D03*
D131*
X206000Y1395000D02*
D03*
X203000Y1195000D02*
D03*
D132*
X286000Y1432000D02*
D03*
X283000Y1232000D02*
D03*
D133*
X286000Y1357000D02*
D03*
X283000Y1157000D02*
D03*
D134*
X969945Y2101000D02*
D03*
X938055D02*
D03*
D135*
X54000Y1231528D02*
D03*
Y1172472D02*
D03*
D136*
X1616755Y198315D02*
D03*
X1591165D02*
D03*
X1565574D02*
D03*
X1642346D02*
D03*
X1667937D02*
D03*
D137*
X1569511Y93000D02*
D03*
X1664000D02*
D03*
D138*
X1742740Y189456D02*
D03*
X1490771D02*
D03*
D139*
X813646Y1983071D02*
D03*
X894354D02*
D03*
Y1908268D02*
D03*
X813646D02*
D03*
D140*
X854000Y1991339D02*
D03*
Y1900000D02*
D03*
D141*
X855000Y2047425D02*
D03*
Y2100575D02*
D03*
%TF.MD5,55cdee6dd10501415e578f1fbcfb6d9d*%
M02*
