G04*
G04 #@! TF.GenerationSoftware,Altium Limited,Altium Designer,20.2.4 (192)*
G04*
G04 Layer_Color=32768*
%FSLAX25Y25*%
%MOIN*%
G70*
G04*
G04 #@! TF.SameCoordinates,C82156A4-65EB-44BA-A6C3-424022D268A2*
G04*
G04*
G04 #@! TF.FilePolarity,Positive*
G04*
G01*
G75*
%ADD11C,0.00787*%
%ADD14C,0.00394*%
%ADD21C,0.00197*%
D11*
X145345Y691D02*
X172904D01*
D14*
X179832Y89100D02*
X183768D01*
X181800Y87132D02*
Y91069D01*
X179431Y109000D02*
X183369D01*
X181400Y107032D02*
Y110968D01*
X95400Y209017D02*
Y211183D01*
X94317Y210100D02*
X96483D01*
X52957Y39854D02*
Y43791D01*
X50988Y41823D02*
X54925D01*
X66520Y46047D02*
Y49984D01*
X64551Y48016D02*
X68488D01*
X5400Y119216D02*
Y121184D01*
X4416Y120200D02*
X6384D01*
X85500Y205628D02*
Y209172D01*
X83728Y207400D02*
X87272D01*
X47706Y56132D02*
Y60069D01*
X45738Y58100D02*
X49675D01*
X44594Y83042D02*
Y100758D01*
X68806Y83042D02*
Y100758D01*
X44594D02*
X68806D01*
X44594Y83042D02*
X68806D01*
X54732Y91900D02*
X58669D01*
X56700Y89931D02*
Y93868D01*
X179631Y129500D02*
X183569D01*
X181600Y127532D02*
Y131468D01*
X108300Y31532D02*
Y35469D01*
X106332Y33500D02*
X110268D01*
D21*
X173532Y80439D02*
Y97761D01*
X190068Y80439D02*
Y97761D01*
X173532Y80439D02*
X190068D01*
X173532Y97761D02*
X190068D01*
X173132Y100339D02*
Y117661D01*
X189668Y100339D02*
Y117661D01*
X173132Y100339D02*
X189668D01*
X173132Y117661D02*
X189668D01*
X92447Y208525D02*
X98353D01*
X92447Y211675D02*
X98353D01*
Y208525D02*
Y211675D01*
X92447Y208525D02*
Y211675D01*
X59650Y37295D02*
Y46350D01*
X46264Y37295D02*
Y46350D01*
X59650D01*
X46264Y37295D02*
X59650D01*
X60811Y42307D02*
X72228D01*
X60811Y53724D02*
X72228D01*
Y42307D02*
Y53724D01*
X60811Y42307D02*
Y53724D01*
X3432Y125121D02*
X7368D01*
Y115279D02*
Y125121D01*
X3432Y115279D02*
Y125121D01*
Y115279D02*
X7368D01*
X82547Y202085D02*
X88453D01*
X82547Y212715D02*
X88453D01*
X82547Y202085D02*
Y212715D01*
X88453Y202085D02*
Y212715D01*
X54399Y53572D02*
Y62628D01*
X41013Y53572D02*
Y62628D01*
X54399D01*
X41013Y53572D02*
X54399D01*
X186521Y124579D02*
Y134421D01*
X176679Y124579D02*
Y134421D01*
Y124579D02*
X186521D01*
X176679Y134421D02*
X186521D01*
X106627Y31039D02*
X109973D01*
X106627Y35961D02*
X109973D01*
X106627Y31039D02*
Y35961D01*
X109973Y31039D02*
Y35961D01*
M02*
