%TF.GenerationSoftware,Altium Limited,Altium Designer,20.2.4 (192)*%
G04 Layer_Color=255*
%FSLAX26Y26*%
%MOIN*%
%TF.SameCoordinates,397090C4-8786-4783-B811-474920FB5975*%
%TF.FilePolarity,Positive*%
%TF.FileFunction,Pads,Bot*%
%TF.Part,Single*%
G01*
G75*
%TA.AperFunction,SMDPad,CuDef*%
%ADD62C,0.039370*%
%TA.AperFunction,ViaPad*%
%ADD63C,0.039370*%
%ADD64C,0.078740*%
%TA.AperFunction,ComponentPad*%
%ADD65C,0.033465*%
%ADD66O,0.035433X0.062992*%
%ADD67C,0.040157*%
D62*
X1605000Y305000D02*
D03*
X620000Y231000D02*
D03*
X672000Y1288000D02*
D03*
X1427000Y350000D02*
D03*
X1602000Y398000D02*
D03*
X917000Y1148000D02*
D03*
X1338000Y219000D02*
D03*
X394000Y399000D02*
D03*
X1079000Y233000D02*
D03*
X578000Y73000D02*
D03*
X909000Y595000D02*
D03*
X1103000Y1195000D02*
D03*
X910000Y453000D02*
D03*
X934000Y750000D02*
D03*
X451000Y280000D02*
D03*
X217000Y486000D02*
D03*
X1920000Y50000D02*
D03*
D63*
Y2707000D02*
D03*
X51000Y2700000D02*
D03*
D64*
X135000Y1904000D02*
D03*
X103000Y158000D02*
D03*
X1861000Y156000D02*
D03*
D65*
X1236220Y62992D02*
D03*
X1118110Y62992D02*
D03*
X717890Y63000D02*
D03*
X836000Y63000D02*
D03*
D66*
X1721166Y64000D02*
D03*
X1461323D02*
D03*
D67*
X55118Y772047D02*
D03*
Y622047D02*
D03*
%TF.MD5,37a374b5f5e470ed8caea2397a992913*%
M02*
