G04*
G04 #@! TF.GenerationSoftware,Altium Limited,Altium Designer,20.2.4 (192)*
G04*
G04 Layer_Color=16711935*
%FSLAX25Y25*%
%MOIN*%
G70*
G04*
G04 #@! TF.SameCoordinates,C82156A4-65EB-44BA-A6C3-424022D268A2*
G04*
G04*
G04 #@! TF.FilePolarity,Negative*
G04*
G01*
G75*
%ADD81C,0.01378*%
%ADD90C,0.04528*%
%ADD91C,0.08465*%
%ADD92C,0.03937*%
%ADD93O,0.04134X0.06890*%
%ADD94C,0.04606*%
%ADD95C,0.02362*%
%ADD96C,0.02087*%
%ADD97C,0.05591*%
D81*
X84400Y63000D02*
D03*
X85100Y69900D02*
D03*
X84800Y67900D02*
D03*
X84700Y66200D02*
D03*
X71900Y39600D02*
D03*
X57200Y46400D02*
D03*
X68882Y50378D02*
D03*
Y48803D02*
D03*
Y47228D02*
D03*
X67307Y50378D02*
D03*
X65732D02*
D03*
D90*
X160500Y30500D02*
D03*
X62000Y23100D02*
D03*
X67200Y128800D02*
D03*
X142700Y35000D02*
D03*
X160200Y39800D02*
D03*
X91700Y114800D02*
D03*
X133800Y21900D02*
D03*
X39400Y39900D02*
D03*
X107900Y23300D02*
D03*
X57800Y7300D02*
D03*
X90900Y59500D02*
D03*
X110300Y119500D02*
D03*
X91000Y45300D02*
D03*
X93400Y75000D02*
D03*
X45100Y28000D02*
D03*
X21700Y48600D02*
D03*
X192000Y5000D02*
D03*
Y270700D02*
D03*
X5100Y270000D02*
D03*
D91*
X13500Y190400D02*
D03*
X10300Y15800D02*
D03*
X186100Y15600D02*
D03*
D92*
X123622Y6299D02*
D03*
X111811Y6299D02*
D03*
X71789Y6300D02*
D03*
X83600Y6300D02*
D03*
D93*
X172117Y6400D02*
D03*
X146132D02*
D03*
D94*
X5512Y77205D02*
D03*
Y62205D02*
D03*
D95*
X179832Y89969D02*
D03*
X88300Y99700D02*
D03*
X88098Y96400D02*
D03*
X108400Y42900D02*
D03*
X102700Y35800D02*
D03*
X72800Y134600D02*
D03*
X90300Y50900D02*
D03*
X92000Y40600D02*
D03*
X28900Y47400D02*
D03*
X61000Y39700D02*
D03*
X60900Y14200D02*
D03*
X72100Y21200D02*
D03*
X95000Y121400D02*
D03*
X144800Y27900D02*
D03*
X61700Y137600D02*
D03*
X79800Y119800D02*
D03*
X84800Y78400D02*
D03*
X57400Y83900D02*
D03*
X103300Y94700D02*
D03*
X34200Y96100D02*
D03*
X85700Y74900D02*
D03*
X82600Y117300D02*
D03*
X61400Y111500D02*
D03*
X122100Y24300D02*
D03*
X50400Y27400D02*
D03*
X99900Y21300D02*
D03*
X86700Y34600D02*
D03*
X84136Y86436D02*
D03*
X75200Y84400D02*
D03*
X90200Y102000D02*
D03*
X46700Y140700D02*
D03*
X113700Y134900D02*
D03*
X141850Y139950D02*
D03*
X173068Y107032D02*
D03*
X113200Y162400D02*
D03*
X179776Y134224D02*
D03*
X163900Y126800D02*
D03*
X168400Y131300D02*
D03*
X136500Y96900D02*
D03*
X179431Y118569D02*
D03*
X118700Y142700D02*
D03*
X163000Y103200D02*
D03*
X169200Y101100D02*
D03*
X90200Y104600D02*
D03*
X136500Y99400D02*
D03*
X168500Y87100D02*
D03*
X118700Y136900D02*
D03*
X170900Y91200D02*
D03*
Y108600D02*
D03*
X39200Y25300D02*
D03*
X75700Y63000D02*
D03*
X75300Y72800D02*
D03*
X104800Y157200D02*
D03*
X73000Y75500D02*
D03*
X71911Y71711D02*
D03*
X102200Y157500D02*
D03*
X43400Y46400D02*
D03*
X68900Y38100D02*
D03*
X72755Y45654D02*
D03*
X58900Y50700D02*
D03*
X66500Y39700D02*
D03*
D96*
X156366Y264445D02*
D03*
Y240823D02*
D03*
X148492Y264445D02*
D03*
Y240823D02*
D03*
X140618Y264445D02*
D03*
Y240823D02*
D03*
X132744Y264445D02*
D03*
Y240823D02*
D03*
X124870Y264445D02*
D03*
Y240823D02*
D03*
X116996Y264445D02*
D03*
Y240823D02*
D03*
X109122Y264445D02*
D03*
Y240823D02*
D03*
X101248Y264445D02*
D03*
Y240823D02*
D03*
X93374Y264445D02*
D03*
Y240823D02*
D03*
X85500Y264444D02*
D03*
D97*
X80976Y181019D02*
D03*
Y175019D02*
D03*
X80611Y169030D02*
D03*
X90330Y165174D02*
D03*
X89824Y171153D02*
D03*
Y177153D02*
D03*
Y183153D02*
D03*
M02*
