M48
;Layer_Color=9474304
;FILE_FORMAT=2:5
INCH,LZ
;TYPE=PLATED
T1F00S00C0.00394
T2F00S00C0.00787
T4F00S00C0.02800
T5F00S00C0.03000
T6F00S00C0.08268
;TYPE=NON_PLATED
T7F00S00C0.03346
T8F00S00C0.04016
%
T01
X00572Y00464
X0068882Y0047228
Y0048803
Y0050378
X0067307
X0065732
X00719Y00396
X00844Y0063
X00847Y00662
X00848Y00679
X00851Y00699
T02
X00392Y00253
X00504Y00274
X00434Y00464
X00289Y00474
X00589Y00507
X0061Y00397
X00665
X00689Y00381
X0072755Y0045654
X00903Y00509
X0092Y00406
X00867Y00346
X01027Y00358
X01084Y00429
X00999Y00213
X01221Y00243
X01448Y00279
X00721Y00212
X00609Y00142
X00757Y0063
X00753Y00728
X0071911Y0071711
X0073Y00755
X00752Y00844
X0084136Y0086436
X00848Y00784
X00857Y00749
X0088098Y00964
X00883Y00997
X00902Y0102
Y01046
X00826Y01173
X00798Y01198
X0095Y01214
X01137Y01349
X01187Y01369
Y01427
X01132Y01624
X01048Y01572
X01022Y01575
X00728Y01346
X00617Y01376
X00614Y01115
X00574Y00839
X01033Y00947
X01365Y00969
Y00994
X0163Y01032
X01692Y01011
X01709Y01086
X0173068Y0107032
X0179431Y0118569
X0179776Y0134224
X01684Y01313
X01639Y01268
X014185Y013995
X01709Y00912
X01685Y00871
X0179832Y0089969
X00342Y00961
X00467Y01407
X0093374Y0240823
X0101248
X0109122
X0116996
X012487
X0132744
X0140618
X0148492
X0156366
Y0264445
X0148492
X0140618
X0132744
X012487
X0116996
X0109122
X0101248
X0093374
X00855Y0264444
T04
X0080611Y016903
X0080976Y0175019
Y0181019
X0089824Y0183153
Y0177153
Y0171153
X009033Y0165174
T05
X00051Y027
X0192Y02707
T06
X00103Y00158
X01861Y00156
X00135Y01904
T07
X0071789Y00063
X00836Y00063
X0111811Y0006299
X0123622Y0006299
T08
X0005512Y0062205
Y0077205
M30
